%TF.GenerationSoftware,KiCad,Pcbnew,5.1.9-73d0e3b20d~88~ubuntu20.04.1*%
%TF.CreationDate,2021-03-27T20:59:08+01:00*%
%TF.ProjectId,calvin,63616c76-696e-42e6-9b69-6361645f7063,v1.00*%
%TF.SameCoordinates,Original*%
%TF.FileFunction,Copper,L2,Inr*%
%TF.FilePolarity,Positive*%
%FSLAX46Y46*%
G04 Gerber Fmt 4.6, Leading zero omitted, Abs format (unit mm)*
G04 Created by KiCad (PCBNEW 5.1.9-73d0e3b20d~88~ubuntu20.04.1) date 2021-03-27 20:59:08*
%MOMM*%
%LPD*%
G01*
G04 APERTURE LIST*
%TA.AperFunction,ComponentPad*%
%ADD10R,0.880000X0.880000*%
%TD*%
%TA.AperFunction,ViaPad*%
%ADD11C,0.800000*%
%TD*%
%TA.AperFunction,ViaPad*%
%ADD12C,0.600000*%
%TD*%
%TA.AperFunction,ViaPad*%
%ADD13C,0.450000*%
%TD*%
%TA.AperFunction,Conductor*%
%ADD14C,0.254000*%
%TD*%
%TA.AperFunction,Conductor*%
%ADD15C,0.100000*%
%TD*%
G04 APERTURE END LIST*
D10*
%TO.N,GND*%
%TO.C,U2*%
X156260000Y-101760000D03*
X154500000Y-98240000D03*
X155380000Y-98240000D03*
X156260000Y-98240000D03*
X156260000Y-99120000D03*
X156260000Y-100000000D03*
X154500000Y-100000000D03*
X154500000Y-101760000D03*
X155380000Y-101760000D03*
X156260000Y-100880000D03*
X152740000Y-98240000D03*
X153620000Y-101760000D03*
X152740000Y-100000000D03*
X152740000Y-100880000D03*
X152740000Y-101760000D03*
X153620000Y-98240000D03*
X152740000Y-99120000D03*
%TD*%
D11*
%TO.N,*%
X131000000Y-91000000D03*
D12*
%TO.N,+3V3*%
X158900000Y-101100000D03*
X158900000Y-98400000D03*
X158840000Y-97140000D03*
X157040000Y-95880000D03*
D11*
X134650000Y-93730000D03*
X134030000Y-94850000D03*
X134020000Y-105150000D03*
X134650000Y-106280000D03*
X131380000Y-105150000D03*
X131380000Y-94850000D03*
X151470000Y-102768600D03*
D12*
X135900000Y-103390000D03*
X156460000Y-103920000D03*
D11*
X131400000Y-100800000D03*
X131400000Y-100000000D03*
X131400000Y-99200000D03*
X134350000Y-104319994D03*
X134350000Y-95680004D03*
D12*
X138130000Y-97620000D03*
X140880000Y-102350000D03*
X150855117Y-98370010D03*
X144100000Y-103719994D03*
%TO.N,GND*%
X160640000Y-106400000D03*
X161360000Y-98100000D03*
X161360000Y-97140000D03*
X161380000Y-96170000D03*
X157040000Y-94920000D03*
X154450000Y-94920000D03*
X157270000Y-105660000D03*
D11*
X132700000Y-91850000D03*
X131350000Y-97000000D03*
X131350000Y-103000000D03*
X132700000Y-108150000D03*
X136550000Y-106280000D03*
X131380000Y-107050000D03*
X131380000Y-92950000D03*
X136550000Y-93720000D03*
D12*
X148840000Y-102770000D03*
X136860000Y-103390000D03*
X158600000Y-102790000D03*
X135910000Y-97650000D03*
X141000000Y-97630000D03*
X140100000Y-99510000D03*
X139140012Y-101540000D03*
X142710000Y-98680000D03*
X145100000Y-103730004D03*
X163550000Y-100260000D03*
X164360000Y-101040000D03*
X162330000Y-100260000D03*
X160530000Y-100200000D03*
X161360020Y-101400000D03*
D11*
X132500000Y-91000000D03*
X134000000Y-91000000D03*
X135500000Y-91000000D03*
X137000000Y-91000000D03*
X138500000Y-91000000D03*
X140000000Y-91000000D03*
X141500000Y-91000000D03*
X143000000Y-91000000D03*
X144500000Y-91000000D03*
X146000000Y-91000000D03*
X147500000Y-91000000D03*
X149000000Y-91000000D03*
X150500000Y-91000000D03*
X152000000Y-91000000D03*
X153500000Y-91000000D03*
X155000000Y-91000000D03*
X156500000Y-91000000D03*
X158000000Y-91000000D03*
X159500000Y-91000000D03*
X161000000Y-91000000D03*
X162500000Y-91000000D03*
X164000000Y-91000000D03*
X164500000Y-92000000D03*
X164500000Y-93500000D03*
X164500000Y-95000000D03*
X164500000Y-96500000D03*
X164500000Y-98000000D03*
X163500000Y-98000000D03*
X162500000Y-98000000D03*
X164000000Y-107500000D03*
X164500000Y-106500000D03*
X164500000Y-105000000D03*
X164500000Y-103500000D03*
X164500000Y-102000000D03*
X161000000Y-109000000D03*
X159500000Y-109000000D03*
X158000000Y-109000000D03*
X156500000Y-109000000D03*
X152000000Y-109000000D03*
X150500000Y-109000000D03*
X149000000Y-109000000D03*
X147500000Y-109000000D03*
X146000000Y-109000000D03*
X144500000Y-109000000D03*
X154500000Y-107000000D03*
X140000000Y-109000000D03*
X138500000Y-109000000D03*
X137000000Y-109000000D03*
X135500000Y-109000000D03*
X134000000Y-109000000D03*
X132500000Y-109000000D03*
X131000000Y-109000000D03*
X138000000Y-103500000D03*
X139000000Y-104000000D03*
X142000000Y-104500000D03*
X140500000Y-104500000D03*
X142000000Y-106000000D03*
X143000000Y-107000000D03*
X144500000Y-107500000D03*
X146000000Y-107500000D03*
X147500000Y-107500000D03*
X149000000Y-107500000D03*
X150500000Y-107500000D03*
X152000000Y-107500000D03*
X156000000Y-106000000D03*
X158000000Y-107500000D03*
X159500000Y-107500000D03*
X161000000Y-107500000D03*
X162000000Y-106000000D03*
X162000000Y-104500000D03*
X162000000Y-103000000D03*
X162500000Y-101500000D03*
X160500000Y-95000000D03*
X159500000Y-95000000D03*
X158000000Y-95000000D03*
X153500000Y-95000000D03*
X152000000Y-95000000D03*
X150500000Y-96000000D03*
X149000000Y-97000000D03*
X147500000Y-97000000D03*
X146000000Y-97000000D03*
X144500000Y-97000000D03*
X143000000Y-97000000D03*
X141500000Y-96000000D03*
X140000000Y-96000000D03*
X138500000Y-96000000D03*
X137000000Y-96500000D03*
X156500000Y-107500000D03*
X162500000Y-107500000D03*
X150500000Y-93500000D03*
X147500000Y-93500000D03*
X144500000Y-93500000D03*
X141500000Y-93500000D03*
X138500000Y-93500000D03*
X153500000Y-93500000D03*
X156500000Y-93500000D03*
X159500000Y-93500000D03*
X162500000Y-93500000D03*
X140000000Y-106500000D03*
D13*
%TO.N,dbg_reset*%
X143319996Y-103880000D03*
X152320000Y-96220000D03*
X153000008Y-96220000D03*
X143319998Y-101930000D03*
%TD*%
D14*
%TO.N,GND*%
X164873000Y-109340000D02*
X130660000Y-109340000D01*
X130660000Y-105893711D01*
X130720226Y-105953937D01*
X130889744Y-106067205D01*
X131078102Y-106145226D01*
X131278061Y-106185000D01*
X131481939Y-106185000D01*
X131681898Y-106145226D01*
X131870256Y-106067205D01*
X132039774Y-105953937D01*
X132183937Y-105809774D01*
X132297205Y-105640256D01*
X132375226Y-105451898D01*
X132415000Y-105251939D01*
X132415000Y-105048061D01*
X132985000Y-105048061D01*
X132985000Y-105251939D01*
X133024774Y-105451898D01*
X133102795Y-105640256D01*
X133216063Y-105809774D01*
X133360226Y-105953937D01*
X133529744Y-106067205D01*
X133628882Y-106108270D01*
X133615000Y-106178061D01*
X133615000Y-106381939D01*
X133654774Y-106581898D01*
X133732795Y-106770256D01*
X133846063Y-106939774D01*
X133990226Y-107083937D01*
X134159744Y-107197205D01*
X134348102Y-107275226D01*
X134548061Y-107315000D01*
X134751939Y-107315000D01*
X134951898Y-107275226D01*
X135140256Y-107197205D01*
X135309774Y-107083937D01*
X135453937Y-106939774D01*
X135567205Y-106770256D01*
X135645226Y-106581898D01*
X135685000Y-106381939D01*
X135685000Y-106178061D01*
X135645226Y-105978102D01*
X135567205Y-105789744D01*
X135453937Y-105620226D01*
X135309774Y-105476063D01*
X135140256Y-105362795D01*
X135041118Y-105321730D01*
X135055000Y-105251939D01*
X135055000Y-105078705D01*
X135153937Y-104979768D01*
X135267205Y-104810250D01*
X135345226Y-104621892D01*
X135385000Y-104421933D01*
X135385000Y-104218055D01*
X135374069Y-104163099D01*
X135457111Y-104218586D01*
X135627271Y-104289068D01*
X135807911Y-104325000D01*
X135992089Y-104325000D01*
X136172729Y-104289068D01*
X136342889Y-104218586D01*
X136496028Y-104116262D01*
X136626262Y-103986028D01*
X136728586Y-103832889D01*
X136744156Y-103795297D01*
X142459996Y-103795297D01*
X142459996Y-103964703D01*
X142493045Y-104130853D01*
X142557874Y-104287363D01*
X142651991Y-104428218D01*
X142771778Y-104548005D01*
X142912633Y-104642122D01*
X143069143Y-104706951D01*
X143235293Y-104740000D01*
X143404699Y-104740000D01*
X143570849Y-104706951D01*
X143727359Y-104642122D01*
X143786898Y-104602339D01*
X143827271Y-104619062D01*
X144007911Y-104654994D01*
X144192089Y-104654994D01*
X144372729Y-104619062D01*
X144542889Y-104548580D01*
X144696028Y-104446256D01*
X144826262Y-104316022D01*
X144928586Y-104162883D01*
X144999068Y-103992723D01*
X145031851Y-103827911D01*
X155525000Y-103827911D01*
X155525000Y-104012089D01*
X155560932Y-104192729D01*
X155631414Y-104362889D01*
X155733738Y-104516028D01*
X155863972Y-104646262D01*
X156017111Y-104748586D01*
X156187271Y-104819068D01*
X156367911Y-104855000D01*
X156552089Y-104855000D01*
X156732729Y-104819068D01*
X156902889Y-104748586D01*
X157056028Y-104646262D01*
X157186262Y-104516028D01*
X157288586Y-104362889D01*
X157359068Y-104192729D01*
X157395000Y-104012089D01*
X157395000Y-103827911D01*
X157359068Y-103647271D01*
X157288586Y-103477111D01*
X157186262Y-103323972D01*
X157056028Y-103193738D01*
X156902889Y-103091414D01*
X156732729Y-103020932D01*
X156552089Y-102985000D01*
X156367911Y-102985000D01*
X156187271Y-103020932D01*
X156017111Y-103091414D01*
X155863972Y-103193738D01*
X155733738Y-103323972D01*
X155631414Y-103477111D01*
X155560932Y-103647271D01*
X155525000Y-103827911D01*
X145031851Y-103827911D01*
X145035000Y-103812083D01*
X145035000Y-103627905D01*
X144999068Y-103447265D01*
X144928586Y-103277105D01*
X144826262Y-103123966D01*
X144696028Y-102993732D01*
X144542889Y-102891408D01*
X144372729Y-102820926D01*
X144192089Y-102784994D01*
X144007911Y-102784994D01*
X143827271Y-102820926D01*
X143657111Y-102891408D01*
X143503972Y-102993732D01*
X143465592Y-103032112D01*
X143404699Y-103020000D01*
X143235293Y-103020000D01*
X143069143Y-103053049D01*
X142912633Y-103117878D01*
X142771778Y-103211995D01*
X142651991Y-103331782D01*
X142557874Y-103472637D01*
X142493045Y-103629147D01*
X142459996Y-103795297D01*
X136744156Y-103795297D01*
X136799068Y-103662729D01*
X136835000Y-103482089D01*
X136835000Y-103297911D01*
X136799068Y-103117271D01*
X136728586Y-102947111D01*
X136626262Y-102793972D01*
X136496028Y-102663738D01*
X136342889Y-102561414D01*
X136172729Y-102490932D01*
X135992089Y-102455000D01*
X135807911Y-102455000D01*
X135627271Y-102490932D01*
X135457111Y-102561414D01*
X135303972Y-102663738D01*
X135173738Y-102793972D01*
X135071414Y-102947111D01*
X135000932Y-103117271D01*
X134965000Y-103297911D01*
X134965000Y-103482089D01*
X134965929Y-103486761D01*
X134840256Y-103402789D01*
X134651898Y-103324768D01*
X134451939Y-103284994D01*
X134248061Y-103284994D01*
X134048102Y-103324768D01*
X133859744Y-103402789D01*
X133690226Y-103516057D01*
X133546063Y-103660220D01*
X133432795Y-103829738D01*
X133354774Y-104018096D01*
X133315000Y-104218055D01*
X133315000Y-104391289D01*
X133216063Y-104490226D01*
X133102795Y-104659744D01*
X133024774Y-104848102D01*
X132985000Y-105048061D01*
X132415000Y-105048061D01*
X132375226Y-104848102D01*
X132297205Y-104659744D01*
X132183937Y-104490226D01*
X132039774Y-104346063D01*
X131870256Y-104232795D01*
X131681898Y-104154774D01*
X131481939Y-104115000D01*
X131278061Y-104115000D01*
X131078102Y-104154774D01*
X130889744Y-104232795D01*
X130720226Y-104346063D01*
X130660000Y-104406289D01*
X130660000Y-102257911D01*
X139945000Y-102257911D01*
X139945000Y-102442089D01*
X139980932Y-102622729D01*
X140051414Y-102792889D01*
X140153738Y-102946028D01*
X140283972Y-103076262D01*
X140437111Y-103178586D01*
X140607271Y-103249068D01*
X140787911Y-103285000D01*
X140972089Y-103285000D01*
X141152729Y-103249068D01*
X141322889Y-103178586D01*
X141476028Y-103076262D01*
X141606262Y-102946028D01*
X141708586Y-102792889D01*
X141779068Y-102622729D01*
X141815000Y-102442089D01*
X141815000Y-102257911D01*
X141779068Y-102077271D01*
X141708586Y-101907111D01*
X141667284Y-101845297D01*
X142459998Y-101845297D01*
X142459998Y-102014703D01*
X142493047Y-102180853D01*
X142557876Y-102337363D01*
X142651993Y-102478218D01*
X142771780Y-102598005D01*
X142912635Y-102692122D01*
X143069145Y-102756951D01*
X143235295Y-102790000D01*
X143404701Y-102790000D01*
X143570851Y-102756951D01*
X143727361Y-102692122D01*
X143765465Y-102666661D01*
X150435000Y-102666661D01*
X150435000Y-102870539D01*
X150474774Y-103070498D01*
X150552795Y-103258856D01*
X150666063Y-103428374D01*
X150810226Y-103572537D01*
X150979744Y-103685805D01*
X151168102Y-103763826D01*
X151368061Y-103803600D01*
X151571939Y-103803600D01*
X151771898Y-103763826D01*
X151960256Y-103685805D01*
X152129774Y-103572537D01*
X152273937Y-103428374D01*
X152387205Y-103258856D01*
X152465226Y-103070498D01*
X152505000Y-102870539D01*
X152505000Y-102666661D01*
X152465226Y-102466702D01*
X152387205Y-102278344D01*
X152273937Y-102108826D01*
X152129774Y-101964663D01*
X151960256Y-101851395D01*
X151771898Y-101773374D01*
X151571939Y-101733600D01*
X151368061Y-101733600D01*
X151168102Y-101773374D01*
X150979744Y-101851395D01*
X150810226Y-101964663D01*
X150666063Y-102108826D01*
X150552795Y-102278344D01*
X150474774Y-102466702D01*
X150435000Y-102666661D01*
X143765465Y-102666661D01*
X143868216Y-102598005D01*
X143988003Y-102478218D01*
X144082120Y-102337363D01*
X144146949Y-102180853D01*
X144179998Y-102014703D01*
X144179998Y-101845297D01*
X144146949Y-101679147D01*
X144082120Y-101522637D01*
X143988003Y-101381782D01*
X143868216Y-101261995D01*
X143727361Y-101167878D01*
X143570851Y-101103049D01*
X143404701Y-101070000D01*
X143235295Y-101070000D01*
X143069145Y-101103049D01*
X142912635Y-101167878D01*
X142771780Y-101261995D01*
X142651993Y-101381782D01*
X142557876Y-101522637D01*
X142493047Y-101679147D01*
X142459998Y-101845297D01*
X141667284Y-101845297D01*
X141606262Y-101753972D01*
X141476028Y-101623738D01*
X141322889Y-101521414D01*
X141152729Y-101450932D01*
X140972089Y-101415000D01*
X140787911Y-101415000D01*
X140607271Y-101450932D01*
X140437111Y-101521414D01*
X140283972Y-101623738D01*
X140153738Y-101753972D01*
X140051414Y-101907111D01*
X139980932Y-102077271D01*
X139945000Y-102257911D01*
X130660000Y-102257911D01*
X130660000Y-101523711D01*
X130740226Y-101603937D01*
X130909744Y-101717205D01*
X131098102Y-101795226D01*
X131298061Y-101835000D01*
X131501939Y-101835000D01*
X131701898Y-101795226D01*
X131890256Y-101717205D01*
X132059774Y-101603937D01*
X132203937Y-101459774D01*
X132317205Y-101290256D01*
X132395226Y-101101898D01*
X132413921Y-101007911D01*
X157965000Y-101007911D01*
X157965000Y-101192089D01*
X158000932Y-101372729D01*
X158071414Y-101542889D01*
X158173738Y-101696028D01*
X158303972Y-101826262D01*
X158457111Y-101928586D01*
X158627271Y-101999068D01*
X158807911Y-102035000D01*
X158992089Y-102035000D01*
X159172729Y-101999068D01*
X159342889Y-101928586D01*
X159496028Y-101826262D01*
X159626262Y-101696028D01*
X159728586Y-101542889D01*
X159799068Y-101372729D01*
X159835000Y-101192089D01*
X159835000Y-101007911D01*
X159799068Y-100827271D01*
X159728586Y-100657111D01*
X159626262Y-100503972D01*
X159496028Y-100373738D01*
X159342889Y-100271414D01*
X159172729Y-100200932D01*
X158992089Y-100165000D01*
X158807911Y-100165000D01*
X158627271Y-100200932D01*
X158457111Y-100271414D01*
X158303972Y-100373738D01*
X158173738Y-100503972D01*
X158071414Y-100657111D01*
X158000932Y-100827271D01*
X157965000Y-101007911D01*
X132413921Y-101007911D01*
X132435000Y-100901939D01*
X132435000Y-100698061D01*
X132395226Y-100498102D01*
X132354591Y-100400000D01*
X132395226Y-100301898D01*
X132435000Y-100101939D01*
X132435000Y-99898061D01*
X132395226Y-99698102D01*
X132354591Y-99600000D01*
X132395226Y-99501898D01*
X132435000Y-99301939D01*
X132435000Y-99098061D01*
X132395226Y-98898102D01*
X132317205Y-98709744D01*
X132203937Y-98540226D01*
X132059774Y-98396063D01*
X131890256Y-98282795D01*
X131701898Y-98204774D01*
X131501939Y-98165000D01*
X131298061Y-98165000D01*
X131098102Y-98204774D01*
X130909744Y-98282795D01*
X130740226Y-98396063D01*
X130660000Y-98476289D01*
X130660000Y-97527911D01*
X137195000Y-97527911D01*
X137195000Y-97712089D01*
X137230932Y-97892729D01*
X137301414Y-98062889D01*
X137403738Y-98216028D01*
X137533972Y-98346262D01*
X137687111Y-98448586D01*
X137857271Y-98519068D01*
X138037911Y-98555000D01*
X138222089Y-98555000D01*
X138402729Y-98519068D01*
X138572889Y-98448586D01*
X138726028Y-98346262D01*
X138794369Y-98277921D01*
X149920117Y-98277921D01*
X149920117Y-98462099D01*
X149956049Y-98642739D01*
X150026531Y-98812899D01*
X150128855Y-98966038D01*
X150259089Y-99096272D01*
X150412228Y-99198596D01*
X150582388Y-99269078D01*
X150763028Y-99305010D01*
X150947206Y-99305010D01*
X151127846Y-99269078D01*
X151298006Y-99198596D01*
X151451145Y-99096272D01*
X151581379Y-98966038D01*
X151683703Y-98812899D01*
X151754185Y-98642739D01*
X151790117Y-98462099D01*
X151790117Y-98277921D01*
X151754185Y-98097281D01*
X151683703Y-97927121D01*
X151581379Y-97773982D01*
X151451145Y-97643748D01*
X151298006Y-97541424D01*
X151127846Y-97470942D01*
X150947206Y-97435010D01*
X150763028Y-97435010D01*
X150582388Y-97470942D01*
X150412228Y-97541424D01*
X150259089Y-97643748D01*
X150128855Y-97773982D01*
X150026531Y-97927121D01*
X149956049Y-98097281D01*
X149920117Y-98277921D01*
X138794369Y-98277921D01*
X138856262Y-98216028D01*
X138958586Y-98062889D01*
X139029068Y-97892729D01*
X139065000Y-97712089D01*
X139065000Y-97527911D01*
X139029068Y-97347271D01*
X138958586Y-97177111D01*
X138856262Y-97023972D01*
X138726028Y-96893738D01*
X138572889Y-96791414D01*
X138402729Y-96720932D01*
X138222089Y-96685000D01*
X138037911Y-96685000D01*
X137857271Y-96720932D01*
X137687111Y-96791414D01*
X137533972Y-96893738D01*
X137403738Y-97023972D01*
X137301414Y-97177111D01*
X137230932Y-97347271D01*
X137195000Y-97527911D01*
X130660000Y-97527911D01*
X130660000Y-95593711D01*
X130720226Y-95653937D01*
X130889744Y-95767205D01*
X131078102Y-95845226D01*
X131278061Y-95885000D01*
X131481939Y-95885000D01*
X131681898Y-95845226D01*
X131870256Y-95767205D01*
X132039774Y-95653937D01*
X132183937Y-95509774D01*
X132297205Y-95340256D01*
X132375226Y-95151898D01*
X132415000Y-94951939D01*
X132415000Y-94748061D01*
X132995000Y-94748061D01*
X132995000Y-94951939D01*
X133034774Y-95151898D01*
X133112795Y-95340256D01*
X133226063Y-95509774D01*
X133315000Y-95598711D01*
X133315000Y-95781943D01*
X133354774Y-95981902D01*
X133432795Y-96170260D01*
X133546063Y-96339778D01*
X133690226Y-96483941D01*
X133859744Y-96597209D01*
X134048102Y-96675230D01*
X134248061Y-96715004D01*
X134451939Y-96715004D01*
X134651898Y-96675230D01*
X134840256Y-96597209D01*
X135009774Y-96483941D01*
X135153937Y-96339778D01*
X135267205Y-96170260D01*
X135281687Y-96135297D01*
X151460000Y-96135297D01*
X151460000Y-96304703D01*
X151493049Y-96470853D01*
X151557878Y-96627363D01*
X151651995Y-96768218D01*
X151771782Y-96888005D01*
X151912637Y-96982122D01*
X152069147Y-97046951D01*
X152235297Y-97080000D01*
X152404703Y-97080000D01*
X152570853Y-97046951D01*
X152660004Y-97010023D01*
X152749155Y-97046951D01*
X152915305Y-97080000D01*
X153084711Y-97080000D01*
X153246034Y-97047911D01*
X157905000Y-97047911D01*
X157905000Y-97232089D01*
X157940932Y-97412729D01*
X158011414Y-97582889D01*
X158113738Y-97736028D01*
X158177710Y-97800000D01*
X158173738Y-97803972D01*
X158071414Y-97957111D01*
X158000932Y-98127271D01*
X157965000Y-98307911D01*
X157965000Y-98492089D01*
X158000932Y-98672729D01*
X158071414Y-98842889D01*
X158173738Y-98996028D01*
X158303972Y-99126262D01*
X158457111Y-99228586D01*
X158627271Y-99299068D01*
X158807911Y-99335000D01*
X158992089Y-99335000D01*
X159172729Y-99299068D01*
X159342889Y-99228586D01*
X159496028Y-99126262D01*
X159626262Y-98996028D01*
X159728586Y-98842889D01*
X159799068Y-98672729D01*
X159835000Y-98492089D01*
X159835000Y-98307911D01*
X159799068Y-98127271D01*
X159728586Y-97957111D01*
X159626262Y-97803972D01*
X159562290Y-97740000D01*
X159566262Y-97736028D01*
X159668586Y-97582889D01*
X159739068Y-97412729D01*
X159775000Y-97232089D01*
X159775000Y-97047911D01*
X159739068Y-96867271D01*
X159668586Y-96697111D01*
X159566262Y-96543972D01*
X159436028Y-96413738D01*
X159282889Y-96311414D01*
X159112729Y-96240932D01*
X158932089Y-96205000D01*
X158747911Y-96205000D01*
X158567271Y-96240932D01*
X158397111Y-96311414D01*
X158243972Y-96413738D01*
X158113738Y-96543972D01*
X158011414Y-96697111D01*
X157940932Y-96867271D01*
X157905000Y-97047911D01*
X153246034Y-97047911D01*
X153250861Y-97046951D01*
X153407371Y-96982122D01*
X153548226Y-96888005D01*
X153668013Y-96768218D01*
X153762130Y-96627363D01*
X153826959Y-96470853D01*
X153860008Y-96304703D01*
X153860008Y-96135297D01*
X153826959Y-95969147D01*
X153762130Y-95812637D01*
X153745609Y-95787911D01*
X156105000Y-95787911D01*
X156105000Y-95972089D01*
X156140932Y-96152729D01*
X156211414Y-96322889D01*
X156313738Y-96476028D01*
X156443972Y-96606262D01*
X156597111Y-96708586D01*
X156767271Y-96779068D01*
X156947911Y-96815000D01*
X157132089Y-96815000D01*
X157312729Y-96779068D01*
X157482889Y-96708586D01*
X157636028Y-96606262D01*
X157766262Y-96476028D01*
X157868586Y-96322889D01*
X157939068Y-96152729D01*
X157975000Y-95972089D01*
X157975000Y-95787911D01*
X157939068Y-95607271D01*
X157868586Y-95437111D01*
X157766262Y-95283972D01*
X157636028Y-95153738D01*
X157482889Y-95051414D01*
X157312729Y-94980932D01*
X157132089Y-94945000D01*
X156947911Y-94945000D01*
X156767271Y-94980932D01*
X156597111Y-95051414D01*
X156443972Y-95153738D01*
X156313738Y-95283972D01*
X156211414Y-95437111D01*
X156140932Y-95607271D01*
X156105000Y-95787911D01*
X153745609Y-95787911D01*
X153668013Y-95671782D01*
X153548226Y-95551995D01*
X153407371Y-95457878D01*
X153250861Y-95393049D01*
X153084711Y-95360000D01*
X152915305Y-95360000D01*
X152749155Y-95393049D01*
X152660004Y-95429977D01*
X152570853Y-95393049D01*
X152404703Y-95360000D01*
X152235297Y-95360000D01*
X152069147Y-95393049D01*
X151912637Y-95457878D01*
X151771782Y-95551995D01*
X151651995Y-95671782D01*
X151557878Y-95812637D01*
X151493049Y-95969147D01*
X151460000Y-96135297D01*
X135281687Y-96135297D01*
X135345226Y-95981902D01*
X135385000Y-95781943D01*
X135385000Y-95578065D01*
X135345226Y-95378106D01*
X135267205Y-95189748D01*
X135153937Y-95020230D01*
X135065000Y-94931293D01*
X135065000Y-94748061D01*
X135052194Y-94683682D01*
X135140256Y-94647205D01*
X135309774Y-94533937D01*
X135453937Y-94389774D01*
X135567205Y-94220256D01*
X135645226Y-94031898D01*
X135685000Y-93831939D01*
X135685000Y-93628061D01*
X135645226Y-93428102D01*
X135567205Y-93239744D01*
X135453937Y-93070226D01*
X135309774Y-92926063D01*
X135140256Y-92812795D01*
X134951898Y-92734774D01*
X134751939Y-92695000D01*
X134548061Y-92695000D01*
X134348102Y-92734774D01*
X134159744Y-92812795D01*
X133990226Y-92926063D01*
X133846063Y-93070226D01*
X133732795Y-93239744D01*
X133654774Y-93428102D01*
X133615000Y-93628061D01*
X133615000Y-93831939D01*
X133627806Y-93896318D01*
X133539744Y-93932795D01*
X133370226Y-94046063D01*
X133226063Y-94190226D01*
X133112795Y-94359744D01*
X133034774Y-94548102D01*
X132995000Y-94748061D01*
X132415000Y-94748061D01*
X132375226Y-94548102D01*
X132297205Y-94359744D01*
X132183937Y-94190226D01*
X132039774Y-94046063D01*
X131870256Y-93932795D01*
X131681898Y-93854774D01*
X131481939Y-93815000D01*
X131278061Y-93815000D01*
X131078102Y-93854774D01*
X130889744Y-93932795D01*
X130720226Y-94046063D01*
X130660000Y-94106289D01*
X130660000Y-91979444D01*
X130698102Y-91995226D01*
X130898061Y-92035000D01*
X131101939Y-92035000D01*
X131301898Y-91995226D01*
X131490256Y-91917205D01*
X131659774Y-91803937D01*
X131803937Y-91659774D01*
X131917205Y-91490256D01*
X131995226Y-91301898D01*
X132035000Y-91101939D01*
X132035000Y-90898061D01*
X131995226Y-90698102D01*
X131979444Y-90660000D01*
X164873000Y-90660000D01*
X164873000Y-109340000D01*
%TA.AperFunction,Conductor*%
D15*
G36*
X164873000Y-109340000D02*
G01*
X130660000Y-109340000D01*
X130660000Y-105893711D01*
X130720226Y-105953937D01*
X130889744Y-106067205D01*
X131078102Y-106145226D01*
X131278061Y-106185000D01*
X131481939Y-106185000D01*
X131681898Y-106145226D01*
X131870256Y-106067205D01*
X132039774Y-105953937D01*
X132183937Y-105809774D01*
X132297205Y-105640256D01*
X132375226Y-105451898D01*
X132415000Y-105251939D01*
X132415000Y-105048061D01*
X132985000Y-105048061D01*
X132985000Y-105251939D01*
X133024774Y-105451898D01*
X133102795Y-105640256D01*
X133216063Y-105809774D01*
X133360226Y-105953937D01*
X133529744Y-106067205D01*
X133628882Y-106108270D01*
X133615000Y-106178061D01*
X133615000Y-106381939D01*
X133654774Y-106581898D01*
X133732795Y-106770256D01*
X133846063Y-106939774D01*
X133990226Y-107083937D01*
X134159744Y-107197205D01*
X134348102Y-107275226D01*
X134548061Y-107315000D01*
X134751939Y-107315000D01*
X134951898Y-107275226D01*
X135140256Y-107197205D01*
X135309774Y-107083937D01*
X135453937Y-106939774D01*
X135567205Y-106770256D01*
X135645226Y-106581898D01*
X135685000Y-106381939D01*
X135685000Y-106178061D01*
X135645226Y-105978102D01*
X135567205Y-105789744D01*
X135453937Y-105620226D01*
X135309774Y-105476063D01*
X135140256Y-105362795D01*
X135041118Y-105321730D01*
X135055000Y-105251939D01*
X135055000Y-105078705D01*
X135153937Y-104979768D01*
X135267205Y-104810250D01*
X135345226Y-104621892D01*
X135385000Y-104421933D01*
X135385000Y-104218055D01*
X135374069Y-104163099D01*
X135457111Y-104218586D01*
X135627271Y-104289068D01*
X135807911Y-104325000D01*
X135992089Y-104325000D01*
X136172729Y-104289068D01*
X136342889Y-104218586D01*
X136496028Y-104116262D01*
X136626262Y-103986028D01*
X136728586Y-103832889D01*
X136744156Y-103795297D01*
X142459996Y-103795297D01*
X142459996Y-103964703D01*
X142493045Y-104130853D01*
X142557874Y-104287363D01*
X142651991Y-104428218D01*
X142771778Y-104548005D01*
X142912633Y-104642122D01*
X143069143Y-104706951D01*
X143235293Y-104740000D01*
X143404699Y-104740000D01*
X143570849Y-104706951D01*
X143727359Y-104642122D01*
X143786898Y-104602339D01*
X143827271Y-104619062D01*
X144007911Y-104654994D01*
X144192089Y-104654994D01*
X144372729Y-104619062D01*
X144542889Y-104548580D01*
X144696028Y-104446256D01*
X144826262Y-104316022D01*
X144928586Y-104162883D01*
X144999068Y-103992723D01*
X145031851Y-103827911D01*
X155525000Y-103827911D01*
X155525000Y-104012089D01*
X155560932Y-104192729D01*
X155631414Y-104362889D01*
X155733738Y-104516028D01*
X155863972Y-104646262D01*
X156017111Y-104748586D01*
X156187271Y-104819068D01*
X156367911Y-104855000D01*
X156552089Y-104855000D01*
X156732729Y-104819068D01*
X156902889Y-104748586D01*
X157056028Y-104646262D01*
X157186262Y-104516028D01*
X157288586Y-104362889D01*
X157359068Y-104192729D01*
X157395000Y-104012089D01*
X157395000Y-103827911D01*
X157359068Y-103647271D01*
X157288586Y-103477111D01*
X157186262Y-103323972D01*
X157056028Y-103193738D01*
X156902889Y-103091414D01*
X156732729Y-103020932D01*
X156552089Y-102985000D01*
X156367911Y-102985000D01*
X156187271Y-103020932D01*
X156017111Y-103091414D01*
X155863972Y-103193738D01*
X155733738Y-103323972D01*
X155631414Y-103477111D01*
X155560932Y-103647271D01*
X155525000Y-103827911D01*
X145031851Y-103827911D01*
X145035000Y-103812083D01*
X145035000Y-103627905D01*
X144999068Y-103447265D01*
X144928586Y-103277105D01*
X144826262Y-103123966D01*
X144696028Y-102993732D01*
X144542889Y-102891408D01*
X144372729Y-102820926D01*
X144192089Y-102784994D01*
X144007911Y-102784994D01*
X143827271Y-102820926D01*
X143657111Y-102891408D01*
X143503972Y-102993732D01*
X143465592Y-103032112D01*
X143404699Y-103020000D01*
X143235293Y-103020000D01*
X143069143Y-103053049D01*
X142912633Y-103117878D01*
X142771778Y-103211995D01*
X142651991Y-103331782D01*
X142557874Y-103472637D01*
X142493045Y-103629147D01*
X142459996Y-103795297D01*
X136744156Y-103795297D01*
X136799068Y-103662729D01*
X136835000Y-103482089D01*
X136835000Y-103297911D01*
X136799068Y-103117271D01*
X136728586Y-102947111D01*
X136626262Y-102793972D01*
X136496028Y-102663738D01*
X136342889Y-102561414D01*
X136172729Y-102490932D01*
X135992089Y-102455000D01*
X135807911Y-102455000D01*
X135627271Y-102490932D01*
X135457111Y-102561414D01*
X135303972Y-102663738D01*
X135173738Y-102793972D01*
X135071414Y-102947111D01*
X135000932Y-103117271D01*
X134965000Y-103297911D01*
X134965000Y-103482089D01*
X134965929Y-103486761D01*
X134840256Y-103402789D01*
X134651898Y-103324768D01*
X134451939Y-103284994D01*
X134248061Y-103284994D01*
X134048102Y-103324768D01*
X133859744Y-103402789D01*
X133690226Y-103516057D01*
X133546063Y-103660220D01*
X133432795Y-103829738D01*
X133354774Y-104018096D01*
X133315000Y-104218055D01*
X133315000Y-104391289D01*
X133216063Y-104490226D01*
X133102795Y-104659744D01*
X133024774Y-104848102D01*
X132985000Y-105048061D01*
X132415000Y-105048061D01*
X132375226Y-104848102D01*
X132297205Y-104659744D01*
X132183937Y-104490226D01*
X132039774Y-104346063D01*
X131870256Y-104232795D01*
X131681898Y-104154774D01*
X131481939Y-104115000D01*
X131278061Y-104115000D01*
X131078102Y-104154774D01*
X130889744Y-104232795D01*
X130720226Y-104346063D01*
X130660000Y-104406289D01*
X130660000Y-102257911D01*
X139945000Y-102257911D01*
X139945000Y-102442089D01*
X139980932Y-102622729D01*
X140051414Y-102792889D01*
X140153738Y-102946028D01*
X140283972Y-103076262D01*
X140437111Y-103178586D01*
X140607271Y-103249068D01*
X140787911Y-103285000D01*
X140972089Y-103285000D01*
X141152729Y-103249068D01*
X141322889Y-103178586D01*
X141476028Y-103076262D01*
X141606262Y-102946028D01*
X141708586Y-102792889D01*
X141779068Y-102622729D01*
X141815000Y-102442089D01*
X141815000Y-102257911D01*
X141779068Y-102077271D01*
X141708586Y-101907111D01*
X141667284Y-101845297D01*
X142459998Y-101845297D01*
X142459998Y-102014703D01*
X142493047Y-102180853D01*
X142557876Y-102337363D01*
X142651993Y-102478218D01*
X142771780Y-102598005D01*
X142912635Y-102692122D01*
X143069145Y-102756951D01*
X143235295Y-102790000D01*
X143404701Y-102790000D01*
X143570851Y-102756951D01*
X143727361Y-102692122D01*
X143765465Y-102666661D01*
X150435000Y-102666661D01*
X150435000Y-102870539D01*
X150474774Y-103070498D01*
X150552795Y-103258856D01*
X150666063Y-103428374D01*
X150810226Y-103572537D01*
X150979744Y-103685805D01*
X151168102Y-103763826D01*
X151368061Y-103803600D01*
X151571939Y-103803600D01*
X151771898Y-103763826D01*
X151960256Y-103685805D01*
X152129774Y-103572537D01*
X152273937Y-103428374D01*
X152387205Y-103258856D01*
X152465226Y-103070498D01*
X152505000Y-102870539D01*
X152505000Y-102666661D01*
X152465226Y-102466702D01*
X152387205Y-102278344D01*
X152273937Y-102108826D01*
X152129774Y-101964663D01*
X151960256Y-101851395D01*
X151771898Y-101773374D01*
X151571939Y-101733600D01*
X151368061Y-101733600D01*
X151168102Y-101773374D01*
X150979744Y-101851395D01*
X150810226Y-101964663D01*
X150666063Y-102108826D01*
X150552795Y-102278344D01*
X150474774Y-102466702D01*
X150435000Y-102666661D01*
X143765465Y-102666661D01*
X143868216Y-102598005D01*
X143988003Y-102478218D01*
X144082120Y-102337363D01*
X144146949Y-102180853D01*
X144179998Y-102014703D01*
X144179998Y-101845297D01*
X144146949Y-101679147D01*
X144082120Y-101522637D01*
X143988003Y-101381782D01*
X143868216Y-101261995D01*
X143727361Y-101167878D01*
X143570851Y-101103049D01*
X143404701Y-101070000D01*
X143235295Y-101070000D01*
X143069145Y-101103049D01*
X142912635Y-101167878D01*
X142771780Y-101261995D01*
X142651993Y-101381782D01*
X142557876Y-101522637D01*
X142493047Y-101679147D01*
X142459998Y-101845297D01*
X141667284Y-101845297D01*
X141606262Y-101753972D01*
X141476028Y-101623738D01*
X141322889Y-101521414D01*
X141152729Y-101450932D01*
X140972089Y-101415000D01*
X140787911Y-101415000D01*
X140607271Y-101450932D01*
X140437111Y-101521414D01*
X140283972Y-101623738D01*
X140153738Y-101753972D01*
X140051414Y-101907111D01*
X139980932Y-102077271D01*
X139945000Y-102257911D01*
X130660000Y-102257911D01*
X130660000Y-101523711D01*
X130740226Y-101603937D01*
X130909744Y-101717205D01*
X131098102Y-101795226D01*
X131298061Y-101835000D01*
X131501939Y-101835000D01*
X131701898Y-101795226D01*
X131890256Y-101717205D01*
X132059774Y-101603937D01*
X132203937Y-101459774D01*
X132317205Y-101290256D01*
X132395226Y-101101898D01*
X132413921Y-101007911D01*
X157965000Y-101007911D01*
X157965000Y-101192089D01*
X158000932Y-101372729D01*
X158071414Y-101542889D01*
X158173738Y-101696028D01*
X158303972Y-101826262D01*
X158457111Y-101928586D01*
X158627271Y-101999068D01*
X158807911Y-102035000D01*
X158992089Y-102035000D01*
X159172729Y-101999068D01*
X159342889Y-101928586D01*
X159496028Y-101826262D01*
X159626262Y-101696028D01*
X159728586Y-101542889D01*
X159799068Y-101372729D01*
X159835000Y-101192089D01*
X159835000Y-101007911D01*
X159799068Y-100827271D01*
X159728586Y-100657111D01*
X159626262Y-100503972D01*
X159496028Y-100373738D01*
X159342889Y-100271414D01*
X159172729Y-100200932D01*
X158992089Y-100165000D01*
X158807911Y-100165000D01*
X158627271Y-100200932D01*
X158457111Y-100271414D01*
X158303972Y-100373738D01*
X158173738Y-100503972D01*
X158071414Y-100657111D01*
X158000932Y-100827271D01*
X157965000Y-101007911D01*
X132413921Y-101007911D01*
X132435000Y-100901939D01*
X132435000Y-100698061D01*
X132395226Y-100498102D01*
X132354591Y-100400000D01*
X132395226Y-100301898D01*
X132435000Y-100101939D01*
X132435000Y-99898061D01*
X132395226Y-99698102D01*
X132354591Y-99600000D01*
X132395226Y-99501898D01*
X132435000Y-99301939D01*
X132435000Y-99098061D01*
X132395226Y-98898102D01*
X132317205Y-98709744D01*
X132203937Y-98540226D01*
X132059774Y-98396063D01*
X131890256Y-98282795D01*
X131701898Y-98204774D01*
X131501939Y-98165000D01*
X131298061Y-98165000D01*
X131098102Y-98204774D01*
X130909744Y-98282795D01*
X130740226Y-98396063D01*
X130660000Y-98476289D01*
X130660000Y-97527911D01*
X137195000Y-97527911D01*
X137195000Y-97712089D01*
X137230932Y-97892729D01*
X137301414Y-98062889D01*
X137403738Y-98216028D01*
X137533972Y-98346262D01*
X137687111Y-98448586D01*
X137857271Y-98519068D01*
X138037911Y-98555000D01*
X138222089Y-98555000D01*
X138402729Y-98519068D01*
X138572889Y-98448586D01*
X138726028Y-98346262D01*
X138794369Y-98277921D01*
X149920117Y-98277921D01*
X149920117Y-98462099D01*
X149956049Y-98642739D01*
X150026531Y-98812899D01*
X150128855Y-98966038D01*
X150259089Y-99096272D01*
X150412228Y-99198596D01*
X150582388Y-99269078D01*
X150763028Y-99305010D01*
X150947206Y-99305010D01*
X151127846Y-99269078D01*
X151298006Y-99198596D01*
X151451145Y-99096272D01*
X151581379Y-98966038D01*
X151683703Y-98812899D01*
X151754185Y-98642739D01*
X151790117Y-98462099D01*
X151790117Y-98277921D01*
X151754185Y-98097281D01*
X151683703Y-97927121D01*
X151581379Y-97773982D01*
X151451145Y-97643748D01*
X151298006Y-97541424D01*
X151127846Y-97470942D01*
X150947206Y-97435010D01*
X150763028Y-97435010D01*
X150582388Y-97470942D01*
X150412228Y-97541424D01*
X150259089Y-97643748D01*
X150128855Y-97773982D01*
X150026531Y-97927121D01*
X149956049Y-98097281D01*
X149920117Y-98277921D01*
X138794369Y-98277921D01*
X138856262Y-98216028D01*
X138958586Y-98062889D01*
X139029068Y-97892729D01*
X139065000Y-97712089D01*
X139065000Y-97527911D01*
X139029068Y-97347271D01*
X138958586Y-97177111D01*
X138856262Y-97023972D01*
X138726028Y-96893738D01*
X138572889Y-96791414D01*
X138402729Y-96720932D01*
X138222089Y-96685000D01*
X138037911Y-96685000D01*
X137857271Y-96720932D01*
X137687111Y-96791414D01*
X137533972Y-96893738D01*
X137403738Y-97023972D01*
X137301414Y-97177111D01*
X137230932Y-97347271D01*
X137195000Y-97527911D01*
X130660000Y-97527911D01*
X130660000Y-95593711D01*
X130720226Y-95653937D01*
X130889744Y-95767205D01*
X131078102Y-95845226D01*
X131278061Y-95885000D01*
X131481939Y-95885000D01*
X131681898Y-95845226D01*
X131870256Y-95767205D01*
X132039774Y-95653937D01*
X132183937Y-95509774D01*
X132297205Y-95340256D01*
X132375226Y-95151898D01*
X132415000Y-94951939D01*
X132415000Y-94748061D01*
X132995000Y-94748061D01*
X132995000Y-94951939D01*
X133034774Y-95151898D01*
X133112795Y-95340256D01*
X133226063Y-95509774D01*
X133315000Y-95598711D01*
X133315000Y-95781943D01*
X133354774Y-95981902D01*
X133432795Y-96170260D01*
X133546063Y-96339778D01*
X133690226Y-96483941D01*
X133859744Y-96597209D01*
X134048102Y-96675230D01*
X134248061Y-96715004D01*
X134451939Y-96715004D01*
X134651898Y-96675230D01*
X134840256Y-96597209D01*
X135009774Y-96483941D01*
X135153937Y-96339778D01*
X135267205Y-96170260D01*
X135281687Y-96135297D01*
X151460000Y-96135297D01*
X151460000Y-96304703D01*
X151493049Y-96470853D01*
X151557878Y-96627363D01*
X151651995Y-96768218D01*
X151771782Y-96888005D01*
X151912637Y-96982122D01*
X152069147Y-97046951D01*
X152235297Y-97080000D01*
X152404703Y-97080000D01*
X152570853Y-97046951D01*
X152660004Y-97010023D01*
X152749155Y-97046951D01*
X152915305Y-97080000D01*
X153084711Y-97080000D01*
X153246034Y-97047911D01*
X157905000Y-97047911D01*
X157905000Y-97232089D01*
X157940932Y-97412729D01*
X158011414Y-97582889D01*
X158113738Y-97736028D01*
X158177710Y-97800000D01*
X158173738Y-97803972D01*
X158071414Y-97957111D01*
X158000932Y-98127271D01*
X157965000Y-98307911D01*
X157965000Y-98492089D01*
X158000932Y-98672729D01*
X158071414Y-98842889D01*
X158173738Y-98996028D01*
X158303972Y-99126262D01*
X158457111Y-99228586D01*
X158627271Y-99299068D01*
X158807911Y-99335000D01*
X158992089Y-99335000D01*
X159172729Y-99299068D01*
X159342889Y-99228586D01*
X159496028Y-99126262D01*
X159626262Y-98996028D01*
X159728586Y-98842889D01*
X159799068Y-98672729D01*
X159835000Y-98492089D01*
X159835000Y-98307911D01*
X159799068Y-98127271D01*
X159728586Y-97957111D01*
X159626262Y-97803972D01*
X159562290Y-97740000D01*
X159566262Y-97736028D01*
X159668586Y-97582889D01*
X159739068Y-97412729D01*
X159775000Y-97232089D01*
X159775000Y-97047911D01*
X159739068Y-96867271D01*
X159668586Y-96697111D01*
X159566262Y-96543972D01*
X159436028Y-96413738D01*
X159282889Y-96311414D01*
X159112729Y-96240932D01*
X158932089Y-96205000D01*
X158747911Y-96205000D01*
X158567271Y-96240932D01*
X158397111Y-96311414D01*
X158243972Y-96413738D01*
X158113738Y-96543972D01*
X158011414Y-96697111D01*
X157940932Y-96867271D01*
X157905000Y-97047911D01*
X153246034Y-97047911D01*
X153250861Y-97046951D01*
X153407371Y-96982122D01*
X153548226Y-96888005D01*
X153668013Y-96768218D01*
X153762130Y-96627363D01*
X153826959Y-96470853D01*
X153860008Y-96304703D01*
X153860008Y-96135297D01*
X153826959Y-95969147D01*
X153762130Y-95812637D01*
X153745609Y-95787911D01*
X156105000Y-95787911D01*
X156105000Y-95972089D01*
X156140932Y-96152729D01*
X156211414Y-96322889D01*
X156313738Y-96476028D01*
X156443972Y-96606262D01*
X156597111Y-96708586D01*
X156767271Y-96779068D01*
X156947911Y-96815000D01*
X157132089Y-96815000D01*
X157312729Y-96779068D01*
X157482889Y-96708586D01*
X157636028Y-96606262D01*
X157766262Y-96476028D01*
X157868586Y-96322889D01*
X157939068Y-96152729D01*
X157975000Y-95972089D01*
X157975000Y-95787911D01*
X157939068Y-95607271D01*
X157868586Y-95437111D01*
X157766262Y-95283972D01*
X157636028Y-95153738D01*
X157482889Y-95051414D01*
X157312729Y-94980932D01*
X157132089Y-94945000D01*
X156947911Y-94945000D01*
X156767271Y-94980932D01*
X156597111Y-95051414D01*
X156443972Y-95153738D01*
X156313738Y-95283972D01*
X156211414Y-95437111D01*
X156140932Y-95607271D01*
X156105000Y-95787911D01*
X153745609Y-95787911D01*
X153668013Y-95671782D01*
X153548226Y-95551995D01*
X153407371Y-95457878D01*
X153250861Y-95393049D01*
X153084711Y-95360000D01*
X152915305Y-95360000D01*
X152749155Y-95393049D01*
X152660004Y-95429977D01*
X152570853Y-95393049D01*
X152404703Y-95360000D01*
X152235297Y-95360000D01*
X152069147Y-95393049D01*
X151912637Y-95457878D01*
X151771782Y-95551995D01*
X151651995Y-95671782D01*
X151557878Y-95812637D01*
X151493049Y-95969147D01*
X151460000Y-96135297D01*
X135281687Y-96135297D01*
X135345226Y-95981902D01*
X135385000Y-95781943D01*
X135385000Y-95578065D01*
X135345226Y-95378106D01*
X135267205Y-95189748D01*
X135153937Y-95020230D01*
X135065000Y-94931293D01*
X135065000Y-94748061D01*
X135052194Y-94683682D01*
X135140256Y-94647205D01*
X135309774Y-94533937D01*
X135453937Y-94389774D01*
X135567205Y-94220256D01*
X135645226Y-94031898D01*
X135685000Y-93831939D01*
X135685000Y-93628061D01*
X135645226Y-93428102D01*
X135567205Y-93239744D01*
X135453937Y-93070226D01*
X135309774Y-92926063D01*
X135140256Y-92812795D01*
X134951898Y-92734774D01*
X134751939Y-92695000D01*
X134548061Y-92695000D01*
X134348102Y-92734774D01*
X134159744Y-92812795D01*
X133990226Y-92926063D01*
X133846063Y-93070226D01*
X133732795Y-93239744D01*
X133654774Y-93428102D01*
X133615000Y-93628061D01*
X133615000Y-93831939D01*
X133627806Y-93896318D01*
X133539744Y-93932795D01*
X133370226Y-94046063D01*
X133226063Y-94190226D01*
X133112795Y-94359744D01*
X133034774Y-94548102D01*
X132995000Y-94748061D01*
X132415000Y-94748061D01*
X132375226Y-94548102D01*
X132297205Y-94359744D01*
X132183937Y-94190226D01*
X132039774Y-94046063D01*
X131870256Y-93932795D01*
X131681898Y-93854774D01*
X131481939Y-93815000D01*
X131278061Y-93815000D01*
X131078102Y-93854774D01*
X130889744Y-93932795D01*
X130720226Y-94046063D01*
X130660000Y-94106289D01*
X130660000Y-91979444D01*
X130698102Y-91995226D01*
X130898061Y-92035000D01*
X131101939Y-92035000D01*
X131301898Y-91995226D01*
X131490256Y-91917205D01*
X131659774Y-91803937D01*
X131803937Y-91659774D01*
X131917205Y-91490256D01*
X131995226Y-91301898D01*
X132035000Y-91101939D01*
X132035000Y-90898061D01*
X131995226Y-90698102D01*
X131979444Y-90660000D01*
X164873000Y-90660000D01*
X164873000Y-109340000D01*
G37*
%TD.AperFunction*%
%TD*%
M02*
