%TF.GenerationSoftware,KiCad,Pcbnew,5.1.9-73d0e3b20d~88~ubuntu20.04.1*%
%TF.CreationDate,2021-03-27T20:59:08+01:00*%
%TF.ProjectId,calvin,63616c76-696e-42e6-9b69-6361645f7063,v1.00*%
%TF.SameCoordinates,Original*%
%TF.FileFunction,Legend,Top*%
%TF.FilePolarity,Positive*%
%FSLAX46Y46*%
G04 Gerber Fmt 4.6, Leading zero omitted, Abs format (unit mm)*
G04 Created by KiCad (PCBNEW 5.1.9-73d0e3b20d~88~ubuntu20.04.1) date 2021-03-27 20:59:08*
%MOMM*%
%LPD*%
G01*
G04 APERTURE LIST*
%ADD10C,0.300000*%
%ADD11C,0.120000*%
%ADD12C,0.150000*%
%ADD13C,0.050000*%
%ADD14C,0.100000*%
%ADD15C,0.152400*%
G04 APERTURE END LIST*
D10*
X161500000Y-108348571D02*
X161785714Y-109348571D01*
X162071428Y-108634285D01*
X162357142Y-109348571D01*
X162642857Y-108348571D01*
X163071428Y-108348571D02*
X163357142Y-109348571D01*
X163642857Y-108634285D01*
X163928571Y-109348571D01*
X164214285Y-108348571D01*
X164642857Y-108348571D02*
X164928571Y-109348571D01*
X165214285Y-108634285D01*
X165500000Y-109348571D01*
X165785714Y-108348571D01*
X166357142Y-109205714D02*
X166428571Y-109277142D01*
X166357142Y-109348571D01*
X166285714Y-109277142D01*
X166357142Y-109205714D01*
X166357142Y-109348571D01*
X167000000Y-107991428D02*
X167071428Y-107920000D01*
X167214285Y-107848571D01*
X167571428Y-107848571D01*
X167714285Y-107920000D01*
X167785714Y-107991428D01*
X167857142Y-108134285D01*
X167857142Y-108277142D01*
X167785714Y-108491428D01*
X166928571Y-109348571D01*
X167857142Y-109348571D01*
X168500000Y-108777142D02*
X169642857Y-108777142D01*
X170642857Y-107848571D02*
X170785714Y-107848571D01*
X170928571Y-107920000D01*
X171000000Y-107991428D01*
X171071428Y-108134285D01*
X171142857Y-108420000D01*
X171142857Y-108777142D01*
X171071428Y-109062857D01*
X171000000Y-109205714D01*
X170928571Y-109277142D01*
X170785714Y-109348571D01*
X170642857Y-109348571D01*
X170500000Y-109277142D01*
X170428571Y-109205714D01*
X170357142Y-109062857D01*
X170285714Y-108777142D01*
X170285714Y-108420000D01*
X170357142Y-108134285D01*
X170428571Y-107991428D01*
X170500000Y-107920000D01*
X170642857Y-107848571D01*
X171785714Y-109205714D02*
X171857142Y-109277142D01*
X171785714Y-109348571D01*
X171714285Y-109277142D01*
X171785714Y-109205714D01*
X171785714Y-109348571D01*
X173142857Y-109348571D02*
X173142857Y-107848571D01*
X173142857Y-109277142D02*
X173000000Y-109348571D01*
X172714285Y-109348571D01*
X172571428Y-109277142D01*
X172500000Y-109205714D01*
X172428571Y-109062857D01*
X172428571Y-108634285D01*
X172500000Y-108491428D01*
X172571428Y-108420000D01*
X172714285Y-108348571D01*
X173000000Y-108348571D01*
X173142857Y-108420000D01*
X173857142Y-109348571D02*
X173857142Y-107848571D01*
X174000000Y-108777142D02*
X174428571Y-109348571D01*
X174428571Y-108348571D02*
X173857142Y-108920000D01*
X167835714Y-93190714D02*
X167764285Y-93262142D01*
X167550000Y-93333571D01*
X167407142Y-93333571D01*
X167192857Y-93262142D01*
X167050000Y-93119285D01*
X166978571Y-92976428D01*
X166907142Y-92690714D01*
X166907142Y-92476428D01*
X166978571Y-92190714D01*
X167050000Y-92047857D01*
X167192857Y-91905000D01*
X167407142Y-91833571D01*
X167550000Y-91833571D01*
X167764285Y-91905000D01*
X167835714Y-91976428D01*
X169121428Y-93333571D02*
X169121428Y-92547857D01*
X169050000Y-92405000D01*
X168907142Y-92333571D01*
X168621428Y-92333571D01*
X168478571Y-92405000D01*
X169121428Y-93262142D02*
X168978571Y-93333571D01*
X168621428Y-93333571D01*
X168478571Y-93262142D01*
X168407142Y-93119285D01*
X168407142Y-92976428D01*
X168478571Y-92833571D01*
X168621428Y-92762142D01*
X168978571Y-92762142D01*
X169121428Y-92690714D01*
X170050000Y-93333571D02*
X169907142Y-93262142D01*
X169835714Y-93119285D01*
X169835714Y-91833571D01*
X170478571Y-92333571D02*
X170835714Y-93333571D01*
X171192857Y-92333571D01*
X171764285Y-93333571D02*
X171764285Y-92333571D01*
X171764285Y-91833571D02*
X171692857Y-91905000D01*
X171764285Y-91976428D01*
X171835714Y-91905000D01*
X171764285Y-91833571D01*
X171764285Y-91976428D01*
X172478571Y-92333571D02*
X172478571Y-93333571D01*
X172478571Y-92476428D02*
X172550000Y-92405000D01*
X172692857Y-92333571D01*
X172907142Y-92333571D01*
X173050000Y-92405000D01*
X173121428Y-92547857D01*
X173121428Y-93333571D01*
X167192857Y-94883571D02*
X167550000Y-95883571D01*
X167907142Y-94883571D01*
X169264285Y-95883571D02*
X168407142Y-95883571D01*
X168835714Y-95883571D02*
X168835714Y-94383571D01*
X168692857Y-94597857D01*
X168550000Y-94740714D01*
X168407142Y-94812142D01*
X169907142Y-95740714D02*
X169978571Y-95812142D01*
X169907142Y-95883571D01*
X169835714Y-95812142D01*
X169907142Y-95740714D01*
X169907142Y-95883571D01*
X170907142Y-94383571D02*
X171050000Y-94383571D01*
X171192857Y-94455000D01*
X171264285Y-94526428D01*
X171335714Y-94669285D01*
X171407142Y-94955000D01*
X171407142Y-95312142D01*
X171335714Y-95597857D01*
X171264285Y-95740714D01*
X171192857Y-95812142D01*
X171050000Y-95883571D01*
X170907142Y-95883571D01*
X170764285Y-95812142D01*
X170692857Y-95740714D01*
X170621428Y-95597857D01*
X170550000Y-95312142D01*
X170550000Y-94955000D01*
X170621428Y-94669285D01*
X170692857Y-94526428D01*
X170764285Y-94455000D01*
X170907142Y-94383571D01*
X172335714Y-94383571D02*
X172478571Y-94383571D01*
X172621428Y-94455000D01*
X172692857Y-94526428D01*
X172764285Y-94669285D01*
X172835714Y-94955000D01*
X172835714Y-95312142D01*
X172764285Y-95597857D01*
X172692857Y-95740714D01*
X172621428Y-95812142D01*
X172478571Y-95883571D01*
X172335714Y-95883571D01*
X172192857Y-95812142D01*
X172121428Y-95740714D01*
X172050000Y-95597857D01*
X171978571Y-95312142D01*
X171978571Y-94955000D01*
X172050000Y-94669285D01*
X172121428Y-94526428D01*
X172192857Y-94455000D01*
X172335714Y-94383571D01*
D11*
%TO.C,J1*%
X143660000Y-109685000D02*
X153540000Y-109685000D01*
X154710000Y-105215000D02*
X153660000Y-105215000D01*
X154710000Y-107715000D02*
X154710000Y-105215000D01*
X143540000Y-105215000D02*
X143540000Y-104225000D01*
X142490000Y-105215000D02*
X143540000Y-105215000D01*
X142490000Y-107715000D02*
X142490000Y-105215000D01*
%TO.C,AE1*%
X165000000Y-107000000D02*
X165000000Y-98000000D01*
X175000000Y-107000000D02*
X165000000Y-107000000D01*
X175000000Y-98000000D02*
X175000000Y-107000000D01*
X165000000Y-98000000D02*
X175000000Y-98000000D01*
D12*
%TO.C,U4*%
X140415303Y-100571500D02*
G75*
G03*
X140415303Y-100571500I-89803J0D01*
G01*
X141278000Y-99111000D02*
X137785500Y-99111000D01*
X141278000Y-100889000D02*
X141278000Y-99111000D01*
X137785500Y-100889000D02*
X141278000Y-100889000D01*
X137785500Y-99111000D02*
X137785500Y-100889000D01*
D11*
%TO.C,C1*%
X156908600Y-104292164D02*
X156908600Y-104507836D01*
X157628600Y-104292164D02*
X157628600Y-104507836D01*
%TO.C,C2*%
X159992164Y-101760000D02*
X160207836Y-101760000D01*
X159992164Y-101040000D02*
X160207836Y-101040000D01*
%TO.C,C3*%
X159992164Y-97500000D02*
X160207836Y-97500000D01*
X159992164Y-96780000D02*
X160207836Y-96780000D01*
%TO.C,C5*%
X159992164Y-98460000D02*
X160207836Y-98460000D01*
X159992164Y-97740000D02*
X160207836Y-97740000D01*
%TO.C,C7*%
X156590000Y-95507836D02*
X156590000Y-95292164D01*
X155870000Y-95507836D02*
X155870000Y-95292164D01*
%TO.C,C9*%
X155620000Y-95507836D02*
X155620000Y-95292164D01*
X154900000Y-95507836D02*
X154900000Y-95292164D01*
%TO.C,C10*%
X159487836Y-106040000D02*
X159272164Y-106040000D01*
X159487836Y-106760000D02*
X159272164Y-106760000D01*
%TO.C,C11*%
X159927836Y-102440000D02*
X159712164Y-102440000D01*
X159927836Y-103160000D02*
X159712164Y-103160000D01*
%TO.C,C12*%
X150207836Y-102408600D02*
X149992164Y-102408600D01*
X150207836Y-103128600D02*
X149992164Y-103128600D01*
%TO.C,R1*%
X159946359Y-96550000D02*
X160253641Y-96550000D01*
X159946359Y-95790000D02*
X160253641Y-95790000D01*
D12*
%TO.C,U1*%
X160568600Y-100425000D02*
X158343600Y-100425000D01*
X158343600Y-100425000D02*
X158343600Y-99175000D01*
X158343600Y-99175000D02*
X160568600Y-99175000D01*
X160568600Y-99175000D02*
X160568600Y-100425000D01*
D13*
X160218600Y-99350000D02*
G75*
G03*
X160218600Y-99350000I-50000J0D01*
G01*
D14*
%TO.C,D1*%
X142160000Y-100500000D02*
G75*
G03*
X142160000Y-100500000I-50000J0D01*
G01*
%TO.C,D2*%
X142160000Y-99500000D02*
G75*
G03*
X142160000Y-99500000I-50000J0D01*
G01*
D11*
%TO.C,C16*%
X136487836Y-102220000D02*
X136272164Y-102220000D01*
X136487836Y-102940000D02*
X136272164Y-102940000D01*
%TO.C,R2*%
X145263641Y-100120000D02*
X144956359Y-100120000D01*
X145263641Y-100880000D02*
X144956359Y-100880000D01*
%TO.C,R3*%
X145263641Y-99120000D02*
X144956359Y-99120000D01*
X145263641Y-99880000D02*
X144956359Y-99880000D01*
%TO.C,R4*%
X139346359Y-102880000D02*
X139653641Y-102880000D01*
X139346359Y-102120000D02*
X139653641Y-102120000D01*
%TO.C,R5*%
X139346359Y-97850000D02*
X139653641Y-97850000D01*
X139346359Y-97090000D02*
X139653641Y-97090000D01*
%TO.C,U3*%
X134290000Y-98500000D02*
X134290000Y-101500000D01*
X137510000Y-100000000D02*
X137510000Y-101500000D01*
%TO.C,C17*%
X140292164Y-101900000D02*
X140507836Y-101900000D01*
X140292164Y-101180000D02*
X140507836Y-101180000D01*
%TO.C,C18*%
X140627836Y-98080000D02*
X140412164Y-98080000D01*
X140627836Y-98800000D02*
X140412164Y-98800000D01*
%TO.C,R6*%
X138486359Y-98820000D02*
X138793641Y-98820000D01*
X138486359Y-98060000D02*
X138793641Y-98060000D01*
%TO.C,Y1*%
X158250000Y-103450000D02*
X158250000Y-105750000D01*
X158250000Y-105750000D02*
X160950000Y-105750000D01*
%TO.C,C19*%
X164720000Y-99887836D02*
X164720000Y-99672164D01*
X164000000Y-99887836D02*
X164000000Y-99672164D01*
%TO.C,C20*%
X161880000Y-99672164D02*
X161880000Y-99887836D01*
X161160000Y-99672164D02*
X161160000Y-99887836D01*
%TO.C,U2*%
X150950828Y-96400000D02*
G75*
G03*
X150950828Y-96400000I-60828J0D01*
G01*
D15*
X152028530Y-96825000D02*
X151325000Y-96825000D01*
X157675000Y-97528530D02*
X157675000Y-96825000D01*
X156971470Y-103175000D02*
X157675000Y-103175000D01*
X151325000Y-102471470D02*
X151325000Y-103175000D01*
X151325000Y-96825000D02*
X151325000Y-97528530D01*
X157675000Y-96825000D02*
X156971470Y-96825000D01*
X157675000Y-103175000D02*
X157675000Y-102471470D01*
X151325000Y-103175000D02*
X152028530Y-103175000D01*
D11*
X151070278Y-96400000D02*
G75*
G03*
X151070278Y-96400000I-180278J0D01*
G01*
%TO.C,J1*%
D12*
X147366666Y-102482380D02*
X147366666Y-103196666D01*
X147319047Y-103339523D01*
X147223809Y-103434761D01*
X147080952Y-103482380D01*
X146985714Y-103482380D01*
X148366666Y-103482380D02*
X147795238Y-103482380D01*
X148080952Y-103482380D02*
X148080952Y-102482380D01*
X147985714Y-102625238D01*
X147890476Y-102720476D01*
X147795238Y-102768095D01*
%TO.C,AE1*%
X164296666Y-105756666D02*
X164296666Y-105280476D01*
X164582380Y-105851904D02*
X163582380Y-105518571D01*
X164582380Y-105185238D01*
X164058571Y-104851904D02*
X164058571Y-104518571D01*
X164582380Y-104375714D02*
X164582380Y-104851904D01*
X163582380Y-104851904D01*
X163582380Y-104375714D01*
X164582380Y-103423333D02*
X164582380Y-103994761D01*
X164582380Y-103709047D02*
X163582380Y-103709047D01*
X163725238Y-103804285D01*
X163820476Y-103899523D01*
X163868095Y-103994761D01*
%TO.C,U4*%
X138738095Y-95852380D02*
X138738095Y-96661904D01*
X138785714Y-96757142D01*
X138833333Y-96804761D01*
X138928571Y-96852380D01*
X139119047Y-96852380D01*
X139214285Y-96804761D01*
X139261904Y-96757142D01*
X139309523Y-96661904D01*
X139309523Y-95852380D01*
X140214285Y-96185714D02*
X140214285Y-96852380D01*
X139976190Y-95804761D02*
X139738095Y-96519047D01*
X140357142Y-96519047D01*
%TO.C,C1*%
X155733333Y-105257142D02*
X155685714Y-105304761D01*
X155542857Y-105352380D01*
X155447619Y-105352380D01*
X155304761Y-105304761D01*
X155209523Y-105209523D01*
X155161904Y-105114285D01*
X155114285Y-104923809D01*
X155114285Y-104780952D01*
X155161904Y-104590476D01*
X155209523Y-104495238D01*
X155304761Y-104400000D01*
X155447619Y-104352380D01*
X155542857Y-104352380D01*
X155685714Y-104400000D01*
X155733333Y-104447619D01*
X156685714Y-105352380D02*
X156114285Y-105352380D01*
X156400000Y-105352380D02*
X156400000Y-104352380D01*
X156304761Y-104495238D01*
X156209523Y-104590476D01*
X156114285Y-104638095D01*
%TO.C,C2*%
X162193333Y-101747142D02*
X162145714Y-101794761D01*
X162002857Y-101842380D01*
X161907619Y-101842380D01*
X161764761Y-101794761D01*
X161669523Y-101699523D01*
X161621904Y-101604285D01*
X161574285Y-101413809D01*
X161574285Y-101270952D01*
X161621904Y-101080476D01*
X161669523Y-100985238D01*
X161764761Y-100890000D01*
X161907619Y-100842380D01*
X162002857Y-100842380D01*
X162145714Y-100890000D01*
X162193333Y-100937619D01*
X162574285Y-100937619D02*
X162621904Y-100890000D01*
X162717142Y-100842380D01*
X162955238Y-100842380D01*
X163050476Y-100890000D01*
X163098095Y-100937619D01*
X163145714Y-101032857D01*
X163145714Y-101128095D01*
X163098095Y-101270952D01*
X162526666Y-101842380D01*
X163145714Y-101842380D01*
%TO.C,C3*%
X159863333Y-92937142D02*
X159815714Y-92984761D01*
X159672857Y-93032380D01*
X159577619Y-93032380D01*
X159434761Y-92984761D01*
X159339523Y-92889523D01*
X159291904Y-92794285D01*
X159244285Y-92603809D01*
X159244285Y-92460952D01*
X159291904Y-92270476D01*
X159339523Y-92175238D01*
X159434761Y-92080000D01*
X159577619Y-92032380D01*
X159672857Y-92032380D01*
X159815714Y-92080000D01*
X159863333Y-92127619D01*
X160196666Y-92032380D02*
X160815714Y-92032380D01*
X160482380Y-92413333D01*
X160625238Y-92413333D01*
X160720476Y-92460952D01*
X160768095Y-92508571D01*
X160815714Y-92603809D01*
X160815714Y-92841904D01*
X160768095Y-92937142D01*
X160720476Y-92984761D01*
X160625238Y-93032380D01*
X160339523Y-93032380D01*
X160244285Y-92984761D01*
X160196666Y-92937142D01*
%TO.C,C5*%
X159893333Y-94207142D02*
X159845714Y-94254761D01*
X159702857Y-94302380D01*
X159607619Y-94302380D01*
X159464761Y-94254761D01*
X159369523Y-94159523D01*
X159321904Y-94064285D01*
X159274285Y-93873809D01*
X159274285Y-93730952D01*
X159321904Y-93540476D01*
X159369523Y-93445238D01*
X159464761Y-93350000D01*
X159607619Y-93302380D01*
X159702857Y-93302380D01*
X159845714Y-93350000D01*
X159893333Y-93397619D01*
X160798095Y-93302380D02*
X160321904Y-93302380D01*
X160274285Y-93778571D01*
X160321904Y-93730952D01*
X160417142Y-93683333D01*
X160655238Y-93683333D01*
X160750476Y-93730952D01*
X160798095Y-93778571D01*
X160845714Y-93873809D01*
X160845714Y-94111904D01*
X160798095Y-94207142D01*
X160750476Y-94254761D01*
X160655238Y-94302380D01*
X160417142Y-94302380D01*
X160321904Y-94254761D01*
X160274285Y-94207142D01*
%TO.C,C7*%
X156633333Y-94157142D02*
X156585714Y-94204761D01*
X156442857Y-94252380D01*
X156347619Y-94252380D01*
X156204761Y-94204761D01*
X156109523Y-94109523D01*
X156061904Y-94014285D01*
X156014285Y-93823809D01*
X156014285Y-93680952D01*
X156061904Y-93490476D01*
X156109523Y-93395238D01*
X156204761Y-93300000D01*
X156347619Y-93252380D01*
X156442857Y-93252380D01*
X156585714Y-93300000D01*
X156633333Y-93347619D01*
X156966666Y-93252380D02*
X157633333Y-93252380D01*
X157204761Y-94252380D01*
%TO.C,C9*%
X154633333Y-94157142D02*
X154585714Y-94204761D01*
X154442857Y-94252380D01*
X154347619Y-94252380D01*
X154204761Y-94204761D01*
X154109523Y-94109523D01*
X154061904Y-94014285D01*
X154014285Y-93823809D01*
X154014285Y-93680952D01*
X154061904Y-93490476D01*
X154109523Y-93395238D01*
X154204761Y-93300000D01*
X154347619Y-93252380D01*
X154442857Y-93252380D01*
X154585714Y-93300000D01*
X154633333Y-93347619D01*
X155109523Y-94252380D02*
X155300000Y-94252380D01*
X155395238Y-94204761D01*
X155442857Y-94157142D01*
X155538095Y-94014285D01*
X155585714Y-93823809D01*
X155585714Y-93442857D01*
X155538095Y-93347619D01*
X155490476Y-93300000D01*
X155395238Y-93252380D01*
X155204761Y-93252380D01*
X155109523Y-93300000D01*
X155061904Y-93347619D01*
X155014285Y-93442857D01*
X155014285Y-93680952D01*
X155061904Y-93776190D01*
X155109523Y-93823809D01*
X155204761Y-93871428D01*
X155395238Y-93871428D01*
X155490476Y-93823809D01*
X155538095Y-93776190D01*
X155585714Y-93680952D01*
%TO.C,C10*%
X161557142Y-106757142D02*
X161509523Y-106804761D01*
X161366666Y-106852380D01*
X161271428Y-106852380D01*
X161128571Y-106804761D01*
X161033333Y-106709523D01*
X160985714Y-106614285D01*
X160938095Y-106423809D01*
X160938095Y-106280952D01*
X160985714Y-106090476D01*
X161033333Y-105995238D01*
X161128571Y-105900000D01*
X161271428Y-105852380D01*
X161366666Y-105852380D01*
X161509523Y-105900000D01*
X161557142Y-105947619D01*
X162509523Y-106852380D02*
X161938095Y-106852380D01*
X162223809Y-106852380D02*
X162223809Y-105852380D01*
X162128571Y-105995238D01*
X162033333Y-106090476D01*
X161938095Y-106138095D01*
X163128571Y-105852380D02*
X163223809Y-105852380D01*
X163319047Y-105900000D01*
X163366666Y-105947619D01*
X163414285Y-106042857D01*
X163461904Y-106233333D01*
X163461904Y-106471428D01*
X163414285Y-106661904D01*
X163366666Y-106757142D01*
X163319047Y-106804761D01*
X163223809Y-106852380D01*
X163128571Y-106852380D01*
X163033333Y-106804761D01*
X162985714Y-106757142D01*
X162938095Y-106661904D01*
X162890476Y-106471428D01*
X162890476Y-106233333D01*
X162938095Y-106042857D01*
X162985714Y-105947619D01*
X163033333Y-105900000D01*
X163128571Y-105852380D01*
%TO.C,C11*%
X161607142Y-103147142D02*
X161559523Y-103194761D01*
X161416666Y-103242380D01*
X161321428Y-103242380D01*
X161178571Y-103194761D01*
X161083333Y-103099523D01*
X161035714Y-103004285D01*
X160988095Y-102813809D01*
X160988095Y-102670952D01*
X161035714Y-102480476D01*
X161083333Y-102385238D01*
X161178571Y-102290000D01*
X161321428Y-102242380D01*
X161416666Y-102242380D01*
X161559523Y-102290000D01*
X161607142Y-102337619D01*
X162559523Y-103242380D02*
X161988095Y-103242380D01*
X162273809Y-103242380D02*
X162273809Y-102242380D01*
X162178571Y-102385238D01*
X162083333Y-102480476D01*
X161988095Y-102528095D01*
X163511904Y-103242380D02*
X162940476Y-103242380D01*
X163226190Y-103242380D02*
X163226190Y-102242380D01*
X163130952Y-102385238D01*
X163035714Y-102480476D01*
X162940476Y-102528095D01*
%TO.C,C12*%
X148857142Y-102057142D02*
X148809523Y-102104761D01*
X148666666Y-102152380D01*
X148571428Y-102152380D01*
X148428571Y-102104761D01*
X148333333Y-102009523D01*
X148285714Y-101914285D01*
X148238095Y-101723809D01*
X148238095Y-101580952D01*
X148285714Y-101390476D01*
X148333333Y-101295238D01*
X148428571Y-101200000D01*
X148571428Y-101152380D01*
X148666666Y-101152380D01*
X148809523Y-101200000D01*
X148857142Y-101247619D01*
X149809523Y-102152380D02*
X149238095Y-102152380D01*
X149523809Y-102152380D02*
X149523809Y-101152380D01*
X149428571Y-101295238D01*
X149333333Y-101390476D01*
X149238095Y-101438095D01*
X150190476Y-101247619D02*
X150238095Y-101200000D01*
X150333333Y-101152380D01*
X150571428Y-101152380D01*
X150666666Y-101200000D01*
X150714285Y-101247619D01*
X150761904Y-101342857D01*
X150761904Y-101438095D01*
X150714285Y-101580952D01*
X150142857Y-102152380D01*
X150761904Y-102152380D01*
%TO.C,R1*%
X159943333Y-91712380D02*
X159610000Y-91236190D01*
X159371904Y-91712380D02*
X159371904Y-90712380D01*
X159752857Y-90712380D01*
X159848095Y-90760000D01*
X159895714Y-90807619D01*
X159943333Y-90902857D01*
X159943333Y-91045714D01*
X159895714Y-91140952D01*
X159848095Y-91188571D01*
X159752857Y-91236190D01*
X159371904Y-91236190D01*
X160895714Y-91712380D02*
X160324285Y-91712380D01*
X160610000Y-91712380D02*
X160610000Y-90712380D01*
X160514761Y-90855238D01*
X160419523Y-90950476D01*
X160324285Y-90998095D01*
%TO.C,U1*%
X159378095Y-94522380D02*
X159378095Y-95331904D01*
X159425714Y-95427142D01*
X159473333Y-95474761D01*
X159568571Y-95522380D01*
X159759047Y-95522380D01*
X159854285Y-95474761D01*
X159901904Y-95427142D01*
X159949523Y-95331904D01*
X159949523Y-94522380D01*
X160949523Y-95522380D02*
X160378095Y-95522380D01*
X160663809Y-95522380D02*
X160663809Y-94522380D01*
X160568571Y-94665238D01*
X160473333Y-94760476D01*
X160378095Y-94808095D01*
%TO.C,D1*%
X142461904Y-102122380D02*
X142461904Y-101122380D01*
X142700000Y-101122380D01*
X142842857Y-101170000D01*
X142938095Y-101265238D01*
X142985714Y-101360476D01*
X143033333Y-101550952D01*
X143033333Y-101693809D01*
X142985714Y-101884285D01*
X142938095Y-101979523D01*
X142842857Y-102074761D01*
X142700000Y-102122380D01*
X142461904Y-102122380D01*
X143985714Y-102122380D02*
X143414285Y-102122380D01*
X143700000Y-102122380D02*
X143700000Y-101122380D01*
X143604761Y-101265238D01*
X143509523Y-101360476D01*
X143414285Y-101408095D01*
%TO.C,D2*%
X142461904Y-98452380D02*
X142461904Y-97452380D01*
X142700000Y-97452380D01*
X142842857Y-97500000D01*
X142938095Y-97595238D01*
X142985714Y-97690476D01*
X143033333Y-97880952D01*
X143033333Y-98023809D01*
X142985714Y-98214285D01*
X142938095Y-98309523D01*
X142842857Y-98404761D01*
X142700000Y-98452380D01*
X142461904Y-98452380D01*
X143414285Y-97547619D02*
X143461904Y-97500000D01*
X143557142Y-97452380D01*
X143795238Y-97452380D01*
X143890476Y-97500000D01*
X143938095Y-97547619D01*
X143985714Y-97642857D01*
X143985714Y-97738095D01*
X143938095Y-97880952D01*
X143366666Y-98452380D01*
X143985714Y-98452380D01*
%TO.C,C16*%
X135657142Y-104657142D02*
X135609523Y-104704761D01*
X135466666Y-104752380D01*
X135371428Y-104752380D01*
X135228571Y-104704761D01*
X135133333Y-104609523D01*
X135085714Y-104514285D01*
X135038095Y-104323809D01*
X135038095Y-104180952D01*
X135085714Y-103990476D01*
X135133333Y-103895238D01*
X135228571Y-103800000D01*
X135371428Y-103752380D01*
X135466666Y-103752380D01*
X135609523Y-103800000D01*
X135657142Y-103847619D01*
X136609523Y-104752380D02*
X136038095Y-104752380D01*
X136323809Y-104752380D02*
X136323809Y-103752380D01*
X136228571Y-103895238D01*
X136133333Y-103990476D01*
X136038095Y-104038095D01*
X137466666Y-103752380D02*
X137276190Y-103752380D01*
X137180952Y-103800000D01*
X137133333Y-103847619D01*
X137038095Y-103990476D01*
X136990476Y-104180952D01*
X136990476Y-104561904D01*
X137038095Y-104657142D01*
X137085714Y-104704761D01*
X137180952Y-104752380D01*
X137371428Y-104752380D01*
X137466666Y-104704761D01*
X137514285Y-104657142D01*
X137561904Y-104561904D01*
X137561904Y-104323809D01*
X137514285Y-104228571D01*
X137466666Y-104180952D01*
X137371428Y-104133333D01*
X137180952Y-104133333D01*
X137085714Y-104180952D01*
X137038095Y-104228571D01*
X136990476Y-104323809D01*
%TO.C,R2*%
X144933333Y-102152380D02*
X144600000Y-101676190D01*
X144361904Y-102152380D02*
X144361904Y-101152380D01*
X144742857Y-101152380D01*
X144838095Y-101200000D01*
X144885714Y-101247619D01*
X144933333Y-101342857D01*
X144933333Y-101485714D01*
X144885714Y-101580952D01*
X144838095Y-101628571D01*
X144742857Y-101676190D01*
X144361904Y-101676190D01*
X145314285Y-101247619D02*
X145361904Y-101200000D01*
X145457142Y-101152380D01*
X145695238Y-101152380D01*
X145790476Y-101200000D01*
X145838095Y-101247619D01*
X145885714Y-101342857D01*
X145885714Y-101438095D01*
X145838095Y-101580952D01*
X145266666Y-102152380D01*
X145885714Y-102152380D01*
%TO.C,R3*%
X144933333Y-98452380D02*
X144600000Y-97976190D01*
X144361904Y-98452380D02*
X144361904Y-97452380D01*
X144742857Y-97452380D01*
X144838095Y-97500000D01*
X144885714Y-97547619D01*
X144933333Y-97642857D01*
X144933333Y-97785714D01*
X144885714Y-97880952D01*
X144838095Y-97928571D01*
X144742857Y-97976190D01*
X144361904Y-97976190D01*
X145266666Y-97452380D02*
X145885714Y-97452380D01*
X145552380Y-97833333D01*
X145695238Y-97833333D01*
X145790476Y-97880952D01*
X145838095Y-97928571D01*
X145885714Y-98023809D01*
X145885714Y-98261904D01*
X145838095Y-98357142D01*
X145790476Y-98404761D01*
X145695238Y-98452380D01*
X145409523Y-98452380D01*
X145314285Y-98404761D01*
X145266666Y-98357142D01*
%TO.C,R4*%
X139333333Y-105552380D02*
X139000000Y-105076190D01*
X138761904Y-105552380D02*
X138761904Y-104552380D01*
X139142857Y-104552380D01*
X139238095Y-104600000D01*
X139285714Y-104647619D01*
X139333333Y-104742857D01*
X139333333Y-104885714D01*
X139285714Y-104980952D01*
X139238095Y-105028571D01*
X139142857Y-105076190D01*
X138761904Y-105076190D01*
X140190476Y-104885714D02*
X140190476Y-105552380D01*
X139952380Y-104504761D02*
X139714285Y-105219047D01*
X140333333Y-105219047D01*
%TO.C,R5*%
X139333333Y-94252380D02*
X139000000Y-93776190D01*
X138761904Y-94252380D02*
X138761904Y-93252380D01*
X139142857Y-93252380D01*
X139238095Y-93300000D01*
X139285714Y-93347619D01*
X139333333Y-93442857D01*
X139333333Y-93585714D01*
X139285714Y-93680952D01*
X139238095Y-93728571D01*
X139142857Y-93776190D01*
X138761904Y-93776190D01*
X140238095Y-93252380D02*
X139761904Y-93252380D01*
X139714285Y-93728571D01*
X139761904Y-93680952D01*
X139857142Y-93633333D01*
X140095238Y-93633333D01*
X140190476Y-93680952D01*
X140238095Y-93728571D01*
X140285714Y-93823809D01*
X140285714Y-94061904D01*
X140238095Y-94157142D01*
X140190476Y-94204761D01*
X140095238Y-94252380D01*
X139857142Y-94252380D01*
X139761904Y-94204761D01*
X139714285Y-94157142D01*
%TO.C,U3*%
X132358095Y-99482380D02*
X132358095Y-100291904D01*
X132405714Y-100387142D01*
X132453333Y-100434761D01*
X132548571Y-100482380D01*
X132739047Y-100482380D01*
X132834285Y-100434761D01*
X132881904Y-100387142D01*
X132929523Y-100291904D01*
X132929523Y-99482380D01*
X133310476Y-99482380D02*
X133929523Y-99482380D01*
X133596190Y-99863333D01*
X133739047Y-99863333D01*
X133834285Y-99910952D01*
X133881904Y-99958571D01*
X133929523Y-100053809D01*
X133929523Y-100291904D01*
X133881904Y-100387142D01*
X133834285Y-100434761D01*
X133739047Y-100482380D01*
X133453333Y-100482380D01*
X133358095Y-100434761D01*
X133310476Y-100387142D01*
%TO.C,C17*%
X139757142Y-104127142D02*
X139709523Y-104174761D01*
X139566666Y-104222380D01*
X139471428Y-104222380D01*
X139328571Y-104174761D01*
X139233333Y-104079523D01*
X139185714Y-103984285D01*
X139138095Y-103793809D01*
X139138095Y-103650952D01*
X139185714Y-103460476D01*
X139233333Y-103365238D01*
X139328571Y-103270000D01*
X139471428Y-103222380D01*
X139566666Y-103222380D01*
X139709523Y-103270000D01*
X139757142Y-103317619D01*
X140709523Y-104222380D02*
X140138095Y-104222380D01*
X140423809Y-104222380D02*
X140423809Y-103222380D01*
X140328571Y-103365238D01*
X140233333Y-103460476D01*
X140138095Y-103508095D01*
X141042857Y-103222380D02*
X141709523Y-103222380D01*
X141280952Y-104222380D01*
%TO.C,C18*%
X140257142Y-95457142D02*
X140209523Y-95504761D01*
X140066666Y-95552380D01*
X139971428Y-95552380D01*
X139828571Y-95504761D01*
X139733333Y-95409523D01*
X139685714Y-95314285D01*
X139638095Y-95123809D01*
X139638095Y-94980952D01*
X139685714Y-94790476D01*
X139733333Y-94695238D01*
X139828571Y-94600000D01*
X139971428Y-94552380D01*
X140066666Y-94552380D01*
X140209523Y-94600000D01*
X140257142Y-94647619D01*
X141209523Y-95552380D02*
X140638095Y-95552380D01*
X140923809Y-95552380D02*
X140923809Y-94552380D01*
X140828571Y-94695238D01*
X140733333Y-94790476D01*
X140638095Y-94838095D01*
X141780952Y-94980952D02*
X141685714Y-94933333D01*
X141638095Y-94885714D01*
X141590476Y-94790476D01*
X141590476Y-94742857D01*
X141638095Y-94647619D01*
X141685714Y-94600000D01*
X141780952Y-94552380D01*
X141971428Y-94552380D01*
X142066666Y-94600000D01*
X142114285Y-94647619D01*
X142161904Y-94742857D01*
X142161904Y-94790476D01*
X142114285Y-94885714D01*
X142066666Y-94933333D01*
X141971428Y-94980952D01*
X141780952Y-94980952D01*
X141685714Y-95028571D01*
X141638095Y-95076190D01*
X141590476Y-95171428D01*
X141590476Y-95361904D01*
X141638095Y-95457142D01*
X141685714Y-95504761D01*
X141780952Y-95552380D01*
X141971428Y-95552380D01*
X142066666Y-95504761D01*
X142114285Y-95457142D01*
X142161904Y-95361904D01*
X142161904Y-95171428D01*
X142114285Y-95076190D01*
X142066666Y-95028571D01*
X141971428Y-94980952D01*
%TO.C,R6*%
X138433333Y-95552380D02*
X138100000Y-95076190D01*
X137861904Y-95552380D02*
X137861904Y-94552380D01*
X138242857Y-94552380D01*
X138338095Y-94600000D01*
X138385714Y-94647619D01*
X138433333Y-94742857D01*
X138433333Y-94885714D01*
X138385714Y-94980952D01*
X138338095Y-95028571D01*
X138242857Y-95076190D01*
X137861904Y-95076190D01*
X139290476Y-94552380D02*
X139100000Y-94552380D01*
X139004761Y-94600000D01*
X138957142Y-94647619D01*
X138861904Y-94790476D01*
X138814285Y-94980952D01*
X138814285Y-95361904D01*
X138861904Y-95457142D01*
X138909523Y-95504761D01*
X139004761Y-95552380D01*
X139195238Y-95552380D01*
X139290476Y-95504761D01*
X139338095Y-95457142D01*
X139385714Y-95361904D01*
X139385714Y-95123809D01*
X139338095Y-95028571D01*
X139290476Y-94980952D01*
X139195238Y-94933333D01*
X139004761Y-94933333D01*
X138909523Y-94980952D01*
X138861904Y-95028571D01*
X138814285Y-95123809D01*
%TO.C,Y1*%
X161583809Y-104576190D02*
X161583809Y-105052380D01*
X161250476Y-104052380D02*
X161583809Y-104576190D01*
X161917142Y-104052380D01*
X162774285Y-105052380D02*
X162202857Y-105052380D01*
X162488571Y-105052380D02*
X162488571Y-104052380D01*
X162393333Y-104195238D01*
X162298095Y-104290476D01*
X162202857Y-104338095D01*
%TO.C,C19*%
X164227142Y-97932857D02*
X164274761Y-97980476D01*
X164322380Y-98123333D01*
X164322380Y-98218571D01*
X164274761Y-98361428D01*
X164179523Y-98456666D01*
X164084285Y-98504285D01*
X163893809Y-98551904D01*
X163750952Y-98551904D01*
X163560476Y-98504285D01*
X163465238Y-98456666D01*
X163370000Y-98361428D01*
X163322380Y-98218571D01*
X163322380Y-98123333D01*
X163370000Y-97980476D01*
X163417619Y-97932857D01*
X164322380Y-96980476D02*
X164322380Y-97551904D01*
X164322380Y-97266190D02*
X163322380Y-97266190D01*
X163465238Y-97361428D01*
X163560476Y-97456666D01*
X163608095Y-97551904D01*
X164322380Y-96504285D02*
X164322380Y-96313809D01*
X164274761Y-96218571D01*
X164227142Y-96170952D01*
X164084285Y-96075714D01*
X163893809Y-96028095D01*
X163512857Y-96028095D01*
X163417619Y-96075714D01*
X163370000Y-96123333D01*
X163322380Y-96218571D01*
X163322380Y-96409047D01*
X163370000Y-96504285D01*
X163417619Y-96551904D01*
X163512857Y-96599523D01*
X163750952Y-96599523D01*
X163846190Y-96551904D01*
X163893809Y-96504285D01*
X163941428Y-96409047D01*
X163941428Y-96218571D01*
X163893809Y-96123333D01*
X163846190Y-96075714D01*
X163750952Y-96028095D01*
%TO.C,C20*%
X162577142Y-97902857D02*
X162624761Y-97950476D01*
X162672380Y-98093333D01*
X162672380Y-98188571D01*
X162624761Y-98331428D01*
X162529523Y-98426666D01*
X162434285Y-98474285D01*
X162243809Y-98521904D01*
X162100952Y-98521904D01*
X161910476Y-98474285D01*
X161815238Y-98426666D01*
X161720000Y-98331428D01*
X161672380Y-98188571D01*
X161672380Y-98093333D01*
X161720000Y-97950476D01*
X161767619Y-97902857D01*
X161767619Y-97521904D02*
X161720000Y-97474285D01*
X161672380Y-97379047D01*
X161672380Y-97140952D01*
X161720000Y-97045714D01*
X161767619Y-96998095D01*
X161862857Y-96950476D01*
X161958095Y-96950476D01*
X162100952Y-96998095D01*
X162672380Y-97569523D01*
X162672380Y-96950476D01*
X161672380Y-96331428D02*
X161672380Y-96236190D01*
X161720000Y-96140952D01*
X161767619Y-96093333D01*
X161862857Y-96045714D01*
X162053333Y-95998095D01*
X162291428Y-95998095D01*
X162481904Y-96045714D01*
X162577142Y-96093333D01*
X162624761Y-96140952D01*
X162672380Y-96236190D01*
X162672380Y-96331428D01*
X162624761Y-96426666D01*
X162577142Y-96474285D01*
X162481904Y-96521904D01*
X162291428Y-96569523D01*
X162053333Y-96569523D01*
X161862857Y-96521904D01*
X161767619Y-96474285D01*
X161720000Y-96426666D01*
X161672380Y-96331428D01*
%TO.C,L1*%
X162823333Y-95672380D02*
X162347142Y-95672380D01*
X162347142Y-94672380D01*
X163680476Y-95672380D02*
X163109047Y-95672380D01*
X163394761Y-95672380D02*
X163394761Y-94672380D01*
X163299523Y-94815238D01*
X163204285Y-94910476D01*
X163109047Y-94958095D01*
%TO.C,U2*%
X152388095Y-95042380D02*
X152388095Y-95851904D01*
X152435714Y-95947142D01*
X152483333Y-95994761D01*
X152578571Y-96042380D01*
X152769047Y-96042380D01*
X152864285Y-95994761D01*
X152911904Y-95947142D01*
X152959523Y-95851904D01*
X152959523Y-95042380D01*
X153388095Y-95137619D02*
X153435714Y-95090000D01*
X153530952Y-95042380D01*
X153769047Y-95042380D01*
X153864285Y-95090000D01*
X153911904Y-95137619D01*
X153959523Y-95232857D01*
X153959523Y-95328095D01*
X153911904Y-95470952D01*
X153340476Y-96042380D01*
X153959523Y-96042380D01*
%TD*%
M02*
