M48
; DRILL file {KiCad 5.1.9-73d0e3b20d~88~ubuntu20.04.1} date Sat Apr 10 20:27:37 2021
; FORMAT={-:-/ absolute / inch / decimal}
; #@! TF.CreationDate,2021-04-10T20:27:37+02:00
; #@! TF.GenerationSoftware,Kicad,Pcbnew,5.1.9-73d0e3b20d~88~ubuntu20.04.1
; #@! TF.FileFunction,Plated,1,4,PTH
FMAT,2
INCH
T1C0.0079
T2C0.0118
T3C0.0157
%
G90
G05
T1
X5.6425Y-4.0898
X5.6425Y-4.013
X5.9969Y-3.7882
X6.0236Y-3.7882
T2
X5.3504Y-4.0705
X5.3508Y-3.8445
X5.3882Y-4.0705
X5.4382Y-3.8433
X5.478Y-3.9976
X5.5157Y-3.9177
X5.5465Y-4.0295
X5.5512Y-3.8437
X5.6185Y-3.885
X5.6732Y-4.0835
X5.7126Y-4.0839
X5.8598Y-4.0461
X5.9392Y-3.8728
X6.0134Y-3.8677
X6.0134Y-3.9024
X6.0134Y-3.937
X6.0134Y-3.9717
X6.0134Y-4.0063
X6.048Y-3.8677
X6.048Y-4.0063
X6.0807Y-3.737
X6.0827Y-3.8677
X6.0827Y-3.937
X6.0827Y-4.0063
X6.1173Y-3.8677
X6.1173Y-4.0063
X6.152Y-3.8677
X6.152Y-3.9024
X6.152Y-3.937
X6.152Y-3.9717
X6.152Y-4.0063
X6.1598Y-4.0913
X6.1827Y-3.737
X6.1827Y-3.7748
X6.1917Y-4.1598
X6.2441Y-4.0469
X6.2535Y-3.8244
X6.2559Y-3.874
X6.2559Y-3.9803
X6.3201Y-3.9449
X6.3244Y-4.189
X6.3528Y-3.8244
X6.3528Y-3.8622
X6.3528Y-3.9921
X6.3535Y-3.7862
X6.3909Y-3.9472
X6.439Y-3.9472
X6.4709Y-3.978
T3
X5.1575Y-3.5827
X5.1575Y-4.2913
X5.1713Y-3.8189
X5.1713Y-4.0551
X5.1724Y-3.6594
X5.1724Y-3.7343
X5.1724Y-4.1398
X5.1724Y-4.2146
X5.1732Y-3.9055
X5.1732Y-3.937
X5.1732Y-3.9685
X5.2165Y-3.5827
X5.2165Y-4.2913
X5.2244Y-3.6161
X5.2244Y-4.2579
X5.2756Y-3.5827
X5.2756Y-4.2913
X5.2764Y-4.1398
X5.2768Y-3.7343
X5.2894Y-3.7669
X5.2894Y-4.1071
X5.3012Y-3.6902
X5.3012Y-4.1843
X5.3346Y-3.5827
X5.3346Y-4.2913
X5.376Y-3.6898
X5.376Y-4.1843
X5.3937Y-3.5827
X5.3937Y-3.7992
X5.3937Y-4.2913
X5.4331Y-4.0748
X5.4528Y-3.5827
X5.4528Y-3.6811
X5.4528Y-3.7795
X5.4528Y-4.2913
X5.4724Y-4.0945
X5.5118Y-3.5827
X5.5118Y-3.7795
X5.5118Y-4.1929
X5.5118Y-4.2913
X5.5315Y-4.1142
X5.5709Y-3.5827
X5.5709Y-3.6811
X5.5709Y-3.7795
X5.5906Y-4.1142
X5.5906Y-4.1732
X5.6299Y-3.5827
X5.6299Y-3.8189
X5.6299Y-4.2126
X5.689Y-3.5827
X5.689Y-3.6811
X5.689Y-3.8189
X5.689Y-4.2323
X5.689Y-4.2913
X5.748Y-3.5827
X5.748Y-3.8189
X5.748Y-4.2323
X5.748Y-4.2913
X5.8071Y-3.5827
X5.8071Y-3.6811
X5.8071Y-3.8189
X5.8071Y-4.2323
X5.8071Y-4.2913
X5.8661Y-3.5827
X5.8661Y-3.8189
X5.8661Y-4.2323
X5.8661Y-4.2913
X5.9252Y-3.5827
X5.9252Y-3.6811
X5.9252Y-3.7795
X5.9252Y-4.2323
X5.9252Y-4.2913
X5.9634Y-4.046
X5.9843Y-3.5827
X5.9843Y-3.7402
X5.9843Y-4.2323
X5.9843Y-4.2913
X6.0433Y-3.5827
X6.0433Y-3.6811
X6.0433Y-3.7402
X6.0827Y-4.2126
X6.1024Y-3.5827
X6.1417Y-4.1732
X6.1614Y-3.5827
X6.1614Y-3.6811
X6.1614Y-4.2323
X6.1614Y-4.2913
X6.2205Y-3.5827
X6.2205Y-3.7402
X6.2205Y-4.2323
X6.2205Y-4.2913
X6.2795Y-3.5827
X6.2795Y-3.6811
X6.2795Y-3.7402
X6.2795Y-4.2323
X6.2795Y-4.2913
X6.3189Y-3.7402
X6.3386Y-3.5827
X6.3386Y-4.2323
X6.3386Y-4.2913
X6.378Y-4.0551
X6.378Y-4.1142
X6.378Y-4.1732
X6.3976Y-3.5827
X6.3976Y-3.6811
X6.3976Y-3.8583
X6.3976Y-3.9961
X6.3976Y-4.2323
X6.437Y-3.8583
X6.4567Y-3.5827
X6.4567Y-4.2323
X6.4764Y-3.622
X6.4764Y-3.6811
X6.4764Y-3.7402
X6.4764Y-3.7992
X6.4764Y-3.8583
X6.4764Y-4.0157
X6.4764Y-4.0748
X6.4764Y-4.1339
X6.4764Y-4.1929
T0
M30
