%TF.GenerationSoftware,KiCad,Pcbnew,5.1.9-73d0e3b20d~88~ubuntu20.04.1*%
%TF.CreationDate,2021-04-10T20:27:40+02:00*%
%TF.ProjectId,calvin,63616c76-696e-42e6-9b69-6361645f7063,v1.00*%
%TF.SameCoordinates,Original*%
%TF.FileFunction,Copper,L4,Bot*%
%TF.FilePolarity,Positive*%
%FSLAX46Y46*%
G04 Gerber Fmt 4.6, Leading zero omitted, Abs format (unit mm)*
G04 Created by KiCad (PCBNEW 5.1.9-73d0e3b20d~88~ubuntu20.04.1) date 2021-04-10 20:27:40*
%MOMM*%
%LPD*%
G01*
G04 APERTURE LIST*
%TA.AperFunction,SMDPad,CuDef*%
%ADD10C,0.100000*%
%TD*%
%TA.AperFunction,ComponentPad*%
%ADD11R,0.880000X0.880000*%
%TD*%
%TA.AperFunction,ViaPad*%
%ADD12C,0.800000*%
%TD*%
%TA.AperFunction,ViaPad*%
%ADD13C,0.600000*%
%TD*%
%TA.AperFunction,ViaPad*%
%ADD14C,0.450000*%
%TD*%
%TA.AperFunction,Conductor*%
%ADD15C,0.500000*%
%TD*%
%TA.AperFunction,Conductor*%
%ADD16C,0.250000*%
%TD*%
%TA.AperFunction,Conductor*%
%ADD17C,0.100000*%
%TD*%
%TA.AperFunction,Conductor*%
%ADD18C,0.200000*%
%TD*%
%TA.AperFunction,Conductor*%
%ADD19C,0.254000*%
%TD*%
G04 APERTURE END LIST*
%TA.AperFunction,SMDPad,CuDef*%
D10*
%TO.P,BT1,1*%
%TO.N,+3V3*%
G36*
X135200000Y-98500000D02*
G01*
X135200000Y-101500000D01*
X131800000Y-101500000D01*
X131800000Y-98500000D01*
X135200000Y-98500000D01*
G37*
%TD.AperFunction*%
%TA.AperFunction,SMDPad,CuDef*%
%TO.P,BT1,2*%
%TO.N,GND*%
G36*
X157100000Y-98800000D02*
G01*
X157100000Y-101200000D01*
X152600000Y-101200000D01*
X152600000Y-98800000D01*
X157100000Y-98800000D01*
G37*
%TD.AperFunction*%
%TD*%
%TO.P,C4,2*%
%TO.N,GND*%
%TA.AperFunction,SMDPad,CuDef*%
G36*
G01*
X136050000Y-92875000D02*
X136050000Y-91925000D01*
G75*
G02*
X136300000Y-91675000I250000J0D01*
G01*
X136800000Y-91675000D01*
G75*
G02*
X137050000Y-91925000I0J-250000D01*
G01*
X137050000Y-92875000D01*
G75*
G02*
X136800000Y-93125000I-250000J0D01*
G01*
X136300000Y-93125000D01*
G75*
G02*
X136050000Y-92875000I0J250000D01*
G01*
G37*
%TD.AperFunction*%
%TO.P,C4,1*%
%TO.N,+3V3*%
%TA.AperFunction,SMDPad,CuDef*%
G36*
G01*
X134150000Y-92875000D02*
X134150000Y-91925000D01*
G75*
G02*
X134400000Y-91675000I250000J0D01*
G01*
X134900000Y-91675000D01*
G75*
G02*
X135150000Y-91925000I0J-250000D01*
G01*
X135150000Y-92875000D01*
G75*
G02*
X134900000Y-93125000I-250000J0D01*
G01*
X134400000Y-93125000D01*
G75*
G02*
X134150000Y-92875000I0J250000D01*
G01*
G37*
%TD.AperFunction*%
%TD*%
%TO.P,C6,2*%
%TO.N,GND*%
%TA.AperFunction,SMDPad,CuDef*%
G36*
G01*
X133175000Y-93450000D02*
X132225000Y-93450000D01*
G75*
G02*
X131975000Y-93200000I0J250000D01*
G01*
X131975000Y-92700000D01*
G75*
G02*
X132225000Y-92450000I250000J0D01*
G01*
X133175000Y-92450000D01*
G75*
G02*
X133425000Y-92700000I0J-250000D01*
G01*
X133425000Y-93200000D01*
G75*
G02*
X133175000Y-93450000I-250000J0D01*
G01*
G37*
%TD.AperFunction*%
%TO.P,C6,1*%
%TO.N,+3V3*%
%TA.AperFunction,SMDPad,CuDef*%
G36*
G01*
X133175000Y-95350000D02*
X132225000Y-95350000D01*
G75*
G02*
X131975000Y-95100000I0J250000D01*
G01*
X131975000Y-94600000D01*
G75*
G02*
X132225000Y-94350000I250000J0D01*
G01*
X133175000Y-94350000D01*
G75*
G02*
X133425000Y-94600000I0J-250000D01*
G01*
X133425000Y-95100000D01*
G75*
G02*
X133175000Y-95350000I-250000J0D01*
G01*
G37*
%TD.AperFunction*%
%TD*%
%TO.P,C8,2*%
%TO.N,GND*%
%TA.AperFunction,SMDPad,CuDef*%
G36*
G01*
X132950000Y-96525000D02*
X132950000Y-97475000D01*
G75*
G02*
X132700000Y-97725000I-250000J0D01*
G01*
X132200000Y-97725000D01*
G75*
G02*
X131950000Y-97475000I0J250000D01*
G01*
X131950000Y-96525000D01*
G75*
G02*
X132200000Y-96275000I250000J0D01*
G01*
X132700000Y-96275000D01*
G75*
G02*
X132950000Y-96525000I0J-250000D01*
G01*
G37*
%TD.AperFunction*%
%TO.P,C8,1*%
%TO.N,+3V3*%
%TA.AperFunction,SMDPad,CuDef*%
G36*
G01*
X134850000Y-96525000D02*
X134850000Y-97475000D01*
G75*
G02*
X134600000Y-97725000I-250000J0D01*
G01*
X134100000Y-97725000D01*
G75*
G02*
X133850000Y-97475000I0J250000D01*
G01*
X133850000Y-96525000D01*
G75*
G02*
X134100000Y-96275000I250000J0D01*
G01*
X134600000Y-96275000D01*
G75*
G02*
X134850000Y-96525000I0J-250000D01*
G01*
G37*
%TD.AperFunction*%
%TD*%
%TO.P,C13,2*%
%TO.N,GND*%
%TA.AperFunction,SMDPad,CuDef*%
G36*
G01*
X136050000Y-108075000D02*
X136050000Y-107125000D01*
G75*
G02*
X136300000Y-106875000I250000J0D01*
G01*
X136800000Y-106875000D01*
G75*
G02*
X137050000Y-107125000I0J-250000D01*
G01*
X137050000Y-108075000D01*
G75*
G02*
X136800000Y-108325000I-250000J0D01*
G01*
X136300000Y-108325000D01*
G75*
G02*
X136050000Y-108075000I0J250000D01*
G01*
G37*
%TD.AperFunction*%
%TO.P,C13,1*%
%TO.N,+3V3*%
%TA.AperFunction,SMDPad,CuDef*%
G36*
G01*
X134150000Y-108075000D02*
X134150000Y-107125000D01*
G75*
G02*
X134400000Y-106875000I250000J0D01*
G01*
X134900000Y-106875000D01*
G75*
G02*
X135150000Y-107125000I0J-250000D01*
G01*
X135150000Y-108075000D01*
G75*
G02*
X134900000Y-108325000I-250000J0D01*
G01*
X134400000Y-108325000D01*
G75*
G02*
X134150000Y-108075000I0J250000D01*
G01*
G37*
%TD.AperFunction*%
%TD*%
%TO.P,C14,2*%
%TO.N,GND*%
%TA.AperFunction,SMDPad,CuDef*%
G36*
G01*
X132225000Y-106550000D02*
X133175000Y-106550000D01*
G75*
G02*
X133425000Y-106800000I0J-250000D01*
G01*
X133425000Y-107300000D01*
G75*
G02*
X133175000Y-107550000I-250000J0D01*
G01*
X132225000Y-107550000D01*
G75*
G02*
X131975000Y-107300000I0J250000D01*
G01*
X131975000Y-106800000D01*
G75*
G02*
X132225000Y-106550000I250000J0D01*
G01*
G37*
%TD.AperFunction*%
%TO.P,C14,1*%
%TO.N,+3V3*%
%TA.AperFunction,SMDPad,CuDef*%
G36*
G01*
X132225000Y-104650000D02*
X133175000Y-104650000D01*
G75*
G02*
X133425000Y-104900000I0J-250000D01*
G01*
X133425000Y-105400000D01*
G75*
G02*
X133175000Y-105650000I-250000J0D01*
G01*
X132225000Y-105650000D01*
G75*
G02*
X131975000Y-105400000I0J250000D01*
G01*
X131975000Y-104900000D01*
G75*
G02*
X132225000Y-104650000I250000J0D01*
G01*
G37*
%TD.AperFunction*%
%TD*%
%TO.P,C15,2*%
%TO.N,GND*%
%TA.AperFunction,SMDPad,CuDef*%
G36*
G01*
X132950000Y-102525000D02*
X132950000Y-103475000D01*
G75*
G02*
X132700000Y-103725000I-250000J0D01*
G01*
X132200000Y-103725000D01*
G75*
G02*
X131950000Y-103475000I0J250000D01*
G01*
X131950000Y-102525000D01*
G75*
G02*
X132200000Y-102275000I250000J0D01*
G01*
X132700000Y-102275000D01*
G75*
G02*
X132950000Y-102525000I0J-250000D01*
G01*
G37*
%TD.AperFunction*%
%TO.P,C15,1*%
%TO.N,+3V3*%
%TA.AperFunction,SMDPad,CuDef*%
G36*
G01*
X134850000Y-102525000D02*
X134850000Y-103475000D01*
G75*
G02*
X134600000Y-103725000I-250000J0D01*
G01*
X134100000Y-103725000D01*
G75*
G02*
X133850000Y-103475000I0J250000D01*
G01*
X133850000Y-102525000D01*
G75*
G02*
X134100000Y-102275000I250000J0D01*
G01*
X134600000Y-102275000D01*
G75*
G02*
X134850000Y-102525000I0J-250000D01*
G01*
G37*
%TD.AperFunction*%
%TD*%
D11*
%TO.P,U2,37*%
%TO.N,GND*%
X156260000Y-101760000D03*
X154500000Y-98240000D03*
X155380000Y-98240000D03*
X156260000Y-98240000D03*
X156260000Y-99120000D03*
X156260000Y-100000000D03*
X154500000Y-100000000D03*
X154500000Y-101760000D03*
X155380000Y-101760000D03*
X156260000Y-100880000D03*
X152740000Y-98240000D03*
X153620000Y-101760000D03*
X152740000Y-100000000D03*
X152740000Y-100880000D03*
X152740000Y-101760000D03*
X153620000Y-98240000D03*
X152740000Y-99120000D03*
%TD*%
D12*
%TO.N,*%
X131000000Y-91000000D03*
D13*
%TO.N,+3V3*%
X158900000Y-101100000D03*
X158900000Y-98400000D03*
X158840000Y-97140000D03*
X157040000Y-95880000D03*
D12*
X134650000Y-93730000D03*
X134030000Y-94850000D03*
X134020000Y-105150000D03*
X134650000Y-106280000D03*
X131380000Y-105150000D03*
X131380000Y-94850000D03*
X151470000Y-102768600D03*
D13*
X135900000Y-103390000D03*
X156460000Y-103920000D03*
D12*
X131400000Y-100800000D03*
X131400000Y-100000000D03*
X131400000Y-99200000D03*
X134350000Y-104319994D03*
X134350000Y-95680004D03*
D13*
X138130000Y-97620000D03*
X140880000Y-102350000D03*
X150855117Y-98370010D03*
X144100000Y-103719994D03*
%TO.N,GND*%
X160640000Y-106400000D03*
X161360000Y-98100000D03*
X161360000Y-97140000D03*
X161380000Y-96170000D03*
X157040000Y-94920000D03*
X154450000Y-94920000D03*
X157270000Y-105660000D03*
D12*
X132700000Y-91850000D03*
X131350000Y-97000000D03*
X131350000Y-103000000D03*
X132700000Y-108150000D03*
X136550000Y-106280000D03*
X131380000Y-107050000D03*
X131380000Y-92950000D03*
X136550000Y-93720000D03*
D13*
X148840000Y-102770000D03*
X136860000Y-103390000D03*
X158600000Y-102790000D03*
X135910000Y-97650000D03*
X141000000Y-97630000D03*
X140100000Y-99510000D03*
X139140012Y-101540000D03*
X142710000Y-98680000D03*
X145100000Y-103730004D03*
X163550000Y-100260000D03*
X164360000Y-101040000D03*
X162330000Y-100260000D03*
X160530000Y-100200000D03*
X161360020Y-101400000D03*
D12*
X132500000Y-91000000D03*
X134000000Y-91000000D03*
X135500000Y-91000000D03*
X137000000Y-91000000D03*
X138500000Y-91000000D03*
X140000000Y-91000000D03*
X141500000Y-91000000D03*
X143000000Y-91000000D03*
X144500000Y-91000000D03*
X146000000Y-91000000D03*
X147500000Y-91000000D03*
X149000000Y-91000000D03*
X150500000Y-91000000D03*
X152000000Y-91000000D03*
X153500000Y-91000000D03*
X155000000Y-91000000D03*
X156500000Y-91000000D03*
X158000000Y-91000000D03*
X159500000Y-91000000D03*
X161000000Y-91000000D03*
X162500000Y-91000000D03*
X164000000Y-91000000D03*
X164500000Y-92000000D03*
X164500000Y-93500000D03*
X164500000Y-95000000D03*
X164500000Y-96500000D03*
X164500000Y-98000000D03*
X163500000Y-98000000D03*
X162500000Y-98000000D03*
X164000000Y-107500000D03*
X164500000Y-106500000D03*
X164500000Y-105000000D03*
X164500000Y-103500000D03*
X164500000Y-102000000D03*
X161000000Y-109000000D03*
X159500000Y-109000000D03*
X158000000Y-109000000D03*
X156500000Y-109000000D03*
X152000000Y-109000000D03*
X150500000Y-109000000D03*
X149000000Y-109000000D03*
X147500000Y-109000000D03*
X146000000Y-109000000D03*
X144500000Y-109000000D03*
X154500000Y-107000000D03*
X140000000Y-109000000D03*
X138500000Y-109000000D03*
X137000000Y-109000000D03*
X135500000Y-109000000D03*
X134000000Y-109000000D03*
X132500000Y-109000000D03*
X131000000Y-109000000D03*
X138000000Y-103500000D03*
X139000000Y-104000000D03*
X142000000Y-104500000D03*
X140500000Y-104500000D03*
X142000000Y-106000000D03*
X143000000Y-107000000D03*
X144500000Y-107500000D03*
X146000000Y-107500000D03*
X147500000Y-107500000D03*
X149000000Y-107500000D03*
X150500000Y-107500000D03*
X152000000Y-107500000D03*
X156000000Y-106000000D03*
X158000000Y-107500000D03*
X159500000Y-107500000D03*
X161000000Y-107500000D03*
X162000000Y-106000000D03*
X162000000Y-104500000D03*
X162000000Y-103000000D03*
X162500000Y-101500000D03*
X160500000Y-95000000D03*
X159500000Y-95000000D03*
X158000000Y-95000000D03*
X153500000Y-95000000D03*
X152000000Y-95000000D03*
X150500000Y-96000000D03*
X149000000Y-97000000D03*
X147500000Y-97000000D03*
X146000000Y-97000000D03*
X144500000Y-97000000D03*
X143000000Y-97000000D03*
X141500000Y-96000000D03*
X140000000Y-96000000D03*
X138500000Y-96000000D03*
X137000000Y-96500000D03*
X156500000Y-107500000D03*
X162500000Y-107500000D03*
X150500000Y-93500000D03*
X147500000Y-93500000D03*
X144500000Y-93500000D03*
X141500000Y-93500000D03*
X138500000Y-93500000D03*
X153500000Y-93500000D03*
X156500000Y-93500000D03*
X159500000Y-93500000D03*
X162500000Y-93500000D03*
X140000000Y-106500000D03*
D14*
%TO.N,dbg_reset*%
X143319996Y-103880000D03*
X152320000Y-96220000D03*
X153000008Y-96220000D03*
X143319998Y-101930000D03*
%TD*%
D15*
%TO.N,+3V3*%
X134650000Y-92400000D02*
X134650000Y-93730000D01*
X132700000Y-94850000D02*
X134030000Y-94850000D01*
X132700000Y-105150000D02*
X134020000Y-105150000D01*
X134650000Y-107600000D02*
X134650000Y-106280000D01*
X132700000Y-105150000D02*
X131380000Y-105150000D01*
X132700000Y-94850000D02*
X131380000Y-94850000D01*
D16*
X133500000Y-100000000D02*
X135000000Y-100000000D01*
X133500000Y-100000000D02*
X133500000Y-99800000D01*
D15*
X132900000Y-99200000D02*
X131400000Y-99200000D01*
D16*
X133500000Y-99800000D02*
X132900000Y-99200000D01*
X133500000Y-100000000D02*
X133500000Y-100200000D01*
D15*
X132900000Y-100800000D02*
X131400000Y-100800000D01*
D16*
X133500000Y-100200000D02*
X132900000Y-100800000D01*
D15*
X131400000Y-100000000D02*
X133500000Y-100000000D01*
D16*
X134350000Y-99150000D02*
X133500000Y-100000000D01*
D15*
X134350000Y-97000000D02*
X134350000Y-99150000D01*
D16*
X134350000Y-100850000D02*
X133500000Y-100000000D01*
D15*
X134350000Y-103000000D02*
X134350000Y-100850000D01*
X134350000Y-103000000D02*
X134350000Y-104319994D01*
X134350000Y-97000000D02*
X134350000Y-95680004D01*
X134350000Y-95170000D02*
X134030000Y-94850000D01*
X134350000Y-95680004D02*
X134350000Y-95170000D01*
X134350000Y-104820000D02*
X134020000Y-105150000D01*
X134350000Y-104319994D02*
X134350000Y-104820000D01*
X134650000Y-105780000D02*
X134020000Y-105150000D01*
X134650000Y-106280000D02*
X134650000Y-105780000D01*
X134650000Y-94230000D02*
X134030000Y-94850000D01*
X134650000Y-93730000D02*
X134650000Y-94230000D01*
%TO.N,GND*%
X132700000Y-92950000D02*
X132700000Y-91850000D01*
X132450000Y-97000000D02*
X131350000Y-97000000D01*
X132450000Y-103000000D02*
X131350000Y-103000000D01*
X132700000Y-107050000D02*
X132700000Y-108150000D01*
X136550000Y-107600000D02*
X136550000Y-106280000D01*
X132700000Y-107050000D02*
X131380000Y-107050000D01*
X132700000Y-92950000D02*
X131380000Y-92950000D01*
X136550000Y-92400000D02*
X136550000Y-93720000D01*
D17*
%TO.N,dbg_reset*%
X152320000Y-96220000D02*
X153000008Y-96220000D01*
D18*
X143320012Y-101930014D02*
X143319998Y-101930000D01*
D17*
X143319998Y-103879998D02*
X143319996Y-103880000D01*
X143319998Y-101930000D02*
X143319998Y-103879998D01*
%TD*%
D19*
%TO.N,GND*%
X164873000Y-109340000D02*
X130660000Y-109340000D01*
X130660000Y-107550000D01*
X131336928Y-107550000D01*
X131349188Y-107674482D01*
X131385498Y-107794180D01*
X131444463Y-107904494D01*
X131523815Y-108001185D01*
X131620506Y-108080537D01*
X131730820Y-108139502D01*
X131850518Y-108175812D01*
X131975000Y-108188072D01*
X132414250Y-108185000D01*
X132573000Y-108026250D01*
X132573000Y-107177000D01*
X131498750Y-107177000D01*
X131340000Y-107335750D01*
X131336928Y-107550000D01*
X130660000Y-107550000D01*
X130660000Y-105893711D01*
X130720226Y-105953937D01*
X130889744Y-106067205D01*
X131078102Y-106145226D01*
X131278061Y-106185000D01*
X131453085Y-106185000D01*
X131444463Y-106195506D01*
X131385498Y-106305820D01*
X131349188Y-106425518D01*
X131336928Y-106550000D01*
X131340000Y-106764250D01*
X131498750Y-106923000D01*
X132573000Y-106923000D01*
X132573000Y-106903000D01*
X132827000Y-106903000D01*
X132827000Y-106923000D01*
X132847000Y-106923000D01*
X132847000Y-107177000D01*
X132827000Y-107177000D01*
X132827000Y-108026250D01*
X132985750Y-108185000D01*
X133425000Y-108188072D01*
X133522122Y-108178507D01*
X133528992Y-108248254D01*
X133579528Y-108414850D01*
X133661595Y-108568386D01*
X133772038Y-108702962D01*
X133906614Y-108813405D01*
X134060150Y-108895472D01*
X134226746Y-108946008D01*
X134400000Y-108963072D01*
X134900000Y-108963072D01*
X135073254Y-108946008D01*
X135239850Y-108895472D01*
X135393386Y-108813405D01*
X135527962Y-108702962D01*
X135533342Y-108696406D01*
X135598815Y-108776185D01*
X135695506Y-108855537D01*
X135805820Y-108914502D01*
X135925518Y-108950812D01*
X136050000Y-108963072D01*
X136264250Y-108960000D01*
X136423000Y-108801250D01*
X136423000Y-107727000D01*
X136677000Y-107727000D01*
X136677000Y-108801250D01*
X136835750Y-108960000D01*
X137050000Y-108963072D01*
X137174482Y-108950812D01*
X137294180Y-108914502D01*
X137404494Y-108855537D01*
X137501185Y-108776185D01*
X137580537Y-108679494D01*
X137639502Y-108569180D01*
X137675812Y-108449482D01*
X137688072Y-108325000D01*
X137685000Y-107885750D01*
X137526250Y-107727000D01*
X136677000Y-107727000D01*
X136423000Y-107727000D01*
X136403000Y-107727000D01*
X136403000Y-107473000D01*
X136423000Y-107473000D01*
X136423000Y-106398750D01*
X136677000Y-106398750D01*
X136677000Y-107473000D01*
X137526250Y-107473000D01*
X137685000Y-107314250D01*
X137688072Y-106875000D01*
X137675812Y-106750518D01*
X137639502Y-106630820D01*
X137580537Y-106520506D01*
X137501185Y-106423815D01*
X137404494Y-106344463D01*
X137294180Y-106285498D01*
X137174482Y-106249188D01*
X137050000Y-106236928D01*
X136835750Y-106240000D01*
X136677000Y-106398750D01*
X136423000Y-106398750D01*
X136264250Y-106240000D01*
X136050000Y-106236928D01*
X135925518Y-106249188D01*
X135805820Y-106285498D01*
X135695506Y-106344463D01*
X135685000Y-106353085D01*
X135685000Y-106178061D01*
X135645226Y-105978102D01*
X135567205Y-105789744D01*
X135535579Y-105742413D01*
X135535000Y-105736531D01*
X135535000Y-105736523D01*
X135522195Y-105606510D01*
X135512107Y-105573254D01*
X135471589Y-105439686D01*
X135389411Y-105285941D01*
X135306532Y-105184953D01*
X135306530Y-105184951D01*
X135278817Y-105151183D01*
X135245049Y-105123470D01*
X135197262Y-105075683D01*
X135222195Y-104993490D01*
X135235000Y-104863477D01*
X135235000Y-104863467D01*
X135235580Y-104857581D01*
X135267205Y-104810250D01*
X135345226Y-104621892D01*
X135385000Y-104421933D01*
X135385000Y-104218055D01*
X135374069Y-104163099D01*
X135457111Y-104218586D01*
X135627271Y-104289068D01*
X135807911Y-104325000D01*
X135992089Y-104325000D01*
X136172729Y-104289068D01*
X136342889Y-104218586D01*
X136496028Y-104116262D01*
X136626262Y-103986028D01*
X136728586Y-103832889D01*
X136744156Y-103795297D01*
X142459996Y-103795297D01*
X142459996Y-103964703D01*
X142493045Y-104130853D01*
X142557874Y-104287363D01*
X142651991Y-104428218D01*
X142771778Y-104548005D01*
X142912633Y-104642122D01*
X143069143Y-104706951D01*
X143235293Y-104740000D01*
X143404699Y-104740000D01*
X143570849Y-104706951D01*
X143727359Y-104642122D01*
X143786898Y-104602339D01*
X143827271Y-104619062D01*
X144007911Y-104654994D01*
X144192089Y-104654994D01*
X144372729Y-104619062D01*
X144542889Y-104548580D01*
X144696028Y-104446256D01*
X144826262Y-104316022D01*
X144928586Y-104162883D01*
X144999068Y-103992723D01*
X145031851Y-103827911D01*
X155525000Y-103827911D01*
X155525000Y-104012089D01*
X155560932Y-104192729D01*
X155631414Y-104362889D01*
X155733738Y-104516028D01*
X155863972Y-104646262D01*
X156017111Y-104748586D01*
X156187271Y-104819068D01*
X156367911Y-104855000D01*
X156552089Y-104855000D01*
X156732729Y-104819068D01*
X156902889Y-104748586D01*
X157056028Y-104646262D01*
X157186262Y-104516028D01*
X157288586Y-104362889D01*
X157359068Y-104192729D01*
X157395000Y-104012089D01*
X157395000Y-103827911D01*
X157359068Y-103647271D01*
X157288586Y-103477111D01*
X157186262Y-103323972D01*
X157056028Y-103193738D01*
X156902889Y-103091414D01*
X156732729Y-103020932D01*
X156552089Y-102985000D01*
X156367911Y-102985000D01*
X156187271Y-103020932D01*
X156017111Y-103091414D01*
X155863972Y-103193738D01*
X155733738Y-103323972D01*
X155631414Y-103477111D01*
X155560932Y-103647271D01*
X155525000Y-103827911D01*
X145031851Y-103827911D01*
X145035000Y-103812083D01*
X145035000Y-103627905D01*
X144999068Y-103447265D01*
X144928586Y-103277105D01*
X144826262Y-103123966D01*
X144696028Y-102993732D01*
X144542889Y-102891408D01*
X144372729Y-102820926D01*
X144192089Y-102784994D01*
X144007911Y-102784994D01*
X144004998Y-102785573D01*
X144004998Y-102666661D01*
X150435000Y-102666661D01*
X150435000Y-102870539D01*
X150474774Y-103070498D01*
X150552795Y-103258856D01*
X150666063Y-103428374D01*
X150810226Y-103572537D01*
X150979744Y-103685805D01*
X151168102Y-103763826D01*
X151368061Y-103803600D01*
X151571939Y-103803600D01*
X151771898Y-103763826D01*
X151960256Y-103685805D01*
X152129774Y-103572537D01*
X152273937Y-103428374D01*
X152387205Y-103258856D01*
X152465226Y-103070498D01*
X152505000Y-102870539D01*
X152505000Y-102666661D01*
X152465226Y-102466702D01*
X152387205Y-102278344D01*
X152273937Y-102108826D01*
X152129774Y-101964663D01*
X151960256Y-101851395D01*
X151771898Y-101773374D01*
X151571939Y-101733600D01*
X151368061Y-101733600D01*
X151168102Y-101773374D01*
X150979744Y-101851395D01*
X150810226Y-101964663D01*
X150666063Y-102108826D01*
X150552795Y-102278344D01*
X150474774Y-102466702D01*
X150435000Y-102666661D01*
X144004998Y-102666661D01*
X144004998Y-102452783D01*
X144082120Y-102337363D01*
X144146949Y-102180853D01*
X144179998Y-102014703D01*
X144179998Y-101845297D01*
X144146949Y-101679147D01*
X144082120Y-101522637D01*
X143988003Y-101381782D01*
X143868216Y-101261995D01*
X143727361Y-101167878D01*
X143570851Y-101103049D01*
X143404701Y-101070000D01*
X143235295Y-101070000D01*
X143069145Y-101103049D01*
X142912635Y-101167878D01*
X142771780Y-101261995D01*
X142651993Y-101381782D01*
X142557876Y-101522637D01*
X142493047Y-101679147D01*
X142459998Y-101845297D01*
X142459998Y-102014703D01*
X142493047Y-102180853D01*
X142557876Y-102337363D01*
X142634998Y-102452784D01*
X142634999Y-103357213D01*
X142557874Y-103472637D01*
X142493045Y-103629147D01*
X142459996Y-103795297D01*
X136744156Y-103795297D01*
X136799068Y-103662729D01*
X136835000Y-103482089D01*
X136835000Y-103297911D01*
X136799068Y-103117271D01*
X136728586Y-102947111D01*
X136626262Y-102793972D01*
X136496028Y-102663738D01*
X136342889Y-102561414D01*
X136172729Y-102490932D01*
X135992089Y-102455000D01*
X135807911Y-102455000D01*
X135627271Y-102490932D01*
X135488072Y-102548590D01*
X135488072Y-102525000D01*
X135471008Y-102351746D01*
X135442544Y-102257911D01*
X139945000Y-102257911D01*
X139945000Y-102442089D01*
X139980932Y-102622729D01*
X140051414Y-102792889D01*
X140153738Y-102946028D01*
X140283972Y-103076262D01*
X140437111Y-103178586D01*
X140607271Y-103249068D01*
X140787911Y-103285000D01*
X140972089Y-103285000D01*
X141152729Y-103249068D01*
X141322889Y-103178586D01*
X141476028Y-103076262D01*
X141606262Y-102946028D01*
X141708586Y-102792889D01*
X141779068Y-102622729D01*
X141815000Y-102442089D01*
X141815000Y-102257911D01*
X141779068Y-102077271D01*
X141708586Y-101907111D01*
X141606262Y-101753972D01*
X141476028Y-101623738D01*
X141322889Y-101521414D01*
X141152729Y-101450932D01*
X140972089Y-101415000D01*
X140787911Y-101415000D01*
X140607271Y-101450932D01*
X140437111Y-101521414D01*
X140283972Y-101623738D01*
X140153738Y-101753972D01*
X140051414Y-101907111D01*
X139980932Y-102077271D01*
X139945000Y-102257911D01*
X135442544Y-102257911D01*
X135420472Y-102185150D01*
X135379788Y-102109035D01*
X135444180Y-102089502D01*
X135554494Y-102030537D01*
X135651185Y-101951185D01*
X135730537Y-101854494D01*
X135789502Y-101744180D01*
X135825812Y-101624482D01*
X135838072Y-101500000D01*
X135838072Y-100127000D01*
X151961928Y-100127000D01*
X151961928Y-101200000D01*
X151974188Y-101324482D01*
X152010498Y-101444180D01*
X152069463Y-101554494D01*
X152148815Y-101651185D01*
X152245506Y-101730537D01*
X152355820Y-101789502D01*
X152475518Y-101825812D01*
X152600000Y-101838072D01*
X154723000Y-101838072D01*
X154723000Y-100127000D01*
X154977000Y-100127000D01*
X154977000Y-101838072D01*
X157100000Y-101838072D01*
X157224482Y-101825812D01*
X157344180Y-101789502D01*
X157454494Y-101730537D01*
X157551185Y-101651185D01*
X157630537Y-101554494D01*
X157689502Y-101444180D01*
X157725812Y-101324482D01*
X157738072Y-101200000D01*
X157738072Y-101007911D01*
X157965000Y-101007911D01*
X157965000Y-101192089D01*
X158000932Y-101372729D01*
X158071414Y-101542889D01*
X158173738Y-101696028D01*
X158303972Y-101826262D01*
X158457111Y-101928586D01*
X158627271Y-101999068D01*
X158807911Y-102035000D01*
X158992089Y-102035000D01*
X159172729Y-101999068D01*
X159342889Y-101928586D01*
X159496028Y-101826262D01*
X159626262Y-101696028D01*
X159728586Y-101542889D01*
X159799068Y-101372729D01*
X159835000Y-101192089D01*
X159835000Y-101007911D01*
X159799068Y-100827271D01*
X159728586Y-100657111D01*
X159626262Y-100503972D01*
X159496028Y-100373738D01*
X159342889Y-100271414D01*
X159172729Y-100200932D01*
X158992089Y-100165000D01*
X158807911Y-100165000D01*
X158627271Y-100200932D01*
X158457111Y-100271414D01*
X158303972Y-100373738D01*
X158173738Y-100503972D01*
X158071414Y-100657111D01*
X158000932Y-100827271D01*
X157965000Y-101007911D01*
X157738072Y-101007911D01*
X157738072Y-100127000D01*
X154977000Y-100127000D01*
X154723000Y-100127000D01*
X151961928Y-100127000D01*
X135838072Y-100127000D01*
X135838072Y-98500000D01*
X135825812Y-98375518D01*
X135789502Y-98255820D01*
X135730537Y-98145506D01*
X135651185Y-98048815D01*
X135554494Y-97969463D01*
X135444180Y-97910498D01*
X135379788Y-97890965D01*
X135420472Y-97814850D01*
X135471008Y-97648254D01*
X135482860Y-97527911D01*
X137195000Y-97527911D01*
X137195000Y-97712089D01*
X137230932Y-97892729D01*
X137301414Y-98062889D01*
X137403738Y-98216028D01*
X137533972Y-98346262D01*
X137687111Y-98448586D01*
X137857271Y-98519068D01*
X138037911Y-98555000D01*
X138222089Y-98555000D01*
X138402729Y-98519068D01*
X138572889Y-98448586D01*
X138726028Y-98346262D01*
X138794369Y-98277921D01*
X149920117Y-98277921D01*
X149920117Y-98462099D01*
X149956049Y-98642739D01*
X150026531Y-98812899D01*
X150128855Y-98966038D01*
X150259089Y-99096272D01*
X150412228Y-99198596D01*
X150582388Y-99269078D01*
X150763028Y-99305010D01*
X150947206Y-99305010D01*
X151127846Y-99269078D01*
X151298006Y-99198596D01*
X151451145Y-99096272D01*
X151581379Y-98966038D01*
X151683703Y-98812899D01*
X151689045Y-98800000D01*
X151961928Y-98800000D01*
X151961928Y-99873000D01*
X154723000Y-99873000D01*
X154723000Y-98161928D01*
X154977000Y-98161928D01*
X154977000Y-99873000D01*
X157738072Y-99873000D01*
X157738072Y-98800000D01*
X157725812Y-98675518D01*
X157689502Y-98555820D01*
X157630537Y-98445506D01*
X157551185Y-98348815D01*
X157454494Y-98269463D01*
X157344180Y-98210498D01*
X157224482Y-98174188D01*
X157100000Y-98161928D01*
X154977000Y-98161928D01*
X154723000Y-98161928D01*
X152600000Y-98161928D01*
X152475518Y-98174188D01*
X152355820Y-98210498D01*
X152245506Y-98269463D01*
X152148815Y-98348815D01*
X152069463Y-98445506D01*
X152010498Y-98555820D01*
X151974188Y-98675518D01*
X151961928Y-98800000D01*
X151689045Y-98800000D01*
X151754185Y-98642739D01*
X151790117Y-98462099D01*
X151790117Y-98277921D01*
X151754185Y-98097281D01*
X151683703Y-97927121D01*
X151581379Y-97773982D01*
X151451145Y-97643748D01*
X151298006Y-97541424D01*
X151127846Y-97470942D01*
X150947206Y-97435010D01*
X150763028Y-97435010D01*
X150582388Y-97470942D01*
X150412228Y-97541424D01*
X150259089Y-97643748D01*
X150128855Y-97773982D01*
X150026531Y-97927121D01*
X149956049Y-98097281D01*
X149920117Y-98277921D01*
X138794369Y-98277921D01*
X138856262Y-98216028D01*
X138958586Y-98062889D01*
X139029068Y-97892729D01*
X139065000Y-97712089D01*
X139065000Y-97527911D01*
X139029068Y-97347271D01*
X138958586Y-97177111D01*
X138856262Y-97023972D01*
X138726028Y-96893738D01*
X138572889Y-96791414D01*
X138402729Y-96720932D01*
X138222089Y-96685000D01*
X138037911Y-96685000D01*
X137857271Y-96720932D01*
X137687111Y-96791414D01*
X137533972Y-96893738D01*
X137403738Y-97023972D01*
X137301414Y-97177111D01*
X137230932Y-97347271D01*
X137195000Y-97527911D01*
X135482860Y-97527911D01*
X135488072Y-97475000D01*
X135488072Y-96525000D01*
X135471008Y-96351746D01*
X135420472Y-96185150D01*
X135393825Y-96135297D01*
X151460000Y-96135297D01*
X151460000Y-96304703D01*
X151493049Y-96470853D01*
X151557878Y-96627363D01*
X151651995Y-96768218D01*
X151771782Y-96888005D01*
X151912637Y-96982122D01*
X152069147Y-97046951D01*
X152235297Y-97080000D01*
X152404703Y-97080000D01*
X152570853Y-97046951D01*
X152660004Y-97010023D01*
X152749155Y-97046951D01*
X152915305Y-97080000D01*
X153084711Y-97080000D01*
X153246034Y-97047911D01*
X157905000Y-97047911D01*
X157905000Y-97232089D01*
X157940932Y-97412729D01*
X158011414Y-97582889D01*
X158113738Y-97736028D01*
X158177710Y-97800000D01*
X158173738Y-97803972D01*
X158071414Y-97957111D01*
X158000932Y-98127271D01*
X157965000Y-98307911D01*
X157965000Y-98492089D01*
X158000932Y-98672729D01*
X158071414Y-98842889D01*
X158173738Y-98996028D01*
X158303972Y-99126262D01*
X158457111Y-99228586D01*
X158627271Y-99299068D01*
X158807911Y-99335000D01*
X158992089Y-99335000D01*
X159172729Y-99299068D01*
X159342889Y-99228586D01*
X159496028Y-99126262D01*
X159626262Y-98996028D01*
X159728586Y-98842889D01*
X159799068Y-98672729D01*
X159835000Y-98492089D01*
X159835000Y-98307911D01*
X159799068Y-98127271D01*
X159728586Y-97957111D01*
X159626262Y-97803972D01*
X159562290Y-97740000D01*
X159566262Y-97736028D01*
X159668586Y-97582889D01*
X159739068Y-97412729D01*
X159775000Y-97232089D01*
X159775000Y-97047911D01*
X159739068Y-96867271D01*
X159668586Y-96697111D01*
X159566262Y-96543972D01*
X159436028Y-96413738D01*
X159282889Y-96311414D01*
X159112729Y-96240932D01*
X158932089Y-96205000D01*
X158747911Y-96205000D01*
X158567271Y-96240932D01*
X158397111Y-96311414D01*
X158243972Y-96413738D01*
X158113738Y-96543972D01*
X158011414Y-96697111D01*
X157940932Y-96867271D01*
X157905000Y-97047911D01*
X153246034Y-97047911D01*
X153250861Y-97046951D01*
X153407371Y-96982122D01*
X153548226Y-96888005D01*
X153668013Y-96768218D01*
X153762130Y-96627363D01*
X153826959Y-96470853D01*
X153860008Y-96304703D01*
X153860008Y-96135297D01*
X153826959Y-95969147D01*
X153762130Y-95812637D01*
X153745609Y-95787911D01*
X156105000Y-95787911D01*
X156105000Y-95972089D01*
X156140932Y-96152729D01*
X156211414Y-96322889D01*
X156313738Y-96476028D01*
X156443972Y-96606262D01*
X156597111Y-96708586D01*
X156767271Y-96779068D01*
X156947911Y-96815000D01*
X157132089Y-96815000D01*
X157312729Y-96779068D01*
X157482889Y-96708586D01*
X157636028Y-96606262D01*
X157766262Y-96476028D01*
X157868586Y-96322889D01*
X157939068Y-96152729D01*
X157975000Y-95972089D01*
X157975000Y-95787911D01*
X157939068Y-95607271D01*
X157868586Y-95437111D01*
X157766262Y-95283972D01*
X157636028Y-95153738D01*
X157482889Y-95051414D01*
X157312729Y-94980932D01*
X157132089Y-94945000D01*
X156947911Y-94945000D01*
X156767271Y-94980932D01*
X156597111Y-95051414D01*
X156443972Y-95153738D01*
X156313738Y-95283972D01*
X156211414Y-95437111D01*
X156140932Y-95607271D01*
X156105000Y-95787911D01*
X153745609Y-95787911D01*
X153668013Y-95671782D01*
X153548226Y-95551995D01*
X153407371Y-95457878D01*
X153250861Y-95393049D01*
X153084711Y-95360000D01*
X152915305Y-95360000D01*
X152749155Y-95393049D01*
X152660004Y-95429977D01*
X152570853Y-95393049D01*
X152404703Y-95360000D01*
X152235297Y-95360000D01*
X152069147Y-95393049D01*
X151912637Y-95457878D01*
X151771782Y-95551995D01*
X151651995Y-95671782D01*
X151557878Y-95812637D01*
X151493049Y-95969147D01*
X151460000Y-96135297D01*
X135393825Y-96135297D01*
X135338405Y-96031614D01*
X135329253Y-96020463D01*
X135345226Y-95981902D01*
X135385000Y-95781943D01*
X135385000Y-95578065D01*
X135345226Y-95378106D01*
X135267205Y-95189748D01*
X135236735Y-95144146D01*
X135235000Y-95126533D01*
X135235000Y-95126523D01*
X135222195Y-94996510D01*
X135201917Y-94929662D01*
X135245049Y-94886530D01*
X135278817Y-94858817D01*
X135389411Y-94724059D01*
X135471589Y-94570313D01*
X135522195Y-94403490D01*
X135535000Y-94273477D01*
X135535000Y-94273467D01*
X135535579Y-94267588D01*
X135567205Y-94220256D01*
X135645226Y-94031898D01*
X135685000Y-93831939D01*
X135685000Y-93646915D01*
X135695506Y-93655537D01*
X135805820Y-93714502D01*
X135925518Y-93750812D01*
X136050000Y-93763072D01*
X136264250Y-93760000D01*
X136423000Y-93601250D01*
X136423000Y-92527000D01*
X136677000Y-92527000D01*
X136677000Y-93601250D01*
X136835750Y-93760000D01*
X137050000Y-93763072D01*
X137174482Y-93750812D01*
X137294180Y-93714502D01*
X137404494Y-93655537D01*
X137501185Y-93576185D01*
X137580537Y-93479494D01*
X137639502Y-93369180D01*
X137675812Y-93249482D01*
X137688072Y-93125000D01*
X137685000Y-92685750D01*
X137526250Y-92527000D01*
X136677000Y-92527000D01*
X136423000Y-92527000D01*
X136403000Y-92527000D01*
X136403000Y-92273000D01*
X136423000Y-92273000D01*
X136423000Y-91198750D01*
X136677000Y-91198750D01*
X136677000Y-92273000D01*
X137526250Y-92273000D01*
X137685000Y-92114250D01*
X137688072Y-91675000D01*
X137675812Y-91550518D01*
X137639502Y-91430820D01*
X137580537Y-91320506D01*
X137501185Y-91223815D01*
X137404494Y-91144463D01*
X137294180Y-91085498D01*
X137174482Y-91049188D01*
X137050000Y-91036928D01*
X136835750Y-91040000D01*
X136677000Y-91198750D01*
X136423000Y-91198750D01*
X136264250Y-91040000D01*
X136050000Y-91036928D01*
X135925518Y-91049188D01*
X135805820Y-91085498D01*
X135695506Y-91144463D01*
X135598815Y-91223815D01*
X135533342Y-91303594D01*
X135527962Y-91297038D01*
X135393386Y-91186595D01*
X135239850Y-91104528D01*
X135073254Y-91053992D01*
X134900000Y-91036928D01*
X134400000Y-91036928D01*
X134226746Y-91053992D01*
X134060150Y-91104528D01*
X133906614Y-91186595D01*
X133772038Y-91297038D01*
X133661595Y-91431614D01*
X133579528Y-91585150D01*
X133528992Y-91751746D01*
X133522122Y-91821493D01*
X133425000Y-91811928D01*
X132985750Y-91815000D01*
X132827000Y-91973750D01*
X132827000Y-92823000D01*
X132847000Y-92823000D01*
X132847000Y-93077000D01*
X132827000Y-93077000D01*
X132827000Y-93097000D01*
X132573000Y-93097000D01*
X132573000Y-93077000D01*
X131498750Y-93077000D01*
X131340000Y-93235750D01*
X131336928Y-93450000D01*
X131349188Y-93574482D01*
X131385498Y-93694180D01*
X131444463Y-93804494D01*
X131453085Y-93815000D01*
X131278061Y-93815000D01*
X131078102Y-93854774D01*
X130889744Y-93932795D01*
X130720226Y-94046063D01*
X130660000Y-94106289D01*
X130660000Y-92450000D01*
X131336928Y-92450000D01*
X131340000Y-92664250D01*
X131498750Y-92823000D01*
X132573000Y-92823000D01*
X132573000Y-91973750D01*
X132414250Y-91815000D01*
X131975000Y-91811928D01*
X131850518Y-91824188D01*
X131730820Y-91860498D01*
X131620506Y-91919463D01*
X131523815Y-91998815D01*
X131444463Y-92095506D01*
X131385498Y-92205820D01*
X131349188Y-92325518D01*
X131336928Y-92450000D01*
X130660000Y-92450000D01*
X130660000Y-91979444D01*
X130698102Y-91995226D01*
X130898061Y-92035000D01*
X131101939Y-92035000D01*
X131301898Y-91995226D01*
X131490256Y-91917205D01*
X131659774Y-91803937D01*
X131803937Y-91659774D01*
X131917205Y-91490256D01*
X131995226Y-91301898D01*
X132035000Y-91101939D01*
X132035000Y-90898061D01*
X131995226Y-90698102D01*
X131979444Y-90660000D01*
X164873000Y-90660000D01*
X164873000Y-109340000D01*
%TA.AperFunction,Conductor*%
D17*
G36*
X164873000Y-109340000D02*
G01*
X130660000Y-109340000D01*
X130660000Y-107550000D01*
X131336928Y-107550000D01*
X131349188Y-107674482D01*
X131385498Y-107794180D01*
X131444463Y-107904494D01*
X131523815Y-108001185D01*
X131620506Y-108080537D01*
X131730820Y-108139502D01*
X131850518Y-108175812D01*
X131975000Y-108188072D01*
X132414250Y-108185000D01*
X132573000Y-108026250D01*
X132573000Y-107177000D01*
X131498750Y-107177000D01*
X131340000Y-107335750D01*
X131336928Y-107550000D01*
X130660000Y-107550000D01*
X130660000Y-105893711D01*
X130720226Y-105953937D01*
X130889744Y-106067205D01*
X131078102Y-106145226D01*
X131278061Y-106185000D01*
X131453085Y-106185000D01*
X131444463Y-106195506D01*
X131385498Y-106305820D01*
X131349188Y-106425518D01*
X131336928Y-106550000D01*
X131340000Y-106764250D01*
X131498750Y-106923000D01*
X132573000Y-106923000D01*
X132573000Y-106903000D01*
X132827000Y-106903000D01*
X132827000Y-106923000D01*
X132847000Y-106923000D01*
X132847000Y-107177000D01*
X132827000Y-107177000D01*
X132827000Y-108026250D01*
X132985750Y-108185000D01*
X133425000Y-108188072D01*
X133522122Y-108178507D01*
X133528992Y-108248254D01*
X133579528Y-108414850D01*
X133661595Y-108568386D01*
X133772038Y-108702962D01*
X133906614Y-108813405D01*
X134060150Y-108895472D01*
X134226746Y-108946008D01*
X134400000Y-108963072D01*
X134900000Y-108963072D01*
X135073254Y-108946008D01*
X135239850Y-108895472D01*
X135393386Y-108813405D01*
X135527962Y-108702962D01*
X135533342Y-108696406D01*
X135598815Y-108776185D01*
X135695506Y-108855537D01*
X135805820Y-108914502D01*
X135925518Y-108950812D01*
X136050000Y-108963072D01*
X136264250Y-108960000D01*
X136423000Y-108801250D01*
X136423000Y-107727000D01*
X136677000Y-107727000D01*
X136677000Y-108801250D01*
X136835750Y-108960000D01*
X137050000Y-108963072D01*
X137174482Y-108950812D01*
X137294180Y-108914502D01*
X137404494Y-108855537D01*
X137501185Y-108776185D01*
X137580537Y-108679494D01*
X137639502Y-108569180D01*
X137675812Y-108449482D01*
X137688072Y-108325000D01*
X137685000Y-107885750D01*
X137526250Y-107727000D01*
X136677000Y-107727000D01*
X136423000Y-107727000D01*
X136403000Y-107727000D01*
X136403000Y-107473000D01*
X136423000Y-107473000D01*
X136423000Y-106398750D01*
X136677000Y-106398750D01*
X136677000Y-107473000D01*
X137526250Y-107473000D01*
X137685000Y-107314250D01*
X137688072Y-106875000D01*
X137675812Y-106750518D01*
X137639502Y-106630820D01*
X137580537Y-106520506D01*
X137501185Y-106423815D01*
X137404494Y-106344463D01*
X137294180Y-106285498D01*
X137174482Y-106249188D01*
X137050000Y-106236928D01*
X136835750Y-106240000D01*
X136677000Y-106398750D01*
X136423000Y-106398750D01*
X136264250Y-106240000D01*
X136050000Y-106236928D01*
X135925518Y-106249188D01*
X135805820Y-106285498D01*
X135695506Y-106344463D01*
X135685000Y-106353085D01*
X135685000Y-106178061D01*
X135645226Y-105978102D01*
X135567205Y-105789744D01*
X135535579Y-105742413D01*
X135535000Y-105736531D01*
X135535000Y-105736523D01*
X135522195Y-105606510D01*
X135512107Y-105573254D01*
X135471589Y-105439686D01*
X135389411Y-105285941D01*
X135306532Y-105184953D01*
X135306530Y-105184951D01*
X135278817Y-105151183D01*
X135245049Y-105123470D01*
X135197262Y-105075683D01*
X135222195Y-104993490D01*
X135235000Y-104863477D01*
X135235000Y-104863467D01*
X135235580Y-104857581D01*
X135267205Y-104810250D01*
X135345226Y-104621892D01*
X135385000Y-104421933D01*
X135385000Y-104218055D01*
X135374069Y-104163099D01*
X135457111Y-104218586D01*
X135627271Y-104289068D01*
X135807911Y-104325000D01*
X135992089Y-104325000D01*
X136172729Y-104289068D01*
X136342889Y-104218586D01*
X136496028Y-104116262D01*
X136626262Y-103986028D01*
X136728586Y-103832889D01*
X136744156Y-103795297D01*
X142459996Y-103795297D01*
X142459996Y-103964703D01*
X142493045Y-104130853D01*
X142557874Y-104287363D01*
X142651991Y-104428218D01*
X142771778Y-104548005D01*
X142912633Y-104642122D01*
X143069143Y-104706951D01*
X143235293Y-104740000D01*
X143404699Y-104740000D01*
X143570849Y-104706951D01*
X143727359Y-104642122D01*
X143786898Y-104602339D01*
X143827271Y-104619062D01*
X144007911Y-104654994D01*
X144192089Y-104654994D01*
X144372729Y-104619062D01*
X144542889Y-104548580D01*
X144696028Y-104446256D01*
X144826262Y-104316022D01*
X144928586Y-104162883D01*
X144999068Y-103992723D01*
X145031851Y-103827911D01*
X155525000Y-103827911D01*
X155525000Y-104012089D01*
X155560932Y-104192729D01*
X155631414Y-104362889D01*
X155733738Y-104516028D01*
X155863972Y-104646262D01*
X156017111Y-104748586D01*
X156187271Y-104819068D01*
X156367911Y-104855000D01*
X156552089Y-104855000D01*
X156732729Y-104819068D01*
X156902889Y-104748586D01*
X157056028Y-104646262D01*
X157186262Y-104516028D01*
X157288586Y-104362889D01*
X157359068Y-104192729D01*
X157395000Y-104012089D01*
X157395000Y-103827911D01*
X157359068Y-103647271D01*
X157288586Y-103477111D01*
X157186262Y-103323972D01*
X157056028Y-103193738D01*
X156902889Y-103091414D01*
X156732729Y-103020932D01*
X156552089Y-102985000D01*
X156367911Y-102985000D01*
X156187271Y-103020932D01*
X156017111Y-103091414D01*
X155863972Y-103193738D01*
X155733738Y-103323972D01*
X155631414Y-103477111D01*
X155560932Y-103647271D01*
X155525000Y-103827911D01*
X145031851Y-103827911D01*
X145035000Y-103812083D01*
X145035000Y-103627905D01*
X144999068Y-103447265D01*
X144928586Y-103277105D01*
X144826262Y-103123966D01*
X144696028Y-102993732D01*
X144542889Y-102891408D01*
X144372729Y-102820926D01*
X144192089Y-102784994D01*
X144007911Y-102784994D01*
X144004998Y-102785573D01*
X144004998Y-102666661D01*
X150435000Y-102666661D01*
X150435000Y-102870539D01*
X150474774Y-103070498D01*
X150552795Y-103258856D01*
X150666063Y-103428374D01*
X150810226Y-103572537D01*
X150979744Y-103685805D01*
X151168102Y-103763826D01*
X151368061Y-103803600D01*
X151571939Y-103803600D01*
X151771898Y-103763826D01*
X151960256Y-103685805D01*
X152129774Y-103572537D01*
X152273937Y-103428374D01*
X152387205Y-103258856D01*
X152465226Y-103070498D01*
X152505000Y-102870539D01*
X152505000Y-102666661D01*
X152465226Y-102466702D01*
X152387205Y-102278344D01*
X152273937Y-102108826D01*
X152129774Y-101964663D01*
X151960256Y-101851395D01*
X151771898Y-101773374D01*
X151571939Y-101733600D01*
X151368061Y-101733600D01*
X151168102Y-101773374D01*
X150979744Y-101851395D01*
X150810226Y-101964663D01*
X150666063Y-102108826D01*
X150552795Y-102278344D01*
X150474774Y-102466702D01*
X150435000Y-102666661D01*
X144004998Y-102666661D01*
X144004998Y-102452783D01*
X144082120Y-102337363D01*
X144146949Y-102180853D01*
X144179998Y-102014703D01*
X144179998Y-101845297D01*
X144146949Y-101679147D01*
X144082120Y-101522637D01*
X143988003Y-101381782D01*
X143868216Y-101261995D01*
X143727361Y-101167878D01*
X143570851Y-101103049D01*
X143404701Y-101070000D01*
X143235295Y-101070000D01*
X143069145Y-101103049D01*
X142912635Y-101167878D01*
X142771780Y-101261995D01*
X142651993Y-101381782D01*
X142557876Y-101522637D01*
X142493047Y-101679147D01*
X142459998Y-101845297D01*
X142459998Y-102014703D01*
X142493047Y-102180853D01*
X142557876Y-102337363D01*
X142634998Y-102452784D01*
X142634999Y-103357213D01*
X142557874Y-103472637D01*
X142493045Y-103629147D01*
X142459996Y-103795297D01*
X136744156Y-103795297D01*
X136799068Y-103662729D01*
X136835000Y-103482089D01*
X136835000Y-103297911D01*
X136799068Y-103117271D01*
X136728586Y-102947111D01*
X136626262Y-102793972D01*
X136496028Y-102663738D01*
X136342889Y-102561414D01*
X136172729Y-102490932D01*
X135992089Y-102455000D01*
X135807911Y-102455000D01*
X135627271Y-102490932D01*
X135488072Y-102548590D01*
X135488072Y-102525000D01*
X135471008Y-102351746D01*
X135442544Y-102257911D01*
X139945000Y-102257911D01*
X139945000Y-102442089D01*
X139980932Y-102622729D01*
X140051414Y-102792889D01*
X140153738Y-102946028D01*
X140283972Y-103076262D01*
X140437111Y-103178586D01*
X140607271Y-103249068D01*
X140787911Y-103285000D01*
X140972089Y-103285000D01*
X141152729Y-103249068D01*
X141322889Y-103178586D01*
X141476028Y-103076262D01*
X141606262Y-102946028D01*
X141708586Y-102792889D01*
X141779068Y-102622729D01*
X141815000Y-102442089D01*
X141815000Y-102257911D01*
X141779068Y-102077271D01*
X141708586Y-101907111D01*
X141606262Y-101753972D01*
X141476028Y-101623738D01*
X141322889Y-101521414D01*
X141152729Y-101450932D01*
X140972089Y-101415000D01*
X140787911Y-101415000D01*
X140607271Y-101450932D01*
X140437111Y-101521414D01*
X140283972Y-101623738D01*
X140153738Y-101753972D01*
X140051414Y-101907111D01*
X139980932Y-102077271D01*
X139945000Y-102257911D01*
X135442544Y-102257911D01*
X135420472Y-102185150D01*
X135379788Y-102109035D01*
X135444180Y-102089502D01*
X135554494Y-102030537D01*
X135651185Y-101951185D01*
X135730537Y-101854494D01*
X135789502Y-101744180D01*
X135825812Y-101624482D01*
X135838072Y-101500000D01*
X135838072Y-100127000D01*
X151961928Y-100127000D01*
X151961928Y-101200000D01*
X151974188Y-101324482D01*
X152010498Y-101444180D01*
X152069463Y-101554494D01*
X152148815Y-101651185D01*
X152245506Y-101730537D01*
X152355820Y-101789502D01*
X152475518Y-101825812D01*
X152600000Y-101838072D01*
X154723000Y-101838072D01*
X154723000Y-100127000D01*
X154977000Y-100127000D01*
X154977000Y-101838072D01*
X157100000Y-101838072D01*
X157224482Y-101825812D01*
X157344180Y-101789502D01*
X157454494Y-101730537D01*
X157551185Y-101651185D01*
X157630537Y-101554494D01*
X157689502Y-101444180D01*
X157725812Y-101324482D01*
X157738072Y-101200000D01*
X157738072Y-101007911D01*
X157965000Y-101007911D01*
X157965000Y-101192089D01*
X158000932Y-101372729D01*
X158071414Y-101542889D01*
X158173738Y-101696028D01*
X158303972Y-101826262D01*
X158457111Y-101928586D01*
X158627271Y-101999068D01*
X158807911Y-102035000D01*
X158992089Y-102035000D01*
X159172729Y-101999068D01*
X159342889Y-101928586D01*
X159496028Y-101826262D01*
X159626262Y-101696028D01*
X159728586Y-101542889D01*
X159799068Y-101372729D01*
X159835000Y-101192089D01*
X159835000Y-101007911D01*
X159799068Y-100827271D01*
X159728586Y-100657111D01*
X159626262Y-100503972D01*
X159496028Y-100373738D01*
X159342889Y-100271414D01*
X159172729Y-100200932D01*
X158992089Y-100165000D01*
X158807911Y-100165000D01*
X158627271Y-100200932D01*
X158457111Y-100271414D01*
X158303972Y-100373738D01*
X158173738Y-100503972D01*
X158071414Y-100657111D01*
X158000932Y-100827271D01*
X157965000Y-101007911D01*
X157738072Y-101007911D01*
X157738072Y-100127000D01*
X154977000Y-100127000D01*
X154723000Y-100127000D01*
X151961928Y-100127000D01*
X135838072Y-100127000D01*
X135838072Y-98500000D01*
X135825812Y-98375518D01*
X135789502Y-98255820D01*
X135730537Y-98145506D01*
X135651185Y-98048815D01*
X135554494Y-97969463D01*
X135444180Y-97910498D01*
X135379788Y-97890965D01*
X135420472Y-97814850D01*
X135471008Y-97648254D01*
X135482860Y-97527911D01*
X137195000Y-97527911D01*
X137195000Y-97712089D01*
X137230932Y-97892729D01*
X137301414Y-98062889D01*
X137403738Y-98216028D01*
X137533972Y-98346262D01*
X137687111Y-98448586D01*
X137857271Y-98519068D01*
X138037911Y-98555000D01*
X138222089Y-98555000D01*
X138402729Y-98519068D01*
X138572889Y-98448586D01*
X138726028Y-98346262D01*
X138794369Y-98277921D01*
X149920117Y-98277921D01*
X149920117Y-98462099D01*
X149956049Y-98642739D01*
X150026531Y-98812899D01*
X150128855Y-98966038D01*
X150259089Y-99096272D01*
X150412228Y-99198596D01*
X150582388Y-99269078D01*
X150763028Y-99305010D01*
X150947206Y-99305010D01*
X151127846Y-99269078D01*
X151298006Y-99198596D01*
X151451145Y-99096272D01*
X151581379Y-98966038D01*
X151683703Y-98812899D01*
X151689045Y-98800000D01*
X151961928Y-98800000D01*
X151961928Y-99873000D01*
X154723000Y-99873000D01*
X154723000Y-98161928D01*
X154977000Y-98161928D01*
X154977000Y-99873000D01*
X157738072Y-99873000D01*
X157738072Y-98800000D01*
X157725812Y-98675518D01*
X157689502Y-98555820D01*
X157630537Y-98445506D01*
X157551185Y-98348815D01*
X157454494Y-98269463D01*
X157344180Y-98210498D01*
X157224482Y-98174188D01*
X157100000Y-98161928D01*
X154977000Y-98161928D01*
X154723000Y-98161928D01*
X152600000Y-98161928D01*
X152475518Y-98174188D01*
X152355820Y-98210498D01*
X152245506Y-98269463D01*
X152148815Y-98348815D01*
X152069463Y-98445506D01*
X152010498Y-98555820D01*
X151974188Y-98675518D01*
X151961928Y-98800000D01*
X151689045Y-98800000D01*
X151754185Y-98642739D01*
X151790117Y-98462099D01*
X151790117Y-98277921D01*
X151754185Y-98097281D01*
X151683703Y-97927121D01*
X151581379Y-97773982D01*
X151451145Y-97643748D01*
X151298006Y-97541424D01*
X151127846Y-97470942D01*
X150947206Y-97435010D01*
X150763028Y-97435010D01*
X150582388Y-97470942D01*
X150412228Y-97541424D01*
X150259089Y-97643748D01*
X150128855Y-97773982D01*
X150026531Y-97927121D01*
X149956049Y-98097281D01*
X149920117Y-98277921D01*
X138794369Y-98277921D01*
X138856262Y-98216028D01*
X138958586Y-98062889D01*
X139029068Y-97892729D01*
X139065000Y-97712089D01*
X139065000Y-97527911D01*
X139029068Y-97347271D01*
X138958586Y-97177111D01*
X138856262Y-97023972D01*
X138726028Y-96893738D01*
X138572889Y-96791414D01*
X138402729Y-96720932D01*
X138222089Y-96685000D01*
X138037911Y-96685000D01*
X137857271Y-96720932D01*
X137687111Y-96791414D01*
X137533972Y-96893738D01*
X137403738Y-97023972D01*
X137301414Y-97177111D01*
X137230932Y-97347271D01*
X137195000Y-97527911D01*
X135482860Y-97527911D01*
X135488072Y-97475000D01*
X135488072Y-96525000D01*
X135471008Y-96351746D01*
X135420472Y-96185150D01*
X135393825Y-96135297D01*
X151460000Y-96135297D01*
X151460000Y-96304703D01*
X151493049Y-96470853D01*
X151557878Y-96627363D01*
X151651995Y-96768218D01*
X151771782Y-96888005D01*
X151912637Y-96982122D01*
X152069147Y-97046951D01*
X152235297Y-97080000D01*
X152404703Y-97080000D01*
X152570853Y-97046951D01*
X152660004Y-97010023D01*
X152749155Y-97046951D01*
X152915305Y-97080000D01*
X153084711Y-97080000D01*
X153246034Y-97047911D01*
X157905000Y-97047911D01*
X157905000Y-97232089D01*
X157940932Y-97412729D01*
X158011414Y-97582889D01*
X158113738Y-97736028D01*
X158177710Y-97800000D01*
X158173738Y-97803972D01*
X158071414Y-97957111D01*
X158000932Y-98127271D01*
X157965000Y-98307911D01*
X157965000Y-98492089D01*
X158000932Y-98672729D01*
X158071414Y-98842889D01*
X158173738Y-98996028D01*
X158303972Y-99126262D01*
X158457111Y-99228586D01*
X158627271Y-99299068D01*
X158807911Y-99335000D01*
X158992089Y-99335000D01*
X159172729Y-99299068D01*
X159342889Y-99228586D01*
X159496028Y-99126262D01*
X159626262Y-98996028D01*
X159728586Y-98842889D01*
X159799068Y-98672729D01*
X159835000Y-98492089D01*
X159835000Y-98307911D01*
X159799068Y-98127271D01*
X159728586Y-97957111D01*
X159626262Y-97803972D01*
X159562290Y-97740000D01*
X159566262Y-97736028D01*
X159668586Y-97582889D01*
X159739068Y-97412729D01*
X159775000Y-97232089D01*
X159775000Y-97047911D01*
X159739068Y-96867271D01*
X159668586Y-96697111D01*
X159566262Y-96543972D01*
X159436028Y-96413738D01*
X159282889Y-96311414D01*
X159112729Y-96240932D01*
X158932089Y-96205000D01*
X158747911Y-96205000D01*
X158567271Y-96240932D01*
X158397111Y-96311414D01*
X158243972Y-96413738D01*
X158113738Y-96543972D01*
X158011414Y-96697111D01*
X157940932Y-96867271D01*
X157905000Y-97047911D01*
X153246034Y-97047911D01*
X153250861Y-97046951D01*
X153407371Y-96982122D01*
X153548226Y-96888005D01*
X153668013Y-96768218D01*
X153762130Y-96627363D01*
X153826959Y-96470853D01*
X153860008Y-96304703D01*
X153860008Y-96135297D01*
X153826959Y-95969147D01*
X153762130Y-95812637D01*
X153745609Y-95787911D01*
X156105000Y-95787911D01*
X156105000Y-95972089D01*
X156140932Y-96152729D01*
X156211414Y-96322889D01*
X156313738Y-96476028D01*
X156443972Y-96606262D01*
X156597111Y-96708586D01*
X156767271Y-96779068D01*
X156947911Y-96815000D01*
X157132089Y-96815000D01*
X157312729Y-96779068D01*
X157482889Y-96708586D01*
X157636028Y-96606262D01*
X157766262Y-96476028D01*
X157868586Y-96322889D01*
X157939068Y-96152729D01*
X157975000Y-95972089D01*
X157975000Y-95787911D01*
X157939068Y-95607271D01*
X157868586Y-95437111D01*
X157766262Y-95283972D01*
X157636028Y-95153738D01*
X157482889Y-95051414D01*
X157312729Y-94980932D01*
X157132089Y-94945000D01*
X156947911Y-94945000D01*
X156767271Y-94980932D01*
X156597111Y-95051414D01*
X156443972Y-95153738D01*
X156313738Y-95283972D01*
X156211414Y-95437111D01*
X156140932Y-95607271D01*
X156105000Y-95787911D01*
X153745609Y-95787911D01*
X153668013Y-95671782D01*
X153548226Y-95551995D01*
X153407371Y-95457878D01*
X153250861Y-95393049D01*
X153084711Y-95360000D01*
X152915305Y-95360000D01*
X152749155Y-95393049D01*
X152660004Y-95429977D01*
X152570853Y-95393049D01*
X152404703Y-95360000D01*
X152235297Y-95360000D01*
X152069147Y-95393049D01*
X151912637Y-95457878D01*
X151771782Y-95551995D01*
X151651995Y-95671782D01*
X151557878Y-95812637D01*
X151493049Y-95969147D01*
X151460000Y-96135297D01*
X135393825Y-96135297D01*
X135338405Y-96031614D01*
X135329253Y-96020463D01*
X135345226Y-95981902D01*
X135385000Y-95781943D01*
X135385000Y-95578065D01*
X135345226Y-95378106D01*
X135267205Y-95189748D01*
X135236735Y-95144146D01*
X135235000Y-95126533D01*
X135235000Y-95126523D01*
X135222195Y-94996510D01*
X135201917Y-94929662D01*
X135245049Y-94886530D01*
X135278817Y-94858817D01*
X135389411Y-94724059D01*
X135471589Y-94570313D01*
X135522195Y-94403490D01*
X135535000Y-94273477D01*
X135535000Y-94273467D01*
X135535579Y-94267588D01*
X135567205Y-94220256D01*
X135645226Y-94031898D01*
X135685000Y-93831939D01*
X135685000Y-93646915D01*
X135695506Y-93655537D01*
X135805820Y-93714502D01*
X135925518Y-93750812D01*
X136050000Y-93763072D01*
X136264250Y-93760000D01*
X136423000Y-93601250D01*
X136423000Y-92527000D01*
X136677000Y-92527000D01*
X136677000Y-93601250D01*
X136835750Y-93760000D01*
X137050000Y-93763072D01*
X137174482Y-93750812D01*
X137294180Y-93714502D01*
X137404494Y-93655537D01*
X137501185Y-93576185D01*
X137580537Y-93479494D01*
X137639502Y-93369180D01*
X137675812Y-93249482D01*
X137688072Y-93125000D01*
X137685000Y-92685750D01*
X137526250Y-92527000D01*
X136677000Y-92527000D01*
X136423000Y-92527000D01*
X136403000Y-92527000D01*
X136403000Y-92273000D01*
X136423000Y-92273000D01*
X136423000Y-91198750D01*
X136677000Y-91198750D01*
X136677000Y-92273000D01*
X137526250Y-92273000D01*
X137685000Y-92114250D01*
X137688072Y-91675000D01*
X137675812Y-91550518D01*
X137639502Y-91430820D01*
X137580537Y-91320506D01*
X137501185Y-91223815D01*
X137404494Y-91144463D01*
X137294180Y-91085498D01*
X137174482Y-91049188D01*
X137050000Y-91036928D01*
X136835750Y-91040000D01*
X136677000Y-91198750D01*
X136423000Y-91198750D01*
X136264250Y-91040000D01*
X136050000Y-91036928D01*
X135925518Y-91049188D01*
X135805820Y-91085498D01*
X135695506Y-91144463D01*
X135598815Y-91223815D01*
X135533342Y-91303594D01*
X135527962Y-91297038D01*
X135393386Y-91186595D01*
X135239850Y-91104528D01*
X135073254Y-91053992D01*
X134900000Y-91036928D01*
X134400000Y-91036928D01*
X134226746Y-91053992D01*
X134060150Y-91104528D01*
X133906614Y-91186595D01*
X133772038Y-91297038D01*
X133661595Y-91431614D01*
X133579528Y-91585150D01*
X133528992Y-91751746D01*
X133522122Y-91821493D01*
X133425000Y-91811928D01*
X132985750Y-91815000D01*
X132827000Y-91973750D01*
X132827000Y-92823000D01*
X132847000Y-92823000D01*
X132847000Y-93077000D01*
X132827000Y-93077000D01*
X132827000Y-93097000D01*
X132573000Y-93097000D01*
X132573000Y-93077000D01*
X131498750Y-93077000D01*
X131340000Y-93235750D01*
X131336928Y-93450000D01*
X131349188Y-93574482D01*
X131385498Y-93694180D01*
X131444463Y-93804494D01*
X131453085Y-93815000D01*
X131278061Y-93815000D01*
X131078102Y-93854774D01*
X130889744Y-93932795D01*
X130720226Y-94046063D01*
X130660000Y-94106289D01*
X130660000Y-92450000D01*
X131336928Y-92450000D01*
X131340000Y-92664250D01*
X131498750Y-92823000D01*
X132573000Y-92823000D01*
X132573000Y-91973750D01*
X132414250Y-91815000D01*
X131975000Y-91811928D01*
X131850518Y-91824188D01*
X131730820Y-91860498D01*
X131620506Y-91919463D01*
X131523815Y-91998815D01*
X131444463Y-92095506D01*
X131385498Y-92205820D01*
X131349188Y-92325518D01*
X131336928Y-92450000D01*
X130660000Y-92450000D01*
X130660000Y-91979444D01*
X130698102Y-91995226D01*
X130898061Y-92035000D01*
X131101939Y-92035000D01*
X131301898Y-91995226D01*
X131490256Y-91917205D01*
X131659774Y-91803937D01*
X131803937Y-91659774D01*
X131917205Y-91490256D01*
X131995226Y-91301898D01*
X132035000Y-91101939D01*
X132035000Y-90898061D01*
X131995226Y-90698102D01*
X131979444Y-90660000D01*
X164873000Y-90660000D01*
X164873000Y-109340000D01*
G37*
%TD.AperFunction*%
D19*
X130740226Y-101603937D02*
X130909744Y-101717205D01*
X131098102Y-101795226D01*
X131254401Y-101826316D01*
X131269463Y-101854494D01*
X131348815Y-101951185D01*
X131386523Y-101982131D01*
X131360498Y-102030820D01*
X131324188Y-102150518D01*
X131311928Y-102275000D01*
X131315000Y-102714250D01*
X131473750Y-102873000D01*
X132323000Y-102873000D01*
X132323000Y-102853000D01*
X132577000Y-102853000D01*
X132577000Y-102873000D01*
X132597000Y-102873000D01*
X132597000Y-103127000D01*
X132577000Y-103127000D01*
X132577000Y-103147000D01*
X132323000Y-103147000D01*
X132323000Y-103127000D01*
X131473750Y-103127000D01*
X131315000Y-103285750D01*
X131311928Y-103725000D01*
X131324188Y-103849482D01*
X131360498Y-103969180D01*
X131419463Y-104079494D01*
X131448602Y-104115000D01*
X131278061Y-104115000D01*
X131078102Y-104154774D01*
X130889744Y-104232795D01*
X130720226Y-104346063D01*
X130660000Y-104406289D01*
X130660000Y-101523711D01*
X130740226Y-101603937D01*
%TA.AperFunction,Conductor*%
D17*
G36*
X130740226Y-101603937D02*
G01*
X130909744Y-101717205D01*
X131098102Y-101795226D01*
X131254401Y-101826316D01*
X131269463Y-101854494D01*
X131348815Y-101951185D01*
X131386523Y-101982131D01*
X131360498Y-102030820D01*
X131324188Y-102150518D01*
X131311928Y-102275000D01*
X131315000Y-102714250D01*
X131473750Y-102873000D01*
X132323000Y-102873000D01*
X132323000Y-102853000D01*
X132577000Y-102853000D01*
X132577000Y-102873000D01*
X132597000Y-102873000D01*
X132597000Y-103127000D01*
X132577000Y-103127000D01*
X132577000Y-103147000D01*
X132323000Y-103147000D01*
X132323000Y-103127000D01*
X131473750Y-103127000D01*
X131315000Y-103285750D01*
X131311928Y-103725000D01*
X131324188Y-103849482D01*
X131360498Y-103969180D01*
X131419463Y-104079494D01*
X131448602Y-104115000D01*
X131278061Y-104115000D01*
X131078102Y-104154774D01*
X130889744Y-104232795D01*
X130720226Y-104346063D01*
X130660000Y-104406289D01*
X130660000Y-101523711D01*
X130740226Y-101603937D01*
G37*
%TD.AperFunction*%
D19*
X130720226Y-95653937D02*
X130889744Y-95767205D01*
X131078102Y-95845226D01*
X131278061Y-95885000D01*
X131448602Y-95885000D01*
X131419463Y-95920506D01*
X131360498Y-96030820D01*
X131324188Y-96150518D01*
X131311928Y-96275000D01*
X131315000Y-96714250D01*
X131473750Y-96873000D01*
X132323000Y-96873000D01*
X132323000Y-96853000D01*
X132577000Y-96853000D01*
X132577000Y-96873000D01*
X132597000Y-96873000D01*
X132597000Y-97127000D01*
X132577000Y-97127000D01*
X132577000Y-97147000D01*
X132323000Y-97147000D01*
X132323000Y-97127000D01*
X131473750Y-97127000D01*
X131315000Y-97285750D01*
X131311928Y-97725000D01*
X131324188Y-97849482D01*
X131360498Y-97969180D01*
X131386523Y-98017869D01*
X131348815Y-98048815D01*
X131269463Y-98145506D01*
X131254401Y-98173684D01*
X131098102Y-98204774D01*
X130909744Y-98282795D01*
X130740226Y-98396063D01*
X130660000Y-98476289D01*
X130660000Y-95593711D01*
X130720226Y-95653937D01*
%TA.AperFunction,Conductor*%
D17*
G36*
X130720226Y-95653937D02*
G01*
X130889744Y-95767205D01*
X131078102Y-95845226D01*
X131278061Y-95885000D01*
X131448602Y-95885000D01*
X131419463Y-95920506D01*
X131360498Y-96030820D01*
X131324188Y-96150518D01*
X131311928Y-96275000D01*
X131315000Y-96714250D01*
X131473750Y-96873000D01*
X132323000Y-96873000D01*
X132323000Y-96853000D01*
X132577000Y-96853000D01*
X132577000Y-96873000D01*
X132597000Y-96873000D01*
X132597000Y-97127000D01*
X132577000Y-97127000D01*
X132577000Y-97147000D01*
X132323000Y-97147000D01*
X132323000Y-97127000D01*
X131473750Y-97127000D01*
X131315000Y-97285750D01*
X131311928Y-97725000D01*
X131324188Y-97849482D01*
X131360498Y-97969180D01*
X131386523Y-98017869D01*
X131348815Y-98048815D01*
X131269463Y-98145506D01*
X131254401Y-98173684D01*
X131098102Y-98204774D01*
X130909744Y-98282795D01*
X130740226Y-98396063D01*
X130660000Y-98476289D01*
X130660000Y-95593711D01*
X130720226Y-95653937D01*
G37*
%TD.AperFunction*%
%TD*%
M02*
