%TF.GenerationSoftware,KiCad,Pcbnew,5.1.9-73d0e3b20d~88~ubuntu20.04.1*%
%TF.CreationDate,2021-04-10T20:27:40+02:00*%
%TF.ProjectId,calvin,63616c76-696e-42e6-9b69-6361645f7063,v1.00*%
%TF.SameCoordinates,Original*%
%TF.FileFunction,Copper,L1,Top*%
%TF.FilePolarity,Positive*%
%FSLAX46Y46*%
G04 Gerber Fmt 4.6, Leading zero omitted, Abs format (unit mm)*
G04 Created by KiCad (PCBNEW 5.1.9-73d0e3b20d~88~ubuntu20.04.1) date 2021-04-10 20:27:40*
%MOMM*%
%LPD*%
G01*
G04 APERTURE LIST*
%TA.AperFunction,EtchedComponent*%
%ADD10C,0.500000*%
%TD*%
%TA.AperFunction,SMDPad,CuDef*%
%ADD11C,0.100000*%
%TD*%
%TA.AperFunction,SMDPad,CuDef*%
%ADD12C,0.320000*%
%TD*%
%TA.AperFunction,SMDPad,CuDef*%
%ADD13R,2.400000X1.500000*%
%TD*%
%TA.AperFunction,SMDPad,CuDef*%
%ADD14R,0.900000X0.800000*%
%TD*%
%TA.AperFunction,SMDPad,CuDef*%
%ADD15R,0.750000X0.280000*%
%TD*%
%TA.AperFunction,SMDPad,CuDef*%
%ADD16R,0.280000X0.750000*%
%TD*%
%TA.AperFunction,ComponentPad*%
%ADD17R,0.880000X0.880000*%
%TD*%
%TA.AperFunction,SMDPad,CuDef*%
%ADD18R,0.880000X0.880000*%
%TD*%
%TA.AperFunction,ViaPad*%
%ADD19C,0.800000*%
%TD*%
%TA.AperFunction,ViaPad*%
%ADD20C,0.600000*%
%TD*%
%TA.AperFunction,ViaPad*%
%ADD21C,0.450000*%
%TD*%
%TA.AperFunction,Conductor*%
%ADD22C,0.330000*%
%TD*%
%TA.AperFunction,Conductor*%
%ADD23C,0.250000*%
%TD*%
%TA.AperFunction,Conductor*%
%ADD24C,0.500000*%
%TD*%
%TA.AperFunction,Conductor*%
%ADD25C,0.300000*%
%TD*%
%TA.AperFunction,Conductor*%
%ADD26C,0.200000*%
%TD*%
%TA.AperFunction,Conductor*%
%ADD27C,0.100000*%
%TD*%
%TA.AperFunction,Conductor*%
%ADD28C,0.254000*%
%TD*%
G04 APERTURE END LIST*
D10*
%TO.C,AE1*%
X173750000Y-100000000D02*
X173750000Y-105750000D01*
X173750000Y-105750000D02*
X167150000Y-105750000D01*
X167150000Y-105750000D02*
X167150000Y-103250000D01*
X167150000Y-103250000D02*
X171750000Y-103250000D01*
%TD*%
%TO.P,J1,MP*%
%TO.N,N/C*%
%TA.AperFunction,SMDPad,CuDef*%
G36*
G01*
X153800000Y-109525001D02*
X153800000Y-108224999D01*
G75*
G02*
X154049999Y-107975000I249999J0D01*
G01*
X154750001Y-107975000D01*
G75*
G02*
X155000000Y-108224999I0J-249999D01*
G01*
X155000000Y-109525001D01*
G75*
G02*
X154750001Y-109775000I-249999J0D01*
G01*
X154049999Y-109775000D01*
G75*
G02*
X153800000Y-109525001I0J249999D01*
G01*
G37*
%TD.AperFunction*%
%TA.AperFunction,SMDPad,CuDef*%
G36*
G01*
X142200000Y-109525001D02*
X142200000Y-108224999D01*
G75*
G02*
X142449999Y-107975000I249999J0D01*
G01*
X143150001Y-107975000D01*
G75*
G02*
X143400000Y-108224999I0J-249999D01*
G01*
X143400000Y-109525001D01*
G75*
G02*
X143150001Y-109775000I-249999J0D01*
G01*
X142449999Y-109775000D01*
G75*
G02*
X142200000Y-109525001I0J249999D01*
G01*
G37*
%TD.AperFunction*%
%TO.P,J1,10*%
%TO.N,P0_6*%
%TA.AperFunction,SMDPad,CuDef*%
G36*
G01*
X152800000Y-105625000D02*
X152800000Y-104375000D01*
G75*
G02*
X152950000Y-104225000I150000J0D01*
G01*
X153250000Y-104225000D01*
G75*
G02*
X153400000Y-104375000I0J-150000D01*
G01*
X153400000Y-105625000D01*
G75*
G02*
X153250000Y-105775000I-150000J0D01*
G01*
X152950000Y-105775000D01*
G75*
G02*
X152800000Y-105625000I0J150000D01*
G01*
G37*
%TD.AperFunction*%
%TO.P,J1,9*%
%TO.N,dbg_data*%
%TA.AperFunction,SMDPad,CuDef*%
G36*
G01*
X151800000Y-105625000D02*
X151800000Y-104375000D01*
G75*
G02*
X151950000Y-104225000I150000J0D01*
G01*
X152250000Y-104225000D01*
G75*
G02*
X152400000Y-104375000I0J-150000D01*
G01*
X152400000Y-105625000D01*
G75*
G02*
X152250000Y-105775000I-150000J0D01*
G01*
X151950000Y-105775000D01*
G75*
G02*
X151800000Y-105625000I0J150000D01*
G01*
G37*
%TD.AperFunction*%
%TO.P,J1,8*%
%TO.N,dbg_clock*%
%TA.AperFunction,SMDPad,CuDef*%
G36*
G01*
X150800000Y-105625000D02*
X150800000Y-104375000D01*
G75*
G02*
X150950000Y-104225000I150000J0D01*
G01*
X151250000Y-104225000D01*
G75*
G02*
X151400000Y-104375000I0J-150000D01*
G01*
X151400000Y-105625000D01*
G75*
G02*
X151250000Y-105775000I-150000J0D01*
G01*
X150950000Y-105775000D01*
G75*
G02*
X150800000Y-105625000I0J150000D01*
G01*
G37*
%TD.AperFunction*%
%TO.P,J1,7*%
%TO.N,dbg_reset*%
%TA.AperFunction,SMDPad,CuDef*%
G36*
G01*
X149800000Y-105625000D02*
X149800000Y-104375000D01*
G75*
G02*
X149950000Y-104225000I150000J0D01*
G01*
X150250000Y-104225000D01*
G75*
G02*
X150400000Y-104375000I0J-150000D01*
G01*
X150400000Y-105625000D01*
G75*
G02*
X150250000Y-105775000I-150000J0D01*
G01*
X149950000Y-105775000D01*
G75*
G02*
X149800000Y-105625000I0J150000D01*
G01*
G37*
%TD.AperFunction*%
%TO.P,J1,6*%
%TO.N,P0_5*%
%TA.AperFunction,SMDPad,CuDef*%
G36*
G01*
X148800000Y-105625000D02*
X148800000Y-104375000D01*
G75*
G02*
X148950000Y-104225000I150000J0D01*
G01*
X149250000Y-104225000D01*
G75*
G02*
X149400000Y-104375000I0J-150000D01*
G01*
X149400000Y-105625000D01*
G75*
G02*
X149250000Y-105775000I-150000J0D01*
G01*
X148950000Y-105775000D01*
G75*
G02*
X148800000Y-105625000I0J150000D01*
G01*
G37*
%TD.AperFunction*%
%TO.P,J1,5*%
%TO.N,P0_4*%
%TA.AperFunction,SMDPad,CuDef*%
G36*
G01*
X147800000Y-105625000D02*
X147800000Y-104375000D01*
G75*
G02*
X147950000Y-104225000I150000J0D01*
G01*
X148250000Y-104225000D01*
G75*
G02*
X148400000Y-104375000I0J-150000D01*
G01*
X148400000Y-105625000D01*
G75*
G02*
X148250000Y-105775000I-150000J0D01*
G01*
X147950000Y-105775000D01*
G75*
G02*
X147800000Y-105625000I0J150000D01*
G01*
G37*
%TD.AperFunction*%
%TO.P,J1,4*%
%TO.N,dbg_tx*%
%TA.AperFunction,SMDPad,CuDef*%
G36*
G01*
X146800000Y-105625000D02*
X146800000Y-104375000D01*
G75*
G02*
X146950000Y-104225000I150000J0D01*
G01*
X147250000Y-104225000D01*
G75*
G02*
X147400000Y-104375000I0J-150000D01*
G01*
X147400000Y-105625000D01*
G75*
G02*
X147250000Y-105775000I-150000J0D01*
G01*
X146950000Y-105775000D01*
G75*
G02*
X146800000Y-105625000I0J150000D01*
G01*
G37*
%TD.AperFunction*%
%TO.P,J1,3*%
%TO.N,dbg_rx*%
%TA.AperFunction,SMDPad,CuDef*%
G36*
G01*
X145800000Y-105625000D02*
X145800000Y-104375000D01*
G75*
G02*
X145950000Y-104225000I150000J0D01*
G01*
X146250000Y-104225000D01*
G75*
G02*
X146400000Y-104375000I0J-150000D01*
G01*
X146400000Y-105625000D01*
G75*
G02*
X146250000Y-105775000I-150000J0D01*
G01*
X145950000Y-105775000D01*
G75*
G02*
X145800000Y-105625000I0J150000D01*
G01*
G37*
%TD.AperFunction*%
%TO.P,J1,2*%
%TO.N,GND*%
%TA.AperFunction,SMDPad,CuDef*%
G36*
G01*
X144800000Y-105625000D02*
X144800000Y-104375000D01*
G75*
G02*
X144950000Y-104225000I150000J0D01*
G01*
X145250000Y-104225000D01*
G75*
G02*
X145400000Y-104375000I0J-150000D01*
G01*
X145400000Y-105625000D01*
G75*
G02*
X145250000Y-105775000I-150000J0D01*
G01*
X144950000Y-105775000D01*
G75*
G02*
X144800000Y-105625000I0J150000D01*
G01*
G37*
%TD.AperFunction*%
%TO.P,J1,1*%
%TO.N,+3V3*%
%TA.AperFunction,SMDPad,CuDef*%
G36*
G01*
X143800000Y-105625000D02*
X143800000Y-104375000D01*
G75*
G02*
X143950000Y-104225000I150000J0D01*
G01*
X144250000Y-104225000D01*
G75*
G02*
X144400000Y-104375000I0J-150000D01*
G01*
X144400000Y-105625000D01*
G75*
G02*
X144250000Y-105775000I-150000J0D01*
G01*
X143950000Y-105775000D01*
G75*
G02*
X143800000Y-105625000I0J150000D01*
G01*
G37*
%TD.AperFunction*%
%TD*%
%TA.AperFunction,SMDPad,CuDef*%
D11*
%TO.P,AE1,2*%
%TO.N,N/C*%
G36*
X173000000Y-100900000D02*
G01*
X173000000Y-99100000D01*
X174000000Y-99100000D01*
X174000000Y-100900000D01*
X173000000Y-100900000D01*
G37*
%TD.AperFunction*%
%TA.AperFunction,SMDPad,CuDef*%
%TO.P,AE1,1*%
%TO.N,Net-(AE1-Pad1)*%
G36*
X166000000Y-100900000D02*
G01*
X166000000Y-99100000D01*
X167000000Y-99100000D01*
X167000000Y-100900000D01*
X166000000Y-100900000D01*
G37*
%TD.AperFunction*%
%TD*%
%TA.AperFunction,SMDPad,CuDef*%
%TO.P,U4,1*%
%TO.N,+3V3*%
G36*
X141150000Y-100350000D02*
G01*
X141150000Y-100650000D01*
X140600000Y-100650000D01*
X140600000Y-100350000D01*
X141150000Y-100350000D01*
G37*
%TD.AperFunction*%
%TA.AperFunction,SMDPad,CuDef*%
%TO.P,U4,6*%
%TO.N,i2c_scl*%
G36*
X138400000Y-100375000D02*
G01*
X138400000Y-100625000D01*
X137850000Y-100625000D01*
X137850000Y-100375000D01*
X138400000Y-100375000D01*
G37*
%TD.AperFunction*%
%TA.AperFunction,SMDPad,CuDef*%
%TO.P,U4,2*%
%TO.N,GND*%
G36*
X141150000Y-99875000D02*
G01*
X141150000Y-100125000D01*
X140600000Y-100125000D01*
X140600000Y-99875000D01*
X141150000Y-99875000D01*
G37*
%TD.AperFunction*%
%TA.AperFunction,SMDPad,CuDef*%
%TO.P,U4,5*%
%TO.N,Net-(C18-Pad2)*%
G36*
X138400000Y-99875000D02*
G01*
X138400000Y-100125000D01*
X137850000Y-100125000D01*
X137850000Y-99875000D01*
X138400000Y-99875000D01*
G37*
%TD.AperFunction*%
%TA.AperFunction,SMDPad,CuDef*%
%TO.P,U4,3*%
%TO.N,GND*%
G36*
X141150000Y-99375000D02*
G01*
X141150000Y-99625000D01*
X140600000Y-99625000D01*
X140600000Y-99375000D01*
X141150000Y-99375000D01*
G37*
%TD.AperFunction*%
%TA.AperFunction,SMDPad,CuDef*%
%TO.P,U4,4*%
%TO.N,i2c_sda*%
G36*
X138400000Y-99375000D02*
G01*
X138400000Y-99625000D01*
X137850000Y-99625000D01*
X137850000Y-99375000D01*
X138400000Y-99375000D01*
G37*
%TD.AperFunction*%
%TD*%
%TO.P,C1,2*%
%TO.N,GND*%
%TA.AperFunction,SMDPad,CuDef*%
G36*
G01*
X157098600Y-104600000D02*
X157438600Y-104600000D01*
G75*
G02*
X157578600Y-104740000I0J-140000D01*
G01*
X157578600Y-105020000D01*
G75*
G02*
X157438600Y-105160000I-140000J0D01*
G01*
X157098600Y-105160000D01*
G75*
G02*
X156958600Y-105020000I0J140000D01*
G01*
X156958600Y-104740000D01*
G75*
G02*
X157098600Y-104600000I140000J0D01*
G01*
G37*
%TD.AperFunction*%
%TO.P,C1,1*%
%TO.N,+3V3*%
%TA.AperFunction,SMDPad,CuDef*%
G36*
G01*
X157098600Y-103640000D02*
X157438600Y-103640000D01*
G75*
G02*
X157578600Y-103780000I0J-140000D01*
G01*
X157578600Y-104060000D01*
G75*
G02*
X157438600Y-104200000I-140000J0D01*
G01*
X157098600Y-104200000D01*
G75*
G02*
X156958600Y-104060000I0J140000D01*
G01*
X156958600Y-103780000D01*
G75*
G02*
X157098600Y-103640000I140000J0D01*
G01*
G37*
%TD.AperFunction*%
%TD*%
%TO.P,C2,2*%
%TO.N,GND*%
%TA.AperFunction,SMDPad,CuDef*%
G36*
G01*
X160300000Y-101570000D02*
X160300000Y-101230000D01*
G75*
G02*
X160440000Y-101090000I140000J0D01*
G01*
X160720000Y-101090000D01*
G75*
G02*
X160860000Y-101230000I0J-140000D01*
G01*
X160860000Y-101570000D01*
G75*
G02*
X160720000Y-101710000I-140000J0D01*
G01*
X160440000Y-101710000D01*
G75*
G02*
X160300000Y-101570000I0J140000D01*
G01*
G37*
%TD.AperFunction*%
%TO.P,C2,1*%
%TO.N,+3V3*%
%TA.AperFunction,SMDPad,CuDef*%
G36*
G01*
X159340000Y-101570000D02*
X159340000Y-101230000D01*
G75*
G02*
X159480000Y-101090000I140000J0D01*
G01*
X159760000Y-101090000D01*
G75*
G02*
X159900000Y-101230000I0J-140000D01*
G01*
X159900000Y-101570000D01*
G75*
G02*
X159760000Y-101710000I-140000J0D01*
G01*
X159480000Y-101710000D01*
G75*
G02*
X159340000Y-101570000I0J140000D01*
G01*
G37*
%TD.AperFunction*%
%TD*%
%TO.P,C3,2*%
%TO.N,GND*%
%TA.AperFunction,SMDPad,CuDef*%
G36*
G01*
X160300000Y-97310000D02*
X160300000Y-96970000D01*
G75*
G02*
X160440000Y-96830000I140000J0D01*
G01*
X160720000Y-96830000D01*
G75*
G02*
X160860000Y-96970000I0J-140000D01*
G01*
X160860000Y-97310000D01*
G75*
G02*
X160720000Y-97450000I-140000J0D01*
G01*
X160440000Y-97450000D01*
G75*
G02*
X160300000Y-97310000I0J140000D01*
G01*
G37*
%TD.AperFunction*%
%TO.P,C3,1*%
%TO.N,+3V3*%
%TA.AperFunction,SMDPad,CuDef*%
G36*
G01*
X159340000Y-97310000D02*
X159340000Y-96970000D01*
G75*
G02*
X159480000Y-96830000I140000J0D01*
G01*
X159760000Y-96830000D01*
G75*
G02*
X159900000Y-96970000I0J-140000D01*
G01*
X159900000Y-97310000D01*
G75*
G02*
X159760000Y-97450000I-140000J0D01*
G01*
X159480000Y-97450000D01*
G75*
G02*
X159340000Y-97310000I0J140000D01*
G01*
G37*
%TD.AperFunction*%
%TD*%
%TO.P,C5,2*%
%TO.N,GND*%
%TA.AperFunction,SMDPad,CuDef*%
G36*
G01*
X160300000Y-98270000D02*
X160300000Y-97930000D01*
G75*
G02*
X160440000Y-97790000I140000J0D01*
G01*
X160720000Y-97790000D01*
G75*
G02*
X160860000Y-97930000I0J-140000D01*
G01*
X160860000Y-98270000D01*
G75*
G02*
X160720000Y-98410000I-140000J0D01*
G01*
X160440000Y-98410000D01*
G75*
G02*
X160300000Y-98270000I0J140000D01*
G01*
G37*
%TD.AperFunction*%
%TO.P,C5,1*%
%TO.N,+3V3*%
%TA.AperFunction,SMDPad,CuDef*%
G36*
G01*
X159340000Y-98270000D02*
X159340000Y-97930000D01*
G75*
G02*
X159480000Y-97790000I140000J0D01*
G01*
X159760000Y-97790000D01*
G75*
G02*
X159900000Y-97930000I0J-140000D01*
G01*
X159900000Y-98270000D01*
G75*
G02*
X159760000Y-98410000I-140000J0D01*
G01*
X159480000Y-98410000D01*
G75*
G02*
X159340000Y-98270000I0J140000D01*
G01*
G37*
%TD.AperFunction*%
%TD*%
%TO.P,C7,2*%
%TO.N,GND*%
%TA.AperFunction,SMDPad,CuDef*%
G36*
G01*
X156400000Y-95200000D02*
X156060000Y-95200000D01*
G75*
G02*
X155920000Y-95060000I0J140000D01*
G01*
X155920000Y-94780000D01*
G75*
G02*
X156060000Y-94640000I140000J0D01*
G01*
X156400000Y-94640000D01*
G75*
G02*
X156540000Y-94780000I0J-140000D01*
G01*
X156540000Y-95060000D01*
G75*
G02*
X156400000Y-95200000I-140000J0D01*
G01*
G37*
%TD.AperFunction*%
%TO.P,C7,1*%
%TO.N,+3V3*%
%TA.AperFunction,SMDPad,CuDef*%
G36*
G01*
X156400000Y-96160000D02*
X156060000Y-96160000D01*
G75*
G02*
X155920000Y-96020000I0J140000D01*
G01*
X155920000Y-95740000D01*
G75*
G02*
X156060000Y-95600000I140000J0D01*
G01*
X156400000Y-95600000D01*
G75*
G02*
X156540000Y-95740000I0J-140000D01*
G01*
X156540000Y-96020000D01*
G75*
G02*
X156400000Y-96160000I-140000J0D01*
G01*
G37*
%TD.AperFunction*%
%TD*%
%TO.P,C9,2*%
%TO.N,GND*%
%TA.AperFunction,SMDPad,CuDef*%
G36*
G01*
X155430000Y-95200000D02*
X155090000Y-95200000D01*
G75*
G02*
X154950000Y-95060000I0J140000D01*
G01*
X154950000Y-94780000D01*
G75*
G02*
X155090000Y-94640000I140000J0D01*
G01*
X155430000Y-94640000D01*
G75*
G02*
X155570000Y-94780000I0J-140000D01*
G01*
X155570000Y-95060000D01*
G75*
G02*
X155430000Y-95200000I-140000J0D01*
G01*
G37*
%TD.AperFunction*%
%TO.P,C9,1*%
%TO.N,Net-(C9-Pad1)*%
%TA.AperFunction,SMDPad,CuDef*%
G36*
G01*
X155430000Y-96160000D02*
X155090000Y-96160000D01*
G75*
G02*
X154950000Y-96020000I0J140000D01*
G01*
X154950000Y-95740000D01*
G75*
G02*
X155090000Y-95600000I140000J0D01*
G01*
X155430000Y-95600000D01*
G75*
G02*
X155570000Y-95740000I0J-140000D01*
G01*
X155570000Y-96020000D01*
G75*
G02*
X155430000Y-96160000I-140000J0D01*
G01*
G37*
%TD.AperFunction*%
%TD*%
%TO.P,C10,2*%
%TO.N,Net-(C10-Pad2)*%
%TA.AperFunction,SMDPad,CuDef*%
G36*
G01*
X159180000Y-106230000D02*
X159180000Y-106570000D01*
G75*
G02*
X159040000Y-106710000I-140000J0D01*
G01*
X158760000Y-106710000D01*
G75*
G02*
X158620000Y-106570000I0J140000D01*
G01*
X158620000Y-106230000D01*
G75*
G02*
X158760000Y-106090000I140000J0D01*
G01*
X159040000Y-106090000D01*
G75*
G02*
X159180000Y-106230000I0J-140000D01*
G01*
G37*
%TD.AperFunction*%
%TO.P,C10,1*%
%TO.N,GND*%
%TA.AperFunction,SMDPad,CuDef*%
G36*
G01*
X160140000Y-106230000D02*
X160140000Y-106570000D01*
G75*
G02*
X160000000Y-106710000I-140000J0D01*
G01*
X159720000Y-106710000D01*
G75*
G02*
X159580000Y-106570000I0J140000D01*
G01*
X159580000Y-106230000D01*
G75*
G02*
X159720000Y-106090000I140000J0D01*
G01*
X160000000Y-106090000D01*
G75*
G02*
X160140000Y-106230000I0J-140000D01*
G01*
G37*
%TD.AperFunction*%
%TD*%
%TO.P,C11,2*%
%TO.N,GND*%
%TA.AperFunction,SMDPad,CuDef*%
G36*
G01*
X159620000Y-102630000D02*
X159620000Y-102970000D01*
G75*
G02*
X159480000Y-103110000I-140000J0D01*
G01*
X159200000Y-103110000D01*
G75*
G02*
X159060000Y-102970000I0J140000D01*
G01*
X159060000Y-102630000D01*
G75*
G02*
X159200000Y-102490000I140000J0D01*
G01*
X159480000Y-102490000D01*
G75*
G02*
X159620000Y-102630000I0J-140000D01*
G01*
G37*
%TD.AperFunction*%
%TO.P,C11,1*%
%TO.N,Net-(C11-Pad1)*%
%TA.AperFunction,SMDPad,CuDef*%
G36*
G01*
X160580000Y-102630000D02*
X160580000Y-102970000D01*
G75*
G02*
X160440000Y-103110000I-140000J0D01*
G01*
X160160000Y-103110000D01*
G75*
G02*
X160020000Y-102970000I0J140000D01*
G01*
X160020000Y-102630000D01*
G75*
G02*
X160160000Y-102490000I140000J0D01*
G01*
X160440000Y-102490000D01*
G75*
G02*
X160580000Y-102630000I0J-140000D01*
G01*
G37*
%TD.AperFunction*%
%TD*%
%TO.P,C12,2*%
%TO.N,GND*%
%TA.AperFunction,SMDPad,CuDef*%
G36*
G01*
X149900000Y-102598600D02*
X149900000Y-102938600D01*
G75*
G02*
X149760000Y-103078600I-140000J0D01*
G01*
X149480000Y-103078600D01*
G75*
G02*
X149340000Y-102938600I0J140000D01*
G01*
X149340000Y-102598600D01*
G75*
G02*
X149480000Y-102458600I140000J0D01*
G01*
X149760000Y-102458600D01*
G75*
G02*
X149900000Y-102598600I0J-140000D01*
G01*
G37*
%TD.AperFunction*%
%TO.P,C12,1*%
%TO.N,+3V3*%
%TA.AperFunction,SMDPad,CuDef*%
G36*
G01*
X150860000Y-102598600D02*
X150860000Y-102938600D01*
G75*
G02*
X150720000Y-103078600I-140000J0D01*
G01*
X150440000Y-103078600D01*
G75*
G02*
X150300000Y-102938600I0J140000D01*
G01*
X150300000Y-102598600D01*
G75*
G02*
X150440000Y-102458600I140000J0D01*
G01*
X150720000Y-102458600D01*
G75*
G02*
X150860000Y-102598600I0J-140000D01*
G01*
G37*
%TD.AperFunction*%
%TD*%
%TO.P,R1,2*%
%TO.N,GND*%
%TA.AperFunction,SMDPad,CuDef*%
G36*
G01*
X160340000Y-96355000D02*
X160340000Y-95985000D01*
G75*
G02*
X160475000Y-95850000I135000J0D01*
G01*
X160745000Y-95850000D01*
G75*
G02*
X160880000Y-95985000I0J-135000D01*
G01*
X160880000Y-96355000D01*
G75*
G02*
X160745000Y-96490000I-135000J0D01*
G01*
X160475000Y-96490000D01*
G75*
G02*
X160340000Y-96355000I0J135000D01*
G01*
G37*
%TD.AperFunction*%
%TO.P,R1,1*%
%TO.N,Net-(R1-Pad1)*%
%TA.AperFunction,SMDPad,CuDef*%
G36*
G01*
X159320000Y-96355000D02*
X159320000Y-95985000D01*
G75*
G02*
X159455000Y-95850000I135000J0D01*
G01*
X159725000Y-95850000D01*
G75*
G02*
X159860000Y-95985000I0J-135000D01*
G01*
X159860000Y-96355000D01*
G75*
G02*
X159725000Y-96490000I-135000J0D01*
G01*
X159455000Y-96490000D01*
G75*
G02*
X159320000Y-96355000I0J135000D01*
G01*
G37*
%TD.AperFunction*%
%TD*%
D12*
%TO.P,U1,2*%
%TO.N,Net-(U1-Pad2)*%
X158668600Y-99300000D03*
%TO.P,U1,1*%
%TO.N,Net-(C20-Pad1)*%
X159868600Y-99300000D03*
%TO.P,U1,4*%
%TO.N,GND*%
X159868600Y-100200000D03*
%TO.P,U1,3*%
%TO.N,Net-(U1-Pad3)*%
X158668600Y-100200000D03*
%TD*%
%TO.P,D1,2*%
%TO.N,Net-(D1-Pad2)*%
%TA.AperFunction,SMDPad,CuDef*%
G36*
G01*
X143390000Y-100672500D02*
X143390000Y-100327500D01*
G75*
G02*
X143537500Y-100180000I147500J0D01*
G01*
X143832500Y-100180000D01*
G75*
G02*
X143980000Y-100327500I0J-147500D01*
G01*
X143980000Y-100672500D01*
G75*
G02*
X143832500Y-100820000I-147500J0D01*
G01*
X143537500Y-100820000D01*
G75*
G02*
X143390000Y-100672500I0J147500D01*
G01*
G37*
%TD.AperFunction*%
%TO.P,D1,1*%
%TO.N,GND*%
%TA.AperFunction,SMDPad,CuDef*%
G36*
G01*
X142420000Y-100672500D02*
X142420000Y-100327500D01*
G75*
G02*
X142567500Y-100180000I147500J0D01*
G01*
X142862500Y-100180000D01*
G75*
G02*
X143010000Y-100327500I0J-147500D01*
G01*
X143010000Y-100672500D01*
G75*
G02*
X142862500Y-100820000I-147500J0D01*
G01*
X142567500Y-100820000D01*
G75*
G02*
X142420000Y-100672500I0J147500D01*
G01*
G37*
%TD.AperFunction*%
%TD*%
%TO.P,D2,2*%
%TO.N,Net-(D2-Pad2)*%
%TA.AperFunction,SMDPad,CuDef*%
G36*
G01*
X143390000Y-99672500D02*
X143390000Y-99327500D01*
G75*
G02*
X143537500Y-99180000I147500J0D01*
G01*
X143832500Y-99180000D01*
G75*
G02*
X143980000Y-99327500I0J-147500D01*
G01*
X143980000Y-99672500D01*
G75*
G02*
X143832500Y-99820000I-147500J0D01*
G01*
X143537500Y-99820000D01*
G75*
G02*
X143390000Y-99672500I0J147500D01*
G01*
G37*
%TD.AperFunction*%
%TO.P,D2,1*%
%TO.N,GND*%
%TA.AperFunction,SMDPad,CuDef*%
G36*
G01*
X142420000Y-99672500D02*
X142420000Y-99327500D01*
G75*
G02*
X142567500Y-99180000I147500J0D01*
G01*
X142862500Y-99180000D01*
G75*
G02*
X143010000Y-99327500I0J-147500D01*
G01*
X143010000Y-99672500D01*
G75*
G02*
X142862500Y-99820000I-147500J0D01*
G01*
X142567500Y-99820000D01*
G75*
G02*
X142420000Y-99672500I0J147500D01*
G01*
G37*
%TD.AperFunction*%
%TD*%
%TO.P,C16,2*%
%TO.N,+3V3*%
%TA.AperFunction,SMDPad,CuDef*%
G36*
G01*
X136180000Y-102410000D02*
X136180000Y-102750000D01*
G75*
G02*
X136040000Y-102890000I-140000J0D01*
G01*
X135760000Y-102890000D01*
G75*
G02*
X135620000Y-102750000I0J140000D01*
G01*
X135620000Y-102410000D01*
G75*
G02*
X135760000Y-102270000I140000J0D01*
G01*
X136040000Y-102270000D01*
G75*
G02*
X136180000Y-102410000I0J-140000D01*
G01*
G37*
%TD.AperFunction*%
%TO.P,C16,1*%
%TO.N,GND*%
%TA.AperFunction,SMDPad,CuDef*%
G36*
G01*
X137140000Y-102410000D02*
X137140000Y-102750000D01*
G75*
G02*
X137000000Y-102890000I-140000J0D01*
G01*
X136720000Y-102890000D01*
G75*
G02*
X136580000Y-102750000I0J140000D01*
G01*
X136580000Y-102410000D01*
G75*
G02*
X136720000Y-102270000I140000J0D01*
G01*
X137000000Y-102270000D01*
G75*
G02*
X137140000Y-102410000I0J-140000D01*
G01*
G37*
%TD.AperFunction*%
%TD*%
%TO.P,R2,2*%
%TO.N,Net-(D1-Pad2)*%
%TA.AperFunction,SMDPad,CuDef*%
G36*
G01*
X144870000Y-100315000D02*
X144870000Y-100685000D01*
G75*
G02*
X144735000Y-100820000I-135000J0D01*
G01*
X144465000Y-100820000D01*
G75*
G02*
X144330000Y-100685000I0J135000D01*
G01*
X144330000Y-100315000D01*
G75*
G02*
X144465000Y-100180000I135000J0D01*
G01*
X144735000Y-100180000D01*
G75*
G02*
X144870000Y-100315000I0J-135000D01*
G01*
G37*
%TD.AperFunction*%
%TO.P,R2,1*%
%TO.N,led0*%
%TA.AperFunction,SMDPad,CuDef*%
G36*
G01*
X145890000Y-100315000D02*
X145890000Y-100685000D01*
G75*
G02*
X145755000Y-100820000I-135000J0D01*
G01*
X145485000Y-100820000D01*
G75*
G02*
X145350000Y-100685000I0J135000D01*
G01*
X145350000Y-100315000D01*
G75*
G02*
X145485000Y-100180000I135000J0D01*
G01*
X145755000Y-100180000D01*
G75*
G02*
X145890000Y-100315000I0J-135000D01*
G01*
G37*
%TD.AperFunction*%
%TD*%
%TO.P,R3,2*%
%TO.N,Net-(D2-Pad2)*%
%TA.AperFunction,SMDPad,CuDef*%
G36*
G01*
X144870000Y-99315000D02*
X144870000Y-99685000D01*
G75*
G02*
X144735000Y-99820000I-135000J0D01*
G01*
X144465000Y-99820000D01*
G75*
G02*
X144330000Y-99685000I0J135000D01*
G01*
X144330000Y-99315000D01*
G75*
G02*
X144465000Y-99180000I135000J0D01*
G01*
X144735000Y-99180000D01*
G75*
G02*
X144870000Y-99315000I0J-135000D01*
G01*
G37*
%TD.AperFunction*%
%TO.P,R3,1*%
%TO.N,led1*%
%TA.AperFunction,SMDPad,CuDef*%
G36*
G01*
X145890000Y-99315000D02*
X145890000Y-99685000D01*
G75*
G02*
X145755000Y-99820000I-135000J0D01*
G01*
X145485000Y-99820000D01*
G75*
G02*
X145350000Y-99685000I0J135000D01*
G01*
X145350000Y-99315000D01*
G75*
G02*
X145485000Y-99180000I135000J0D01*
G01*
X145755000Y-99180000D01*
G75*
G02*
X145890000Y-99315000I0J-135000D01*
G01*
G37*
%TD.AperFunction*%
%TD*%
%TO.P,R4,2*%
%TO.N,+3V3*%
%TA.AperFunction,SMDPad,CuDef*%
G36*
G01*
X139740000Y-102685000D02*
X139740000Y-102315000D01*
G75*
G02*
X139875000Y-102180000I135000J0D01*
G01*
X140145000Y-102180000D01*
G75*
G02*
X140280000Y-102315000I0J-135000D01*
G01*
X140280000Y-102685000D01*
G75*
G02*
X140145000Y-102820000I-135000J0D01*
G01*
X139875000Y-102820000D01*
G75*
G02*
X139740000Y-102685000I0J135000D01*
G01*
G37*
%TD.AperFunction*%
%TO.P,R4,1*%
%TO.N,i2c_scl*%
%TA.AperFunction,SMDPad,CuDef*%
G36*
G01*
X138720000Y-102685000D02*
X138720000Y-102315000D01*
G75*
G02*
X138855000Y-102180000I135000J0D01*
G01*
X139125000Y-102180000D01*
G75*
G02*
X139260000Y-102315000I0J-135000D01*
G01*
X139260000Y-102685000D01*
G75*
G02*
X139125000Y-102820000I-135000J0D01*
G01*
X138855000Y-102820000D01*
G75*
G02*
X138720000Y-102685000I0J135000D01*
G01*
G37*
%TD.AperFunction*%
%TD*%
%TO.P,R5,2*%
%TO.N,i2c_sda*%
%TA.AperFunction,SMDPad,CuDef*%
G36*
G01*
X139740000Y-97655000D02*
X139740000Y-97285000D01*
G75*
G02*
X139875000Y-97150000I135000J0D01*
G01*
X140145000Y-97150000D01*
G75*
G02*
X140280000Y-97285000I0J-135000D01*
G01*
X140280000Y-97655000D01*
G75*
G02*
X140145000Y-97790000I-135000J0D01*
G01*
X139875000Y-97790000D01*
G75*
G02*
X139740000Y-97655000I0J135000D01*
G01*
G37*
%TD.AperFunction*%
%TO.P,R5,1*%
%TO.N,+3V3*%
%TA.AperFunction,SMDPad,CuDef*%
G36*
G01*
X138720000Y-97655000D02*
X138720000Y-97285000D01*
G75*
G02*
X138855000Y-97150000I135000J0D01*
G01*
X139125000Y-97150000D01*
G75*
G02*
X139260000Y-97285000I0J-135000D01*
G01*
X139260000Y-97655000D01*
G75*
G02*
X139125000Y-97790000I-135000J0D01*
G01*
X138855000Y-97790000D01*
G75*
G02*
X138720000Y-97655000I0J135000D01*
G01*
G37*
%TD.AperFunction*%
%TD*%
D13*
%TO.P,U3,7*%
%TO.N,N/C*%
X135900000Y-100000000D03*
%TO.P,U3,6*%
%TO.N,i2c_scl*%
%TA.AperFunction,SMDPad,CuDef*%
G36*
G01*
X136800000Y-101050000D02*
X137000000Y-101050000D01*
G75*
G02*
X137100000Y-101150000I0J-100000D01*
G01*
X137100000Y-101750000D01*
G75*
G02*
X137000000Y-101850000I-100000J0D01*
G01*
X136800000Y-101850000D01*
G75*
G02*
X136700000Y-101750000I0J100000D01*
G01*
X136700000Y-101150000D01*
G75*
G02*
X136800000Y-101050000I100000J0D01*
G01*
G37*
%TD.AperFunction*%
%TO.P,U3,5*%
%TO.N,+3V3*%
%TA.AperFunction,SMDPad,CuDef*%
G36*
G01*
X135800000Y-101050000D02*
X136000000Y-101050000D01*
G75*
G02*
X136100000Y-101150000I0J-100000D01*
G01*
X136100000Y-101750000D01*
G75*
G02*
X136000000Y-101850000I-100000J0D01*
G01*
X135800000Y-101850000D01*
G75*
G02*
X135700000Y-101750000I0J100000D01*
G01*
X135700000Y-101150000D01*
G75*
G02*
X135800000Y-101050000I100000J0D01*
G01*
G37*
%TD.AperFunction*%
%TO.P,U3,4*%
%TO.N,N/C*%
%TA.AperFunction,SMDPad,CuDef*%
G36*
G01*
X134800000Y-101050000D02*
X135000000Y-101050000D01*
G75*
G02*
X135100000Y-101150000I0J-100000D01*
G01*
X135100000Y-101750000D01*
G75*
G02*
X135000000Y-101850000I-100000J0D01*
G01*
X134800000Y-101850000D01*
G75*
G02*
X134700000Y-101750000I0J100000D01*
G01*
X134700000Y-101150000D01*
G75*
G02*
X134800000Y-101050000I100000J0D01*
G01*
G37*
%TD.AperFunction*%
%TO.P,U3,3*%
%TA.AperFunction,SMDPad,CuDef*%
G36*
G01*
X134800000Y-98150000D02*
X135000000Y-98150000D01*
G75*
G02*
X135100000Y-98250000I0J-100000D01*
G01*
X135100000Y-98850000D01*
G75*
G02*
X135000000Y-98950000I-100000J0D01*
G01*
X134800000Y-98950000D01*
G75*
G02*
X134700000Y-98850000I0J100000D01*
G01*
X134700000Y-98250000D01*
G75*
G02*
X134800000Y-98150000I100000J0D01*
G01*
G37*
%TD.AperFunction*%
%TO.P,U3,2*%
%TO.N,GND*%
%TA.AperFunction,SMDPad,CuDef*%
G36*
G01*
X135800000Y-98150000D02*
X136000000Y-98150000D01*
G75*
G02*
X136100000Y-98250000I0J-100000D01*
G01*
X136100000Y-98850000D01*
G75*
G02*
X136000000Y-98950000I-100000J0D01*
G01*
X135800000Y-98950000D01*
G75*
G02*
X135700000Y-98850000I0J100000D01*
G01*
X135700000Y-98250000D01*
G75*
G02*
X135800000Y-98150000I100000J0D01*
G01*
G37*
%TD.AperFunction*%
%TO.P,U3,1*%
%TO.N,i2c_sda*%
%TA.AperFunction,SMDPad,CuDef*%
G36*
G01*
X136800000Y-98150000D02*
X137000000Y-98150000D01*
G75*
G02*
X137100000Y-98250000I0J-100000D01*
G01*
X137100000Y-98850000D01*
G75*
G02*
X137000000Y-98950000I-100000J0D01*
G01*
X136800000Y-98950000D01*
G75*
G02*
X136700000Y-98850000I0J100000D01*
G01*
X136700000Y-98250000D01*
G75*
G02*
X136800000Y-98150000I100000J0D01*
G01*
G37*
%TD.AperFunction*%
%TD*%
%TO.P,C17,2*%
%TO.N,+3V3*%
%TA.AperFunction,SMDPad,CuDef*%
G36*
G01*
X140600000Y-101710000D02*
X140600000Y-101370000D01*
G75*
G02*
X140740000Y-101230000I140000J0D01*
G01*
X141020000Y-101230000D01*
G75*
G02*
X141160000Y-101370000I0J-140000D01*
G01*
X141160000Y-101710000D01*
G75*
G02*
X141020000Y-101850000I-140000J0D01*
G01*
X140740000Y-101850000D01*
G75*
G02*
X140600000Y-101710000I0J140000D01*
G01*
G37*
%TD.AperFunction*%
%TO.P,C17,1*%
%TO.N,GND*%
%TA.AperFunction,SMDPad,CuDef*%
G36*
G01*
X139640000Y-101710000D02*
X139640000Y-101370000D01*
G75*
G02*
X139780000Y-101230000I140000J0D01*
G01*
X140060000Y-101230000D01*
G75*
G02*
X140200000Y-101370000I0J-140000D01*
G01*
X140200000Y-101710000D01*
G75*
G02*
X140060000Y-101850000I-140000J0D01*
G01*
X139780000Y-101850000D01*
G75*
G02*
X139640000Y-101710000I0J140000D01*
G01*
G37*
%TD.AperFunction*%
%TD*%
%TO.P,C18,2*%
%TO.N,Net-(C18-Pad2)*%
%TA.AperFunction,SMDPad,CuDef*%
G36*
G01*
X140320000Y-98270000D02*
X140320000Y-98610000D01*
G75*
G02*
X140180000Y-98750000I-140000J0D01*
G01*
X139900000Y-98750000D01*
G75*
G02*
X139760000Y-98610000I0J140000D01*
G01*
X139760000Y-98270000D01*
G75*
G02*
X139900000Y-98130000I140000J0D01*
G01*
X140180000Y-98130000D01*
G75*
G02*
X140320000Y-98270000I0J-140000D01*
G01*
G37*
%TD.AperFunction*%
%TO.P,C18,1*%
%TO.N,GND*%
%TA.AperFunction,SMDPad,CuDef*%
G36*
G01*
X141280000Y-98270000D02*
X141280000Y-98610000D01*
G75*
G02*
X141140000Y-98750000I-140000J0D01*
G01*
X140860000Y-98750000D01*
G75*
G02*
X140720000Y-98610000I0J140000D01*
G01*
X140720000Y-98270000D01*
G75*
G02*
X140860000Y-98130000I140000J0D01*
G01*
X141140000Y-98130000D01*
G75*
G02*
X141280000Y-98270000I0J-140000D01*
G01*
G37*
%TD.AperFunction*%
%TD*%
%TO.P,R6,2*%
%TO.N,Net-(C18-Pad2)*%
%TA.AperFunction,SMDPad,CuDef*%
G36*
G01*
X138880000Y-98625000D02*
X138880000Y-98255000D01*
G75*
G02*
X139015000Y-98120000I135000J0D01*
G01*
X139285000Y-98120000D01*
G75*
G02*
X139420000Y-98255000I0J-135000D01*
G01*
X139420000Y-98625000D01*
G75*
G02*
X139285000Y-98760000I-135000J0D01*
G01*
X139015000Y-98760000D01*
G75*
G02*
X138880000Y-98625000I0J135000D01*
G01*
G37*
%TD.AperFunction*%
%TO.P,R6,1*%
%TO.N,+3V3*%
%TA.AperFunction,SMDPad,CuDef*%
G36*
G01*
X137860000Y-98625000D02*
X137860000Y-98255000D01*
G75*
G02*
X137995000Y-98120000I135000J0D01*
G01*
X138265000Y-98120000D01*
G75*
G02*
X138400000Y-98255000I0J-135000D01*
G01*
X138400000Y-98625000D01*
G75*
G02*
X138265000Y-98760000I-135000J0D01*
G01*
X137995000Y-98760000D01*
G75*
G02*
X137860000Y-98625000I0J135000D01*
G01*
G37*
%TD.AperFunction*%
%TD*%
D14*
%TO.P,Y1,1*%
%TO.N,Net-(C10-Pad2)*%
X158900000Y-105150000D03*
%TO.P,Y1,2*%
%TO.N,GND*%
X160300000Y-105150000D03*
%TO.P,Y1,3*%
%TO.N,Net-(C11-Pad1)*%
X160300000Y-104050000D03*
%TO.P,Y1,4*%
%TO.N,GND*%
X158900000Y-104050000D03*
%TD*%
%TO.P,C19,2*%
%TO.N,Net-(AE1-Pad1)*%
%TA.AperFunction,SMDPad,CuDef*%
G36*
G01*
X164530000Y-99580000D02*
X164190000Y-99580000D01*
G75*
G02*
X164050000Y-99440000I0J140000D01*
G01*
X164050000Y-99160000D01*
G75*
G02*
X164190000Y-99020000I140000J0D01*
G01*
X164530000Y-99020000D01*
G75*
G02*
X164670000Y-99160000I0J-140000D01*
G01*
X164670000Y-99440000D01*
G75*
G02*
X164530000Y-99580000I-140000J0D01*
G01*
G37*
%TD.AperFunction*%
%TO.P,C19,1*%
%TO.N,GND*%
%TA.AperFunction,SMDPad,CuDef*%
G36*
G01*
X164530000Y-100540000D02*
X164190000Y-100540000D01*
G75*
G02*
X164050000Y-100400000I0J140000D01*
G01*
X164050000Y-100120000D01*
G75*
G02*
X164190000Y-99980000I140000J0D01*
G01*
X164530000Y-99980000D01*
G75*
G02*
X164670000Y-100120000I0J-140000D01*
G01*
X164670000Y-100400000D01*
G75*
G02*
X164530000Y-100540000I-140000J0D01*
G01*
G37*
%TD.AperFunction*%
%TD*%
%TO.P,C20,1*%
%TO.N,Net-(C20-Pad1)*%
%TA.AperFunction,SMDPad,CuDef*%
G36*
G01*
X161350000Y-99020000D02*
X161690000Y-99020000D01*
G75*
G02*
X161830000Y-99160000I0J-140000D01*
G01*
X161830000Y-99440000D01*
G75*
G02*
X161690000Y-99580000I-140000J0D01*
G01*
X161350000Y-99580000D01*
G75*
G02*
X161210000Y-99440000I0J140000D01*
G01*
X161210000Y-99160000D01*
G75*
G02*
X161350000Y-99020000I140000J0D01*
G01*
G37*
%TD.AperFunction*%
%TO.P,C20,2*%
%TO.N,GND*%
%TA.AperFunction,SMDPad,CuDef*%
G36*
G01*
X161350000Y-99980000D02*
X161690000Y-99980000D01*
G75*
G02*
X161830000Y-100120000I0J-140000D01*
G01*
X161830000Y-100400000D01*
G75*
G02*
X161690000Y-100540000I-140000J0D01*
G01*
X161350000Y-100540000D01*
G75*
G02*
X161210000Y-100400000I0J140000D01*
G01*
X161210000Y-100120000D01*
G75*
G02*
X161350000Y-99980000I140000J0D01*
G01*
G37*
%TD.AperFunction*%
%TD*%
%TO.P,L1,1*%
%TO.N,Net-(AE1-Pad1)*%
%TA.AperFunction,SMDPad,CuDef*%
G36*
G01*
X163720000Y-99127500D02*
X163720000Y-99472500D01*
G75*
G02*
X163572500Y-99620000I-147500J0D01*
G01*
X163277500Y-99620000D01*
G75*
G02*
X163130000Y-99472500I0J147500D01*
G01*
X163130000Y-99127500D01*
G75*
G02*
X163277500Y-98980000I147500J0D01*
G01*
X163572500Y-98980000D01*
G75*
G02*
X163720000Y-99127500I0J-147500D01*
G01*
G37*
%TD.AperFunction*%
%TO.P,L1,2*%
%TO.N,Net-(C20-Pad1)*%
%TA.AperFunction,SMDPad,CuDef*%
G36*
G01*
X162750000Y-99127500D02*
X162750000Y-99472500D01*
G75*
G02*
X162602500Y-99620000I-147500J0D01*
G01*
X162307500Y-99620000D01*
G75*
G02*
X162160000Y-99472500I0J147500D01*
G01*
X162160000Y-99127500D01*
G75*
G02*
X162307500Y-98980000I147500J0D01*
G01*
X162602500Y-98980000D01*
G75*
G02*
X162750000Y-99127500I0J-147500D01*
G01*
G37*
%TD.AperFunction*%
%TD*%
D15*
%TO.P,U2,1*%
%TO.N,N/C*%
X151725000Y-98000000D03*
%TO.P,U2,2*%
%TO.N,+3V3*%
X151725000Y-98500000D03*
%TO.P,U2,3*%
%TO.N,led1*%
X151725000Y-99000000D03*
%TO.P,U2,4*%
%TO.N,led0*%
X151725000Y-99500000D03*
%TO.P,U2,5*%
%TO.N,i2c_sda*%
X151725000Y-100000000D03*
%TO.P,U2,6*%
%TO.N,i2c_scl*%
X151725000Y-100500000D03*
%TO.P,U2,7*%
%TO.N,dbg_rx*%
X151725000Y-101000000D03*
%TO.P,U2,8*%
%TO.N,dbg_tx*%
X151725000Y-101500000D03*
%TO.P,U2,9*%
%TO.N,P0_4*%
X151725000Y-102000000D03*
D16*
%TO.P,U2,10*%
%TO.N,+3V3*%
X152500000Y-102775000D03*
%TO.P,U2,11*%
%TO.N,P0_5*%
X153000000Y-102775000D03*
%TO.P,U2,12*%
%TO.N,P0_6*%
X153500000Y-102775000D03*
%TO.P,U2,13*%
%TO.N,N/C*%
X154000000Y-102775000D03*
%TO.P,U2,14*%
X154500000Y-102775000D03*
%TO.P,U2,15*%
%TO.N,dbg_data*%
X155000000Y-102775000D03*
%TO.P,U2,16*%
%TO.N,dbg_clock*%
X155500000Y-102775000D03*
%TO.P,U2,17*%
%TO.N,N/C*%
X156000000Y-102775000D03*
%TO.P,U2,18*%
X156500000Y-102775000D03*
D15*
%TO.P,U2,19*%
%TO.N,+3V3*%
X157275000Y-102000000D03*
%TO.P,U2,20*%
%TO.N,Net-(C10-Pad2)*%
X157275000Y-101500000D03*
%TO.P,U2,21*%
%TO.N,Net-(C11-Pad1)*%
X157275000Y-101000000D03*
%TO.P,U2,22*%
%TO.N,+3V3*%
X157275000Y-100500000D03*
%TO.P,U2,23*%
%TO.N,Net-(U1-Pad3)*%
X157275000Y-100000000D03*
%TO.P,U2,24*%
%TO.N,Net-(U1-Pad2)*%
X157275000Y-99500000D03*
%TO.P,U2,25*%
%TO.N,+3V3*%
X157275000Y-99000000D03*
%TO.P,U2,26*%
X157275000Y-98500000D03*
%TO.P,U2,27*%
%TO.N,Net-(R1-Pad1)*%
X157275000Y-98000000D03*
D16*
%TO.P,U2,28*%
%TO.N,+3V3*%
X156500000Y-97225000D03*
%TO.P,U2,29*%
X156000000Y-97225000D03*
%TO.P,U2,30*%
%TO.N,Net-(C9-Pad1)*%
X155500000Y-97225000D03*
%TO.P,U2,31*%
%TO.N,dbg_reset*%
X155000000Y-97225000D03*
%TO.P,U2,32*%
%TO.N,N/C*%
X154500000Y-97225000D03*
%TO.P,U2,33*%
X154000000Y-97225000D03*
%TO.P,U2,34*%
X153500000Y-97225000D03*
%TO.P,U2,35*%
X153000000Y-97225000D03*
%TO.P,U2,36*%
X152500000Y-97225000D03*
D17*
%TO.P,U2,37*%
%TO.N,GND*%
X156260000Y-101760000D03*
X154500000Y-98240000D03*
X155380000Y-98240000D03*
X156260000Y-98240000D03*
D18*
X154500000Y-99120000D03*
X155380000Y-99120000D03*
D17*
X156260000Y-99120000D03*
X156260000Y-100000000D03*
X154500000Y-100000000D03*
D18*
X154500000Y-100880000D03*
D17*
X154500000Y-101760000D03*
D18*
X155380000Y-100000000D03*
%TA.AperFunction,SMDPad,CuDef*%
D11*
G36*
X154940000Y-101320000D02*
G01*
X154940000Y-100440000D01*
X155820000Y-100440000D01*
X155820000Y-101320000D01*
X154940000Y-101320000D01*
G37*
%TD.AperFunction*%
D17*
X155380000Y-101760000D03*
X156260000Y-100880000D03*
X152740000Y-98240000D03*
D18*
X153620000Y-100000000D03*
X153620000Y-100880000D03*
D17*
X153620000Y-101760000D03*
X152740000Y-100000000D03*
X152740000Y-100880000D03*
X152740000Y-101760000D03*
X153620000Y-98240000D03*
D18*
X153620000Y-99120000D03*
D17*
X152740000Y-99120000D03*
%TD*%
D19*
%TO.N,*%
X131000000Y-91000000D03*
D20*
%TO.N,+3V3*%
X158900000Y-101100000D03*
X158900000Y-98400000D03*
X158840000Y-97140000D03*
X157040000Y-95880000D03*
D19*
X134650000Y-93730000D03*
X134030000Y-94850000D03*
X134020000Y-105150000D03*
X134650000Y-106280000D03*
X131380000Y-105150000D03*
X131380000Y-94850000D03*
X151470000Y-102768600D03*
D20*
X135900000Y-103390000D03*
X156460000Y-103920000D03*
D19*
X131400000Y-100800000D03*
X131400000Y-100000000D03*
X131400000Y-99200000D03*
X134350000Y-104319994D03*
X134350000Y-95680004D03*
D20*
X138130000Y-97620000D03*
X140880000Y-102350000D03*
X150855117Y-98370010D03*
X144100000Y-103719994D03*
%TO.N,GND*%
X160640000Y-106400000D03*
X161360000Y-98100000D03*
X161360000Y-97140000D03*
X161380000Y-96170000D03*
X157040000Y-94920000D03*
X154450000Y-94920000D03*
X157270000Y-105660000D03*
D19*
X132700000Y-91850000D03*
X131350000Y-97000000D03*
X131350000Y-103000000D03*
X132700000Y-108150000D03*
X136550000Y-106280000D03*
X131380000Y-107050000D03*
X131380000Y-92950000D03*
X136550000Y-93720000D03*
D20*
X148840000Y-102770000D03*
X136860000Y-103390000D03*
X158600000Y-102790000D03*
X135910000Y-97650000D03*
X141000000Y-97630000D03*
X140100000Y-99510000D03*
X139140012Y-101540000D03*
X142710000Y-98680000D03*
X145100000Y-103730004D03*
X163550000Y-100260000D03*
X164360000Y-101040000D03*
X162330000Y-100260000D03*
X160530000Y-100200000D03*
X161360020Y-101400000D03*
D19*
X132500000Y-91000000D03*
X134000000Y-91000000D03*
X135500000Y-91000000D03*
X137000000Y-91000000D03*
X138500000Y-91000000D03*
X140000000Y-91000000D03*
X141500000Y-91000000D03*
X143000000Y-91000000D03*
X144500000Y-91000000D03*
X146000000Y-91000000D03*
X147500000Y-91000000D03*
X149000000Y-91000000D03*
X150500000Y-91000000D03*
X152000000Y-91000000D03*
X153500000Y-91000000D03*
X155000000Y-91000000D03*
X156500000Y-91000000D03*
X158000000Y-91000000D03*
X159500000Y-91000000D03*
X161000000Y-91000000D03*
X162500000Y-91000000D03*
X164000000Y-91000000D03*
X164500000Y-92000000D03*
X164500000Y-93500000D03*
X164500000Y-95000000D03*
X164500000Y-96500000D03*
X164500000Y-98000000D03*
X163500000Y-98000000D03*
X162500000Y-98000000D03*
X164000000Y-107500000D03*
X164500000Y-106500000D03*
X164500000Y-105000000D03*
X164500000Y-103500000D03*
X164500000Y-102000000D03*
X161000000Y-109000000D03*
X159500000Y-109000000D03*
X158000000Y-109000000D03*
X156500000Y-109000000D03*
X152000000Y-109000000D03*
X150500000Y-109000000D03*
X149000000Y-109000000D03*
X147500000Y-109000000D03*
X146000000Y-109000000D03*
X144500000Y-109000000D03*
X154500000Y-107000000D03*
X140000000Y-109000000D03*
X138500000Y-109000000D03*
X137000000Y-109000000D03*
X135500000Y-109000000D03*
X134000000Y-109000000D03*
X132500000Y-109000000D03*
X131000000Y-109000000D03*
X138000000Y-103500000D03*
X139000000Y-104000000D03*
X142000000Y-104500000D03*
X140500000Y-104500000D03*
X142000000Y-106000000D03*
X143000000Y-107000000D03*
X144500000Y-107500000D03*
X146000000Y-107500000D03*
X147500000Y-107500000D03*
X149000000Y-107500000D03*
X150500000Y-107500000D03*
X152000000Y-107500000D03*
X156000000Y-106000000D03*
X158000000Y-107500000D03*
X159500000Y-107500000D03*
X161000000Y-107500000D03*
X162000000Y-106000000D03*
X162000000Y-104500000D03*
X162000000Y-103000000D03*
X162500000Y-101500000D03*
X160500000Y-95000000D03*
X159500000Y-95000000D03*
X158000000Y-95000000D03*
X153500000Y-95000000D03*
X152000000Y-95000000D03*
X150500000Y-96000000D03*
X149000000Y-97000000D03*
X147500000Y-97000000D03*
X146000000Y-97000000D03*
X144500000Y-97000000D03*
X143000000Y-97000000D03*
X141500000Y-96000000D03*
X140000000Y-96000000D03*
X138500000Y-96000000D03*
X137000000Y-96500000D03*
X156500000Y-107500000D03*
X162500000Y-107500000D03*
X150500000Y-93500000D03*
X147500000Y-93500000D03*
X144500000Y-93500000D03*
X141500000Y-93500000D03*
X138500000Y-93500000D03*
X153500000Y-93500000D03*
X156500000Y-93500000D03*
X159500000Y-93500000D03*
X162500000Y-93500000D03*
X140000000Y-106500000D03*
D21*
%TO.N,dbg_reset*%
X143319996Y-103880000D03*
X152320000Y-96220000D03*
X153000008Y-96220000D03*
X143319998Y-101930000D03*
%TD*%
D22*
%TO.N,Net-(AE1-Pad1)*%
X163425000Y-99300000D02*
X164360000Y-99300000D01*
X165000000Y-99300000D02*
X164360000Y-99300000D01*
X165700000Y-100000000D02*
X165000000Y-99300000D01*
X166500000Y-100000000D02*
X165700000Y-100000000D01*
D23*
%TO.N,+3V3*%
X157268600Y-100499999D02*
X157999999Y-100499999D01*
X158600000Y-101100000D02*
X158900000Y-101100000D01*
X157999999Y-100499999D02*
X158600000Y-101100000D01*
D24*
X159200000Y-101400000D02*
X158900000Y-101100000D01*
X159620000Y-101400000D02*
X159200000Y-101400000D01*
X159200000Y-98100000D02*
X158900000Y-98400000D01*
X159620000Y-98100000D02*
X159200000Y-98100000D01*
D23*
X158600000Y-98400000D02*
X158900000Y-98400000D01*
X158000001Y-98999999D02*
X158600000Y-98400000D01*
X157268600Y-98999999D02*
X158000001Y-98999999D01*
D24*
X158840000Y-97140000D02*
X159620000Y-97140000D01*
D23*
X157268600Y-98500000D02*
X157926411Y-98500000D01*
X157926411Y-98500000D02*
X158840000Y-97586411D01*
X158840000Y-97586411D02*
X158840000Y-97140000D01*
D24*
X156230000Y-95880000D02*
X157040000Y-95880000D01*
D23*
X156000000Y-96110000D02*
X156230000Y-95880000D01*
X156000000Y-97231400D02*
X156000000Y-96110000D01*
X156500001Y-96150001D02*
X156230000Y-95880000D01*
X156500001Y-97231400D02*
X156500001Y-96150001D01*
D25*
X152499999Y-102768600D02*
X151470000Y-102768600D01*
D24*
X150580000Y-102768600D02*
X151470000Y-102768600D01*
D25*
X157268600Y-102000001D02*
X157268600Y-103920000D01*
D24*
X157268600Y-103920000D02*
X156460000Y-103920000D01*
X135900000Y-102580000D02*
X135900000Y-103390000D01*
D23*
X135900000Y-101450000D02*
X135900000Y-102580000D01*
X138130000Y-98440000D02*
X138130000Y-97620000D01*
X140880000Y-101540000D02*
X140880000Y-102350000D01*
D26*
X140875000Y-101535000D02*
X140880000Y-101540000D01*
D23*
X140875000Y-100500000D02*
X140875000Y-101535000D01*
X138280000Y-97470000D02*
X138130000Y-97620000D01*
X138990000Y-97470000D02*
X138280000Y-97470000D01*
X140730000Y-102500000D02*
X140880000Y-102350000D01*
X140010000Y-102500000D02*
X140730000Y-102500000D01*
D26*
X150985107Y-98500000D02*
X150855117Y-98370010D01*
X151731400Y-98500000D02*
X150985107Y-98500000D01*
D24*
X144100000Y-103719994D02*
X144100000Y-105000000D01*
D26*
%TO.N,GND*%
X159860000Y-106400000D02*
X160640000Y-106400000D01*
X160300000Y-106060000D02*
X160640000Y-106400000D01*
D24*
X160580000Y-98100000D02*
X161360000Y-98100000D01*
X160580000Y-97140000D02*
X161360000Y-97140000D01*
D23*
X160610000Y-96170000D02*
X161380000Y-96170000D01*
D24*
X156230000Y-94920000D02*
X157040000Y-94920000D01*
X155260000Y-94920000D02*
X154450000Y-94920000D01*
D26*
X160300000Y-106060000D02*
X160300000Y-105150000D01*
D24*
X157268600Y-104880000D02*
X157268600Y-105658600D01*
D23*
X157268600Y-105658600D02*
X157270000Y-105660000D01*
X148841400Y-102768600D02*
X148840000Y-102770000D01*
D24*
X149620000Y-102768600D02*
X148841400Y-102768600D01*
D23*
X158610000Y-102800000D02*
X158600000Y-102790000D01*
X159340000Y-102800000D02*
X158610000Y-102800000D01*
X158900000Y-103090000D02*
X158600000Y-102790000D01*
X158900000Y-104050000D02*
X158900000Y-103090000D01*
X135900000Y-97660000D02*
X135910000Y-97650000D01*
X135900000Y-98550000D02*
X135900000Y-97660000D01*
D24*
X136860000Y-102580000D02*
X136860000Y-103390000D01*
D23*
X141110000Y-98560000D02*
X141120000Y-98550000D01*
X141000000Y-98440000D02*
X141000000Y-97630000D01*
D26*
X140110000Y-99500000D02*
X140100000Y-99510000D01*
X140875000Y-99500000D02*
X140110000Y-99500000D01*
X140590000Y-100000000D02*
X140100000Y-99510000D01*
X140875000Y-100000000D02*
X140590000Y-100000000D01*
D24*
X139920000Y-101540000D02*
X139140012Y-101540000D01*
D23*
X142715000Y-98685000D02*
X142710000Y-98680000D01*
X142715000Y-99500000D02*
X142715000Y-98685000D01*
D26*
X142715000Y-99500000D02*
X142715000Y-100500000D01*
D24*
X145100000Y-105000000D02*
X145100000Y-103730004D01*
X164360000Y-100260000D02*
X163550000Y-100260000D01*
X164360000Y-100260000D02*
X164360000Y-101040000D01*
X161520000Y-100260000D02*
X162330000Y-100260000D01*
X160590000Y-100260000D02*
X160530000Y-100200000D01*
X161520000Y-100260000D02*
X160590000Y-100260000D01*
X159868600Y-100200000D02*
X160530000Y-100200000D01*
X160580000Y-101400000D02*
X161360020Y-101400000D01*
D26*
%TO.N,Net-(C10-Pad2)*%
X157829301Y-101500000D02*
X158000000Y-101670699D01*
X157268600Y-101500000D02*
X157829301Y-101500000D01*
X158000000Y-104900000D02*
X158250000Y-105150000D01*
X158250000Y-105150000D02*
X158900000Y-105150000D01*
X158000000Y-101670699D02*
X158000000Y-104900000D01*
X158900000Y-106400000D02*
X158900000Y-105150000D01*
%TO.N,Net-(C11-Pad1)*%
X160300000Y-102800000D02*
X160300000Y-104050000D01*
X160140000Y-102100000D02*
X160300000Y-102260000D01*
X159000000Y-102100000D02*
X160140000Y-102100000D01*
X158401064Y-101501064D02*
X159000000Y-102100000D01*
X158400010Y-101501064D02*
X158401064Y-101501064D01*
X157898947Y-101000001D02*
X158400010Y-101501064D01*
X160300000Y-102260000D02*
X160300000Y-102800000D01*
X157268600Y-101000001D02*
X157898947Y-101000001D01*
D23*
%TO.N,Net-(R1-Pad1)*%
X158880000Y-96170000D02*
X159590000Y-96170000D01*
X158160000Y-97630000D02*
X158160000Y-96890000D01*
X157268600Y-97999999D02*
X157790001Y-97999999D01*
X158160000Y-96890000D02*
X158880000Y-96170000D01*
X157790001Y-97999999D02*
X158160000Y-97630000D01*
%TO.N,Net-(U1-Pad3)*%
X158468600Y-100000000D02*
X158668600Y-100200000D01*
X157268600Y-100000000D02*
X158468600Y-100000000D01*
%TO.N,Net-(U1-Pad2)*%
X158468599Y-99500001D02*
X158668600Y-99300000D01*
X157268600Y-99500001D02*
X158468599Y-99500001D01*
%TO.N,Net-(C9-Pad1)*%
X155500001Y-96120001D02*
X155260000Y-95880000D01*
X155500001Y-97231400D02*
X155500001Y-96120001D01*
%TO.N,dbg_clock*%
X153650000Y-106580000D02*
X151540000Y-106580000D01*
X151100000Y-106140000D02*
X151100000Y-105000000D01*
X151540000Y-106580000D02*
X151100000Y-106140000D01*
X155500001Y-104729999D02*
X153650000Y-106580000D01*
X155500001Y-102768600D02*
X155500001Y-104729999D01*
%TO.N,dbg_data*%
X152100000Y-105990000D02*
X152100000Y-105000000D01*
X152239989Y-106129989D02*
X152100000Y-105990000D01*
X153460011Y-106129989D02*
X152239989Y-106129989D01*
X154999999Y-104590001D02*
X153460011Y-106129989D01*
X154999999Y-102768600D02*
X154999999Y-104590001D01*
D27*
%TO.N,dbg_reset*%
X151870000Y-96220000D02*
X151620000Y-96470000D01*
X152320000Y-96220000D02*
X151870000Y-96220000D01*
X154560000Y-96220000D02*
X153000008Y-96220000D01*
X154999999Y-96659999D02*
X154560000Y-96220000D01*
X154999999Y-97231400D02*
X154999999Y-96659999D01*
D26*
X143319996Y-105739996D02*
X143319996Y-103880000D01*
X143810000Y-106230000D02*
X143319996Y-105739996D01*
X149880000Y-106230000D02*
X143810000Y-106230000D01*
X150100000Y-106010000D02*
X149880000Y-106230000D01*
X150100000Y-105000000D02*
X150100000Y-106010000D01*
X142070000Y-100998200D02*
X143001800Y-101930000D01*
X143001800Y-101930000D02*
X143319998Y-101930000D01*
X142070000Y-98460000D02*
X142070000Y-100998200D01*
X142510000Y-98020000D02*
X142070000Y-98460000D01*
X150070000Y-98020000D02*
X142510000Y-98020000D01*
X151620000Y-96470000D02*
X150070000Y-98020000D01*
D23*
%TO.N,dbg_rx*%
X146100000Y-103120000D02*
X146100000Y-105000000D01*
X148219999Y-101000001D02*
X146100000Y-103120000D01*
X151731400Y-101000001D02*
X148219999Y-101000001D01*
%TO.N,dbg_tx*%
X147100000Y-102870000D02*
X147100000Y-105000000D01*
X148470000Y-101500000D02*
X147100000Y-102870000D01*
X151731400Y-101500000D02*
X148470000Y-101500000D01*
%TO.N,P0_5*%
X149100000Y-104010000D02*
X149100000Y-105000000D01*
X149450000Y-103660000D02*
X149100000Y-104010000D01*
X152714301Y-103660000D02*
X149450000Y-103660000D01*
X153000000Y-103374301D02*
X152714301Y-103660000D01*
X153000000Y-102768600D02*
X153000000Y-103374301D01*
%TO.N,led0*%
X147439999Y-99500001D02*
X151731400Y-99500001D01*
X146440000Y-100500000D02*
X147439999Y-99500001D01*
X145620000Y-100500000D02*
X146440000Y-100500000D01*
%TO.N,led1*%
X147280001Y-98999999D02*
X151731400Y-98999999D01*
X146780000Y-99500000D02*
X147280001Y-98999999D01*
X145620000Y-99500000D02*
X146780000Y-99500000D01*
%TO.N,P0_4*%
X148684997Y-102000001D02*
X148100000Y-102584998D01*
X151731400Y-102000001D02*
X148684997Y-102000001D01*
X148100000Y-102584998D02*
X148100000Y-105000000D01*
%TO.N,P0_6*%
X153499999Y-102768600D02*
X153499999Y-103510712D01*
X153100000Y-103910711D02*
X153100000Y-105000000D01*
X153499999Y-103510712D02*
X153100000Y-103910711D01*
%TO.N,Net-(D1-Pad2)*%
X143685000Y-100500000D02*
X144600000Y-100500000D01*
%TO.N,Net-(D2-Pad2)*%
X143685000Y-99500000D02*
X144600000Y-99500000D01*
D26*
%TO.N,i2c_scl*%
X136900000Y-101380000D02*
X137780000Y-100500000D01*
X137780000Y-100500000D02*
X138125000Y-100500000D01*
X136900000Y-101450000D02*
X136900000Y-101380000D01*
D23*
X137940000Y-101450000D02*
X138990000Y-102500000D01*
X136900000Y-101450000D02*
X137940000Y-101450000D01*
X147980001Y-100499999D02*
X151730001Y-100499999D01*
X145465002Y-103014998D02*
X147980001Y-100499999D01*
X140525002Y-103014998D02*
X145465002Y-103014998D01*
X140385002Y-103154998D02*
X140525002Y-103014998D01*
X139644998Y-103154998D02*
X140385002Y-103154998D01*
X151730001Y-100499999D02*
X151720000Y-100510000D01*
X138990000Y-102500000D02*
X139644998Y-103154998D01*
D26*
%TO.N,i2c_sda*%
X137780000Y-99500000D02*
X138125000Y-99500000D01*
X136900000Y-98620000D02*
X137780000Y-99500000D01*
X136900000Y-98550000D02*
X136900000Y-98620000D01*
D23*
X139364990Y-96824990D02*
X140010000Y-97470000D01*
X138000008Y-96824990D02*
X139364990Y-96824990D01*
X136900000Y-97924998D02*
X138000008Y-96824990D01*
X136900000Y-98550000D02*
X136900000Y-97924998D01*
X147715000Y-100000000D02*
X151731400Y-100000000D01*
X143010957Y-102564987D02*
X145150013Y-102564987D01*
X141630000Y-101184030D02*
X143010957Y-102564987D01*
X141630000Y-97334998D02*
X141630000Y-101184030D01*
X141300001Y-97004999D02*
X141630000Y-97334998D01*
X145150013Y-102564987D02*
X147715000Y-100000000D01*
X140475001Y-97004999D02*
X141300001Y-97004999D01*
X140010000Y-97470000D02*
X140475001Y-97004999D01*
%TO.N,Net-(C18-Pad2)*%
X139150000Y-99334636D02*
X139150000Y-98440000D01*
X138484636Y-100000000D02*
X139150000Y-99334636D01*
X138125000Y-100000000D02*
X138484636Y-100000000D01*
X140040000Y-98440000D02*
X139150000Y-98440000D01*
D22*
%TO.N,Net-(C20-Pad1)*%
X159868600Y-99300000D02*
X161520000Y-99300000D01*
X161520000Y-99300000D02*
X162455000Y-99300000D01*
%TD*%
D28*
%TO.N,GND*%
X164873000Y-98465339D02*
X164827755Y-98441155D01*
X164681794Y-98396878D01*
X164530000Y-98381928D01*
X164190000Y-98381928D01*
X164038206Y-98396878D01*
X163927106Y-98430580D01*
X163873125Y-98401726D01*
X163725757Y-98357023D01*
X163572500Y-98341928D01*
X163277500Y-98341928D01*
X163124243Y-98357023D01*
X162976875Y-98401726D01*
X162940000Y-98421436D01*
X162903125Y-98401726D01*
X162755757Y-98357023D01*
X162602500Y-98341928D01*
X162307500Y-98341928D01*
X162154243Y-98357023D01*
X162006875Y-98401726D01*
X161952894Y-98430580D01*
X161841794Y-98396878D01*
X161690000Y-98381928D01*
X161491178Y-98381928D01*
X161336250Y-98227000D01*
X160707000Y-98227000D01*
X160707000Y-98247000D01*
X160538072Y-98247000D01*
X160538072Y-97930000D01*
X160523122Y-97778206D01*
X160478845Y-97632245D01*
X160472300Y-97620000D01*
X160478845Y-97607755D01*
X160523122Y-97461794D01*
X160538072Y-97310000D01*
X160538072Y-97267000D01*
X160707000Y-97267000D01*
X160707000Y-97973000D01*
X160753750Y-97973000D01*
X160865750Y-98085000D01*
X160987348Y-98075235D01*
X161106878Y-98038377D01*
X161216921Y-97978908D01*
X161224053Y-97973000D01*
X161336250Y-97973000D01*
X161495000Y-97814250D01*
X161498065Y-97792923D01*
X161486375Y-97668387D01*
X161471939Y-97620000D01*
X161486375Y-97571613D01*
X161498065Y-97447077D01*
X161495000Y-97425750D01*
X161336250Y-97267000D01*
X161224053Y-97267000D01*
X161216921Y-97261092D01*
X161106878Y-97201623D01*
X160987348Y-97164765D01*
X160865750Y-97155000D01*
X160753750Y-97267000D01*
X160707000Y-97267000D01*
X160538072Y-97267000D01*
X160538072Y-96970000D01*
X160523122Y-96818206D01*
X160483000Y-96685942D01*
X160483000Y-96506538D01*
X160483218Y-96505819D01*
X160498072Y-96355000D01*
X160498072Y-96353750D01*
X160707000Y-96353750D01*
X160707000Y-97013000D01*
X160783750Y-97013000D01*
X160895750Y-97125000D01*
X161012202Y-97114226D01*
X161131442Y-97076441D01*
X161241020Y-97016118D01*
X161244725Y-97013000D01*
X161336250Y-97013000D01*
X161495000Y-96854250D01*
X161498065Y-96832923D01*
X161486375Y-96708387D01*
X161482043Y-96693867D01*
X161507301Y-96606742D01*
X161518023Y-96482119D01*
X161515000Y-96455750D01*
X161356250Y-96297000D01*
X161209349Y-96297000D01*
X161106878Y-96241623D01*
X160987348Y-96204765D01*
X160865750Y-96195000D01*
X160763750Y-96297000D01*
X160737000Y-96297000D01*
X160737000Y-96323750D01*
X160707000Y-96353750D01*
X160498072Y-96353750D01*
X160498072Y-95985000D01*
X160483218Y-95834181D01*
X160483000Y-95833462D01*
X160483000Y-95373750D01*
X160737000Y-95373750D01*
X160737000Y-96043000D01*
X161356250Y-96043000D01*
X161515000Y-95884250D01*
X161518023Y-95857881D01*
X161507301Y-95733258D01*
X161472473Y-95613121D01*
X161414876Y-95502086D01*
X161336724Y-95404422D01*
X161241020Y-95323882D01*
X161131442Y-95263559D01*
X161012202Y-95225774D01*
X160895750Y-95215000D01*
X160737000Y-95373750D01*
X160483000Y-95373750D01*
X160324250Y-95215000D01*
X160207798Y-95225774D01*
X160088558Y-95263559D01*
X160048549Y-95285584D01*
X160020842Y-95270775D01*
X159875819Y-95226782D01*
X159725000Y-95211928D01*
X159455000Y-95211928D01*
X159304181Y-95226782D01*
X159159158Y-95270775D01*
X159025504Y-95342214D01*
X158942907Y-95410000D01*
X158917325Y-95410000D01*
X158880000Y-95406324D01*
X158842675Y-95410000D01*
X158842667Y-95410000D01*
X158731014Y-95420997D01*
X158587753Y-95464454D01*
X158455724Y-95535026D01*
X158339999Y-95629999D01*
X158316201Y-95658998D01*
X157968020Y-96007178D01*
X157975000Y-95972089D01*
X157975000Y-95787911D01*
X157939068Y-95607271D01*
X157868586Y-95437111D01*
X157766262Y-95283972D01*
X157636028Y-95153738D01*
X157482889Y-95051414D01*
X157312729Y-94980932D01*
X157132089Y-94945000D01*
X156947911Y-94945000D01*
X156767271Y-94980932D01*
X156733308Y-94995000D01*
X156611534Y-94995000D01*
X156551794Y-94976878D01*
X156400000Y-94961928D01*
X156060000Y-94961928D01*
X155908206Y-94976878D01*
X155762245Y-95021155D01*
X155745000Y-95030373D01*
X155727755Y-95021155D01*
X155581794Y-94976878D01*
X155430000Y-94961928D01*
X155090000Y-94961928D01*
X154938206Y-94976878D01*
X154792245Y-95021155D01*
X154743892Y-95047000D01*
X154473750Y-95047000D01*
X154315000Y-95205750D01*
X154324765Y-95327348D01*
X154361623Y-95446878D01*
X154366828Y-95456509D01*
X154343018Y-95535000D01*
X153522791Y-95535000D01*
X153407371Y-95457878D01*
X153250861Y-95393049D01*
X153084711Y-95360000D01*
X152915305Y-95360000D01*
X152749155Y-95393049D01*
X152660004Y-95429977D01*
X152570853Y-95393049D01*
X152404703Y-95360000D01*
X152235297Y-95360000D01*
X152069147Y-95393049D01*
X151912637Y-95457878D01*
X151790450Y-95539521D01*
X151748766Y-95543627D01*
X151735716Y-95544912D01*
X151712367Y-95551995D01*
X151606594Y-95584081D01*
X151487593Y-95647688D01*
X151383289Y-95733289D01*
X151361838Y-95759427D01*
X151329277Y-95791988D01*
X151209680Y-95855914D01*
X151125806Y-95924747D01*
X149765554Y-97285000D01*
X142546105Y-97285000D01*
X142510000Y-97281444D01*
X142389571Y-97293305D01*
X142379003Y-97186012D01*
X142335546Y-97042751D01*
X142264974Y-96910722D01*
X142170001Y-96794997D01*
X142140998Y-96771195D01*
X141863805Y-96494002D01*
X141840002Y-96464998D01*
X141724277Y-96370025D01*
X141592248Y-96299453D01*
X141448987Y-96255996D01*
X141337334Y-96244999D01*
X141337323Y-96244999D01*
X141300001Y-96241323D01*
X141262679Y-96244999D01*
X140512326Y-96244999D01*
X140475001Y-96241323D01*
X140437676Y-96244999D01*
X140437668Y-96244999D01*
X140326015Y-96255996D01*
X140182754Y-96299453D01*
X140050725Y-96370025D01*
X140014530Y-96399729D01*
X139928793Y-96313992D01*
X139904991Y-96284989D01*
X139789266Y-96190016D01*
X139657237Y-96119444D01*
X139513976Y-96075987D01*
X139402323Y-96064990D01*
X139402312Y-96064990D01*
X139364990Y-96061314D01*
X139327668Y-96064990D01*
X138037330Y-96064990D01*
X138000007Y-96061314D01*
X137962684Y-96064990D01*
X137962675Y-96064990D01*
X137851022Y-96075987D01*
X137707761Y-96119444D01*
X137575732Y-96190016D01*
X137460007Y-96284989D01*
X137436209Y-96313987D01*
X136388998Y-97361199D01*
X136360000Y-97384997D01*
X136336202Y-97413995D01*
X136336201Y-97413996D01*
X136265026Y-97500722D01*
X136249046Y-97530618D01*
X136238294Y-97527095D01*
X136131750Y-97515000D01*
X135973000Y-97673750D01*
X135973000Y-98423000D01*
X136047000Y-98423000D01*
X136047000Y-98611928D01*
X135753000Y-98611928D01*
X135753000Y-98423000D01*
X135827000Y-98423000D01*
X135827000Y-97673750D01*
X135668250Y-97515000D01*
X135561706Y-97527095D01*
X135442840Y-97566044D01*
X135362865Y-97611094D01*
X135282448Y-97568110D01*
X135143991Y-97526110D01*
X135000000Y-97511928D01*
X134800000Y-97511928D01*
X134656009Y-97526110D01*
X134517552Y-97568110D01*
X134389949Y-97636316D01*
X134278104Y-97728104D01*
X134186316Y-97839949D01*
X134118110Y-97967552D01*
X134076110Y-98106009D01*
X134061928Y-98250000D01*
X134061928Y-98850000D01*
X134076110Y-98993991D01*
X134095098Y-99056587D01*
X134074188Y-99125518D01*
X134061928Y-99250000D01*
X134061928Y-100750000D01*
X134074188Y-100874482D01*
X134095098Y-100943413D01*
X134076110Y-101006009D01*
X134061928Y-101150000D01*
X134061928Y-101750000D01*
X134076110Y-101893991D01*
X134118110Y-102032448D01*
X134186316Y-102160051D01*
X134278104Y-102271896D01*
X134389949Y-102363684D01*
X134517552Y-102431890D01*
X134656009Y-102473890D01*
X134800000Y-102488072D01*
X134981928Y-102488072D01*
X134981928Y-102750000D01*
X134996878Y-102901794D01*
X135015000Y-102961534D01*
X135015000Y-103083308D01*
X135000932Y-103117271D01*
X134965000Y-103297911D01*
X134965000Y-103482089D01*
X134965929Y-103486761D01*
X134840256Y-103402789D01*
X134651898Y-103324768D01*
X134451939Y-103284994D01*
X134248061Y-103284994D01*
X134048102Y-103324768D01*
X133859744Y-103402789D01*
X133690226Y-103516057D01*
X133546063Y-103660220D01*
X133432795Y-103829738D01*
X133354774Y-104018096D01*
X133315000Y-104218055D01*
X133315000Y-104391289D01*
X133216063Y-104490226D01*
X133102795Y-104659744D01*
X133024774Y-104848102D01*
X132985000Y-105048061D01*
X132985000Y-105251939D01*
X133024774Y-105451898D01*
X133102795Y-105640256D01*
X133216063Y-105809774D01*
X133360226Y-105953937D01*
X133529744Y-106067205D01*
X133628882Y-106108270D01*
X133615000Y-106178061D01*
X133615000Y-106381939D01*
X133654774Y-106581898D01*
X133732795Y-106770256D01*
X133846063Y-106939774D01*
X133990226Y-107083937D01*
X134159744Y-107197205D01*
X134348102Y-107275226D01*
X134548061Y-107315000D01*
X134751939Y-107315000D01*
X134951898Y-107275226D01*
X135140256Y-107197205D01*
X135309774Y-107083937D01*
X135453937Y-106939774D01*
X135567205Y-106770256D01*
X135645226Y-106581898D01*
X135685000Y-106381939D01*
X135685000Y-106178061D01*
X135645226Y-105978102D01*
X135567205Y-105789744D01*
X135453937Y-105620226D01*
X135309774Y-105476063D01*
X135140256Y-105362795D01*
X135041118Y-105321730D01*
X135055000Y-105251939D01*
X135055000Y-105078705D01*
X135153937Y-104979768D01*
X135267205Y-104810250D01*
X135345226Y-104621892D01*
X135385000Y-104421933D01*
X135385000Y-104218055D01*
X135374069Y-104163099D01*
X135457111Y-104218586D01*
X135627271Y-104289068D01*
X135807911Y-104325000D01*
X135992089Y-104325000D01*
X136172729Y-104289068D01*
X136342889Y-104218586D01*
X136496028Y-104116262D01*
X136626262Y-103986028D01*
X136728586Y-103832889D01*
X136799068Y-103662729D01*
X136835000Y-103482089D01*
X136835000Y-103297911D01*
X136799068Y-103117271D01*
X136785000Y-103083308D01*
X136785000Y-102961534D01*
X136803122Y-102901794D01*
X136818072Y-102750000D01*
X136818072Y-102707000D01*
X136987000Y-102707000D01*
X136987000Y-103366250D01*
X137145750Y-103525000D01*
X137267348Y-103515235D01*
X137386878Y-103478377D01*
X137496921Y-103418908D01*
X137593247Y-103339113D01*
X137672156Y-103242059D01*
X137730614Y-103131476D01*
X137766375Y-103011613D01*
X137778065Y-102887077D01*
X137775000Y-102865750D01*
X137616250Y-102707000D01*
X136987000Y-102707000D01*
X136818072Y-102707000D01*
X136818072Y-102488072D01*
X137000000Y-102488072D01*
X137143991Y-102473890D01*
X137212857Y-102453000D01*
X137616250Y-102453000D01*
X137742224Y-102327026D01*
X138081928Y-102666730D01*
X138081928Y-102685000D01*
X138096782Y-102835819D01*
X138140775Y-102980842D01*
X138212214Y-103114496D01*
X138308356Y-103231644D01*
X138425504Y-103327786D01*
X138559158Y-103399225D01*
X138704181Y-103443218D01*
X138855000Y-103458072D01*
X138873270Y-103458072D01*
X139081198Y-103666000D01*
X139104997Y-103694999D01*
X139133995Y-103718797D01*
X139220721Y-103789972D01*
X139316185Y-103840999D01*
X139352751Y-103860544D01*
X139496012Y-103904001D01*
X139607665Y-103914998D01*
X139607674Y-103914998D01*
X139644997Y-103918674D01*
X139682320Y-103914998D01*
X140347680Y-103914998D01*
X140385002Y-103918674D01*
X140422324Y-103914998D01*
X140422335Y-103914998D01*
X140533988Y-103904001D01*
X140677249Y-103860544D01*
X140809278Y-103789972D01*
X140827524Y-103774998D01*
X142464034Y-103774998D01*
X142459996Y-103795297D01*
X142459996Y-103964703D01*
X142493045Y-104130853D01*
X142557874Y-104287363D01*
X142584997Y-104327955D01*
X142584996Y-105703891D01*
X142581440Y-105739996D01*
X142595631Y-105884081D01*
X142608380Y-105926109D01*
X142637659Y-106022628D01*
X142705909Y-106150315D01*
X142797758Y-106262233D01*
X142825804Y-106285250D01*
X143264741Y-106724187D01*
X143287762Y-106752238D01*
X143399680Y-106844087D01*
X143527367Y-106912337D01*
X143665915Y-106954365D01*
X143773895Y-106965000D01*
X143773904Y-106965000D01*
X143809999Y-106968555D01*
X143846094Y-106965000D01*
X149843895Y-106965000D01*
X149880000Y-106968556D01*
X149916105Y-106965000D01*
X150024085Y-106954365D01*
X150162633Y-106912337D01*
X150290320Y-106844087D01*
X150402238Y-106752238D01*
X150425259Y-106724187D01*
X150519182Y-106630264D01*
X150559999Y-106680001D01*
X150589003Y-106703804D01*
X150976196Y-107090997D01*
X150999999Y-107120001D01*
X151073146Y-107180031D01*
X151115723Y-107214974D01*
X151228446Y-107275226D01*
X151247753Y-107285546D01*
X151391014Y-107329003D01*
X151502667Y-107340000D01*
X151502677Y-107340000D01*
X151540000Y-107343676D01*
X151577323Y-107340000D01*
X153612678Y-107340000D01*
X153650000Y-107343676D01*
X153687322Y-107340000D01*
X153687333Y-107340000D01*
X153798986Y-107329003D01*
X153942247Y-107285546D01*
X154074276Y-107214974D01*
X154190001Y-107120001D01*
X154213804Y-107090997D01*
X156011004Y-105293798D01*
X156040002Y-105270000D01*
X156125557Y-105165750D01*
X156323600Y-105165750D01*
X156333365Y-105287348D01*
X156370223Y-105406878D01*
X156429692Y-105516921D01*
X156509487Y-105613247D01*
X156606541Y-105692156D01*
X156717124Y-105750614D01*
X156836987Y-105786375D01*
X156961523Y-105798065D01*
X156982850Y-105795000D01*
X157141600Y-105636250D01*
X157141600Y-105007000D01*
X156482350Y-105007000D01*
X156323600Y-105165750D01*
X156125557Y-105165750D01*
X156134975Y-105154275D01*
X156205547Y-105022246D01*
X156249004Y-104878985D01*
X156253606Y-104832263D01*
X156367911Y-104855000D01*
X156552089Y-104855000D01*
X156732729Y-104819068D01*
X156766692Y-104805000D01*
X156887066Y-104805000D01*
X156946806Y-104823122D01*
X157098600Y-104838072D01*
X157265001Y-104838072D01*
X157265001Y-104863885D01*
X157261444Y-104900000D01*
X157275635Y-105044085D01*
X157317664Y-105182633D01*
X157385914Y-105310320D01*
X157395600Y-105322122D01*
X157395600Y-105636250D01*
X157554350Y-105795000D01*
X157575677Y-105798065D01*
X157700213Y-105786375D01*
X157820076Y-105750614D01*
X157822014Y-105749589D01*
X157839680Y-105764087D01*
X157853632Y-105771544D01*
X157860498Y-105794180D01*
X157919463Y-105904494D01*
X157998815Y-106001185D01*
X158015971Y-106015265D01*
X157996878Y-106078206D01*
X157981928Y-106230000D01*
X157981928Y-106570000D01*
X157996878Y-106721794D01*
X158041155Y-106867755D01*
X158113057Y-107002274D01*
X158209820Y-107120180D01*
X158327726Y-107216943D01*
X158462245Y-107288845D01*
X158608206Y-107333122D01*
X158760000Y-107348072D01*
X159040000Y-107348072D01*
X159191794Y-107333122D01*
X159323491Y-107293172D01*
X159333122Y-107298377D01*
X159452652Y-107335235D01*
X159574250Y-107345000D01*
X159733000Y-107186250D01*
X159733000Y-106916108D01*
X159758845Y-106867755D01*
X159803122Y-106721794D01*
X159818072Y-106570000D01*
X159818072Y-106527000D01*
X159987000Y-106527000D01*
X159987000Y-107186250D01*
X160145750Y-107345000D01*
X160267348Y-107335235D01*
X160386878Y-107298377D01*
X160496921Y-107238908D01*
X160593247Y-107159113D01*
X160672156Y-107062059D01*
X160730614Y-106951476D01*
X160766375Y-106831613D01*
X160778065Y-106707077D01*
X160775000Y-106685750D01*
X160616250Y-106527000D01*
X159987000Y-106527000D01*
X159818072Y-106527000D01*
X159818072Y-106253000D01*
X159987000Y-106253000D01*
X159987000Y-106273000D01*
X160616250Y-106273000D01*
X160702074Y-106187176D01*
X160750000Y-106188072D01*
X160874482Y-106175812D01*
X160994180Y-106139502D01*
X161104494Y-106080537D01*
X161201185Y-106001185D01*
X161280537Y-105904494D01*
X161339502Y-105794180D01*
X161375812Y-105674482D01*
X161388072Y-105550000D01*
X161385000Y-105435750D01*
X161226250Y-105277000D01*
X160427000Y-105277000D01*
X160427000Y-105297000D01*
X160173000Y-105297000D01*
X160173000Y-105277000D01*
X160153000Y-105277000D01*
X160153000Y-105088072D01*
X160750000Y-105088072D01*
X160874482Y-105075812D01*
X160994180Y-105039502D01*
X161025053Y-105023000D01*
X161226250Y-105023000D01*
X161385000Y-104864250D01*
X161388072Y-104750000D01*
X161375812Y-104625518D01*
X161368071Y-104600000D01*
X161375812Y-104574482D01*
X161388072Y-104450000D01*
X161388072Y-103650000D01*
X161375812Y-103525518D01*
X161339502Y-103405820D01*
X161280537Y-103295506D01*
X161201185Y-103198815D01*
X161184029Y-103184735D01*
X161203122Y-103121794D01*
X161218072Y-102970000D01*
X161218072Y-102630000D01*
X161203122Y-102478206D01*
X161158845Y-102332245D01*
X161133153Y-102284178D01*
X161216921Y-102238908D01*
X161313247Y-102159113D01*
X161392156Y-102062059D01*
X161450614Y-101951476D01*
X161486375Y-101831613D01*
X161498065Y-101707077D01*
X161495000Y-101685750D01*
X161336250Y-101527000D01*
X160707000Y-101527000D01*
X160707000Y-101547000D01*
X160624755Y-101547000D01*
X160550320Y-101485913D01*
X160538072Y-101479366D01*
X160538072Y-101230000D01*
X160523122Y-101078206D01*
X160478845Y-100932245D01*
X160453000Y-100883892D01*
X160453000Y-100613750D01*
X160385000Y-100545750D01*
X160575000Y-100545750D01*
X160584765Y-100667348D01*
X160621623Y-100786878D01*
X160681092Y-100896921D01*
X160707000Y-100928196D01*
X160707000Y-101273000D01*
X161336250Y-101273000D01*
X161495000Y-101114250D01*
X161498065Y-101092923D01*
X161486375Y-100968387D01*
X161450614Y-100848524D01*
X161393000Y-100739538D01*
X161393000Y-100387000D01*
X161647000Y-100387000D01*
X161647000Y-101016250D01*
X161805750Y-101175000D01*
X161827077Y-101178065D01*
X161951613Y-101166375D01*
X162071476Y-101130614D01*
X162182059Y-101072156D01*
X162279113Y-100993247D01*
X162358908Y-100896921D01*
X162418377Y-100786878D01*
X162455235Y-100667348D01*
X162465000Y-100545750D01*
X163415000Y-100545750D01*
X163424765Y-100667348D01*
X163461623Y-100786878D01*
X163521092Y-100896921D01*
X163600887Y-100993247D01*
X163697941Y-101072156D01*
X163808524Y-101130614D01*
X163928387Y-101166375D01*
X164052923Y-101178065D01*
X164074250Y-101175000D01*
X164233000Y-101016250D01*
X164233000Y-100387000D01*
X163573750Y-100387000D01*
X163415000Y-100545750D01*
X162465000Y-100545750D01*
X162306250Y-100387000D01*
X161647000Y-100387000D01*
X161393000Y-100387000D01*
X160733750Y-100387000D01*
X160575000Y-100545750D01*
X160385000Y-100545750D01*
X160294250Y-100455000D01*
X160172652Y-100464765D01*
X160053122Y-100501623D01*
X160043491Y-100506828D01*
X159911794Y-100466878D01*
X159760000Y-100451928D01*
X159574218Y-100451928D01*
X159496028Y-100373738D01*
X159450648Y-100343416D01*
X159463600Y-100278301D01*
X159463600Y-100121699D01*
X159434428Y-99975039D01*
X159560972Y-100042679D01*
X159711773Y-100088424D01*
X159829307Y-100100000D01*
X160700750Y-100100000D01*
X160733750Y-100133000D01*
X161003892Y-100133000D01*
X161052245Y-100158845D01*
X161198206Y-100203122D01*
X161350000Y-100218072D01*
X161690000Y-100218072D01*
X161841794Y-100203122D01*
X161952894Y-100169420D01*
X162006875Y-100198274D01*
X162154243Y-100242977D01*
X162307500Y-100258072D01*
X162602500Y-100258072D01*
X162755757Y-100242977D01*
X162903125Y-100198274D01*
X162940000Y-100178564D01*
X162976875Y-100198274D01*
X163124243Y-100242977D01*
X163277500Y-100258072D01*
X163572500Y-100258072D01*
X163725757Y-100242977D01*
X163873125Y-100198274D01*
X163927106Y-100169420D01*
X164038206Y-100203122D01*
X164190000Y-100218072D01*
X164507000Y-100218072D01*
X164507000Y-100387000D01*
X164487000Y-100387000D01*
X164487000Y-101016250D01*
X164645750Y-101175000D01*
X164667077Y-101178065D01*
X164791613Y-101166375D01*
X164873000Y-101142093D01*
X164873000Y-109340000D01*
X155638072Y-109340000D01*
X155638072Y-108224999D01*
X155621008Y-108051745D01*
X155570472Y-107885149D01*
X155488405Y-107731613D01*
X155377962Y-107597038D01*
X155243387Y-107486595D01*
X155089851Y-107404528D01*
X154923255Y-107353992D01*
X154750001Y-107336928D01*
X154049999Y-107336928D01*
X153876745Y-107353992D01*
X153710149Y-107404528D01*
X153556613Y-107486595D01*
X153422038Y-107597038D01*
X153311595Y-107731613D01*
X153229528Y-107885149D01*
X153178992Y-108051745D01*
X153161928Y-108224999D01*
X153161928Y-109340000D01*
X144038072Y-109340000D01*
X144038072Y-108224999D01*
X144021008Y-108051745D01*
X143970472Y-107885149D01*
X143888405Y-107731613D01*
X143777962Y-107597038D01*
X143643387Y-107486595D01*
X143489851Y-107404528D01*
X143323255Y-107353992D01*
X143150001Y-107336928D01*
X142449999Y-107336928D01*
X142276745Y-107353992D01*
X142110149Y-107404528D01*
X141956613Y-107486595D01*
X141822038Y-107597038D01*
X141711595Y-107731613D01*
X141629528Y-107885149D01*
X141578992Y-108051745D01*
X141561928Y-108224999D01*
X141561928Y-109340000D01*
X130660000Y-109340000D01*
X130660000Y-105893711D01*
X130720226Y-105953937D01*
X130889744Y-106067205D01*
X131078102Y-106145226D01*
X131278061Y-106185000D01*
X131481939Y-106185000D01*
X131681898Y-106145226D01*
X131870256Y-106067205D01*
X132039774Y-105953937D01*
X132183937Y-105809774D01*
X132297205Y-105640256D01*
X132375226Y-105451898D01*
X132415000Y-105251939D01*
X132415000Y-105048061D01*
X132375226Y-104848102D01*
X132297205Y-104659744D01*
X132183937Y-104490226D01*
X132039774Y-104346063D01*
X131870256Y-104232795D01*
X131681898Y-104154774D01*
X131481939Y-104115000D01*
X131278061Y-104115000D01*
X131078102Y-104154774D01*
X130889744Y-104232795D01*
X130720226Y-104346063D01*
X130660000Y-104406289D01*
X130660000Y-101523711D01*
X130740226Y-101603937D01*
X130909744Y-101717205D01*
X131098102Y-101795226D01*
X131298061Y-101835000D01*
X131501939Y-101835000D01*
X131701898Y-101795226D01*
X131890256Y-101717205D01*
X132059774Y-101603937D01*
X132203937Y-101459774D01*
X132317205Y-101290256D01*
X132395226Y-101101898D01*
X132435000Y-100901939D01*
X132435000Y-100698061D01*
X132395226Y-100498102D01*
X132354591Y-100400000D01*
X132395226Y-100301898D01*
X132435000Y-100101939D01*
X132435000Y-99898061D01*
X132395226Y-99698102D01*
X132354591Y-99600000D01*
X132395226Y-99501898D01*
X132435000Y-99301939D01*
X132435000Y-99098061D01*
X132395226Y-98898102D01*
X132317205Y-98709744D01*
X132203937Y-98540226D01*
X132059774Y-98396063D01*
X131890256Y-98282795D01*
X131701898Y-98204774D01*
X131501939Y-98165000D01*
X131298061Y-98165000D01*
X131098102Y-98204774D01*
X130909744Y-98282795D01*
X130740226Y-98396063D01*
X130660000Y-98476289D01*
X130660000Y-95593711D01*
X130720226Y-95653937D01*
X130889744Y-95767205D01*
X131078102Y-95845226D01*
X131278061Y-95885000D01*
X131481939Y-95885000D01*
X131681898Y-95845226D01*
X131870256Y-95767205D01*
X132039774Y-95653937D01*
X132183937Y-95509774D01*
X132297205Y-95340256D01*
X132375226Y-95151898D01*
X132415000Y-94951939D01*
X132415000Y-94748061D01*
X132995000Y-94748061D01*
X132995000Y-94951939D01*
X133034774Y-95151898D01*
X133112795Y-95340256D01*
X133226063Y-95509774D01*
X133315000Y-95598711D01*
X133315000Y-95781943D01*
X133354774Y-95981902D01*
X133432795Y-96170260D01*
X133546063Y-96339778D01*
X133690226Y-96483941D01*
X133859744Y-96597209D01*
X134048102Y-96675230D01*
X134248061Y-96715004D01*
X134451939Y-96715004D01*
X134651898Y-96675230D01*
X134840256Y-96597209D01*
X135009774Y-96483941D01*
X135153937Y-96339778D01*
X135267205Y-96170260D01*
X135345226Y-95981902D01*
X135385000Y-95781943D01*
X135385000Y-95578065D01*
X135345226Y-95378106D01*
X135267205Y-95189748D01*
X135153937Y-95020230D01*
X135065000Y-94931293D01*
X135065000Y-94748061D01*
X135052194Y-94683682D01*
X135140256Y-94647205D01*
X135159644Y-94634250D01*
X154315000Y-94634250D01*
X154473750Y-94793000D01*
X155133000Y-94793000D01*
X155133000Y-94634250D01*
X155285000Y-94634250D01*
X155387000Y-94736250D01*
X155387000Y-94793000D01*
X156103000Y-94793000D01*
X156103000Y-94736250D01*
X156205000Y-94634250D01*
X156195235Y-94512652D01*
X156158377Y-94393122D01*
X156103000Y-94290651D01*
X156103000Y-94163750D01*
X156357000Y-94163750D01*
X156357000Y-94793000D01*
X157016250Y-94793000D01*
X157175000Y-94634250D01*
X157165235Y-94512652D01*
X157128377Y-94393122D01*
X157068908Y-94283079D01*
X156989113Y-94186753D01*
X156892059Y-94107844D01*
X156781476Y-94049386D01*
X156661613Y-94013625D01*
X156537077Y-94001935D01*
X156515750Y-94005000D01*
X156357000Y-94163750D01*
X156103000Y-94163750D01*
X155944250Y-94005000D01*
X155922923Y-94001935D01*
X155798387Y-94013625D01*
X155745000Y-94029553D01*
X155691613Y-94013625D01*
X155567077Y-94001935D01*
X155545750Y-94005000D01*
X155387000Y-94163750D01*
X155387000Y-94290651D01*
X155331623Y-94393122D01*
X155294765Y-94512652D01*
X155285000Y-94634250D01*
X155133000Y-94634250D01*
X155133000Y-94163750D01*
X154974250Y-94005000D01*
X154952923Y-94001935D01*
X154828387Y-94013625D01*
X154708524Y-94049386D01*
X154597941Y-94107844D01*
X154500887Y-94186753D01*
X154421092Y-94283079D01*
X154361623Y-94393122D01*
X154324765Y-94512652D01*
X154315000Y-94634250D01*
X135159644Y-94634250D01*
X135309774Y-94533937D01*
X135453937Y-94389774D01*
X135567205Y-94220256D01*
X135645226Y-94031898D01*
X135685000Y-93831939D01*
X135685000Y-93628061D01*
X135645226Y-93428102D01*
X135567205Y-93239744D01*
X135453937Y-93070226D01*
X135309774Y-92926063D01*
X135140256Y-92812795D01*
X134951898Y-92734774D01*
X134751939Y-92695000D01*
X134548061Y-92695000D01*
X134348102Y-92734774D01*
X134159744Y-92812795D01*
X133990226Y-92926063D01*
X133846063Y-93070226D01*
X133732795Y-93239744D01*
X133654774Y-93428102D01*
X133615000Y-93628061D01*
X133615000Y-93831939D01*
X133627806Y-93896318D01*
X133539744Y-93932795D01*
X133370226Y-94046063D01*
X133226063Y-94190226D01*
X133112795Y-94359744D01*
X133034774Y-94548102D01*
X132995000Y-94748061D01*
X132415000Y-94748061D01*
X132375226Y-94548102D01*
X132297205Y-94359744D01*
X132183937Y-94190226D01*
X132039774Y-94046063D01*
X131870256Y-93932795D01*
X131681898Y-93854774D01*
X131481939Y-93815000D01*
X131278061Y-93815000D01*
X131078102Y-93854774D01*
X130889744Y-93932795D01*
X130720226Y-94046063D01*
X130660000Y-94106289D01*
X130660000Y-91979444D01*
X130698102Y-91995226D01*
X130898061Y-92035000D01*
X131101939Y-92035000D01*
X131301898Y-91995226D01*
X131490256Y-91917205D01*
X131659774Y-91803937D01*
X131803937Y-91659774D01*
X131917205Y-91490256D01*
X131995226Y-91301898D01*
X132035000Y-91101939D01*
X132035000Y-90898061D01*
X131995226Y-90698102D01*
X131979444Y-90660000D01*
X164873000Y-90660000D01*
X164873000Y-98465339D01*
%TA.AperFunction,Conductor*%
D27*
G36*
X164873000Y-98465339D02*
G01*
X164827755Y-98441155D01*
X164681794Y-98396878D01*
X164530000Y-98381928D01*
X164190000Y-98381928D01*
X164038206Y-98396878D01*
X163927106Y-98430580D01*
X163873125Y-98401726D01*
X163725757Y-98357023D01*
X163572500Y-98341928D01*
X163277500Y-98341928D01*
X163124243Y-98357023D01*
X162976875Y-98401726D01*
X162940000Y-98421436D01*
X162903125Y-98401726D01*
X162755757Y-98357023D01*
X162602500Y-98341928D01*
X162307500Y-98341928D01*
X162154243Y-98357023D01*
X162006875Y-98401726D01*
X161952894Y-98430580D01*
X161841794Y-98396878D01*
X161690000Y-98381928D01*
X161491178Y-98381928D01*
X161336250Y-98227000D01*
X160707000Y-98227000D01*
X160707000Y-98247000D01*
X160538072Y-98247000D01*
X160538072Y-97930000D01*
X160523122Y-97778206D01*
X160478845Y-97632245D01*
X160472300Y-97620000D01*
X160478845Y-97607755D01*
X160523122Y-97461794D01*
X160538072Y-97310000D01*
X160538072Y-97267000D01*
X160707000Y-97267000D01*
X160707000Y-97973000D01*
X160753750Y-97973000D01*
X160865750Y-98085000D01*
X160987348Y-98075235D01*
X161106878Y-98038377D01*
X161216921Y-97978908D01*
X161224053Y-97973000D01*
X161336250Y-97973000D01*
X161495000Y-97814250D01*
X161498065Y-97792923D01*
X161486375Y-97668387D01*
X161471939Y-97620000D01*
X161486375Y-97571613D01*
X161498065Y-97447077D01*
X161495000Y-97425750D01*
X161336250Y-97267000D01*
X161224053Y-97267000D01*
X161216921Y-97261092D01*
X161106878Y-97201623D01*
X160987348Y-97164765D01*
X160865750Y-97155000D01*
X160753750Y-97267000D01*
X160707000Y-97267000D01*
X160538072Y-97267000D01*
X160538072Y-96970000D01*
X160523122Y-96818206D01*
X160483000Y-96685942D01*
X160483000Y-96506538D01*
X160483218Y-96505819D01*
X160498072Y-96355000D01*
X160498072Y-96353750D01*
X160707000Y-96353750D01*
X160707000Y-97013000D01*
X160783750Y-97013000D01*
X160895750Y-97125000D01*
X161012202Y-97114226D01*
X161131442Y-97076441D01*
X161241020Y-97016118D01*
X161244725Y-97013000D01*
X161336250Y-97013000D01*
X161495000Y-96854250D01*
X161498065Y-96832923D01*
X161486375Y-96708387D01*
X161482043Y-96693867D01*
X161507301Y-96606742D01*
X161518023Y-96482119D01*
X161515000Y-96455750D01*
X161356250Y-96297000D01*
X161209349Y-96297000D01*
X161106878Y-96241623D01*
X160987348Y-96204765D01*
X160865750Y-96195000D01*
X160763750Y-96297000D01*
X160737000Y-96297000D01*
X160737000Y-96323750D01*
X160707000Y-96353750D01*
X160498072Y-96353750D01*
X160498072Y-95985000D01*
X160483218Y-95834181D01*
X160483000Y-95833462D01*
X160483000Y-95373750D01*
X160737000Y-95373750D01*
X160737000Y-96043000D01*
X161356250Y-96043000D01*
X161515000Y-95884250D01*
X161518023Y-95857881D01*
X161507301Y-95733258D01*
X161472473Y-95613121D01*
X161414876Y-95502086D01*
X161336724Y-95404422D01*
X161241020Y-95323882D01*
X161131442Y-95263559D01*
X161012202Y-95225774D01*
X160895750Y-95215000D01*
X160737000Y-95373750D01*
X160483000Y-95373750D01*
X160324250Y-95215000D01*
X160207798Y-95225774D01*
X160088558Y-95263559D01*
X160048549Y-95285584D01*
X160020842Y-95270775D01*
X159875819Y-95226782D01*
X159725000Y-95211928D01*
X159455000Y-95211928D01*
X159304181Y-95226782D01*
X159159158Y-95270775D01*
X159025504Y-95342214D01*
X158942907Y-95410000D01*
X158917325Y-95410000D01*
X158880000Y-95406324D01*
X158842675Y-95410000D01*
X158842667Y-95410000D01*
X158731014Y-95420997D01*
X158587753Y-95464454D01*
X158455724Y-95535026D01*
X158339999Y-95629999D01*
X158316201Y-95658998D01*
X157968020Y-96007178D01*
X157975000Y-95972089D01*
X157975000Y-95787911D01*
X157939068Y-95607271D01*
X157868586Y-95437111D01*
X157766262Y-95283972D01*
X157636028Y-95153738D01*
X157482889Y-95051414D01*
X157312729Y-94980932D01*
X157132089Y-94945000D01*
X156947911Y-94945000D01*
X156767271Y-94980932D01*
X156733308Y-94995000D01*
X156611534Y-94995000D01*
X156551794Y-94976878D01*
X156400000Y-94961928D01*
X156060000Y-94961928D01*
X155908206Y-94976878D01*
X155762245Y-95021155D01*
X155745000Y-95030373D01*
X155727755Y-95021155D01*
X155581794Y-94976878D01*
X155430000Y-94961928D01*
X155090000Y-94961928D01*
X154938206Y-94976878D01*
X154792245Y-95021155D01*
X154743892Y-95047000D01*
X154473750Y-95047000D01*
X154315000Y-95205750D01*
X154324765Y-95327348D01*
X154361623Y-95446878D01*
X154366828Y-95456509D01*
X154343018Y-95535000D01*
X153522791Y-95535000D01*
X153407371Y-95457878D01*
X153250861Y-95393049D01*
X153084711Y-95360000D01*
X152915305Y-95360000D01*
X152749155Y-95393049D01*
X152660004Y-95429977D01*
X152570853Y-95393049D01*
X152404703Y-95360000D01*
X152235297Y-95360000D01*
X152069147Y-95393049D01*
X151912637Y-95457878D01*
X151790450Y-95539521D01*
X151748766Y-95543627D01*
X151735716Y-95544912D01*
X151712367Y-95551995D01*
X151606594Y-95584081D01*
X151487593Y-95647688D01*
X151383289Y-95733289D01*
X151361838Y-95759427D01*
X151329277Y-95791988D01*
X151209680Y-95855914D01*
X151125806Y-95924747D01*
X149765554Y-97285000D01*
X142546105Y-97285000D01*
X142510000Y-97281444D01*
X142389571Y-97293305D01*
X142379003Y-97186012D01*
X142335546Y-97042751D01*
X142264974Y-96910722D01*
X142170001Y-96794997D01*
X142140998Y-96771195D01*
X141863805Y-96494002D01*
X141840002Y-96464998D01*
X141724277Y-96370025D01*
X141592248Y-96299453D01*
X141448987Y-96255996D01*
X141337334Y-96244999D01*
X141337323Y-96244999D01*
X141300001Y-96241323D01*
X141262679Y-96244999D01*
X140512326Y-96244999D01*
X140475001Y-96241323D01*
X140437676Y-96244999D01*
X140437668Y-96244999D01*
X140326015Y-96255996D01*
X140182754Y-96299453D01*
X140050725Y-96370025D01*
X140014530Y-96399729D01*
X139928793Y-96313992D01*
X139904991Y-96284989D01*
X139789266Y-96190016D01*
X139657237Y-96119444D01*
X139513976Y-96075987D01*
X139402323Y-96064990D01*
X139402312Y-96064990D01*
X139364990Y-96061314D01*
X139327668Y-96064990D01*
X138037330Y-96064990D01*
X138000007Y-96061314D01*
X137962684Y-96064990D01*
X137962675Y-96064990D01*
X137851022Y-96075987D01*
X137707761Y-96119444D01*
X137575732Y-96190016D01*
X137460007Y-96284989D01*
X137436209Y-96313987D01*
X136388998Y-97361199D01*
X136360000Y-97384997D01*
X136336202Y-97413995D01*
X136336201Y-97413996D01*
X136265026Y-97500722D01*
X136249046Y-97530618D01*
X136238294Y-97527095D01*
X136131750Y-97515000D01*
X135973000Y-97673750D01*
X135973000Y-98423000D01*
X136047000Y-98423000D01*
X136047000Y-98611928D01*
X135753000Y-98611928D01*
X135753000Y-98423000D01*
X135827000Y-98423000D01*
X135827000Y-97673750D01*
X135668250Y-97515000D01*
X135561706Y-97527095D01*
X135442840Y-97566044D01*
X135362865Y-97611094D01*
X135282448Y-97568110D01*
X135143991Y-97526110D01*
X135000000Y-97511928D01*
X134800000Y-97511928D01*
X134656009Y-97526110D01*
X134517552Y-97568110D01*
X134389949Y-97636316D01*
X134278104Y-97728104D01*
X134186316Y-97839949D01*
X134118110Y-97967552D01*
X134076110Y-98106009D01*
X134061928Y-98250000D01*
X134061928Y-98850000D01*
X134076110Y-98993991D01*
X134095098Y-99056587D01*
X134074188Y-99125518D01*
X134061928Y-99250000D01*
X134061928Y-100750000D01*
X134074188Y-100874482D01*
X134095098Y-100943413D01*
X134076110Y-101006009D01*
X134061928Y-101150000D01*
X134061928Y-101750000D01*
X134076110Y-101893991D01*
X134118110Y-102032448D01*
X134186316Y-102160051D01*
X134278104Y-102271896D01*
X134389949Y-102363684D01*
X134517552Y-102431890D01*
X134656009Y-102473890D01*
X134800000Y-102488072D01*
X134981928Y-102488072D01*
X134981928Y-102750000D01*
X134996878Y-102901794D01*
X135015000Y-102961534D01*
X135015000Y-103083308D01*
X135000932Y-103117271D01*
X134965000Y-103297911D01*
X134965000Y-103482089D01*
X134965929Y-103486761D01*
X134840256Y-103402789D01*
X134651898Y-103324768D01*
X134451939Y-103284994D01*
X134248061Y-103284994D01*
X134048102Y-103324768D01*
X133859744Y-103402789D01*
X133690226Y-103516057D01*
X133546063Y-103660220D01*
X133432795Y-103829738D01*
X133354774Y-104018096D01*
X133315000Y-104218055D01*
X133315000Y-104391289D01*
X133216063Y-104490226D01*
X133102795Y-104659744D01*
X133024774Y-104848102D01*
X132985000Y-105048061D01*
X132985000Y-105251939D01*
X133024774Y-105451898D01*
X133102795Y-105640256D01*
X133216063Y-105809774D01*
X133360226Y-105953937D01*
X133529744Y-106067205D01*
X133628882Y-106108270D01*
X133615000Y-106178061D01*
X133615000Y-106381939D01*
X133654774Y-106581898D01*
X133732795Y-106770256D01*
X133846063Y-106939774D01*
X133990226Y-107083937D01*
X134159744Y-107197205D01*
X134348102Y-107275226D01*
X134548061Y-107315000D01*
X134751939Y-107315000D01*
X134951898Y-107275226D01*
X135140256Y-107197205D01*
X135309774Y-107083937D01*
X135453937Y-106939774D01*
X135567205Y-106770256D01*
X135645226Y-106581898D01*
X135685000Y-106381939D01*
X135685000Y-106178061D01*
X135645226Y-105978102D01*
X135567205Y-105789744D01*
X135453937Y-105620226D01*
X135309774Y-105476063D01*
X135140256Y-105362795D01*
X135041118Y-105321730D01*
X135055000Y-105251939D01*
X135055000Y-105078705D01*
X135153937Y-104979768D01*
X135267205Y-104810250D01*
X135345226Y-104621892D01*
X135385000Y-104421933D01*
X135385000Y-104218055D01*
X135374069Y-104163099D01*
X135457111Y-104218586D01*
X135627271Y-104289068D01*
X135807911Y-104325000D01*
X135992089Y-104325000D01*
X136172729Y-104289068D01*
X136342889Y-104218586D01*
X136496028Y-104116262D01*
X136626262Y-103986028D01*
X136728586Y-103832889D01*
X136799068Y-103662729D01*
X136835000Y-103482089D01*
X136835000Y-103297911D01*
X136799068Y-103117271D01*
X136785000Y-103083308D01*
X136785000Y-102961534D01*
X136803122Y-102901794D01*
X136818072Y-102750000D01*
X136818072Y-102707000D01*
X136987000Y-102707000D01*
X136987000Y-103366250D01*
X137145750Y-103525000D01*
X137267348Y-103515235D01*
X137386878Y-103478377D01*
X137496921Y-103418908D01*
X137593247Y-103339113D01*
X137672156Y-103242059D01*
X137730614Y-103131476D01*
X137766375Y-103011613D01*
X137778065Y-102887077D01*
X137775000Y-102865750D01*
X137616250Y-102707000D01*
X136987000Y-102707000D01*
X136818072Y-102707000D01*
X136818072Y-102488072D01*
X137000000Y-102488072D01*
X137143991Y-102473890D01*
X137212857Y-102453000D01*
X137616250Y-102453000D01*
X137742224Y-102327026D01*
X138081928Y-102666730D01*
X138081928Y-102685000D01*
X138096782Y-102835819D01*
X138140775Y-102980842D01*
X138212214Y-103114496D01*
X138308356Y-103231644D01*
X138425504Y-103327786D01*
X138559158Y-103399225D01*
X138704181Y-103443218D01*
X138855000Y-103458072D01*
X138873270Y-103458072D01*
X139081198Y-103666000D01*
X139104997Y-103694999D01*
X139133995Y-103718797D01*
X139220721Y-103789972D01*
X139316185Y-103840999D01*
X139352751Y-103860544D01*
X139496012Y-103904001D01*
X139607665Y-103914998D01*
X139607674Y-103914998D01*
X139644997Y-103918674D01*
X139682320Y-103914998D01*
X140347680Y-103914998D01*
X140385002Y-103918674D01*
X140422324Y-103914998D01*
X140422335Y-103914998D01*
X140533988Y-103904001D01*
X140677249Y-103860544D01*
X140809278Y-103789972D01*
X140827524Y-103774998D01*
X142464034Y-103774998D01*
X142459996Y-103795297D01*
X142459996Y-103964703D01*
X142493045Y-104130853D01*
X142557874Y-104287363D01*
X142584997Y-104327955D01*
X142584996Y-105703891D01*
X142581440Y-105739996D01*
X142595631Y-105884081D01*
X142608380Y-105926109D01*
X142637659Y-106022628D01*
X142705909Y-106150315D01*
X142797758Y-106262233D01*
X142825804Y-106285250D01*
X143264741Y-106724187D01*
X143287762Y-106752238D01*
X143399680Y-106844087D01*
X143527367Y-106912337D01*
X143665915Y-106954365D01*
X143773895Y-106965000D01*
X143773904Y-106965000D01*
X143809999Y-106968555D01*
X143846094Y-106965000D01*
X149843895Y-106965000D01*
X149880000Y-106968556D01*
X149916105Y-106965000D01*
X150024085Y-106954365D01*
X150162633Y-106912337D01*
X150290320Y-106844087D01*
X150402238Y-106752238D01*
X150425259Y-106724187D01*
X150519182Y-106630264D01*
X150559999Y-106680001D01*
X150589003Y-106703804D01*
X150976196Y-107090997D01*
X150999999Y-107120001D01*
X151073146Y-107180031D01*
X151115723Y-107214974D01*
X151228446Y-107275226D01*
X151247753Y-107285546D01*
X151391014Y-107329003D01*
X151502667Y-107340000D01*
X151502677Y-107340000D01*
X151540000Y-107343676D01*
X151577323Y-107340000D01*
X153612678Y-107340000D01*
X153650000Y-107343676D01*
X153687322Y-107340000D01*
X153687333Y-107340000D01*
X153798986Y-107329003D01*
X153942247Y-107285546D01*
X154074276Y-107214974D01*
X154190001Y-107120001D01*
X154213804Y-107090997D01*
X156011004Y-105293798D01*
X156040002Y-105270000D01*
X156125557Y-105165750D01*
X156323600Y-105165750D01*
X156333365Y-105287348D01*
X156370223Y-105406878D01*
X156429692Y-105516921D01*
X156509487Y-105613247D01*
X156606541Y-105692156D01*
X156717124Y-105750614D01*
X156836987Y-105786375D01*
X156961523Y-105798065D01*
X156982850Y-105795000D01*
X157141600Y-105636250D01*
X157141600Y-105007000D01*
X156482350Y-105007000D01*
X156323600Y-105165750D01*
X156125557Y-105165750D01*
X156134975Y-105154275D01*
X156205547Y-105022246D01*
X156249004Y-104878985D01*
X156253606Y-104832263D01*
X156367911Y-104855000D01*
X156552089Y-104855000D01*
X156732729Y-104819068D01*
X156766692Y-104805000D01*
X156887066Y-104805000D01*
X156946806Y-104823122D01*
X157098600Y-104838072D01*
X157265001Y-104838072D01*
X157265001Y-104863885D01*
X157261444Y-104900000D01*
X157275635Y-105044085D01*
X157317664Y-105182633D01*
X157385914Y-105310320D01*
X157395600Y-105322122D01*
X157395600Y-105636250D01*
X157554350Y-105795000D01*
X157575677Y-105798065D01*
X157700213Y-105786375D01*
X157820076Y-105750614D01*
X157822014Y-105749589D01*
X157839680Y-105764087D01*
X157853632Y-105771544D01*
X157860498Y-105794180D01*
X157919463Y-105904494D01*
X157998815Y-106001185D01*
X158015971Y-106015265D01*
X157996878Y-106078206D01*
X157981928Y-106230000D01*
X157981928Y-106570000D01*
X157996878Y-106721794D01*
X158041155Y-106867755D01*
X158113057Y-107002274D01*
X158209820Y-107120180D01*
X158327726Y-107216943D01*
X158462245Y-107288845D01*
X158608206Y-107333122D01*
X158760000Y-107348072D01*
X159040000Y-107348072D01*
X159191794Y-107333122D01*
X159323491Y-107293172D01*
X159333122Y-107298377D01*
X159452652Y-107335235D01*
X159574250Y-107345000D01*
X159733000Y-107186250D01*
X159733000Y-106916108D01*
X159758845Y-106867755D01*
X159803122Y-106721794D01*
X159818072Y-106570000D01*
X159818072Y-106527000D01*
X159987000Y-106527000D01*
X159987000Y-107186250D01*
X160145750Y-107345000D01*
X160267348Y-107335235D01*
X160386878Y-107298377D01*
X160496921Y-107238908D01*
X160593247Y-107159113D01*
X160672156Y-107062059D01*
X160730614Y-106951476D01*
X160766375Y-106831613D01*
X160778065Y-106707077D01*
X160775000Y-106685750D01*
X160616250Y-106527000D01*
X159987000Y-106527000D01*
X159818072Y-106527000D01*
X159818072Y-106253000D01*
X159987000Y-106253000D01*
X159987000Y-106273000D01*
X160616250Y-106273000D01*
X160702074Y-106187176D01*
X160750000Y-106188072D01*
X160874482Y-106175812D01*
X160994180Y-106139502D01*
X161104494Y-106080537D01*
X161201185Y-106001185D01*
X161280537Y-105904494D01*
X161339502Y-105794180D01*
X161375812Y-105674482D01*
X161388072Y-105550000D01*
X161385000Y-105435750D01*
X161226250Y-105277000D01*
X160427000Y-105277000D01*
X160427000Y-105297000D01*
X160173000Y-105297000D01*
X160173000Y-105277000D01*
X160153000Y-105277000D01*
X160153000Y-105088072D01*
X160750000Y-105088072D01*
X160874482Y-105075812D01*
X160994180Y-105039502D01*
X161025053Y-105023000D01*
X161226250Y-105023000D01*
X161385000Y-104864250D01*
X161388072Y-104750000D01*
X161375812Y-104625518D01*
X161368071Y-104600000D01*
X161375812Y-104574482D01*
X161388072Y-104450000D01*
X161388072Y-103650000D01*
X161375812Y-103525518D01*
X161339502Y-103405820D01*
X161280537Y-103295506D01*
X161201185Y-103198815D01*
X161184029Y-103184735D01*
X161203122Y-103121794D01*
X161218072Y-102970000D01*
X161218072Y-102630000D01*
X161203122Y-102478206D01*
X161158845Y-102332245D01*
X161133153Y-102284178D01*
X161216921Y-102238908D01*
X161313247Y-102159113D01*
X161392156Y-102062059D01*
X161450614Y-101951476D01*
X161486375Y-101831613D01*
X161498065Y-101707077D01*
X161495000Y-101685750D01*
X161336250Y-101527000D01*
X160707000Y-101527000D01*
X160707000Y-101547000D01*
X160624755Y-101547000D01*
X160550320Y-101485913D01*
X160538072Y-101479366D01*
X160538072Y-101230000D01*
X160523122Y-101078206D01*
X160478845Y-100932245D01*
X160453000Y-100883892D01*
X160453000Y-100613750D01*
X160385000Y-100545750D01*
X160575000Y-100545750D01*
X160584765Y-100667348D01*
X160621623Y-100786878D01*
X160681092Y-100896921D01*
X160707000Y-100928196D01*
X160707000Y-101273000D01*
X161336250Y-101273000D01*
X161495000Y-101114250D01*
X161498065Y-101092923D01*
X161486375Y-100968387D01*
X161450614Y-100848524D01*
X161393000Y-100739538D01*
X161393000Y-100387000D01*
X161647000Y-100387000D01*
X161647000Y-101016250D01*
X161805750Y-101175000D01*
X161827077Y-101178065D01*
X161951613Y-101166375D01*
X162071476Y-101130614D01*
X162182059Y-101072156D01*
X162279113Y-100993247D01*
X162358908Y-100896921D01*
X162418377Y-100786878D01*
X162455235Y-100667348D01*
X162465000Y-100545750D01*
X163415000Y-100545750D01*
X163424765Y-100667348D01*
X163461623Y-100786878D01*
X163521092Y-100896921D01*
X163600887Y-100993247D01*
X163697941Y-101072156D01*
X163808524Y-101130614D01*
X163928387Y-101166375D01*
X164052923Y-101178065D01*
X164074250Y-101175000D01*
X164233000Y-101016250D01*
X164233000Y-100387000D01*
X163573750Y-100387000D01*
X163415000Y-100545750D01*
X162465000Y-100545750D01*
X162306250Y-100387000D01*
X161647000Y-100387000D01*
X161393000Y-100387000D01*
X160733750Y-100387000D01*
X160575000Y-100545750D01*
X160385000Y-100545750D01*
X160294250Y-100455000D01*
X160172652Y-100464765D01*
X160053122Y-100501623D01*
X160043491Y-100506828D01*
X159911794Y-100466878D01*
X159760000Y-100451928D01*
X159574218Y-100451928D01*
X159496028Y-100373738D01*
X159450648Y-100343416D01*
X159463600Y-100278301D01*
X159463600Y-100121699D01*
X159434428Y-99975039D01*
X159560972Y-100042679D01*
X159711773Y-100088424D01*
X159829307Y-100100000D01*
X160700750Y-100100000D01*
X160733750Y-100133000D01*
X161003892Y-100133000D01*
X161052245Y-100158845D01*
X161198206Y-100203122D01*
X161350000Y-100218072D01*
X161690000Y-100218072D01*
X161841794Y-100203122D01*
X161952894Y-100169420D01*
X162006875Y-100198274D01*
X162154243Y-100242977D01*
X162307500Y-100258072D01*
X162602500Y-100258072D01*
X162755757Y-100242977D01*
X162903125Y-100198274D01*
X162940000Y-100178564D01*
X162976875Y-100198274D01*
X163124243Y-100242977D01*
X163277500Y-100258072D01*
X163572500Y-100258072D01*
X163725757Y-100242977D01*
X163873125Y-100198274D01*
X163927106Y-100169420D01*
X164038206Y-100203122D01*
X164190000Y-100218072D01*
X164507000Y-100218072D01*
X164507000Y-100387000D01*
X164487000Y-100387000D01*
X164487000Y-101016250D01*
X164645750Y-101175000D01*
X164667077Y-101178065D01*
X164791613Y-101166375D01*
X164873000Y-101142093D01*
X164873000Y-109340000D01*
X155638072Y-109340000D01*
X155638072Y-108224999D01*
X155621008Y-108051745D01*
X155570472Y-107885149D01*
X155488405Y-107731613D01*
X155377962Y-107597038D01*
X155243387Y-107486595D01*
X155089851Y-107404528D01*
X154923255Y-107353992D01*
X154750001Y-107336928D01*
X154049999Y-107336928D01*
X153876745Y-107353992D01*
X153710149Y-107404528D01*
X153556613Y-107486595D01*
X153422038Y-107597038D01*
X153311595Y-107731613D01*
X153229528Y-107885149D01*
X153178992Y-108051745D01*
X153161928Y-108224999D01*
X153161928Y-109340000D01*
X144038072Y-109340000D01*
X144038072Y-108224999D01*
X144021008Y-108051745D01*
X143970472Y-107885149D01*
X143888405Y-107731613D01*
X143777962Y-107597038D01*
X143643387Y-107486595D01*
X143489851Y-107404528D01*
X143323255Y-107353992D01*
X143150001Y-107336928D01*
X142449999Y-107336928D01*
X142276745Y-107353992D01*
X142110149Y-107404528D01*
X141956613Y-107486595D01*
X141822038Y-107597038D01*
X141711595Y-107731613D01*
X141629528Y-107885149D01*
X141578992Y-108051745D01*
X141561928Y-108224999D01*
X141561928Y-109340000D01*
X130660000Y-109340000D01*
X130660000Y-105893711D01*
X130720226Y-105953937D01*
X130889744Y-106067205D01*
X131078102Y-106145226D01*
X131278061Y-106185000D01*
X131481939Y-106185000D01*
X131681898Y-106145226D01*
X131870256Y-106067205D01*
X132039774Y-105953937D01*
X132183937Y-105809774D01*
X132297205Y-105640256D01*
X132375226Y-105451898D01*
X132415000Y-105251939D01*
X132415000Y-105048061D01*
X132375226Y-104848102D01*
X132297205Y-104659744D01*
X132183937Y-104490226D01*
X132039774Y-104346063D01*
X131870256Y-104232795D01*
X131681898Y-104154774D01*
X131481939Y-104115000D01*
X131278061Y-104115000D01*
X131078102Y-104154774D01*
X130889744Y-104232795D01*
X130720226Y-104346063D01*
X130660000Y-104406289D01*
X130660000Y-101523711D01*
X130740226Y-101603937D01*
X130909744Y-101717205D01*
X131098102Y-101795226D01*
X131298061Y-101835000D01*
X131501939Y-101835000D01*
X131701898Y-101795226D01*
X131890256Y-101717205D01*
X132059774Y-101603937D01*
X132203937Y-101459774D01*
X132317205Y-101290256D01*
X132395226Y-101101898D01*
X132435000Y-100901939D01*
X132435000Y-100698061D01*
X132395226Y-100498102D01*
X132354591Y-100400000D01*
X132395226Y-100301898D01*
X132435000Y-100101939D01*
X132435000Y-99898061D01*
X132395226Y-99698102D01*
X132354591Y-99600000D01*
X132395226Y-99501898D01*
X132435000Y-99301939D01*
X132435000Y-99098061D01*
X132395226Y-98898102D01*
X132317205Y-98709744D01*
X132203937Y-98540226D01*
X132059774Y-98396063D01*
X131890256Y-98282795D01*
X131701898Y-98204774D01*
X131501939Y-98165000D01*
X131298061Y-98165000D01*
X131098102Y-98204774D01*
X130909744Y-98282795D01*
X130740226Y-98396063D01*
X130660000Y-98476289D01*
X130660000Y-95593711D01*
X130720226Y-95653937D01*
X130889744Y-95767205D01*
X131078102Y-95845226D01*
X131278061Y-95885000D01*
X131481939Y-95885000D01*
X131681898Y-95845226D01*
X131870256Y-95767205D01*
X132039774Y-95653937D01*
X132183937Y-95509774D01*
X132297205Y-95340256D01*
X132375226Y-95151898D01*
X132415000Y-94951939D01*
X132415000Y-94748061D01*
X132995000Y-94748061D01*
X132995000Y-94951939D01*
X133034774Y-95151898D01*
X133112795Y-95340256D01*
X133226063Y-95509774D01*
X133315000Y-95598711D01*
X133315000Y-95781943D01*
X133354774Y-95981902D01*
X133432795Y-96170260D01*
X133546063Y-96339778D01*
X133690226Y-96483941D01*
X133859744Y-96597209D01*
X134048102Y-96675230D01*
X134248061Y-96715004D01*
X134451939Y-96715004D01*
X134651898Y-96675230D01*
X134840256Y-96597209D01*
X135009774Y-96483941D01*
X135153937Y-96339778D01*
X135267205Y-96170260D01*
X135345226Y-95981902D01*
X135385000Y-95781943D01*
X135385000Y-95578065D01*
X135345226Y-95378106D01*
X135267205Y-95189748D01*
X135153937Y-95020230D01*
X135065000Y-94931293D01*
X135065000Y-94748061D01*
X135052194Y-94683682D01*
X135140256Y-94647205D01*
X135159644Y-94634250D01*
X154315000Y-94634250D01*
X154473750Y-94793000D01*
X155133000Y-94793000D01*
X155133000Y-94634250D01*
X155285000Y-94634250D01*
X155387000Y-94736250D01*
X155387000Y-94793000D01*
X156103000Y-94793000D01*
X156103000Y-94736250D01*
X156205000Y-94634250D01*
X156195235Y-94512652D01*
X156158377Y-94393122D01*
X156103000Y-94290651D01*
X156103000Y-94163750D01*
X156357000Y-94163750D01*
X156357000Y-94793000D01*
X157016250Y-94793000D01*
X157175000Y-94634250D01*
X157165235Y-94512652D01*
X157128377Y-94393122D01*
X157068908Y-94283079D01*
X156989113Y-94186753D01*
X156892059Y-94107844D01*
X156781476Y-94049386D01*
X156661613Y-94013625D01*
X156537077Y-94001935D01*
X156515750Y-94005000D01*
X156357000Y-94163750D01*
X156103000Y-94163750D01*
X155944250Y-94005000D01*
X155922923Y-94001935D01*
X155798387Y-94013625D01*
X155745000Y-94029553D01*
X155691613Y-94013625D01*
X155567077Y-94001935D01*
X155545750Y-94005000D01*
X155387000Y-94163750D01*
X155387000Y-94290651D01*
X155331623Y-94393122D01*
X155294765Y-94512652D01*
X155285000Y-94634250D01*
X155133000Y-94634250D01*
X155133000Y-94163750D01*
X154974250Y-94005000D01*
X154952923Y-94001935D01*
X154828387Y-94013625D01*
X154708524Y-94049386D01*
X154597941Y-94107844D01*
X154500887Y-94186753D01*
X154421092Y-94283079D01*
X154361623Y-94393122D01*
X154324765Y-94512652D01*
X154315000Y-94634250D01*
X135159644Y-94634250D01*
X135309774Y-94533937D01*
X135453937Y-94389774D01*
X135567205Y-94220256D01*
X135645226Y-94031898D01*
X135685000Y-93831939D01*
X135685000Y-93628061D01*
X135645226Y-93428102D01*
X135567205Y-93239744D01*
X135453937Y-93070226D01*
X135309774Y-92926063D01*
X135140256Y-92812795D01*
X134951898Y-92734774D01*
X134751939Y-92695000D01*
X134548061Y-92695000D01*
X134348102Y-92734774D01*
X134159744Y-92812795D01*
X133990226Y-92926063D01*
X133846063Y-93070226D01*
X133732795Y-93239744D01*
X133654774Y-93428102D01*
X133615000Y-93628061D01*
X133615000Y-93831939D01*
X133627806Y-93896318D01*
X133539744Y-93932795D01*
X133370226Y-94046063D01*
X133226063Y-94190226D01*
X133112795Y-94359744D01*
X133034774Y-94548102D01*
X132995000Y-94748061D01*
X132415000Y-94748061D01*
X132375226Y-94548102D01*
X132297205Y-94359744D01*
X132183937Y-94190226D01*
X132039774Y-94046063D01*
X131870256Y-93932795D01*
X131681898Y-93854774D01*
X131481939Y-93815000D01*
X131278061Y-93815000D01*
X131078102Y-93854774D01*
X130889744Y-93932795D01*
X130720226Y-94046063D01*
X130660000Y-94106289D01*
X130660000Y-91979444D01*
X130698102Y-91995226D01*
X130898061Y-92035000D01*
X131101939Y-92035000D01*
X131301898Y-91995226D01*
X131490256Y-91917205D01*
X131659774Y-91803937D01*
X131803937Y-91659774D01*
X131917205Y-91490256D01*
X131995226Y-91301898D01*
X132035000Y-91101939D01*
X132035000Y-90898061D01*
X131995226Y-90698102D01*
X131979444Y-90660000D01*
X164873000Y-90660000D01*
X164873000Y-98465339D01*
G37*
%TD.AperFunction*%
D28*
X145161928Y-105147000D02*
X145038072Y-105147000D01*
X145038072Y-104853000D01*
X145161928Y-104853000D01*
X145161928Y-105147000D01*
%TA.AperFunction,Conductor*%
D27*
G36*
X145161928Y-105147000D02*
G01*
X145038072Y-105147000D01*
X145038072Y-104853000D01*
X145161928Y-104853000D01*
X145161928Y-105147000D01*
G37*
%TD.AperFunction*%
D28*
X159027000Y-103923000D02*
X159047000Y-103923000D01*
X159047000Y-104111928D01*
X158753000Y-104111928D01*
X158753000Y-103923000D01*
X158773000Y-103923000D01*
X158773000Y-103903000D01*
X159027000Y-103903000D01*
X159027000Y-103923000D01*
%TA.AperFunction,Conductor*%
D27*
G36*
X159027000Y-103923000D02*
G01*
X159047000Y-103923000D01*
X159047000Y-104111928D01*
X158753000Y-104111928D01*
X158753000Y-103923000D01*
X158773000Y-103923000D01*
X158773000Y-103903000D01*
X159027000Y-103903000D01*
X159027000Y-103923000D01*
G37*
%TD.AperFunction*%
D28*
X159381928Y-102947000D02*
X159213000Y-102947000D01*
X159213000Y-102927000D01*
X159193000Y-102927000D01*
X159193000Y-102835000D01*
X159381928Y-102835000D01*
X159381928Y-102947000D01*
%TA.AperFunction,Conductor*%
D27*
G36*
X159381928Y-102947000D02*
G01*
X159213000Y-102947000D01*
X159213000Y-102927000D01*
X159193000Y-102927000D01*
X159193000Y-102835000D01*
X159381928Y-102835000D01*
X159381928Y-102947000D01*
G37*
%TD.AperFunction*%
D28*
X149661928Y-102900000D02*
X149493000Y-102900000D01*
X149493000Y-102895600D01*
X149473000Y-102895600D01*
X149473000Y-102760001D01*
X149661928Y-102760001D01*
X149661928Y-102900000D01*
%TA.AperFunction,Conductor*%
D27*
G36*
X149661928Y-102900000D02*
G01*
X149493000Y-102900000D01*
X149493000Y-102895600D01*
X149473000Y-102895600D01*
X149473000Y-102760001D01*
X149661928Y-102760001D01*
X149661928Y-102900000D01*
G37*
%TD.AperFunction*%
D28*
X156270721Y-98229279D02*
X156272762Y-98250000D01*
X156261928Y-98360000D01*
X156261928Y-98640000D01*
X156272762Y-98750000D01*
X156261928Y-98860000D01*
X156261928Y-99140000D01*
X156272762Y-99250000D01*
X156261928Y-99360000D01*
X156261928Y-99640000D01*
X156272762Y-99750000D01*
X156261928Y-99860000D01*
X156261928Y-100140000D01*
X156272762Y-100250000D01*
X156261928Y-100360000D01*
X156261928Y-100640000D01*
X156272762Y-100750000D01*
X156261928Y-100860000D01*
X156261928Y-101140000D01*
X156272762Y-101250000D01*
X156261928Y-101360000D01*
X156261928Y-101640000D01*
X156272762Y-101750000D01*
X156270721Y-101770721D01*
X156250000Y-101772762D01*
X156140000Y-101761928D01*
X155860000Y-101761928D01*
X155750000Y-101772762D01*
X155640000Y-101761928D01*
X155360000Y-101761928D01*
X155250000Y-101772762D01*
X155140000Y-101761928D01*
X154860000Y-101761928D01*
X154750000Y-101772762D01*
X154640000Y-101761928D01*
X154360000Y-101761928D01*
X154250000Y-101772762D01*
X154140000Y-101761928D01*
X153860000Y-101761928D01*
X153750000Y-101772762D01*
X153640000Y-101761928D01*
X153360000Y-101761928D01*
X153250000Y-101772762D01*
X153140000Y-101761928D01*
X152860000Y-101761928D01*
X152750000Y-101772762D01*
X152729279Y-101770721D01*
X152727238Y-101750000D01*
X152738072Y-101640000D01*
X152738072Y-101360000D01*
X152727238Y-101250000D01*
X152738072Y-101140000D01*
X152738072Y-100860000D01*
X152727238Y-100750000D01*
X152738072Y-100640000D01*
X152738072Y-100360000D01*
X152727238Y-100250000D01*
X152738072Y-100140000D01*
X152738072Y-99860000D01*
X152727238Y-99750000D01*
X152738072Y-99640000D01*
X152738072Y-99360000D01*
X152727238Y-99250000D01*
X152738072Y-99140000D01*
X152738072Y-98860000D01*
X152727238Y-98750000D01*
X152738072Y-98640000D01*
X152738072Y-98360000D01*
X152727238Y-98250000D01*
X152729279Y-98229279D01*
X152750000Y-98227238D01*
X152860000Y-98238072D01*
X153140000Y-98238072D01*
X153250000Y-98227238D01*
X153360000Y-98238072D01*
X153640000Y-98238072D01*
X153750000Y-98227238D01*
X153860000Y-98238072D01*
X154140000Y-98238072D01*
X154250000Y-98227238D01*
X154360000Y-98238072D01*
X154640000Y-98238072D01*
X154750000Y-98227238D01*
X154860000Y-98238072D01*
X155140000Y-98238072D01*
X155250000Y-98227238D01*
X155360000Y-98238072D01*
X155640000Y-98238072D01*
X155750000Y-98227238D01*
X155860000Y-98238072D01*
X156140000Y-98238072D01*
X156250000Y-98227238D01*
X156270721Y-98229279D01*
%TA.AperFunction,Conductor*%
D27*
G36*
X156270721Y-98229279D02*
G01*
X156272762Y-98250000D01*
X156261928Y-98360000D01*
X156261928Y-98640000D01*
X156272762Y-98750000D01*
X156261928Y-98860000D01*
X156261928Y-99140000D01*
X156272762Y-99250000D01*
X156261928Y-99360000D01*
X156261928Y-99640000D01*
X156272762Y-99750000D01*
X156261928Y-99860000D01*
X156261928Y-100140000D01*
X156272762Y-100250000D01*
X156261928Y-100360000D01*
X156261928Y-100640000D01*
X156272762Y-100750000D01*
X156261928Y-100860000D01*
X156261928Y-101140000D01*
X156272762Y-101250000D01*
X156261928Y-101360000D01*
X156261928Y-101640000D01*
X156272762Y-101750000D01*
X156270721Y-101770721D01*
X156250000Y-101772762D01*
X156140000Y-101761928D01*
X155860000Y-101761928D01*
X155750000Y-101772762D01*
X155640000Y-101761928D01*
X155360000Y-101761928D01*
X155250000Y-101772762D01*
X155140000Y-101761928D01*
X154860000Y-101761928D01*
X154750000Y-101772762D01*
X154640000Y-101761928D01*
X154360000Y-101761928D01*
X154250000Y-101772762D01*
X154140000Y-101761928D01*
X153860000Y-101761928D01*
X153750000Y-101772762D01*
X153640000Y-101761928D01*
X153360000Y-101761928D01*
X153250000Y-101772762D01*
X153140000Y-101761928D01*
X152860000Y-101761928D01*
X152750000Y-101772762D01*
X152729279Y-101770721D01*
X152727238Y-101750000D01*
X152738072Y-101640000D01*
X152738072Y-101360000D01*
X152727238Y-101250000D01*
X152738072Y-101140000D01*
X152738072Y-100860000D01*
X152727238Y-100750000D01*
X152738072Y-100640000D01*
X152738072Y-100360000D01*
X152727238Y-100250000D01*
X152738072Y-100140000D01*
X152738072Y-99860000D01*
X152727238Y-99750000D01*
X152738072Y-99640000D01*
X152738072Y-99360000D01*
X152727238Y-99250000D01*
X152738072Y-99140000D01*
X152738072Y-98860000D01*
X152727238Y-98750000D01*
X152738072Y-98640000D01*
X152738072Y-98360000D01*
X152727238Y-98250000D01*
X152729279Y-98229279D01*
X152750000Y-98227238D01*
X152860000Y-98238072D01*
X153140000Y-98238072D01*
X153250000Y-98227238D01*
X153360000Y-98238072D01*
X153640000Y-98238072D01*
X153750000Y-98227238D01*
X153860000Y-98238072D01*
X154140000Y-98238072D01*
X154250000Y-98227238D01*
X154360000Y-98238072D01*
X154640000Y-98238072D01*
X154750000Y-98227238D01*
X154860000Y-98238072D01*
X155140000Y-98238072D01*
X155250000Y-98227238D01*
X155360000Y-98238072D01*
X155640000Y-98238072D01*
X155750000Y-98227238D01*
X155860000Y-98238072D01*
X156140000Y-98238072D01*
X156250000Y-98227238D01*
X156270721Y-98229279D01*
G37*
%TD.AperFunction*%
D28*
X139961928Y-99625000D02*
X139974188Y-99749482D01*
X139974345Y-99750000D01*
X139974188Y-99750518D01*
X139961928Y-99875000D01*
X139961928Y-100125000D01*
X139973008Y-100237500D01*
X139961928Y-100350000D01*
X139961928Y-100650000D01*
X139974188Y-100774482D01*
X140010498Y-100894180D01*
X140047000Y-100962469D01*
X140047000Y-101023892D01*
X140021155Y-101072245D01*
X139976878Y-101218206D01*
X139961928Y-101370000D01*
X139961928Y-101541928D01*
X139875000Y-101541928D01*
X139773000Y-101551974D01*
X139773000Y-101413000D01*
X139793000Y-101413000D01*
X139793000Y-100753750D01*
X139634250Y-100595000D01*
X139512652Y-100604765D01*
X139393122Y-100641623D01*
X139283079Y-100701092D01*
X139186753Y-100780887D01*
X139107844Y-100877941D01*
X139049386Y-100988524D01*
X139013625Y-101108387D01*
X139001935Y-101232923D01*
X139005000Y-101254250D01*
X139163748Y-101412998D01*
X139005000Y-101412998D01*
X139005000Y-101440198D01*
X138732236Y-101167434D01*
X138754494Y-101155537D01*
X138851185Y-101076185D01*
X138930537Y-100979494D01*
X138989502Y-100869180D01*
X139025812Y-100749482D01*
X139038072Y-100625000D01*
X139038072Y-100523630D01*
X139048439Y-100510998D01*
X139661004Y-99898434D01*
X139690001Y-99874637D01*
X139784974Y-99758912D01*
X139855546Y-99626883D01*
X139899003Y-99483622D01*
X139908414Y-99388072D01*
X139961928Y-99388072D01*
X139961928Y-99625000D01*
%TA.AperFunction,Conductor*%
D27*
G36*
X139961928Y-99625000D02*
G01*
X139974188Y-99749482D01*
X139974345Y-99750000D01*
X139974188Y-99750518D01*
X139961928Y-99875000D01*
X139961928Y-100125000D01*
X139973008Y-100237500D01*
X139961928Y-100350000D01*
X139961928Y-100650000D01*
X139974188Y-100774482D01*
X140010498Y-100894180D01*
X140047000Y-100962469D01*
X140047000Y-101023892D01*
X140021155Y-101072245D01*
X139976878Y-101218206D01*
X139961928Y-101370000D01*
X139961928Y-101541928D01*
X139875000Y-101541928D01*
X139773000Y-101551974D01*
X139773000Y-101413000D01*
X139793000Y-101413000D01*
X139793000Y-100753750D01*
X139634250Y-100595000D01*
X139512652Y-100604765D01*
X139393122Y-100641623D01*
X139283079Y-100701092D01*
X139186753Y-100780887D01*
X139107844Y-100877941D01*
X139049386Y-100988524D01*
X139013625Y-101108387D01*
X139001935Y-101232923D01*
X139005000Y-101254250D01*
X139163748Y-101412998D01*
X139005000Y-101412998D01*
X139005000Y-101440198D01*
X138732236Y-101167434D01*
X138754494Y-101155537D01*
X138851185Y-101076185D01*
X138930537Y-100979494D01*
X138989502Y-100869180D01*
X139025812Y-100749482D01*
X139038072Y-100625000D01*
X139038072Y-100523630D01*
X139048439Y-100510998D01*
X139661004Y-99898434D01*
X139690001Y-99874637D01*
X139784974Y-99758912D01*
X139855546Y-99626883D01*
X139899003Y-99483622D01*
X139908414Y-99388072D01*
X139961928Y-99388072D01*
X139961928Y-99625000D01*
G37*
%TD.AperFunction*%
%TD*%
M02*
