%TF.GenerationSoftware,KiCad,Pcbnew,5.1.9-73d0e3b20d~88~ubuntu20.04.1*%
%TF.CreationDate,2021-03-27T20:59:08+01:00*%
%TF.ProjectId,calvin,63616c76-696e-42e6-9b69-6361645f7063,v1.00*%
%TF.SameCoordinates,Original*%
%TF.FileFunction,Soldermask,Top*%
%TF.FilePolarity,Negative*%
%FSLAX46Y46*%
G04 Gerber Fmt 4.6, Leading zero omitted, Abs format (unit mm)*
G04 Created by KiCad (PCBNEW 5.1.9-73d0e3b20d~88~ubuntu20.04.1) date 2021-03-27 20:59:08*
%MOMM*%
%LPD*%
G01*
G04 APERTURE LIST*
%ADD10C,0.100000*%
%ADD11C,0.420000*%
%ADD12R,2.400000X1.500000*%
%ADD13R,0.900000X0.800000*%
%ADD14R,0.750000X0.280000*%
%ADD15R,0.280000X0.750000*%
%ADD16R,0.880000X0.880000*%
G04 APERTURE END LIST*
%TO.C,J1*%
G36*
G01*
X153800000Y-109525001D02*
X153800000Y-108224999D01*
G75*
G02*
X154049999Y-107975000I249999J0D01*
G01*
X154750001Y-107975000D01*
G75*
G02*
X155000000Y-108224999I0J-249999D01*
G01*
X155000000Y-109525001D01*
G75*
G02*
X154750001Y-109775000I-249999J0D01*
G01*
X154049999Y-109775000D01*
G75*
G02*
X153800000Y-109525001I0J249999D01*
G01*
G37*
G36*
G01*
X142200000Y-109525001D02*
X142200000Y-108224999D01*
G75*
G02*
X142449999Y-107975000I249999J0D01*
G01*
X143150001Y-107975000D01*
G75*
G02*
X143400000Y-108224999I0J-249999D01*
G01*
X143400000Y-109525001D01*
G75*
G02*
X143150001Y-109775000I-249999J0D01*
G01*
X142449999Y-109775000D01*
G75*
G02*
X142200000Y-109525001I0J249999D01*
G01*
G37*
G36*
G01*
X152800000Y-105625000D02*
X152800000Y-104375000D01*
G75*
G02*
X152950000Y-104225000I150000J0D01*
G01*
X153250000Y-104225000D01*
G75*
G02*
X153400000Y-104375000I0J-150000D01*
G01*
X153400000Y-105625000D01*
G75*
G02*
X153250000Y-105775000I-150000J0D01*
G01*
X152950000Y-105775000D01*
G75*
G02*
X152800000Y-105625000I0J150000D01*
G01*
G37*
G36*
G01*
X151800000Y-105625000D02*
X151800000Y-104375000D01*
G75*
G02*
X151950000Y-104225000I150000J0D01*
G01*
X152250000Y-104225000D01*
G75*
G02*
X152400000Y-104375000I0J-150000D01*
G01*
X152400000Y-105625000D01*
G75*
G02*
X152250000Y-105775000I-150000J0D01*
G01*
X151950000Y-105775000D01*
G75*
G02*
X151800000Y-105625000I0J150000D01*
G01*
G37*
G36*
G01*
X150800000Y-105625000D02*
X150800000Y-104375000D01*
G75*
G02*
X150950000Y-104225000I150000J0D01*
G01*
X151250000Y-104225000D01*
G75*
G02*
X151400000Y-104375000I0J-150000D01*
G01*
X151400000Y-105625000D01*
G75*
G02*
X151250000Y-105775000I-150000J0D01*
G01*
X150950000Y-105775000D01*
G75*
G02*
X150800000Y-105625000I0J150000D01*
G01*
G37*
G36*
G01*
X149800000Y-105625000D02*
X149800000Y-104375000D01*
G75*
G02*
X149950000Y-104225000I150000J0D01*
G01*
X150250000Y-104225000D01*
G75*
G02*
X150400000Y-104375000I0J-150000D01*
G01*
X150400000Y-105625000D01*
G75*
G02*
X150250000Y-105775000I-150000J0D01*
G01*
X149950000Y-105775000D01*
G75*
G02*
X149800000Y-105625000I0J150000D01*
G01*
G37*
G36*
G01*
X148800000Y-105625000D02*
X148800000Y-104375000D01*
G75*
G02*
X148950000Y-104225000I150000J0D01*
G01*
X149250000Y-104225000D01*
G75*
G02*
X149400000Y-104375000I0J-150000D01*
G01*
X149400000Y-105625000D01*
G75*
G02*
X149250000Y-105775000I-150000J0D01*
G01*
X148950000Y-105775000D01*
G75*
G02*
X148800000Y-105625000I0J150000D01*
G01*
G37*
G36*
G01*
X147800000Y-105625000D02*
X147800000Y-104375000D01*
G75*
G02*
X147950000Y-104225000I150000J0D01*
G01*
X148250000Y-104225000D01*
G75*
G02*
X148400000Y-104375000I0J-150000D01*
G01*
X148400000Y-105625000D01*
G75*
G02*
X148250000Y-105775000I-150000J0D01*
G01*
X147950000Y-105775000D01*
G75*
G02*
X147800000Y-105625000I0J150000D01*
G01*
G37*
G36*
G01*
X146800000Y-105625000D02*
X146800000Y-104375000D01*
G75*
G02*
X146950000Y-104225000I150000J0D01*
G01*
X147250000Y-104225000D01*
G75*
G02*
X147400000Y-104375000I0J-150000D01*
G01*
X147400000Y-105625000D01*
G75*
G02*
X147250000Y-105775000I-150000J0D01*
G01*
X146950000Y-105775000D01*
G75*
G02*
X146800000Y-105625000I0J150000D01*
G01*
G37*
G36*
G01*
X145800000Y-105625000D02*
X145800000Y-104375000D01*
G75*
G02*
X145950000Y-104225000I150000J0D01*
G01*
X146250000Y-104225000D01*
G75*
G02*
X146400000Y-104375000I0J-150000D01*
G01*
X146400000Y-105625000D01*
G75*
G02*
X146250000Y-105775000I-150000J0D01*
G01*
X145950000Y-105775000D01*
G75*
G02*
X145800000Y-105625000I0J150000D01*
G01*
G37*
G36*
G01*
X144800000Y-105625000D02*
X144800000Y-104375000D01*
G75*
G02*
X144950000Y-104225000I150000J0D01*
G01*
X145250000Y-104225000D01*
G75*
G02*
X145400000Y-104375000I0J-150000D01*
G01*
X145400000Y-105625000D01*
G75*
G02*
X145250000Y-105775000I-150000J0D01*
G01*
X144950000Y-105775000D01*
G75*
G02*
X144800000Y-105625000I0J150000D01*
G01*
G37*
G36*
G01*
X143800000Y-105625000D02*
X143800000Y-104375000D01*
G75*
G02*
X143950000Y-104225000I150000J0D01*
G01*
X144250000Y-104225000D01*
G75*
G02*
X144400000Y-104375000I0J-150000D01*
G01*
X144400000Y-105625000D01*
G75*
G02*
X144250000Y-105775000I-150000J0D01*
G01*
X143950000Y-105775000D01*
G75*
G02*
X143800000Y-105625000I0J150000D01*
G01*
G37*
%TD*%
D10*
%TO.C,AE1*%
G36*
X173000000Y-100900000D02*
G01*
X173000000Y-99100000D01*
X174000000Y-99100000D01*
X174000000Y-100900000D01*
X173000000Y-100900000D01*
G37*
G36*
X166000000Y-100900000D02*
G01*
X166000000Y-99100000D01*
X167000000Y-99100000D01*
X167000000Y-100900000D01*
X166000000Y-100900000D01*
G37*
%TD*%
%TO.C,U4*%
G36*
X141200000Y-100300000D02*
G01*
X141200000Y-100700000D01*
X140550000Y-100700000D01*
X140550000Y-100300000D01*
X141200000Y-100300000D01*
G37*
G36*
X138450000Y-100325000D02*
G01*
X138450000Y-100675000D01*
X137800000Y-100675000D01*
X137800000Y-100325000D01*
X138450000Y-100325000D01*
G37*
G36*
X141200000Y-99825000D02*
G01*
X141200000Y-100175000D01*
X140550000Y-100175000D01*
X140550000Y-99825000D01*
X141200000Y-99825000D01*
G37*
G36*
X138450000Y-99825000D02*
G01*
X138450000Y-100175000D01*
X137800000Y-100175000D01*
X137800000Y-99825000D01*
X138450000Y-99825000D01*
G37*
G36*
X141200000Y-99325000D02*
G01*
X141200000Y-99675000D01*
X140550000Y-99675000D01*
X140550000Y-99325000D01*
X141200000Y-99325000D01*
G37*
G36*
X138450000Y-99325000D02*
G01*
X138450000Y-99675000D01*
X137800000Y-99675000D01*
X137800000Y-99325000D01*
X138450000Y-99325000D01*
G37*
%TD*%
%TO.C,C1*%
G36*
G01*
X157098600Y-104600000D02*
X157438600Y-104600000D01*
G75*
G02*
X157578600Y-104740000I0J-140000D01*
G01*
X157578600Y-105020000D01*
G75*
G02*
X157438600Y-105160000I-140000J0D01*
G01*
X157098600Y-105160000D01*
G75*
G02*
X156958600Y-105020000I0J140000D01*
G01*
X156958600Y-104740000D01*
G75*
G02*
X157098600Y-104600000I140000J0D01*
G01*
G37*
G36*
G01*
X157098600Y-103640000D02*
X157438600Y-103640000D01*
G75*
G02*
X157578600Y-103780000I0J-140000D01*
G01*
X157578600Y-104060000D01*
G75*
G02*
X157438600Y-104200000I-140000J0D01*
G01*
X157098600Y-104200000D01*
G75*
G02*
X156958600Y-104060000I0J140000D01*
G01*
X156958600Y-103780000D01*
G75*
G02*
X157098600Y-103640000I140000J0D01*
G01*
G37*
%TD*%
%TO.C,C2*%
G36*
G01*
X160300000Y-101570000D02*
X160300000Y-101230000D01*
G75*
G02*
X160440000Y-101090000I140000J0D01*
G01*
X160720000Y-101090000D01*
G75*
G02*
X160860000Y-101230000I0J-140000D01*
G01*
X160860000Y-101570000D01*
G75*
G02*
X160720000Y-101710000I-140000J0D01*
G01*
X160440000Y-101710000D01*
G75*
G02*
X160300000Y-101570000I0J140000D01*
G01*
G37*
G36*
G01*
X159340000Y-101570000D02*
X159340000Y-101230000D01*
G75*
G02*
X159480000Y-101090000I140000J0D01*
G01*
X159760000Y-101090000D01*
G75*
G02*
X159900000Y-101230000I0J-140000D01*
G01*
X159900000Y-101570000D01*
G75*
G02*
X159760000Y-101710000I-140000J0D01*
G01*
X159480000Y-101710000D01*
G75*
G02*
X159340000Y-101570000I0J140000D01*
G01*
G37*
%TD*%
%TO.C,C3*%
G36*
G01*
X160300000Y-97310000D02*
X160300000Y-96970000D01*
G75*
G02*
X160440000Y-96830000I140000J0D01*
G01*
X160720000Y-96830000D01*
G75*
G02*
X160860000Y-96970000I0J-140000D01*
G01*
X160860000Y-97310000D01*
G75*
G02*
X160720000Y-97450000I-140000J0D01*
G01*
X160440000Y-97450000D01*
G75*
G02*
X160300000Y-97310000I0J140000D01*
G01*
G37*
G36*
G01*
X159340000Y-97310000D02*
X159340000Y-96970000D01*
G75*
G02*
X159480000Y-96830000I140000J0D01*
G01*
X159760000Y-96830000D01*
G75*
G02*
X159900000Y-96970000I0J-140000D01*
G01*
X159900000Y-97310000D01*
G75*
G02*
X159760000Y-97450000I-140000J0D01*
G01*
X159480000Y-97450000D01*
G75*
G02*
X159340000Y-97310000I0J140000D01*
G01*
G37*
%TD*%
%TO.C,C5*%
G36*
G01*
X160300000Y-98270000D02*
X160300000Y-97930000D01*
G75*
G02*
X160440000Y-97790000I140000J0D01*
G01*
X160720000Y-97790000D01*
G75*
G02*
X160860000Y-97930000I0J-140000D01*
G01*
X160860000Y-98270000D01*
G75*
G02*
X160720000Y-98410000I-140000J0D01*
G01*
X160440000Y-98410000D01*
G75*
G02*
X160300000Y-98270000I0J140000D01*
G01*
G37*
G36*
G01*
X159340000Y-98270000D02*
X159340000Y-97930000D01*
G75*
G02*
X159480000Y-97790000I140000J0D01*
G01*
X159760000Y-97790000D01*
G75*
G02*
X159900000Y-97930000I0J-140000D01*
G01*
X159900000Y-98270000D01*
G75*
G02*
X159760000Y-98410000I-140000J0D01*
G01*
X159480000Y-98410000D01*
G75*
G02*
X159340000Y-98270000I0J140000D01*
G01*
G37*
%TD*%
%TO.C,C7*%
G36*
G01*
X156400000Y-95200000D02*
X156060000Y-95200000D01*
G75*
G02*
X155920000Y-95060000I0J140000D01*
G01*
X155920000Y-94780000D01*
G75*
G02*
X156060000Y-94640000I140000J0D01*
G01*
X156400000Y-94640000D01*
G75*
G02*
X156540000Y-94780000I0J-140000D01*
G01*
X156540000Y-95060000D01*
G75*
G02*
X156400000Y-95200000I-140000J0D01*
G01*
G37*
G36*
G01*
X156400000Y-96160000D02*
X156060000Y-96160000D01*
G75*
G02*
X155920000Y-96020000I0J140000D01*
G01*
X155920000Y-95740000D01*
G75*
G02*
X156060000Y-95600000I140000J0D01*
G01*
X156400000Y-95600000D01*
G75*
G02*
X156540000Y-95740000I0J-140000D01*
G01*
X156540000Y-96020000D01*
G75*
G02*
X156400000Y-96160000I-140000J0D01*
G01*
G37*
%TD*%
%TO.C,C9*%
G36*
G01*
X155430000Y-95200000D02*
X155090000Y-95200000D01*
G75*
G02*
X154950000Y-95060000I0J140000D01*
G01*
X154950000Y-94780000D01*
G75*
G02*
X155090000Y-94640000I140000J0D01*
G01*
X155430000Y-94640000D01*
G75*
G02*
X155570000Y-94780000I0J-140000D01*
G01*
X155570000Y-95060000D01*
G75*
G02*
X155430000Y-95200000I-140000J0D01*
G01*
G37*
G36*
G01*
X155430000Y-96160000D02*
X155090000Y-96160000D01*
G75*
G02*
X154950000Y-96020000I0J140000D01*
G01*
X154950000Y-95740000D01*
G75*
G02*
X155090000Y-95600000I140000J0D01*
G01*
X155430000Y-95600000D01*
G75*
G02*
X155570000Y-95740000I0J-140000D01*
G01*
X155570000Y-96020000D01*
G75*
G02*
X155430000Y-96160000I-140000J0D01*
G01*
G37*
%TD*%
%TO.C,C10*%
G36*
G01*
X159180000Y-106230000D02*
X159180000Y-106570000D01*
G75*
G02*
X159040000Y-106710000I-140000J0D01*
G01*
X158760000Y-106710000D01*
G75*
G02*
X158620000Y-106570000I0J140000D01*
G01*
X158620000Y-106230000D01*
G75*
G02*
X158760000Y-106090000I140000J0D01*
G01*
X159040000Y-106090000D01*
G75*
G02*
X159180000Y-106230000I0J-140000D01*
G01*
G37*
G36*
G01*
X160140000Y-106230000D02*
X160140000Y-106570000D01*
G75*
G02*
X160000000Y-106710000I-140000J0D01*
G01*
X159720000Y-106710000D01*
G75*
G02*
X159580000Y-106570000I0J140000D01*
G01*
X159580000Y-106230000D01*
G75*
G02*
X159720000Y-106090000I140000J0D01*
G01*
X160000000Y-106090000D01*
G75*
G02*
X160140000Y-106230000I0J-140000D01*
G01*
G37*
%TD*%
%TO.C,C11*%
G36*
G01*
X159620000Y-102630000D02*
X159620000Y-102970000D01*
G75*
G02*
X159480000Y-103110000I-140000J0D01*
G01*
X159200000Y-103110000D01*
G75*
G02*
X159060000Y-102970000I0J140000D01*
G01*
X159060000Y-102630000D01*
G75*
G02*
X159200000Y-102490000I140000J0D01*
G01*
X159480000Y-102490000D01*
G75*
G02*
X159620000Y-102630000I0J-140000D01*
G01*
G37*
G36*
G01*
X160580000Y-102630000D02*
X160580000Y-102970000D01*
G75*
G02*
X160440000Y-103110000I-140000J0D01*
G01*
X160160000Y-103110000D01*
G75*
G02*
X160020000Y-102970000I0J140000D01*
G01*
X160020000Y-102630000D01*
G75*
G02*
X160160000Y-102490000I140000J0D01*
G01*
X160440000Y-102490000D01*
G75*
G02*
X160580000Y-102630000I0J-140000D01*
G01*
G37*
%TD*%
%TO.C,C12*%
G36*
G01*
X149900000Y-102598600D02*
X149900000Y-102938600D01*
G75*
G02*
X149760000Y-103078600I-140000J0D01*
G01*
X149480000Y-103078600D01*
G75*
G02*
X149340000Y-102938600I0J140000D01*
G01*
X149340000Y-102598600D01*
G75*
G02*
X149480000Y-102458600I140000J0D01*
G01*
X149760000Y-102458600D01*
G75*
G02*
X149900000Y-102598600I0J-140000D01*
G01*
G37*
G36*
G01*
X150860000Y-102598600D02*
X150860000Y-102938600D01*
G75*
G02*
X150720000Y-103078600I-140000J0D01*
G01*
X150440000Y-103078600D01*
G75*
G02*
X150300000Y-102938600I0J140000D01*
G01*
X150300000Y-102598600D01*
G75*
G02*
X150440000Y-102458600I140000J0D01*
G01*
X150720000Y-102458600D01*
G75*
G02*
X150860000Y-102598600I0J-140000D01*
G01*
G37*
%TD*%
%TO.C,R1*%
G36*
G01*
X160340000Y-96355000D02*
X160340000Y-95985000D01*
G75*
G02*
X160475000Y-95850000I135000J0D01*
G01*
X160745000Y-95850000D01*
G75*
G02*
X160880000Y-95985000I0J-135000D01*
G01*
X160880000Y-96355000D01*
G75*
G02*
X160745000Y-96490000I-135000J0D01*
G01*
X160475000Y-96490000D01*
G75*
G02*
X160340000Y-96355000I0J135000D01*
G01*
G37*
G36*
G01*
X159320000Y-96355000D02*
X159320000Y-95985000D01*
G75*
G02*
X159455000Y-95850000I135000J0D01*
G01*
X159725000Y-95850000D01*
G75*
G02*
X159860000Y-95985000I0J-135000D01*
G01*
X159860000Y-96355000D01*
G75*
G02*
X159725000Y-96490000I-135000J0D01*
G01*
X159455000Y-96490000D01*
G75*
G02*
X159320000Y-96355000I0J135000D01*
G01*
G37*
%TD*%
D11*
%TO.C,U1*%
X158668600Y-99300000D03*
X159868600Y-99300000D03*
X159868600Y-100200000D03*
X158668600Y-100200000D03*
%TD*%
%TO.C,D1*%
G36*
G01*
X143390000Y-100672500D02*
X143390000Y-100327500D01*
G75*
G02*
X143537500Y-100180000I147500J0D01*
G01*
X143832500Y-100180000D01*
G75*
G02*
X143980000Y-100327500I0J-147500D01*
G01*
X143980000Y-100672500D01*
G75*
G02*
X143832500Y-100820000I-147500J0D01*
G01*
X143537500Y-100820000D01*
G75*
G02*
X143390000Y-100672500I0J147500D01*
G01*
G37*
G36*
G01*
X142420000Y-100672500D02*
X142420000Y-100327500D01*
G75*
G02*
X142567500Y-100180000I147500J0D01*
G01*
X142862500Y-100180000D01*
G75*
G02*
X143010000Y-100327500I0J-147500D01*
G01*
X143010000Y-100672500D01*
G75*
G02*
X142862500Y-100820000I-147500J0D01*
G01*
X142567500Y-100820000D01*
G75*
G02*
X142420000Y-100672500I0J147500D01*
G01*
G37*
%TD*%
%TO.C,D2*%
G36*
G01*
X143390000Y-99672500D02*
X143390000Y-99327500D01*
G75*
G02*
X143537500Y-99180000I147500J0D01*
G01*
X143832500Y-99180000D01*
G75*
G02*
X143980000Y-99327500I0J-147500D01*
G01*
X143980000Y-99672500D01*
G75*
G02*
X143832500Y-99820000I-147500J0D01*
G01*
X143537500Y-99820000D01*
G75*
G02*
X143390000Y-99672500I0J147500D01*
G01*
G37*
G36*
G01*
X142420000Y-99672500D02*
X142420000Y-99327500D01*
G75*
G02*
X142567500Y-99180000I147500J0D01*
G01*
X142862500Y-99180000D01*
G75*
G02*
X143010000Y-99327500I0J-147500D01*
G01*
X143010000Y-99672500D01*
G75*
G02*
X142862500Y-99820000I-147500J0D01*
G01*
X142567500Y-99820000D01*
G75*
G02*
X142420000Y-99672500I0J147500D01*
G01*
G37*
%TD*%
%TO.C,C16*%
G36*
G01*
X136180000Y-102410000D02*
X136180000Y-102750000D01*
G75*
G02*
X136040000Y-102890000I-140000J0D01*
G01*
X135760000Y-102890000D01*
G75*
G02*
X135620000Y-102750000I0J140000D01*
G01*
X135620000Y-102410000D01*
G75*
G02*
X135760000Y-102270000I140000J0D01*
G01*
X136040000Y-102270000D01*
G75*
G02*
X136180000Y-102410000I0J-140000D01*
G01*
G37*
G36*
G01*
X137140000Y-102410000D02*
X137140000Y-102750000D01*
G75*
G02*
X137000000Y-102890000I-140000J0D01*
G01*
X136720000Y-102890000D01*
G75*
G02*
X136580000Y-102750000I0J140000D01*
G01*
X136580000Y-102410000D01*
G75*
G02*
X136720000Y-102270000I140000J0D01*
G01*
X137000000Y-102270000D01*
G75*
G02*
X137140000Y-102410000I0J-140000D01*
G01*
G37*
%TD*%
%TO.C,R2*%
G36*
G01*
X144870000Y-100315000D02*
X144870000Y-100685000D01*
G75*
G02*
X144735000Y-100820000I-135000J0D01*
G01*
X144465000Y-100820000D01*
G75*
G02*
X144330000Y-100685000I0J135000D01*
G01*
X144330000Y-100315000D01*
G75*
G02*
X144465000Y-100180000I135000J0D01*
G01*
X144735000Y-100180000D01*
G75*
G02*
X144870000Y-100315000I0J-135000D01*
G01*
G37*
G36*
G01*
X145890000Y-100315000D02*
X145890000Y-100685000D01*
G75*
G02*
X145755000Y-100820000I-135000J0D01*
G01*
X145485000Y-100820000D01*
G75*
G02*
X145350000Y-100685000I0J135000D01*
G01*
X145350000Y-100315000D01*
G75*
G02*
X145485000Y-100180000I135000J0D01*
G01*
X145755000Y-100180000D01*
G75*
G02*
X145890000Y-100315000I0J-135000D01*
G01*
G37*
%TD*%
%TO.C,R3*%
G36*
G01*
X144870000Y-99315000D02*
X144870000Y-99685000D01*
G75*
G02*
X144735000Y-99820000I-135000J0D01*
G01*
X144465000Y-99820000D01*
G75*
G02*
X144330000Y-99685000I0J135000D01*
G01*
X144330000Y-99315000D01*
G75*
G02*
X144465000Y-99180000I135000J0D01*
G01*
X144735000Y-99180000D01*
G75*
G02*
X144870000Y-99315000I0J-135000D01*
G01*
G37*
G36*
G01*
X145890000Y-99315000D02*
X145890000Y-99685000D01*
G75*
G02*
X145755000Y-99820000I-135000J0D01*
G01*
X145485000Y-99820000D01*
G75*
G02*
X145350000Y-99685000I0J135000D01*
G01*
X145350000Y-99315000D01*
G75*
G02*
X145485000Y-99180000I135000J0D01*
G01*
X145755000Y-99180000D01*
G75*
G02*
X145890000Y-99315000I0J-135000D01*
G01*
G37*
%TD*%
%TO.C,R4*%
G36*
G01*
X139740000Y-102685000D02*
X139740000Y-102315000D01*
G75*
G02*
X139875000Y-102180000I135000J0D01*
G01*
X140145000Y-102180000D01*
G75*
G02*
X140280000Y-102315000I0J-135000D01*
G01*
X140280000Y-102685000D01*
G75*
G02*
X140145000Y-102820000I-135000J0D01*
G01*
X139875000Y-102820000D01*
G75*
G02*
X139740000Y-102685000I0J135000D01*
G01*
G37*
G36*
G01*
X138720000Y-102685000D02*
X138720000Y-102315000D01*
G75*
G02*
X138855000Y-102180000I135000J0D01*
G01*
X139125000Y-102180000D01*
G75*
G02*
X139260000Y-102315000I0J-135000D01*
G01*
X139260000Y-102685000D01*
G75*
G02*
X139125000Y-102820000I-135000J0D01*
G01*
X138855000Y-102820000D01*
G75*
G02*
X138720000Y-102685000I0J135000D01*
G01*
G37*
%TD*%
%TO.C,R5*%
G36*
G01*
X139740000Y-97655000D02*
X139740000Y-97285000D01*
G75*
G02*
X139875000Y-97150000I135000J0D01*
G01*
X140145000Y-97150000D01*
G75*
G02*
X140280000Y-97285000I0J-135000D01*
G01*
X140280000Y-97655000D01*
G75*
G02*
X140145000Y-97790000I-135000J0D01*
G01*
X139875000Y-97790000D01*
G75*
G02*
X139740000Y-97655000I0J135000D01*
G01*
G37*
G36*
G01*
X138720000Y-97655000D02*
X138720000Y-97285000D01*
G75*
G02*
X138855000Y-97150000I135000J0D01*
G01*
X139125000Y-97150000D01*
G75*
G02*
X139260000Y-97285000I0J-135000D01*
G01*
X139260000Y-97655000D01*
G75*
G02*
X139125000Y-97790000I-135000J0D01*
G01*
X138855000Y-97790000D01*
G75*
G02*
X138720000Y-97655000I0J135000D01*
G01*
G37*
%TD*%
D12*
%TO.C,U3*%
X135900000Y-100000000D03*
G36*
G01*
X136800000Y-101050000D02*
X137000000Y-101050000D01*
G75*
G02*
X137100000Y-101150000I0J-100000D01*
G01*
X137100000Y-101750000D01*
G75*
G02*
X137000000Y-101850000I-100000J0D01*
G01*
X136800000Y-101850000D01*
G75*
G02*
X136700000Y-101750000I0J100000D01*
G01*
X136700000Y-101150000D01*
G75*
G02*
X136800000Y-101050000I100000J0D01*
G01*
G37*
G36*
G01*
X135800000Y-101050000D02*
X136000000Y-101050000D01*
G75*
G02*
X136100000Y-101150000I0J-100000D01*
G01*
X136100000Y-101750000D01*
G75*
G02*
X136000000Y-101850000I-100000J0D01*
G01*
X135800000Y-101850000D01*
G75*
G02*
X135700000Y-101750000I0J100000D01*
G01*
X135700000Y-101150000D01*
G75*
G02*
X135800000Y-101050000I100000J0D01*
G01*
G37*
G36*
G01*
X134800000Y-101050000D02*
X135000000Y-101050000D01*
G75*
G02*
X135100000Y-101150000I0J-100000D01*
G01*
X135100000Y-101750000D01*
G75*
G02*
X135000000Y-101850000I-100000J0D01*
G01*
X134800000Y-101850000D01*
G75*
G02*
X134700000Y-101750000I0J100000D01*
G01*
X134700000Y-101150000D01*
G75*
G02*
X134800000Y-101050000I100000J0D01*
G01*
G37*
G36*
G01*
X134800000Y-98150000D02*
X135000000Y-98150000D01*
G75*
G02*
X135100000Y-98250000I0J-100000D01*
G01*
X135100000Y-98850000D01*
G75*
G02*
X135000000Y-98950000I-100000J0D01*
G01*
X134800000Y-98950000D01*
G75*
G02*
X134700000Y-98850000I0J100000D01*
G01*
X134700000Y-98250000D01*
G75*
G02*
X134800000Y-98150000I100000J0D01*
G01*
G37*
G36*
G01*
X135800000Y-98150000D02*
X136000000Y-98150000D01*
G75*
G02*
X136100000Y-98250000I0J-100000D01*
G01*
X136100000Y-98850000D01*
G75*
G02*
X136000000Y-98950000I-100000J0D01*
G01*
X135800000Y-98950000D01*
G75*
G02*
X135700000Y-98850000I0J100000D01*
G01*
X135700000Y-98250000D01*
G75*
G02*
X135800000Y-98150000I100000J0D01*
G01*
G37*
G36*
G01*
X136800000Y-98150000D02*
X137000000Y-98150000D01*
G75*
G02*
X137100000Y-98250000I0J-100000D01*
G01*
X137100000Y-98850000D01*
G75*
G02*
X137000000Y-98950000I-100000J0D01*
G01*
X136800000Y-98950000D01*
G75*
G02*
X136700000Y-98850000I0J100000D01*
G01*
X136700000Y-98250000D01*
G75*
G02*
X136800000Y-98150000I100000J0D01*
G01*
G37*
%TD*%
%TO.C,C17*%
G36*
G01*
X140600000Y-101710000D02*
X140600000Y-101370000D01*
G75*
G02*
X140740000Y-101230000I140000J0D01*
G01*
X141020000Y-101230000D01*
G75*
G02*
X141160000Y-101370000I0J-140000D01*
G01*
X141160000Y-101710000D01*
G75*
G02*
X141020000Y-101850000I-140000J0D01*
G01*
X140740000Y-101850000D01*
G75*
G02*
X140600000Y-101710000I0J140000D01*
G01*
G37*
G36*
G01*
X139640000Y-101710000D02*
X139640000Y-101370000D01*
G75*
G02*
X139780000Y-101230000I140000J0D01*
G01*
X140060000Y-101230000D01*
G75*
G02*
X140200000Y-101370000I0J-140000D01*
G01*
X140200000Y-101710000D01*
G75*
G02*
X140060000Y-101850000I-140000J0D01*
G01*
X139780000Y-101850000D01*
G75*
G02*
X139640000Y-101710000I0J140000D01*
G01*
G37*
%TD*%
%TO.C,C18*%
G36*
G01*
X140320000Y-98270000D02*
X140320000Y-98610000D01*
G75*
G02*
X140180000Y-98750000I-140000J0D01*
G01*
X139900000Y-98750000D01*
G75*
G02*
X139760000Y-98610000I0J140000D01*
G01*
X139760000Y-98270000D01*
G75*
G02*
X139900000Y-98130000I140000J0D01*
G01*
X140180000Y-98130000D01*
G75*
G02*
X140320000Y-98270000I0J-140000D01*
G01*
G37*
G36*
G01*
X141280000Y-98270000D02*
X141280000Y-98610000D01*
G75*
G02*
X141140000Y-98750000I-140000J0D01*
G01*
X140860000Y-98750000D01*
G75*
G02*
X140720000Y-98610000I0J140000D01*
G01*
X140720000Y-98270000D01*
G75*
G02*
X140860000Y-98130000I140000J0D01*
G01*
X141140000Y-98130000D01*
G75*
G02*
X141280000Y-98270000I0J-140000D01*
G01*
G37*
%TD*%
%TO.C,R6*%
G36*
G01*
X138880000Y-98625000D02*
X138880000Y-98255000D01*
G75*
G02*
X139015000Y-98120000I135000J0D01*
G01*
X139285000Y-98120000D01*
G75*
G02*
X139420000Y-98255000I0J-135000D01*
G01*
X139420000Y-98625000D01*
G75*
G02*
X139285000Y-98760000I-135000J0D01*
G01*
X139015000Y-98760000D01*
G75*
G02*
X138880000Y-98625000I0J135000D01*
G01*
G37*
G36*
G01*
X137860000Y-98625000D02*
X137860000Y-98255000D01*
G75*
G02*
X137995000Y-98120000I135000J0D01*
G01*
X138265000Y-98120000D01*
G75*
G02*
X138400000Y-98255000I0J-135000D01*
G01*
X138400000Y-98625000D01*
G75*
G02*
X138265000Y-98760000I-135000J0D01*
G01*
X137995000Y-98760000D01*
G75*
G02*
X137860000Y-98625000I0J135000D01*
G01*
G37*
%TD*%
D13*
%TO.C,Y1*%
X158900000Y-105150000D03*
X160300000Y-105150000D03*
X160300000Y-104050000D03*
X158900000Y-104050000D03*
%TD*%
%TO.C,C19*%
G36*
G01*
X164530000Y-99580000D02*
X164190000Y-99580000D01*
G75*
G02*
X164050000Y-99440000I0J140000D01*
G01*
X164050000Y-99160000D01*
G75*
G02*
X164190000Y-99020000I140000J0D01*
G01*
X164530000Y-99020000D01*
G75*
G02*
X164670000Y-99160000I0J-140000D01*
G01*
X164670000Y-99440000D01*
G75*
G02*
X164530000Y-99580000I-140000J0D01*
G01*
G37*
G36*
G01*
X164530000Y-100540000D02*
X164190000Y-100540000D01*
G75*
G02*
X164050000Y-100400000I0J140000D01*
G01*
X164050000Y-100120000D01*
G75*
G02*
X164190000Y-99980000I140000J0D01*
G01*
X164530000Y-99980000D01*
G75*
G02*
X164670000Y-100120000I0J-140000D01*
G01*
X164670000Y-100400000D01*
G75*
G02*
X164530000Y-100540000I-140000J0D01*
G01*
G37*
%TD*%
%TO.C,C20*%
G36*
G01*
X161350000Y-99020000D02*
X161690000Y-99020000D01*
G75*
G02*
X161830000Y-99160000I0J-140000D01*
G01*
X161830000Y-99440000D01*
G75*
G02*
X161690000Y-99580000I-140000J0D01*
G01*
X161350000Y-99580000D01*
G75*
G02*
X161210000Y-99440000I0J140000D01*
G01*
X161210000Y-99160000D01*
G75*
G02*
X161350000Y-99020000I140000J0D01*
G01*
G37*
G36*
G01*
X161350000Y-99980000D02*
X161690000Y-99980000D01*
G75*
G02*
X161830000Y-100120000I0J-140000D01*
G01*
X161830000Y-100400000D01*
G75*
G02*
X161690000Y-100540000I-140000J0D01*
G01*
X161350000Y-100540000D01*
G75*
G02*
X161210000Y-100400000I0J140000D01*
G01*
X161210000Y-100120000D01*
G75*
G02*
X161350000Y-99980000I140000J0D01*
G01*
G37*
%TD*%
%TO.C,L1*%
G36*
G01*
X163720000Y-99127500D02*
X163720000Y-99472500D01*
G75*
G02*
X163572500Y-99620000I-147500J0D01*
G01*
X163277500Y-99620000D01*
G75*
G02*
X163130000Y-99472500I0J147500D01*
G01*
X163130000Y-99127500D01*
G75*
G02*
X163277500Y-98980000I147500J0D01*
G01*
X163572500Y-98980000D01*
G75*
G02*
X163720000Y-99127500I0J-147500D01*
G01*
G37*
G36*
G01*
X162750000Y-99127500D02*
X162750000Y-99472500D01*
G75*
G02*
X162602500Y-99620000I-147500J0D01*
G01*
X162307500Y-99620000D01*
G75*
G02*
X162160000Y-99472500I0J147500D01*
G01*
X162160000Y-99127500D01*
G75*
G02*
X162307500Y-98980000I147500J0D01*
G01*
X162602500Y-98980000D01*
G75*
G02*
X162750000Y-99127500I0J-147500D01*
G01*
G37*
%TD*%
D14*
%TO.C,U2*%
X151725000Y-98000000D03*
X151725000Y-98500000D03*
X151725000Y-99000000D03*
X151725000Y-99500000D03*
X151725000Y-100000000D03*
X151725000Y-100500000D03*
X151725000Y-101000000D03*
X151725000Y-101500000D03*
X151725000Y-102000000D03*
D15*
X152500000Y-102775000D03*
X153000000Y-102775000D03*
X153500000Y-102775000D03*
X154000000Y-102775000D03*
X154500000Y-102775000D03*
X155000000Y-102775000D03*
X155500000Y-102775000D03*
X156000000Y-102775000D03*
X156500000Y-102775000D03*
D14*
X157275000Y-102000000D03*
X157275000Y-101500000D03*
X157275000Y-101000000D03*
X157275000Y-100500000D03*
X157275000Y-100000000D03*
X157275000Y-99500000D03*
X157275000Y-99000000D03*
X157275000Y-98500000D03*
X157275000Y-98000000D03*
D15*
X156500000Y-97225000D03*
X156000000Y-97225000D03*
X155500000Y-97225000D03*
X155000000Y-97225000D03*
X154500000Y-97225000D03*
X154000000Y-97225000D03*
X153500000Y-97225000D03*
X153000000Y-97225000D03*
X152500000Y-97225000D03*
D16*
X154500000Y-99120000D03*
X155380000Y-99120000D03*
X154500000Y-100880000D03*
X155380000Y-100000000D03*
D10*
G36*
X154940000Y-101320000D02*
G01*
X154940000Y-100440000D01*
X155820000Y-100440000D01*
X155820000Y-101320000D01*
X154940000Y-101320000D01*
G37*
D16*
X153620000Y-100000000D03*
X153620000Y-100880000D03*
X153620000Y-99120000D03*
%TD*%
M02*
