%TF.GenerationSoftware,KiCad,Pcbnew,5.1.9-73d0e3b20d~88~ubuntu20.04.1*%
%TF.CreationDate,2021-04-10T20:27:40+02:00*%
%TF.ProjectId,calvin,63616c76-696e-42e6-9b69-6361645f7063,v1.00*%
%TF.SameCoordinates,Original*%
%TF.FileFunction,Legend,Bot*%
%TF.FilePolarity,Positive*%
%FSLAX46Y46*%
G04 Gerber Fmt 4.6, Leading zero omitted, Abs format (unit mm)*
G04 Created by KiCad (PCBNEW 5.1.9-73d0e3b20d~88~ubuntu20.04.1) date 2021-04-10 20:27:40*
%MOMM*%
%LPD*%
G01*
G04 APERTURE LIST*
%ADD10C,0.250000*%
%ADD11C,0.120000*%
%ADD12C,0.150000*%
G04 APERTURE END LIST*
D10*
X142350952Y-94557619D02*
X142350952Y-93843333D01*
X142303333Y-93700476D01*
X142208095Y-93605238D01*
X142065238Y-93557619D01*
X141970000Y-93557619D01*
X143303333Y-93557619D02*
X142827142Y-93557619D01*
X142827142Y-94557619D01*
X144208095Y-93652857D02*
X144160476Y-93605238D01*
X144017619Y-93557619D01*
X143922380Y-93557619D01*
X143779523Y-93605238D01*
X143684285Y-93700476D01*
X143636666Y-93795714D01*
X143589047Y-93986190D01*
X143589047Y-94129047D01*
X143636666Y-94319523D01*
X143684285Y-94414761D01*
X143779523Y-94510000D01*
X143922380Y-94557619D01*
X144017619Y-94557619D01*
X144160476Y-94510000D01*
X144208095Y-94462380D01*
X144922380Y-94557619D02*
X144922380Y-93843333D01*
X144874761Y-93700476D01*
X144779523Y-93605238D01*
X144636666Y-93557619D01*
X144541428Y-93557619D01*
X145874761Y-93557619D02*
X145398571Y-93557619D01*
X145398571Y-94557619D01*
X146779523Y-93652857D02*
X146731904Y-93605238D01*
X146589047Y-93557619D01*
X146493809Y-93557619D01*
X146350952Y-93605238D01*
X146255714Y-93700476D01*
X146208095Y-93795714D01*
X146160476Y-93986190D01*
X146160476Y-94129047D01*
X146208095Y-94319523D01*
X146255714Y-94414761D01*
X146350952Y-94510000D01*
X146493809Y-94557619D01*
X146589047Y-94557619D01*
X146731904Y-94510000D01*
X146779523Y-94462380D01*
X147493809Y-94557619D02*
X147493809Y-93843333D01*
X147446190Y-93700476D01*
X147350952Y-93605238D01*
X147208095Y-93557619D01*
X147112857Y-93557619D01*
X148446190Y-93557619D02*
X147970000Y-93557619D01*
X147970000Y-94557619D01*
X149350952Y-93652857D02*
X149303333Y-93605238D01*
X149160476Y-93557619D01*
X149065238Y-93557619D01*
X148922380Y-93605238D01*
X148827142Y-93700476D01*
X148779523Y-93795714D01*
X148731904Y-93986190D01*
X148731904Y-94129047D01*
X148779523Y-94319523D01*
X148827142Y-94414761D01*
X148922380Y-94510000D01*
X149065238Y-94557619D01*
X149160476Y-94557619D01*
X149303333Y-94510000D01*
X149350952Y-94462380D01*
X150065238Y-94557619D02*
X150065238Y-93843333D01*
X150017619Y-93700476D01*
X149922380Y-93605238D01*
X149779523Y-93557619D01*
X149684285Y-93557619D01*
X151017619Y-93557619D02*
X150541428Y-93557619D01*
X150541428Y-94557619D01*
X151922380Y-93652857D02*
X151874761Y-93605238D01*
X151731904Y-93557619D01*
X151636666Y-93557619D01*
X151493809Y-93605238D01*
X151398571Y-93700476D01*
X151350952Y-93795714D01*
X151303333Y-93986190D01*
X151303333Y-94129047D01*
X151350952Y-94319523D01*
X151398571Y-94414761D01*
X151493809Y-94510000D01*
X151636666Y-94557619D01*
X151731904Y-94557619D01*
X151874761Y-94510000D01*
X151922380Y-94462380D01*
D11*
%TO.C,BT1*%
X154200000Y-92150000D02*
X139800000Y-92150000D01*
X139800000Y-107850000D02*
X154200000Y-107850000D01*
X138550001Y-93500001D02*
X134050000Y-93500000D01*
X138557067Y-106494564D02*
X134000000Y-106494564D01*
X134050000Y-93500000D02*
X134050000Y-95500000D01*
X134050000Y-95500000D02*
X135500000Y-95500000D01*
X135500000Y-95500000D02*
X135500000Y-104500000D01*
X135500000Y-104500000D02*
X134000000Y-104500000D01*
X134000000Y-104550000D02*
X134000000Y-106494564D01*
X138557068Y-106494563D02*
G75*
G03*
X139800001Y-107849999I8442932J6494563D01*
G01*
X139793975Y-92143431D02*
G75*
G03*
X138550001Y-93500001I7206025J-7856569D01*
G01*
X154199999Y-107849999D02*
G75*
G03*
X154199999Y-92150001I-7199999J7849999D01*
G01*
%TO.C,C4*%
X135338748Y-93135000D02*
X135861252Y-93135000D01*
X135338748Y-91665000D02*
X135861252Y-91665000D01*
%TO.C,C6*%
X133435000Y-94161252D02*
X133435000Y-93638748D01*
X131965000Y-94161252D02*
X131965000Y-93638748D01*
%TO.C,C8*%
X133661252Y-96265000D02*
X133138748Y-96265000D01*
X133661252Y-97735000D02*
X133138748Y-97735000D01*
%TO.C,C13*%
X135338748Y-108335000D02*
X135861252Y-108335000D01*
X135338748Y-106865000D02*
X135861252Y-106865000D01*
%TO.C,C14*%
X131965000Y-105838748D02*
X131965000Y-106361252D01*
X133435000Y-105838748D02*
X133435000Y-106361252D01*
%TO.C,C15*%
X133661252Y-102265000D02*
X133138748Y-102265000D01*
X133661252Y-103735000D02*
X133138748Y-103735000D01*
%TO.C,BT1*%
D12*
X130728571Y-99214285D02*
X130776190Y-99357142D01*
X130823809Y-99404761D01*
X130919047Y-99452380D01*
X131061904Y-99452380D01*
X131157142Y-99404761D01*
X131204761Y-99357142D01*
X131252380Y-99261904D01*
X131252380Y-98880952D01*
X130252380Y-98880952D01*
X130252380Y-99214285D01*
X130300000Y-99309523D01*
X130347619Y-99357142D01*
X130442857Y-99404761D01*
X130538095Y-99404761D01*
X130633333Y-99357142D01*
X130680952Y-99309523D01*
X130728571Y-99214285D01*
X130728571Y-98880952D01*
X130252380Y-99738095D02*
X130252380Y-100309523D01*
X131252380Y-100023809D02*
X130252380Y-100023809D01*
X131252380Y-101166666D02*
X131252380Y-100595238D01*
X131252380Y-100880952D02*
X130252380Y-100880952D01*
X130395238Y-100785714D01*
X130490476Y-100690476D01*
X130538095Y-100595238D01*
%TO.C,C4*%
X138457142Y-92123333D02*
X138504761Y-92075714D01*
X138552380Y-91932857D01*
X138552380Y-91837619D01*
X138504761Y-91694761D01*
X138409523Y-91599523D01*
X138314285Y-91551904D01*
X138123809Y-91504285D01*
X137980952Y-91504285D01*
X137790476Y-91551904D01*
X137695238Y-91599523D01*
X137600000Y-91694761D01*
X137552380Y-91837619D01*
X137552380Y-91932857D01*
X137600000Y-92075714D01*
X137647619Y-92123333D01*
X137885714Y-92980476D02*
X138552380Y-92980476D01*
X137504761Y-92742380D02*
X138219047Y-92504285D01*
X138219047Y-93123333D01*
%TO.C,C6*%
X131257142Y-93733333D02*
X131304761Y-93685714D01*
X131352380Y-93542857D01*
X131352380Y-93447619D01*
X131304761Y-93304761D01*
X131209523Y-93209523D01*
X131114285Y-93161904D01*
X130923809Y-93114285D01*
X130780952Y-93114285D01*
X130590476Y-93161904D01*
X130495238Y-93209523D01*
X130400000Y-93304761D01*
X130352380Y-93447619D01*
X130352380Y-93542857D01*
X130400000Y-93685714D01*
X130447619Y-93733333D01*
X130352380Y-94590476D02*
X130352380Y-94400000D01*
X130400000Y-94304761D01*
X130447619Y-94257142D01*
X130590476Y-94161904D01*
X130780952Y-94114285D01*
X131161904Y-94114285D01*
X131257142Y-94161904D01*
X131304761Y-94209523D01*
X131352380Y-94304761D01*
X131352380Y-94495238D01*
X131304761Y-94590476D01*
X131257142Y-94638095D01*
X131161904Y-94685714D01*
X130923809Y-94685714D01*
X130828571Y-94638095D01*
X130780952Y-94590476D01*
X130733333Y-94495238D01*
X130733333Y-94304761D01*
X130780952Y-94209523D01*
X130828571Y-94161904D01*
X130923809Y-94114285D01*
%TO.C,C8*%
X131157142Y-96833333D02*
X131204761Y-96785714D01*
X131252380Y-96642857D01*
X131252380Y-96547619D01*
X131204761Y-96404761D01*
X131109523Y-96309523D01*
X131014285Y-96261904D01*
X130823809Y-96214285D01*
X130680952Y-96214285D01*
X130490476Y-96261904D01*
X130395238Y-96309523D01*
X130300000Y-96404761D01*
X130252380Y-96547619D01*
X130252380Y-96642857D01*
X130300000Y-96785714D01*
X130347619Y-96833333D01*
X130680952Y-97404761D02*
X130633333Y-97309523D01*
X130585714Y-97261904D01*
X130490476Y-97214285D01*
X130442857Y-97214285D01*
X130347619Y-97261904D01*
X130300000Y-97309523D01*
X130252380Y-97404761D01*
X130252380Y-97595238D01*
X130300000Y-97690476D01*
X130347619Y-97738095D01*
X130442857Y-97785714D01*
X130490476Y-97785714D01*
X130585714Y-97738095D01*
X130633333Y-97690476D01*
X130680952Y-97595238D01*
X130680952Y-97404761D01*
X130728571Y-97309523D01*
X130776190Y-97261904D01*
X130871428Y-97214285D01*
X131061904Y-97214285D01*
X131157142Y-97261904D01*
X131204761Y-97309523D01*
X131252380Y-97404761D01*
X131252380Y-97595238D01*
X131204761Y-97690476D01*
X131157142Y-97738095D01*
X131061904Y-97785714D01*
X130871428Y-97785714D01*
X130776190Y-97738095D01*
X130728571Y-97690476D01*
X130680952Y-97595238D01*
%TO.C,C13*%
X138457142Y-107427142D02*
X138504761Y-107379523D01*
X138552380Y-107236666D01*
X138552380Y-107141428D01*
X138504761Y-106998571D01*
X138409523Y-106903333D01*
X138314285Y-106855714D01*
X138123809Y-106808095D01*
X137980952Y-106808095D01*
X137790476Y-106855714D01*
X137695238Y-106903333D01*
X137600000Y-106998571D01*
X137552380Y-107141428D01*
X137552380Y-107236666D01*
X137600000Y-107379523D01*
X137647619Y-107427142D01*
X138552380Y-108379523D02*
X138552380Y-107808095D01*
X138552380Y-108093809D02*
X137552380Y-108093809D01*
X137695238Y-107998571D01*
X137790476Y-107903333D01*
X137838095Y-107808095D01*
X137552380Y-108712857D02*
X137552380Y-109331904D01*
X137933333Y-108998571D01*
X137933333Y-109141428D01*
X137980952Y-109236666D01*
X138028571Y-109284285D01*
X138123809Y-109331904D01*
X138361904Y-109331904D01*
X138457142Y-109284285D01*
X138504761Y-109236666D01*
X138552380Y-109141428D01*
X138552380Y-108855714D01*
X138504761Y-108760476D01*
X138457142Y-108712857D01*
%TO.C,C14*%
X131157142Y-105457142D02*
X131204761Y-105409523D01*
X131252380Y-105266666D01*
X131252380Y-105171428D01*
X131204761Y-105028571D01*
X131109523Y-104933333D01*
X131014285Y-104885714D01*
X130823809Y-104838095D01*
X130680952Y-104838095D01*
X130490476Y-104885714D01*
X130395238Y-104933333D01*
X130300000Y-105028571D01*
X130252380Y-105171428D01*
X130252380Y-105266666D01*
X130300000Y-105409523D01*
X130347619Y-105457142D01*
X131252380Y-106409523D02*
X131252380Y-105838095D01*
X131252380Y-106123809D02*
X130252380Y-106123809D01*
X130395238Y-106028571D01*
X130490476Y-105933333D01*
X130538095Y-105838095D01*
X130585714Y-107266666D02*
X131252380Y-107266666D01*
X130204761Y-107028571D02*
X130919047Y-106790476D01*
X130919047Y-107409523D01*
%TO.C,C15*%
X131157142Y-102357142D02*
X131204761Y-102309523D01*
X131252380Y-102166666D01*
X131252380Y-102071428D01*
X131204761Y-101928571D01*
X131109523Y-101833333D01*
X131014285Y-101785714D01*
X130823809Y-101738095D01*
X130680952Y-101738095D01*
X130490476Y-101785714D01*
X130395238Y-101833333D01*
X130300000Y-101928571D01*
X130252380Y-102071428D01*
X130252380Y-102166666D01*
X130300000Y-102309523D01*
X130347619Y-102357142D01*
X131252380Y-103309523D02*
X131252380Y-102738095D01*
X131252380Y-103023809D02*
X130252380Y-103023809D01*
X130395238Y-102928571D01*
X130490476Y-102833333D01*
X130538095Y-102738095D01*
X130252380Y-104214285D02*
X130252380Y-103738095D01*
X130728571Y-103690476D01*
X130680952Y-103738095D01*
X130633333Y-103833333D01*
X130633333Y-104071428D01*
X130680952Y-104166666D01*
X130728571Y-104214285D01*
X130823809Y-104261904D01*
X131061904Y-104261904D01*
X131157142Y-104214285D01*
X131204761Y-104166666D01*
X131252380Y-104071428D01*
X131252380Y-103833333D01*
X131204761Y-103738095D01*
X131157142Y-103690476D01*
%TD*%
M02*
