%TF.GenerationSoftware,KiCad,Pcbnew,5.1.9-73d0e3b20d~88~ubuntu20.04.1*%
%TF.CreationDate,2021-03-27T20:59:08+01:00*%
%TF.ProjectId,calvin,63616c76-696e-42e6-9b69-6361645f7063,v1.00*%
%TF.SameCoordinates,Original*%
%TF.FileFunction,Paste,Bot*%
%TF.FilePolarity,Positive*%
%FSLAX46Y46*%
G04 Gerber Fmt 4.6, Leading zero omitted, Abs format (unit mm)*
G04 Created by KiCad (PCBNEW 5.1.9-73d0e3b20d~88~ubuntu20.04.1) date 2021-03-27 20:59:08*
%MOMM*%
%LPD*%
G01*
G04 APERTURE LIST*
%ADD10C,0.100000*%
G04 APERTURE END LIST*
D10*
%TO.C,BT1*%
G36*
X135200000Y-98500000D02*
G01*
X135200000Y-101500000D01*
X131800000Y-101500000D01*
X131800000Y-98500000D01*
X135200000Y-98500000D01*
G37*
G36*
X157100000Y-98800000D02*
G01*
X157100000Y-101200000D01*
X152600000Y-101200000D01*
X152600000Y-98800000D01*
X157100000Y-98800000D01*
G37*
%TD*%
%TO.C,C4*%
G36*
G01*
X136050000Y-92875000D02*
X136050000Y-91925000D01*
G75*
G02*
X136300000Y-91675000I250000J0D01*
G01*
X136800000Y-91675000D01*
G75*
G02*
X137050000Y-91925000I0J-250000D01*
G01*
X137050000Y-92875000D01*
G75*
G02*
X136800000Y-93125000I-250000J0D01*
G01*
X136300000Y-93125000D01*
G75*
G02*
X136050000Y-92875000I0J250000D01*
G01*
G37*
G36*
G01*
X134150000Y-92875000D02*
X134150000Y-91925000D01*
G75*
G02*
X134400000Y-91675000I250000J0D01*
G01*
X134900000Y-91675000D01*
G75*
G02*
X135150000Y-91925000I0J-250000D01*
G01*
X135150000Y-92875000D01*
G75*
G02*
X134900000Y-93125000I-250000J0D01*
G01*
X134400000Y-93125000D01*
G75*
G02*
X134150000Y-92875000I0J250000D01*
G01*
G37*
%TD*%
%TO.C,C6*%
G36*
G01*
X133175000Y-93450000D02*
X132225000Y-93450000D01*
G75*
G02*
X131975000Y-93200000I0J250000D01*
G01*
X131975000Y-92700000D01*
G75*
G02*
X132225000Y-92450000I250000J0D01*
G01*
X133175000Y-92450000D01*
G75*
G02*
X133425000Y-92700000I0J-250000D01*
G01*
X133425000Y-93200000D01*
G75*
G02*
X133175000Y-93450000I-250000J0D01*
G01*
G37*
G36*
G01*
X133175000Y-95350000D02*
X132225000Y-95350000D01*
G75*
G02*
X131975000Y-95100000I0J250000D01*
G01*
X131975000Y-94600000D01*
G75*
G02*
X132225000Y-94350000I250000J0D01*
G01*
X133175000Y-94350000D01*
G75*
G02*
X133425000Y-94600000I0J-250000D01*
G01*
X133425000Y-95100000D01*
G75*
G02*
X133175000Y-95350000I-250000J0D01*
G01*
G37*
%TD*%
%TO.C,C8*%
G36*
G01*
X132950000Y-96525000D02*
X132950000Y-97475000D01*
G75*
G02*
X132700000Y-97725000I-250000J0D01*
G01*
X132200000Y-97725000D01*
G75*
G02*
X131950000Y-97475000I0J250000D01*
G01*
X131950000Y-96525000D01*
G75*
G02*
X132200000Y-96275000I250000J0D01*
G01*
X132700000Y-96275000D01*
G75*
G02*
X132950000Y-96525000I0J-250000D01*
G01*
G37*
G36*
G01*
X134850000Y-96525000D02*
X134850000Y-97475000D01*
G75*
G02*
X134600000Y-97725000I-250000J0D01*
G01*
X134100000Y-97725000D01*
G75*
G02*
X133850000Y-97475000I0J250000D01*
G01*
X133850000Y-96525000D01*
G75*
G02*
X134100000Y-96275000I250000J0D01*
G01*
X134600000Y-96275000D01*
G75*
G02*
X134850000Y-96525000I0J-250000D01*
G01*
G37*
%TD*%
%TO.C,C13*%
G36*
G01*
X136050000Y-108075000D02*
X136050000Y-107125000D01*
G75*
G02*
X136300000Y-106875000I250000J0D01*
G01*
X136800000Y-106875000D01*
G75*
G02*
X137050000Y-107125000I0J-250000D01*
G01*
X137050000Y-108075000D01*
G75*
G02*
X136800000Y-108325000I-250000J0D01*
G01*
X136300000Y-108325000D01*
G75*
G02*
X136050000Y-108075000I0J250000D01*
G01*
G37*
G36*
G01*
X134150000Y-108075000D02*
X134150000Y-107125000D01*
G75*
G02*
X134400000Y-106875000I250000J0D01*
G01*
X134900000Y-106875000D01*
G75*
G02*
X135150000Y-107125000I0J-250000D01*
G01*
X135150000Y-108075000D01*
G75*
G02*
X134900000Y-108325000I-250000J0D01*
G01*
X134400000Y-108325000D01*
G75*
G02*
X134150000Y-108075000I0J250000D01*
G01*
G37*
%TD*%
%TO.C,C14*%
G36*
G01*
X132225000Y-106550000D02*
X133175000Y-106550000D01*
G75*
G02*
X133425000Y-106800000I0J-250000D01*
G01*
X133425000Y-107300000D01*
G75*
G02*
X133175000Y-107550000I-250000J0D01*
G01*
X132225000Y-107550000D01*
G75*
G02*
X131975000Y-107300000I0J250000D01*
G01*
X131975000Y-106800000D01*
G75*
G02*
X132225000Y-106550000I250000J0D01*
G01*
G37*
G36*
G01*
X132225000Y-104650000D02*
X133175000Y-104650000D01*
G75*
G02*
X133425000Y-104900000I0J-250000D01*
G01*
X133425000Y-105400000D01*
G75*
G02*
X133175000Y-105650000I-250000J0D01*
G01*
X132225000Y-105650000D01*
G75*
G02*
X131975000Y-105400000I0J250000D01*
G01*
X131975000Y-104900000D01*
G75*
G02*
X132225000Y-104650000I250000J0D01*
G01*
G37*
%TD*%
%TO.C,C15*%
G36*
G01*
X132950000Y-102525000D02*
X132950000Y-103475000D01*
G75*
G02*
X132700000Y-103725000I-250000J0D01*
G01*
X132200000Y-103725000D01*
G75*
G02*
X131950000Y-103475000I0J250000D01*
G01*
X131950000Y-102525000D01*
G75*
G02*
X132200000Y-102275000I250000J0D01*
G01*
X132700000Y-102275000D01*
G75*
G02*
X132950000Y-102525000I0J-250000D01*
G01*
G37*
G36*
G01*
X134850000Y-102525000D02*
X134850000Y-103475000D01*
G75*
G02*
X134600000Y-103725000I-250000J0D01*
G01*
X134100000Y-103725000D01*
G75*
G02*
X133850000Y-103475000I0J250000D01*
G01*
X133850000Y-102525000D01*
G75*
G02*
X134100000Y-102275000I250000J0D01*
G01*
X134600000Y-102275000D01*
G75*
G02*
X134850000Y-102525000I0J-250000D01*
G01*
G37*
%TD*%
M02*
