%TF.GenerationSoftware,KiCad,Pcbnew,5.1.9-73d0e3b20d~88~ubuntu20.04.1*%
%TF.CreationDate,2021-04-10T20:27:40+02:00*%
%TF.ProjectId,calvin,63616c76-696e-42e6-9b69-6361645f7063,v1.00*%
%TF.SameCoordinates,Original*%
%TF.FileFunction,Copper,L3,Inr*%
%TF.FilePolarity,Positive*%
%FSLAX46Y46*%
G04 Gerber Fmt 4.6, Leading zero omitted, Abs format (unit mm)*
G04 Created by KiCad (PCBNEW 5.1.9-73d0e3b20d~88~ubuntu20.04.1) date 2021-04-10 20:27:40*
%MOMM*%
%LPD*%
G01*
G04 APERTURE LIST*
%TA.AperFunction,ComponentPad*%
%ADD10R,0.880000X0.880000*%
%TD*%
%TA.AperFunction,ViaPad*%
%ADD11C,0.800000*%
%TD*%
%TA.AperFunction,ViaPad*%
%ADD12C,0.600000*%
%TD*%
%TA.AperFunction,ViaPad*%
%ADD13C,0.450000*%
%TD*%
%TA.AperFunction,Conductor*%
%ADD14C,0.254000*%
%TD*%
%TA.AperFunction,Conductor*%
%ADD15C,0.100000*%
%TD*%
G04 APERTURE END LIST*
D10*
%TO.N,GND*%
%TO.C,U2*%
X156260000Y-101760000D03*
X154500000Y-98240000D03*
X155380000Y-98240000D03*
X156260000Y-98240000D03*
X156260000Y-99120000D03*
X156260000Y-100000000D03*
X154500000Y-100000000D03*
X154500000Y-101760000D03*
X155380000Y-101760000D03*
X156260000Y-100880000D03*
X152740000Y-98240000D03*
X153620000Y-101760000D03*
X152740000Y-100000000D03*
X152740000Y-100880000D03*
X152740000Y-101760000D03*
X153620000Y-98240000D03*
X152740000Y-99120000D03*
%TD*%
D11*
%TO.N,*%
X131000000Y-91000000D03*
D12*
%TO.N,+3V3*%
X158900000Y-101100000D03*
X158900000Y-98400000D03*
X158840000Y-97140000D03*
X157040000Y-95880000D03*
D11*
X134650000Y-93730000D03*
X134030000Y-94850000D03*
X134020000Y-105150000D03*
X134650000Y-106280000D03*
X131380000Y-105150000D03*
X131380000Y-94850000D03*
X151470000Y-102768600D03*
D12*
X135900000Y-103390000D03*
X156460000Y-103920000D03*
D11*
X131400000Y-100800000D03*
X131400000Y-100000000D03*
X131400000Y-99200000D03*
X134350000Y-104319994D03*
X134350000Y-95680004D03*
D12*
X138130000Y-97620000D03*
X140880000Y-102350000D03*
X150855117Y-98370010D03*
X144100000Y-103719994D03*
%TO.N,GND*%
X160640000Y-106400000D03*
X161360000Y-98100000D03*
X161360000Y-97140000D03*
X161380000Y-96170000D03*
X157040000Y-94920000D03*
X154450000Y-94920000D03*
X157270000Y-105660000D03*
D11*
X132700000Y-91850000D03*
X131350000Y-97000000D03*
X131350000Y-103000000D03*
X132700000Y-108150000D03*
X136550000Y-106280000D03*
X131380000Y-107050000D03*
X131380000Y-92950000D03*
X136550000Y-93720000D03*
D12*
X148840000Y-102770000D03*
X136860000Y-103390000D03*
X158600000Y-102790000D03*
X135910000Y-97650000D03*
X141000000Y-97630000D03*
X140100000Y-99510000D03*
X139140012Y-101540000D03*
X142710000Y-98680000D03*
X145100000Y-103730004D03*
X163550000Y-100260000D03*
X164360000Y-101040000D03*
X162330000Y-100260000D03*
X160530000Y-100200000D03*
X161360020Y-101400000D03*
D11*
X132500000Y-91000000D03*
X134000000Y-91000000D03*
X135500000Y-91000000D03*
X137000000Y-91000000D03*
X138500000Y-91000000D03*
X140000000Y-91000000D03*
X141500000Y-91000000D03*
X143000000Y-91000000D03*
X144500000Y-91000000D03*
X146000000Y-91000000D03*
X147500000Y-91000000D03*
X149000000Y-91000000D03*
X150500000Y-91000000D03*
X152000000Y-91000000D03*
X153500000Y-91000000D03*
X155000000Y-91000000D03*
X156500000Y-91000000D03*
X158000000Y-91000000D03*
X159500000Y-91000000D03*
X161000000Y-91000000D03*
X162500000Y-91000000D03*
X164000000Y-91000000D03*
X164500000Y-92000000D03*
X164500000Y-93500000D03*
X164500000Y-95000000D03*
X164500000Y-96500000D03*
X164500000Y-98000000D03*
X163500000Y-98000000D03*
X162500000Y-98000000D03*
X164000000Y-107500000D03*
X164500000Y-106500000D03*
X164500000Y-105000000D03*
X164500000Y-103500000D03*
X164500000Y-102000000D03*
X161000000Y-109000000D03*
X159500000Y-109000000D03*
X158000000Y-109000000D03*
X156500000Y-109000000D03*
X152000000Y-109000000D03*
X150500000Y-109000000D03*
X149000000Y-109000000D03*
X147500000Y-109000000D03*
X146000000Y-109000000D03*
X144500000Y-109000000D03*
X154500000Y-107000000D03*
X140000000Y-109000000D03*
X138500000Y-109000000D03*
X137000000Y-109000000D03*
X135500000Y-109000000D03*
X134000000Y-109000000D03*
X132500000Y-109000000D03*
X131000000Y-109000000D03*
X138000000Y-103500000D03*
X139000000Y-104000000D03*
X142000000Y-104500000D03*
X140500000Y-104500000D03*
X142000000Y-106000000D03*
X143000000Y-107000000D03*
X144500000Y-107500000D03*
X146000000Y-107500000D03*
X147500000Y-107500000D03*
X149000000Y-107500000D03*
X150500000Y-107500000D03*
X152000000Y-107500000D03*
X156000000Y-106000000D03*
X158000000Y-107500000D03*
X159500000Y-107500000D03*
X161000000Y-107500000D03*
X162000000Y-106000000D03*
X162000000Y-104500000D03*
X162000000Y-103000000D03*
X162500000Y-101500000D03*
X160500000Y-95000000D03*
X159500000Y-95000000D03*
X158000000Y-95000000D03*
X153500000Y-95000000D03*
X152000000Y-95000000D03*
X150500000Y-96000000D03*
X149000000Y-97000000D03*
X147500000Y-97000000D03*
X146000000Y-97000000D03*
X144500000Y-97000000D03*
X143000000Y-97000000D03*
X141500000Y-96000000D03*
X140000000Y-96000000D03*
X138500000Y-96000000D03*
X137000000Y-96500000D03*
X156500000Y-107500000D03*
X162500000Y-107500000D03*
X150500000Y-93500000D03*
X147500000Y-93500000D03*
X144500000Y-93500000D03*
X141500000Y-93500000D03*
X138500000Y-93500000D03*
X153500000Y-93500000D03*
X156500000Y-93500000D03*
X159500000Y-93500000D03*
X162500000Y-93500000D03*
X140000000Y-106500000D03*
D13*
%TO.N,dbg_reset*%
X143319996Y-103880000D03*
X152320000Y-96220000D03*
X153000008Y-96220000D03*
X143319998Y-101930000D03*
%TD*%
D14*
%TO.N,+3V3*%
X163340226Y-91803937D02*
X163466888Y-91888570D01*
X163465000Y-91898061D01*
X163465000Y-92101939D01*
X163504774Y-92301898D01*
X163582795Y-92490256D01*
X163696063Y-92659774D01*
X163786289Y-92750000D01*
X163696063Y-92840226D01*
X163582795Y-93009744D01*
X163504774Y-93198102D01*
X163500000Y-93222103D01*
X163495226Y-93198102D01*
X163417205Y-93009744D01*
X163303937Y-92840226D01*
X163159774Y-92696063D01*
X162990256Y-92582795D01*
X162801898Y-92504774D01*
X162601939Y-92465000D01*
X162398061Y-92465000D01*
X162198102Y-92504774D01*
X162009744Y-92582795D01*
X161840226Y-92696063D01*
X161696063Y-92840226D01*
X161582795Y-93009744D01*
X161504774Y-93198102D01*
X161465000Y-93398061D01*
X161465000Y-93601939D01*
X161504774Y-93801898D01*
X161582795Y-93990256D01*
X161696063Y-94159774D01*
X161840226Y-94303937D01*
X162009744Y-94417205D01*
X162198102Y-94495226D01*
X162398061Y-94535000D01*
X162601939Y-94535000D01*
X162801898Y-94495226D01*
X162990256Y-94417205D01*
X163159774Y-94303937D01*
X163303937Y-94159774D01*
X163417205Y-93990256D01*
X163495226Y-93801898D01*
X163500000Y-93777897D01*
X163504774Y-93801898D01*
X163582795Y-93990256D01*
X163696063Y-94159774D01*
X163786289Y-94250000D01*
X163696063Y-94340226D01*
X163582795Y-94509744D01*
X163504774Y-94698102D01*
X163465000Y-94898061D01*
X163465000Y-95101939D01*
X163504774Y-95301898D01*
X163582795Y-95490256D01*
X163696063Y-95659774D01*
X163786289Y-95750000D01*
X163696063Y-95840226D01*
X163582795Y-96009744D01*
X163504774Y-96198102D01*
X163465000Y-96398061D01*
X163465000Y-96601939D01*
X163504774Y-96801898D01*
X163572334Y-96965000D01*
X163398061Y-96965000D01*
X163198102Y-97004774D01*
X163009744Y-97082795D01*
X163000000Y-97089306D01*
X162990256Y-97082795D01*
X162801898Y-97004774D01*
X162601939Y-96965000D01*
X162398061Y-96965000D01*
X162283058Y-96987875D01*
X162259068Y-96867271D01*
X162188586Y-96697111D01*
X162170448Y-96669966D01*
X162208586Y-96612889D01*
X162279068Y-96442729D01*
X162315000Y-96262089D01*
X162315000Y-96077911D01*
X162279068Y-95897271D01*
X162208586Y-95727111D01*
X162106262Y-95573972D01*
X161976028Y-95443738D01*
X161822889Y-95341414D01*
X161652729Y-95270932D01*
X161507146Y-95241973D01*
X161535000Y-95101939D01*
X161535000Y-94898061D01*
X161495226Y-94698102D01*
X161417205Y-94509744D01*
X161303937Y-94340226D01*
X161159774Y-94196063D01*
X160990256Y-94082795D01*
X160801898Y-94004774D01*
X160601939Y-93965000D01*
X160427666Y-93965000D01*
X160495226Y-93801898D01*
X160535000Y-93601939D01*
X160535000Y-93398061D01*
X160495226Y-93198102D01*
X160417205Y-93009744D01*
X160303937Y-92840226D01*
X160159774Y-92696063D01*
X159990256Y-92582795D01*
X159801898Y-92504774D01*
X159601939Y-92465000D01*
X159398061Y-92465000D01*
X159198102Y-92504774D01*
X159009744Y-92582795D01*
X158840226Y-92696063D01*
X158696063Y-92840226D01*
X158582795Y-93009744D01*
X158504774Y-93198102D01*
X158465000Y-93398061D01*
X158465000Y-93601939D01*
X158504774Y-93801898D01*
X158582795Y-93990256D01*
X158696063Y-94159774D01*
X158786289Y-94250000D01*
X158750000Y-94286289D01*
X158659774Y-94196063D01*
X158490256Y-94082795D01*
X158301898Y-94004774D01*
X158101939Y-93965000D01*
X157898061Y-93965000D01*
X157698102Y-94004774D01*
X157509744Y-94082795D01*
X157489867Y-94096076D01*
X157482889Y-94091414D01*
X157378504Y-94048177D01*
X157417205Y-93990256D01*
X157495226Y-93801898D01*
X157535000Y-93601939D01*
X157535000Y-93398061D01*
X157495226Y-93198102D01*
X157417205Y-93009744D01*
X157303937Y-92840226D01*
X157159774Y-92696063D01*
X156990256Y-92582795D01*
X156801898Y-92504774D01*
X156601939Y-92465000D01*
X156398061Y-92465000D01*
X156198102Y-92504774D01*
X156009744Y-92582795D01*
X155840226Y-92696063D01*
X155696063Y-92840226D01*
X155582795Y-93009744D01*
X155504774Y-93198102D01*
X155465000Y-93398061D01*
X155465000Y-93601939D01*
X155504774Y-93801898D01*
X155582795Y-93990256D01*
X155696063Y-94159774D01*
X155840226Y-94303937D01*
X156009744Y-94417205D01*
X156198102Y-94495226D01*
X156203468Y-94496293D01*
X156140932Y-94647271D01*
X156105000Y-94827911D01*
X156105000Y-95012089D01*
X156140932Y-95192729D01*
X156211414Y-95362889D01*
X156313738Y-95516028D01*
X156443972Y-95646262D01*
X156597111Y-95748586D01*
X156767271Y-95819068D01*
X156947911Y-95855000D01*
X157132089Y-95855000D01*
X157312729Y-95819068D01*
X157343683Y-95806247D01*
X157509744Y-95917205D01*
X157698102Y-95995226D01*
X157898061Y-96035000D01*
X158101939Y-96035000D01*
X158301898Y-95995226D01*
X158490256Y-95917205D01*
X158659774Y-95803937D01*
X158750000Y-95713711D01*
X158840226Y-95803937D01*
X159009744Y-95917205D01*
X159198102Y-95995226D01*
X159398061Y-96035000D01*
X159601939Y-96035000D01*
X159801898Y-95995226D01*
X159990256Y-95917205D01*
X160000000Y-95910694D01*
X160009744Y-95917205D01*
X160198102Y-95995226D01*
X160398061Y-96035000D01*
X160453536Y-96035000D01*
X160445000Y-96077911D01*
X160445000Y-96262089D01*
X160480932Y-96442729D01*
X160551414Y-96612889D01*
X160569552Y-96640034D01*
X160531414Y-96697111D01*
X160460932Y-96867271D01*
X160425000Y-97047911D01*
X160425000Y-97232089D01*
X160460932Y-97412729D01*
X160531414Y-97582889D01*
X160556211Y-97620000D01*
X160531414Y-97657111D01*
X160460932Y-97827271D01*
X160425000Y-98007911D01*
X160425000Y-98192089D01*
X160460932Y-98372729D01*
X160531414Y-98542889D01*
X160633738Y-98696028D01*
X160763972Y-98826262D01*
X160917111Y-98928586D01*
X161087271Y-98999068D01*
X161267911Y-99035000D01*
X161452089Y-99035000D01*
X161632729Y-98999068D01*
X161802889Y-98928586D01*
X161914833Y-98853788D01*
X162009744Y-98917205D01*
X162198102Y-98995226D01*
X162398061Y-99035000D01*
X162601939Y-99035000D01*
X162801898Y-98995226D01*
X162990256Y-98917205D01*
X163000000Y-98910694D01*
X163009744Y-98917205D01*
X163198102Y-98995226D01*
X163398061Y-99035000D01*
X163601939Y-99035000D01*
X163801898Y-98995226D01*
X163990256Y-98917205D01*
X164000000Y-98910694D01*
X164009744Y-98917205D01*
X164198102Y-98995226D01*
X164398061Y-99035000D01*
X164601939Y-99035000D01*
X164801898Y-98995226D01*
X164873000Y-98965774D01*
X164873000Y-100258261D01*
X164802889Y-100211414D01*
X164632729Y-100140932D01*
X164473326Y-100109224D01*
X164449068Y-99987271D01*
X164378586Y-99817111D01*
X164276262Y-99663972D01*
X164146028Y-99533738D01*
X163992889Y-99431414D01*
X163822729Y-99360932D01*
X163642089Y-99325000D01*
X163457911Y-99325000D01*
X163277271Y-99360932D01*
X163107111Y-99431414D01*
X162953972Y-99533738D01*
X162940000Y-99547710D01*
X162926028Y-99533738D01*
X162772889Y-99431414D01*
X162602729Y-99360932D01*
X162422089Y-99325000D01*
X162237911Y-99325000D01*
X162057271Y-99360932D01*
X161887111Y-99431414D01*
X161733972Y-99533738D01*
X161603738Y-99663972D01*
X161501414Y-99817111D01*
X161437736Y-99970845D01*
X161429068Y-99927271D01*
X161358586Y-99757111D01*
X161256262Y-99603972D01*
X161126028Y-99473738D01*
X160972889Y-99371414D01*
X160802729Y-99300932D01*
X160622089Y-99265000D01*
X160437911Y-99265000D01*
X160257271Y-99300932D01*
X160087111Y-99371414D01*
X159933972Y-99473738D01*
X159803738Y-99603972D01*
X159701414Y-99757111D01*
X159630932Y-99927271D01*
X159595000Y-100107911D01*
X159595000Y-100292089D01*
X159630932Y-100472729D01*
X159701414Y-100642889D01*
X159803738Y-100796028D01*
X159933972Y-100926262D01*
X160087111Y-101028586D01*
X160257271Y-101099068D01*
X160437911Y-101135000D01*
X160459415Y-101135000D01*
X160425020Y-101307911D01*
X160425020Y-101492089D01*
X160460952Y-101672729D01*
X160531434Y-101842889D01*
X160633758Y-101996028D01*
X160763992Y-102126262D01*
X160917131Y-102228586D01*
X161087291Y-102299068D01*
X161212346Y-102323943D01*
X161196063Y-102340226D01*
X161082795Y-102509744D01*
X161004774Y-102698102D01*
X160965000Y-102898061D01*
X160965000Y-103101939D01*
X161004774Y-103301898D01*
X161082795Y-103490256D01*
X161196063Y-103659774D01*
X161286289Y-103750000D01*
X161196063Y-103840226D01*
X161082795Y-104009744D01*
X161004774Y-104198102D01*
X160965000Y-104398061D01*
X160965000Y-104601939D01*
X161004774Y-104801898D01*
X161082795Y-104990256D01*
X161196063Y-105159774D01*
X161286289Y-105250000D01*
X161196063Y-105340226D01*
X161082795Y-105509744D01*
X161061005Y-105562349D01*
X160912729Y-105500932D01*
X160732089Y-105465000D01*
X160547911Y-105465000D01*
X160367271Y-105500932D01*
X160197111Y-105571414D01*
X160043972Y-105673738D01*
X159913738Y-105803972D01*
X159811414Y-105957111D01*
X159740932Y-106127271D01*
X159705000Y-106307911D01*
X159705000Y-106485500D01*
X159601939Y-106465000D01*
X159398061Y-106465000D01*
X159198102Y-106504774D01*
X159009744Y-106582795D01*
X158840226Y-106696063D01*
X158750000Y-106786289D01*
X158659774Y-106696063D01*
X158490256Y-106582795D01*
X158301898Y-106504774D01*
X158101939Y-106465000D01*
X157898061Y-106465000D01*
X157698102Y-106504774D01*
X157509744Y-106582795D01*
X157340226Y-106696063D01*
X157250000Y-106786289D01*
X157159774Y-106696063D01*
X156990256Y-106582795D01*
X156884612Y-106539035D01*
X156898549Y-106518176D01*
X156997271Y-106559068D01*
X157177911Y-106595000D01*
X157362089Y-106595000D01*
X157542729Y-106559068D01*
X157712889Y-106488586D01*
X157866028Y-106386262D01*
X157996262Y-106256028D01*
X158098586Y-106102889D01*
X158169068Y-105932729D01*
X158205000Y-105752089D01*
X158205000Y-105567911D01*
X158169068Y-105387271D01*
X158098586Y-105217111D01*
X157996262Y-105063972D01*
X157866028Y-104933738D01*
X157712889Y-104831414D01*
X157542729Y-104760932D01*
X157362089Y-104725000D01*
X157177911Y-104725000D01*
X156997271Y-104760932D01*
X156827111Y-104831414D01*
X156673972Y-104933738D01*
X156543738Y-105063972D01*
X156518535Y-105101691D01*
X156490256Y-105082795D01*
X156301898Y-105004774D01*
X156101939Y-104965000D01*
X155898061Y-104965000D01*
X155698102Y-105004774D01*
X155509744Y-105082795D01*
X155340226Y-105196063D01*
X155196063Y-105340226D01*
X155082795Y-105509744D01*
X155004774Y-105698102D01*
X154965000Y-105898061D01*
X154965000Y-106072334D01*
X154801898Y-106004774D01*
X154601939Y-105965000D01*
X154398061Y-105965000D01*
X154198102Y-106004774D01*
X154009744Y-106082795D01*
X153840226Y-106196063D01*
X153696063Y-106340226D01*
X153582795Y-106509744D01*
X153504774Y-106698102D01*
X153465000Y-106898061D01*
X153465000Y-107101939D01*
X153504774Y-107301898D01*
X153582795Y-107490256D01*
X153696063Y-107659774D01*
X153840226Y-107803937D01*
X154009744Y-107917205D01*
X154198102Y-107995226D01*
X154398061Y-108035000D01*
X154601939Y-108035000D01*
X154801898Y-107995226D01*
X154990256Y-107917205D01*
X155159774Y-107803937D01*
X155303937Y-107659774D01*
X155417205Y-107490256D01*
X155473875Y-107353444D01*
X155465000Y-107398061D01*
X155465000Y-107601939D01*
X155504774Y-107801898D01*
X155582795Y-107990256D01*
X155696063Y-108159774D01*
X155786289Y-108250000D01*
X155696063Y-108340226D01*
X155582795Y-108509744D01*
X155504774Y-108698102D01*
X155465000Y-108898061D01*
X155465000Y-109101939D01*
X155504774Y-109301898D01*
X155520556Y-109340000D01*
X152979444Y-109340000D01*
X152995226Y-109301898D01*
X153035000Y-109101939D01*
X153035000Y-108898061D01*
X152995226Y-108698102D01*
X152917205Y-108509744D01*
X152803937Y-108340226D01*
X152713711Y-108250000D01*
X152803937Y-108159774D01*
X152917205Y-107990256D01*
X152995226Y-107801898D01*
X153035000Y-107601939D01*
X153035000Y-107398061D01*
X152995226Y-107198102D01*
X152917205Y-107009744D01*
X152803937Y-106840226D01*
X152659774Y-106696063D01*
X152490256Y-106582795D01*
X152301898Y-106504774D01*
X152101939Y-106465000D01*
X151898061Y-106465000D01*
X151698102Y-106504774D01*
X151509744Y-106582795D01*
X151340226Y-106696063D01*
X151250000Y-106786289D01*
X151159774Y-106696063D01*
X150990256Y-106582795D01*
X150801898Y-106504774D01*
X150601939Y-106465000D01*
X150398061Y-106465000D01*
X150198102Y-106504774D01*
X150009744Y-106582795D01*
X149840226Y-106696063D01*
X149750000Y-106786289D01*
X149659774Y-106696063D01*
X149490256Y-106582795D01*
X149301898Y-106504774D01*
X149101939Y-106465000D01*
X148898061Y-106465000D01*
X148698102Y-106504774D01*
X148509744Y-106582795D01*
X148340226Y-106696063D01*
X148250000Y-106786289D01*
X148159774Y-106696063D01*
X147990256Y-106582795D01*
X147801898Y-106504774D01*
X147601939Y-106465000D01*
X147398061Y-106465000D01*
X147198102Y-106504774D01*
X147009744Y-106582795D01*
X146840226Y-106696063D01*
X146750000Y-106786289D01*
X146659774Y-106696063D01*
X146490256Y-106582795D01*
X146301898Y-106504774D01*
X146101939Y-106465000D01*
X145898061Y-106465000D01*
X145698102Y-106504774D01*
X145509744Y-106582795D01*
X145340226Y-106696063D01*
X145250000Y-106786289D01*
X145159774Y-106696063D01*
X144990256Y-106582795D01*
X144801898Y-106504774D01*
X144601939Y-106465000D01*
X144398061Y-106465000D01*
X144198102Y-106504774D01*
X144009744Y-106582795D01*
X143960965Y-106615388D01*
X143917205Y-106509744D01*
X143803937Y-106340226D01*
X143659774Y-106196063D01*
X143490256Y-106082795D01*
X143301898Y-106004774D01*
X143101939Y-105965000D01*
X143035000Y-105965000D01*
X143035000Y-105898061D01*
X142995226Y-105698102D01*
X142917205Y-105509744D01*
X142803937Y-105340226D01*
X142713711Y-105250000D01*
X142803937Y-105159774D01*
X142917205Y-104990256D01*
X142995226Y-104801898D01*
X143018301Y-104685891D01*
X143069143Y-104706951D01*
X143235293Y-104740000D01*
X143404699Y-104740000D01*
X143570849Y-104706951D01*
X143727359Y-104642122D01*
X143868214Y-104548005D01*
X143988001Y-104428218D01*
X144082118Y-104287363D01*
X144146947Y-104130853D01*
X144179996Y-103964703D01*
X144179996Y-103897482D01*
X144200932Y-104002733D01*
X144271414Y-104172893D01*
X144373738Y-104326032D01*
X144503972Y-104456266D01*
X144657111Y-104558590D01*
X144827271Y-104629072D01*
X145007911Y-104665004D01*
X145192089Y-104665004D01*
X145372729Y-104629072D01*
X145542889Y-104558590D01*
X145696028Y-104456266D01*
X145826262Y-104326032D01*
X145928586Y-104172893D01*
X145999068Y-104002733D01*
X146035000Y-103822093D01*
X146035000Y-103637915D01*
X145999068Y-103457275D01*
X145928586Y-103287115D01*
X145826262Y-103133976D01*
X145696028Y-103003742D01*
X145542889Y-102901418D01*
X145372729Y-102830936D01*
X145192089Y-102795004D01*
X145007911Y-102795004D01*
X144827271Y-102830936D01*
X144657111Y-102901418D01*
X144503972Y-103003742D01*
X144373738Y-103133976D01*
X144271414Y-103287115D01*
X144200932Y-103457275D01*
X144165000Y-103637915D01*
X144165000Y-103719906D01*
X144146947Y-103629147D01*
X144082118Y-103472637D01*
X143988001Y-103331782D01*
X143868214Y-103211995D01*
X143727359Y-103117878D01*
X143570849Y-103053049D01*
X143404699Y-103020000D01*
X143235293Y-103020000D01*
X143069143Y-103053049D01*
X142912633Y-103117878D01*
X142771778Y-103211995D01*
X142651991Y-103331782D01*
X142557874Y-103472637D01*
X142507478Y-103594302D01*
X142490256Y-103582795D01*
X142301898Y-103504774D01*
X142101939Y-103465000D01*
X141898061Y-103465000D01*
X141698102Y-103504774D01*
X141509744Y-103582795D01*
X141340226Y-103696063D01*
X141250000Y-103786289D01*
X141159774Y-103696063D01*
X140990256Y-103582795D01*
X140801898Y-103504774D01*
X140601939Y-103465000D01*
X140398061Y-103465000D01*
X140198102Y-103504774D01*
X140009744Y-103582795D01*
X139960965Y-103615388D01*
X139917205Y-103509744D01*
X139803937Y-103340226D01*
X139659774Y-103196063D01*
X139490256Y-103082795D01*
X139301898Y-103004774D01*
X139101939Y-102965000D01*
X138898061Y-102965000D01*
X138888570Y-102966888D01*
X138803937Y-102840226D01*
X138659774Y-102696063D01*
X138490256Y-102582795D01*
X138301898Y-102504774D01*
X138101939Y-102465000D01*
X137898061Y-102465000D01*
X137698102Y-102504774D01*
X137509744Y-102582795D01*
X137422316Y-102641212D01*
X137302889Y-102561414D01*
X137132729Y-102490932D01*
X136952089Y-102455000D01*
X136767911Y-102455000D01*
X136587271Y-102490932D01*
X136417111Y-102561414D01*
X136263972Y-102663738D01*
X136133738Y-102793972D01*
X136031414Y-102947111D01*
X135960932Y-103117271D01*
X135925000Y-103297911D01*
X135925000Y-103482089D01*
X135960932Y-103662729D01*
X136031414Y-103832889D01*
X136133738Y-103986028D01*
X136263972Y-104116262D01*
X136417111Y-104218586D01*
X136587271Y-104289068D01*
X136767911Y-104325000D01*
X136952089Y-104325000D01*
X137132729Y-104289068D01*
X137268938Y-104232649D01*
X137340226Y-104303937D01*
X137509744Y-104417205D01*
X137698102Y-104495226D01*
X137898061Y-104535000D01*
X138101939Y-104535000D01*
X138111430Y-104533112D01*
X138196063Y-104659774D01*
X138340226Y-104803937D01*
X138509744Y-104917205D01*
X138698102Y-104995226D01*
X138898061Y-105035000D01*
X139101939Y-105035000D01*
X139301898Y-104995226D01*
X139490256Y-104917205D01*
X139539035Y-104884612D01*
X139582795Y-104990256D01*
X139696063Y-105159774D01*
X139840226Y-105303937D01*
X140009744Y-105417205D01*
X140146556Y-105473875D01*
X140101939Y-105465000D01*
X139898061Y-105465000D01*
X139698102Y-105504774D01*
X139509744Y-105582795D01*
X139340226Y-105696063D01*
X139196063Y-105840226D01*
X139082795Y-106009744D01*
X139004774Y-106198102D01*
X138965000Y-106398061D01*
X138965000Y-106601939D01*
X139004774Y-106801898D01*
X139082795Y-106990256D01*
X139196063Y-107159774D01*
X139340226Y-107303937D01*
X139509744Y-107417205D01*
X139698102Y-107495226D01*
X139898061Y-107535000D01*
X140101939Y-107535000D01*
X140301898Y-107495226D01*
X140490256Y-107417205D01*
X140659774Y-107303937D01*
X140803937Y-107159774D01*
X140917205Y-106990256D01*
X140995226Y-106801898D01*
X141035000Y-106601939D01*
X141035000Y-106398061D01*
X141026125Y-106353444D01*
X141082795Y-106490256D01*
X141196063Y-106659774D01*
X141340226Y-106803937D01*
X141509744Y-106917205D01*
X141698102Y-106995226D01*
X141898061Y-107035000D01*
X141965000Y-107035000D01*
X141965000Y-107101939D01*
X142004774Y-107301898D01*
X142082795Y-107490256D01*
X142196063Y-107659774D01*
X142340226Y-107803937D01*
X142509744Y-107917205D01*
X142698102Y-107995226D01*
X142898061Y-108035000D01*
X143101939Y-108035000D01*
X143301898Y-107995226D01*
X143490256Y-107917205D01*
X143539035Y-107884612D01*
X143582795Y-107990256D01*
X143696063Y-108159774D01*
X143786289Y-108250000D01*
X143696063Y-108340226D01*
X143582795Y-108509744D01*
X143504774Y-108698102D01*
X143465000Y-108898061D01*
X143465000Y-109101939D01*
X143504774Y-109301898D01*
X143520556Y-109340000D01*
X140979444Y-109340000D01*
X140995226Y-109301898D01*
X141035000Y-109101939D01*
X141035000Y-108898061D01*
X140995226Y-108698102D01*
X140917205Y-108509744D01*
X140803937Y-108340226D01*
X140659774Y-108196063D01*
X140490256Y-108082795D01*
X140301898Y-108004774D01*
X140101939Y-107965000D01*
X139898061Y-107965000D01*
X139698102Y-108004774D01*
X139509744Y-108082795D01*
X139340226Y-108196063D01*
X139250000Y-108286289D01*
X139159774Y-108196063D01*
X138990256Y-108082795D01*
X138801898Y-108004774D01*
X138601939Y-107965000D01*
X138398061Y-107965000D01*
X138198102Y-108004774D01*
X138009744Y-108082795D01*
X137840226Y-108196063D01*
X137750000Y-108286289D01*
X137659774Y-108196063D01*
X137490256Y-108082795D01*
X137301898Y-108004774D01*
X137101939Y-107965000D01*
X136898061Y-107965000D01*
X136698102Y-108004774D01*
X136509744Y-108082795D01*
X136340226Y-108196063D01*
X136250000Y-108286289D01*
X136159774Y-108196063D01*
X135990256Y-108082795D01*
X135801898Y-108004774D01*
X135601939Y-107965000D01*
X135398061Y-107965000D01*
X135198102Y-108004774D01*
X135009744Y-108082795D01*
X134840226Y-108196063D01*
X134750000Y-108286289D01*
X134659774Y-108196063D01*
X134490256Y-108082795D01*
X134301898Y-108004774D01*
X134101939Y-107965000D01*
X133898061Y-107965000D01*
X133725313Y-107999361D01*
X133695226Y-107848102D01*
X133617205Y-107659744D01*
X133503937Y-107490226D01*
X133359774Y-107346063D01*
X133190256Y-107232795D01*
X133001898Y-107154774D01*
X132801939Y-107115000D01*
X132598061Y-107115000D01*
X132415000Y-107151413D01*
X132415000Y-106948061D01*
X132375226Y-106748102D01*
X132297205Y-106559744D01*
X132183937Y-106390226D01*
X132039774Y-106246063D01*
X131938002Y-106178061D01*
X135515000Y-106178061D01*
X135515000Y-106381939D01*
X135554774Y-106581898D01*
X135632795Y-106770256D01*
X135746063Y-106939774D01*
X135890226Y-107083937D01*
X136059744Y-107197205D01*
X136248102Y-107275226D01*
X136448061Y-107315000D01*
X136651939Y-107315000D01*
X136851898Y-107275226D01*
X137040256Y-107197205D01*
X137209774Y-107083937D01*
X137353937Y-106939774D01*
X137467205Y-106770256D01*
X137545226Y-106581898D01*
X137585000Y-106381939D01*
X137585000Y-106178061D01*
X137545226Y-105978102D01*
X137467205Y-105789744D01*
X137353937Y-105620226D01*
X137209774Y-105476063D01*
X137040256Y-105362795D01*
X136851898Y-105284774D01*
X136651939Y-105245000D01*
X136448061Y-105245000D01*
X136248102Y-105284774D01*
X136059744Y-105362795D01*
X135890226Y-105476063D01*
X135746063Y-105620226D01*
X135632795Y-105789744D01*
X135554774Y-105978102D01*
X135515000Y-106178061D01*
X131938002Y-106178061D01*
X131870256Y-106132795D01*
X131681898Y-106054774D01*
X131481939Y-106015000D01*
X131278061Y-106015000D01*
X131078102Y-106054774D01*
X130889744Y-106132795D01*
X130720226Y-106246063D01*
X130660000Y-106306289D01*
X130660000Y-103773711D01*
X130690226Y-103803937D01*
X130859744Y-103917205D01*
X131048102Y-103995226D01*
X131248061Y-104035000D01*
X131451939Y-104035000D01*
X131651898Y-103995226D01*
X131840256Y-103917205D01*
X132009774Y-103803937D01*
X132153937Y-103659774D01*
X132267205Y-103490256D01*
X132345226Y-103301898D01*
X132385000Y-103101939D01*
X132385000Y-102898061D01*
X132345226Y-102698102D01*
X132267205Y-102509744D01*
X132153937Y-102340226D01*
X132009774Y-102196063D01*
X131840256Y-102082795D01*
X131651898Y-102004774D01*
X131451939Y-101965000D01*
X131248061Y-101965000D01*
X131048102Y-102004774D01*
X130859744Y-102082795D01*
X130690226Y-102196063D01*
X130660000Y-102226289D01*
X130660000Y-101447911D01*
X138205012Y-101447911D01*
X138205012Y-101632089D01*
X138240944Y-101812729D01*
X138311426Y-101982889D01*
X138413750Y-102136028D01*
X138543984Y-102266262D01*
X138697123Y-102368586D01*
X138867283Y-102439068D01*
X139047923Y-102475000D01*
X139232101Y-102475000D01*
X139412741Y-102439068D01*
X139582901Y-102368586D01*
X139736040Y-102266262D01*
X139866274Y-102136028D01*
X139968598Y-101982889D01*
X140025590Y-101845297D01*
X142459998Y-101845297D01*
X142459998Y-102014703D01*
X142493047Y-102180853D01*
X142557876Y-102337363D01*
X142651993Y-102478218D01*
X142771780Y-102598005D01*
X142912635Y-102692122D01*
X143069145Y-102756951D01*
X143235295Y-102790000D01*
X143404701Y-102790000D01*
X143570851Y-102756951D01*
X143727361Y-102692122D01*
X143748629Y-102677911D01*
X147905000Y-102677911D01*
X147905000Y-102862089D01*
X147940932Y-103042729D01*
X148011414Y-103212889D01*
X148113738Y-103366028D01*
X148243972Y-103496262D01*
X148397111Y-103598586D01*
X148567271Y-103669068D01*
X148747911Y-103705000D01*
X148932089Y-103705000D01*
X149112729Y-103669068D01*
X149282889Y-103598586D01*
X149436028Y-103496262D01*
X149566262Y-103366028D01*
X149668586Y-103212889D01*
X149739068Y-103042729D01*
X149775000Y-102862089D01*
X149775000Y-102677911D01*
X149739068Y-102497271D01*
X149668586Y-102327111D01*
X149566262Y-102173972D01*
X149436028Y-102043738D01*
X149282889Y-101941414D01*
X149112729Y-101870932D01*
X148932089Y-101835000D01*
X148747911Y-101835000D01*
X148567271Y-101870932D01*
X148397111Y-101941414D01*
X148243972Y-102043738D01*
X148113738Y-102173972D01*
X148011414Y-102327111D01*
X147940932Y-102497271D01*
X147905000Y-102677911D01*
X143748629Y-102677911D01*
X143868216Y-102598005D01*
X143988003Y-102478218D01*
X144082120Y-102337363D01*
X144146949Y-102180853D01*
X144179998Y-102014703D01*
X144179998Y-101845297D01*
X144146949Y-101679147D01*
X144082120Y-101522637D01*
X143988003Y-101381782D01*
X143868216Y-101261995D01*
X143727361Y-101167878D01*
X143570851Y-101103049D01*
X143404701Y-101070000D01*
X143235295Y-101070000D01*
X143069145Y-101103049D01*
X142912635Y-101167878D01*
X142771780Y-101261995D01*
X142651993Y-101381782D01*
X142557876Y-101522637D01*
X142493047Y-101679147D01*
X142459998Y-101845297D01*
X140025590Y-101845297D01*
X140039080Y-101812729D01*
X140075012Y-101632089D01*
X140075012Y-101447911D01*
X140039080Y-101267271D01*
X139968598Y-101097111D01*
X139866274Y-100943972D01*
X139736040Y-100813738D01*
X139582901Y-100711414D01*
X139412741Y-100640932D01*
X139232101Y-100605000D01*
X139047923Y-100605000D01*
X138867283Y-100640932D01*
X138697123Y-100711414D01*
X138543984Y-100813738D01*
X138413750Y-100943972D01*
X138311426Y-101097111D01*
X138240944Y-101267271D01*
X138205012Y-101447911D01*
X130660000Y-101447911D01*
X130660000Y-99417911D01*
X139165000Y-99417911D01*
X139165000Y-99602089D01*
X139200932Y-99782729D01*
X139271414Y-99952889D01*
X139373738Y-100106028D01*
X139503972Y-100236262D01*
X139657111Y-100338586D01*
X139827271Y-100409068D01*
X140007911Y-100445000D01*
X140192089Y-100445000D01*
X140372729Y-100409068D01*
X140542889Y-100338586D01*
X140696028Y-100236262D01*
X140826262Y-100106028D01*
X140928586Y-99952889D01*
X140999068Y-99782729D01*
X141035000Y-99602089D01*
X141035000Y-99417911D01*
X140999068Y-99237271D01*
X140928586Y-99067111D01*
X140826262Y-98913972D01*
X140696028Y-98783738D01*
X140542889Y-98681414D01*
X140372729Y-98610932D01*
X140192089Y-98575000D01*
X140007911Y-98575000D01*
X139827271Y-98610932D01*
X139657111Y-98681414D01*
X139503972Y-98783738D01*
X139373738Y-98913972D01*
X139271414Y-99067111D01*
X139200932Y-99237271D01*
X139165000Y-99417911D01*
X130660000Y-99417911D01*
X130660000Y-97773711D01*
X130690226Y-97803937D01*
X130859744Y-97917205D01*
X131048102Y-97995226D01*
X131248061Y-98035000D01*
X131451939Y-98035000D01*
X131651898Y-97995226D01*
X131840256Y-97917205D01*
X132009774Y-97803937D01*
X132153937Y-97659774D01*
X132221999Y-97557911D01*
X134975000Y-97557911D01*
X134975000Y-97742089D01*
X135010932Y-97922729D01*
X135081414Y-98092889D01*
X135183738Y-98246028D01*
X135313972Y-98376262D01*
X135467111Y-98478586D01*
X135637271Y-98549068D01*
X135817911Y-98585000D01*
X136002089Y-98585000D01*
X136182729Y-98549068D01*
X136352889Y-98478586D01*
X136506028Y-98376262D01*
X136636262Y-98246028D01*
X136738586Y-98092889D01*
X136809068Y-97922729D01*
X136845000Y-97742089D01*
X136845000Y-97557911D01*
X136838069Y-97523067D01*
X136898061Y-97535000D01*
X137101939Y-97535000D01*
X137301898Y-97495226D01*
X137490256Y-97417205D01*
X137659774Y-97303937D01*
X137803937Y-97159774D01*
X137917205Y-96990256D01*
X137960965Y-96884612D01*
X138009744Y-96917205D01*
X138198102Y-96995226D01*
X138398061Y-97035000D01*
X138601939Y-97035000D01*
X138801898Y-96995226D01*
X138990256Y-96917205D01*
X139159774Y-96803937D01*
X139250000Y-96713711D01*
X139340226Y-96803937D01*
X139509744Y-96917205D01*
X139698102Y-96995226D01*
X139898061Y-97035000D01*
X140101939Y-97035000D01*
X140301898Y-96995226D01*
X140319970Y-96987740D01*
X140273738Y-97033972D01*
X140171414Y-97187111D01*
X140100932Y-97357271D01*
X140065000Y-97537911D01*
X140065000Y-97722089D01*
X140100932Y-97902729D01*
X140171414Y-98072889D01*
X140273738Y-98226028D01*
X140403972Y-98356262D01*
X140557111Y-98458586D01*
X140727271Y-98529068D01*
X140907911Y-98565000D01*
X141092089Y-98565000D01*
X141272729Y-98529068D01*
X141442889Y-98458586D01*
X141596028Y-98356262D01*
X141726262Y-98226028D01*
X141828586Y-98072889D01*
X141899068Y-97902729D01*
X141935000Y-97722089D01*
X141935000Y-97537911D01*
X141899068Y-97357271D01*
X141828586Y-97187111D01*
X141726262Y-97033972D01*
X141706493Y-97014203D01*
X141801898Y-96995226D01*
X141965000Y-96927666D01*
X141965000Y-97101939D01*
X142004774Y-97301898D01*
X142082795Y-97490256D01*
X142196063Y-97659774D01*
X142340226Y-97803937D01*
X142356109Y-97814550D01*
X142267111Y-97851414D01*
X142113972Y-97953738D01*
X141983738Y-98083972D01*
X141881414Y-98237111D01*
X141810932Y-98407271D01*
X141775000Y-98587911D01*
X141775000Y-98772089D01*
X141810932Y-98952729D01*
X141881414Y-99122889D01*
X141983738Y-99276028D01*
X142113972Y-99406262D01*
X142267111Y-99508586D01*
X142437271Y-99579068D01*
X142617911Y-99615000D01*
X142802089Y-99615000D01*
X142982729Y-99579068D01*
X143152889Y-99508586D01*
X143306028Y-99406262D01*
X143436262Y-99276028D01*
X143538586Y-99122889D01*
X143609068Y-98952729D01*
X143645000Y-98772089D01*
X143645000Y-98587911D01*
X143609068Y-98407271D01*
X143538586Y-98237111D01*
X143436262Y-98083972D01*
X143334155Y-97981865D01*
X143490256Y-97917205D01*
X143659774Y-97803937D01*
X143750000Y-97713711D01*
X143840226Y-97803937D01*
X144009744Y-97917205D01*
X144198102Y-97995226D01*
X144398061Y-98035000D01*
X144601939Y-98035000D01*
X144801898Y-97995226D01*
X144990256Y-97917205D01*
X145159774Y-97803937D01*
X145250000Y-97713711D01*
X145340226Y-97803937D01*
X145509744Y-97917205D01*
X145698102Y-97995226D01*
X145898061Y-98035000D01*
X146101939Y-98035000D01*
X146301898Y-97995226D01*
X146490256Y-97917205D01*
X146659774Y-97803937D01*
X146750000Y-97713711D01*
X146840226Y-97803937D01*
X147009744Y-97917205D01*
X147198102Y-97995226D01*
X147398061Y-98035000D01*
X147601939Y-98035000D01*
X147801898Y-97995226D01*
X147990256Y-97917205D01*
X148159774Y-97803937D01*
X148250000Y-97713711D01*
X148340226Y-97803937D01*
X148509744Y-97917205D01*
X148698102Y-97995226D01*
X148898061Y-98035000D01*
X149101939Y-98035000D01*
X149301898Y-97995226D01*
X149490256Y-97917205D01*
X149659774Y-97803937D01*
X149663711Y-97800000D01*
X151661928Y-97800000D01*
X151661928Y-102200000D01*
X151674188Y-102324482D01*
X151710498Y-102444180D01*
X151769463Y-102554494D01*
X151848815Y-102651185D01*
X151945506Y-102730537D01*
X152055820Y-102789502D01*
X152175518Y-102825812D01*
X152300000Y-102838072D01*
X156700000Y-102838072D01*
X156824482Y-102825812D01*
X156944180Y-102789502D01*
X157054494Y-102730537D01*
X157094249Y-102697911D01*
X157665000Y-102697911D01*
X157665000Y-102882089D01*
X157700932Y-103062729D01*
X157771414Y-103232889D01*
X157873738Y-103386028D01*
X158003972Y-103516262D01*
X158157111Y-103618586D01*
X158327271Y-103689068D01*
X158507911Y-103725000D01*
X158692089Y-103725000D01*
X158872729Y-103689068D01*
X159042889Y-103618586D01*
X159196028Y-103516262D01*
X159326262Y-103386028D01*
X159428586Y-103232889D01*
X159499068Y-103062729D01*
X159535000Y-102882089D01*
X159535000Y-102697911D01*
X159499068Y-102517271D01*
X159428586Y-102347111D01*
X159326262Y-102193972D01*
X159196028Y-102063738D01*
X159042889Y-101961414D01*
X158872729Y-101890932D01*
X158692089Y-101855000D01*
X158507911Y-101855000D01*
X158327271Y-101890932D01*
X158157111Y-101961414D01*
X158003972Y-102063738D01*
X157873738Y-102193972D01*
X157771414Y-102347111D01*
X157700932Y-102517271D01*
X157665000Y-102697911D01*
X157094249Y-102697911D01*
X157151185Y-102651185D01*
X157230537Y-102554494D01*
X157289502Y-102444180D01*
X157325812Y-102324482D01*
X157338072Y-102200000D01*
X157338072Y-97800000D01*
X157325812Y-97675518D01*
X157289502Y-97555820D01*
X157230537Y-97445506D01*
X157151185Y-97348815D01*
X157054494Y-97269463D01*
X156944180Y-97210498D01*
X156824482Y-97174188D01*
X156700000Y-97161928D01*
X152300000Y-97161928D01*
X152175518Y-97174188D01*
X152055820Y-97210498D01*
X151945506Y-97269463D01*
X151848815Y-97348815D01*
X151769463Y-97445506D01*
X151710498Y-97555820D01*
X151674188Y-97675518D01*
X151661928Y-97800000D01*
X149663711Y-97800000D01*
X149803937Y-97659774D01*
X149917205Y-97490256D01*
X149995226Y-97301898D01*
X150035000Y-97101939D01*
X150035000Y-96927666D01*
X150198102Y-96995226D01*
X150398061Y-97035000D01*
X150601939Y-97035000D01*
X150801898Y-96995226D01*
X150990256Y-96917205D01*
X151159774Y-96803937D01*
X151303937Y-96659774D01*
X151417205Y-96490256D01*
X151471051Y-96360261D01*
X151493049Y-96470853D01*
X151557878Y-96627363D01*
X151651995Y-96768218D01*
X151771782Y-96888005D01*
X151912637Y-96982122D01*
X152069147Y-97046951D01*
X152235297Y-97080000D01*
X152404703Y-97080000D01*
X152570853Y-97046951D01*
X152660004Y-97010023D01*
X152749155Y-97046951D01*
X152915305Y-97080000D01*
X153084711Y-97080000D01*
X153250861Y-97046951D01*
X153407371Y-96982122D01*
X153548226Y-96888005D01*
X153668013Y-96768218D01*
X153762130Y-96627363D01*
X153826959Y-96470853D01*
X153860008Y-96304703D01*
X153860008Y-96135297D01*
X153829844Y-95983650D01*
X153990256Y-95917205D01*
X154152491Y-95808804D01*
X154177271Y-95819068D01*
X154357911Y-95855000D01*
X154542089Y-95855000D01*
X154722729Y-95819068D01*
X154892889Y-95748586D01*
X155046028Y-95646262D01*
X155176262Y-95516028D01*
X155278586Y-95362889D01*
X155349068Y-95192729D01*
X155385000Y-95012089D01*
X155385000Y-94827911D01*
X155349068Y-94647271D01*
X155278586Y-94477111D01*
X155176262Y-94323972D01*
X155046028Y-94193738D01*
X154892889Y-94091414D01*
X154722729Y-94020932D01*
X154542089Y-93985000D01*
X154419382Y-93985000D01*
X154495226Y-93801898D01*
X154535000Y-93601939D01*
X154535000Y-93398061D01*
X154495226Y-93198102D01*
X154417205Y-93009744D01*
X154303937Y-92840226D01*
X154159774Y-92696063D01*
X153990256Y-92582795D01*
X153801898Y-92504774D01*
X153601939Y-92465000D01*
X153398061Y-92465000D01*
X153198102Y-92504774D01*
X153009744Y-92582795D01*
X152840226Y-92696063D01*
X152696063Y-92840226D01*
X152582795Y-93009744D01*
X152504774Y-93198102D01*
X152465000Y-93398061D01*
X152465000Y-93601939D01*
X152504774Y-93801898D01*
X152582795Y-93990256D01*
X152696063Y-94159774D01*
X152786289Y-94250000D01*
X152750000Y-94286289D01*
X152659774Y-94196063D01*
X152490256Y-94082795D01*
X152301898Y-94004774D01*
X152101939Y-93965000D01*
X151898061Y-93965000D01*
X151698102Y-94004774D01*
X151509744Y-94082795D01*
X151340226Y-94196063D01*
X151196063Y-94340226D01*
X151082795Y-94509744D01*
X151004774Y-94698102D01*
X150965000Y-94898061D01*
X150965000Y-95072334D01*
X150801898Y-95004774D01*
X150601939Y-94965000D01*
X150398061Y-94965000D01*
X150198102Y-95004774D01*
X150009744Y-95082795D01*
X149840226Y-95196063D01*
X149696063Y-95340226D01*
X149582795Y-95509744D01*
X149504774Y-95698102D01*
X149465000Y-95898061D01*
X149465000Y-96072334D01*
X149301898Y-96004774D01*
X149101939Y-95965000D01*
X148898061Y-95965000D01*
X148698102Y-96004774D01*
X148509744Y-96082795D01*
X148340226Y-96196063D01*
X148250000Y-96286289D01*
X148159774Y-96196063D01*
X147990256Y-96082795D01*
X147801898Y-96004774D01*
X147601939Y-95965000D01*
X147398061Y-95965000D01*
X147198102Y-96004774D01*
X147009744Y-96082795D01*
X146840226Y-96196063D01*
X146750000Y-96286289D01*
X146659774Y-96196063D01*
X146490256Y-96082795D01*
X146301898Y-96004774D01*
X146101939Y-95965000D01*
X145898061Y-95965000D01*
X145698102Y-96004774D01*
X145509744Y-96082795D01*
X145340226Y-96196063D01*
X145250000Y-96286289D01*
X145159774Y-96196063D01*
X144990256Y-96082795D01*
X144801898Y-96004774D01*
X144601939Y-95965000D01*
X144398061Y-95965000D01*
X144198102Y-96004774D01*
X144009744Y-96082795D01*
X143840226Y-96196063D01*
X143750000Y-96286289D01*
X143659774Y-96196063D01*
X143490256Y-96082795D01*
X143301898Y-96004774D01*
X143101939Y-95965000D01*
X142898061Y-95965000D01*
X142698102Y-96004774D01*
X142535000Y-96072334D01*
X142535000Y-95898061D01*
X142495226Y-95698102D01*
X142417205Y-95509744D01*
X142303937Y-95340226D01*
X142159774Y-95196063D01*
X141990256Y-95082795D01*
X141801898Y-95004774D01*
X141601939Y-94965000D01*
X141398061Y-94965000D01*
X141198102Y-95004774D01*
X141009744Y-95082795D01*
X140840226Y-95196063D01*
X140750000Y-95286289D01*
X140659774Y-95196063D01*
X140490256Y-95082795D01*
X140301898Y-95004774D01*
X140101939Y-94965000D01*
X139898061Y-94965000D01*
X139698102Y-95004774D01*
X139509744Y-95082795D01*
X139340226Y-95196063D01*
X139250000Y-95286289D01*
X139159774Y-95196063D01*
X138990256Y-95082795D01*
X138801898Y-95004774D01*
X138601939Y-94965000D01*
X138398061Y-94965000D01*
X138198102Y-95004774D01*
X138009744Y-95082795D01*
X137840226Y-95196063D01*
X137696063Y-95340226D01*
X137582795Y-95509744D01*
X137539035Y-95615388D01*
X137490256Y-95582795D01*
X137301898Y-95504774D01*
X137101939Y-95465000D01*
X136898061Y-95465000D01*
X136698102Y-95504774D01*
X136509744Y-95582795D01*
X136340226Y-95696063D01*
X136196063Y-95840226D01*
X136082795Y-96009744D01*
X136004774Y-96198102D01*
X135965000Y-96398061D01*
X135965000Y-96601939D01*
X135987489Y-96715000D01*
X135817911Y-96715000D01*
X135637271Y-96750932D01*
X135467111Y-96821414D01*
X135313972Y-96923738D01*
X135183738Y-97053972D01*
X135081414Y-97207111D01*
X135010932Y-97377271D01*
X134975000Y-97557911D01*
X132221999Y-97557911D01*
X132267205Y-97490256D01*
X132345226Y-97301898D01*
X132385000Y-97101939D01*
X132385000Y-96898061D01*
X132345226Y-96698102D01*
X132267205Y-96509744D01*
X132153937Y-96340226D01*
X132009774Y-96196063D01*
X131840256Y-96082795D01*
X131651898Y-96004774D01*
X131451939Y-95965000D01*
X131248061Y-95965000D01*
X131048102Y-96004774D01*
X130859744Y-96082795D01*
X130690226Y-96196063D01*
X130660000Y-96226289D01*
X130660000Y-93693711D01*
X130720226Y-93753937D01*
X130889744Y-93867205D01*
X131078102Y-93945226D01*
X131278061Y-93985000D01*
X131481939Y-93985000D01*
X131681898Y-93945226D01*
X131870256Y-93867205D01*
X132039774Y-93753937D01*
X132175650Y-93618061D01*
X135515000Y-93618061D01*
X135515000Y-93821939D01*
X135554774Y-94021898D01*
X135632795Y-94210256D01*
X135746063Y-94379774D01*
X135890226Y-94523937D01*
X136059744Y-94637205D01*
X136248102Y-94715226D01*
X136448061Y-94755000D01*
X136651939Y-94755000D01*
X136851898Y-94715226D01*
X137040256Y-94637205D01*
X137209774Y-94523937D01*
X137353937Y-94379774D01*
X137467205Y-94210256D01*
X137545226Y-94021898D01*
X137561666Y-93939247D01*
X137582795Y-93990256D01*
X137696063Y-94159774D01*
X137840226Y-94303937D01*
X138009744Y-94417205D01*
X138198102Y-94495226D01*
X138398061Y-94535000D01*
X138601939Y-94535000D01*
X138801898Y-94495226D01*
X138990256Y-94417205D01*
X139159774Y-94303937D01*
X139303937Y-94159774D01*
X139417205Y-93990256D01*
X139495226Y-93801898D01*
X139535000Y-93601939D01*
X139535000Y-93398061D01*
X140465000Y-93398061D01*
X140465000Y-93601939D01*
X140504774Y-93801898D01*
X140582795Y-93990256D01*
X140696063Y-94159774D01*
X140840226Y-94303937D01*
X141009744Y-94417205D01*
X141198102Y-94495226D01*
X141398061Y-94535000D01*
X141601939Y-94535000D01*
X141801898Y-94495226D01*
X141990256Y-94417205D01*
X142159774Y-94303937D01*
X142303937Y-94159774D01*
X142417205Y-93990256D01*
X142495226Y-93801898D01*
X142535000Y-93601939D01*
X142535000Y-93398061D01*
X143465000Y-93398061D01*
X143465000Y-93601939D01*
X143504774Y-93801898D01*
X143582795Y-93990256D01*
X143696063Y-94159774D01*
X143840226Y-94303937D01*
X144009744Y-94417205D01*
X144198102Y-94495226D01*
X144398061Y-94535000D01*
X144601939Y-94535000D01*
X144801898Y-94495226D01*
X144990256Y-94417205D01*
X145159774Y-94303937D01*
X145303937Y-94159774D01*
X145417205Y-93990256D01*
X145495226Y-93801898D01*
X145535000Y-93601939D01*
X145535000Y-93398061D01*
X146465000Y-93398061D01*
X146465000Y-93601939D01*
X146504774Y-93801898D01*
X146582795Y-93990256D01*
X146696063Y-94159774D01*
X146840226Y-94303937D01*
X147009744Y-94417205D01*
X147198102Y-94495226D01*
X147398061Y-94535000D01*
X147601939Y-94535000D01*
X147801898Y-94495226D01*
X147990256Y-94417205D01*
X148159774Y-94303937D01*
X148303937Y-94159774D01*
X148417205Y-93990256D01*
X148495226Y-93801898D01*
X148535000Y-93601939D01*
X148535000Y-93398061D01*
X149465000Y-93398061D01*
X149465000Y-93601939D01*
X149504774Y-93801898D01*
X149582795Y-93990256D01*
X149696063Y-94159774D01*
X149840226Y-94303937D01*
X150009744Y-94417205D01*
X150198102Y-94495226D01*
X150398061Y-94535000D01*
X150601939Y-94535000D01*
X150801898Y-94495226D01*
X150990256Y-94417205D01*
X151159774Y-94303937D01*
X151303937Y-94159774D01*
X151417205Y-93990256D01*
X151495226Y-93801898D01*
X151535000Y-93601939D01*
X151535000Y-93398061D01*
X151495226Y-93198102D01*
X151417205Y-93009744D01*
X151303937Y-92840226D01*
X151159774Y-92696063D01*
X150990256Y-92582795D01*
X150801898Y-92504774D01*
X150601939Y-92465000D01*
X150398061Y-92465000D01*
X150198102Y-92504774D01*
X150009744Y-92582795D01*
X149840226Y-92696063D01*
X149696063Y-92840226D01*
X149582795Y-93009744D01*
X149504774Y-93198102D01*
X149465000Y-93398061D01*
X148535000Y-93398061D01*
X148495226Y-93198102D01*
X148417205Y-93009744D01*
X148303937Y-92840226D01*
X148159774Y-92696063D01*
X147990256Y-92582795D01*
X147801898Y-92504774D01*
X147601939Y-92465000D01*
X147398061Y-92465000D01*
X147198102Y-92504774D01*
X147009744Y-92582795D01*
X146840226Y-92696063D01*
X146696063Y-92840226D01*
X146582795Y-93009744D01*
X146504774Y-93198102D01*
X146465000Y-93398061D01*
X145535000Y-93398061D01*
X145495226Y-93198102D01*
X145417205Y-93009744D01*
X145303937Y-92840226D01*
X145159774Y-92696063D01*
X144990256Y-92582795D01*
X144801898Y-92504774D01*
X144601939Y-92465000D01*
X144398061Y-92465000D01*
X144198102Y-92504774D01*
X144009744Y-92582795D01*
X143840226Y-92696063D01*
X143696063Y-92840226D01*
X143582795Y-93009744D01*
X143504774Y-93198102D01*
X143465000Y-93398061D01*
X142535000Y-93398061D01*
X142495226Y-93198102D01*
X142417205Y-93009744D01*
X142303937Y-92840226D01*
X142159774Y-92696063D01*
X141990256Y-92582795D01*
X141801898Y-92504774D01*
X141601939Y-92465000D01*
X141398061Y-92465000D01*
X141198102Y-92504774D01*
X141009744Y-92582795D01*
X140840226Y-92696063D01*
X140696063Y-92840226D01*
X140582795Y-93009744D01*
X140504774Y-93198102D01*
X140465000Y-93398061D01*
X139535000Y-93398061D01*
X139495226Y-93198102D01*
X139417205Y-93009744D01*
X139303937Y-92840226D01*
X139159774Y-92696063D01*
X138990256Y-92582795D01*
X138801898Y-92504774D01*
X138601939Y-92465000D01*
X138398061Y-92465000D01*
X138198102Y-92504774D01*
X138009744Y-92582795D01*
X137840226Y-92696063D01*
X137696063Y-92840226D01*
X137582795Y-93009744D01*
X137504774Y-93198102D01*
X137488334Y-93280753D01*
X137467205Y-93229744D01*
X137353937Y-93060226D01*
X137209774Y-92916063D01*
X137040256Y-92802795D01*
X136851898Y-92724774D01*
X136651939Y-92685000D01*
X136448061Y-92685000D01*
X136248102Y-92724774D01*
X136059744Y-92802795D01*
X135890226Y-92916063D01*
X135746063Y-93060226D01*
X135632795Y-93229744D01*
X135554774Y-93418102D01*
X135515000Y-93618061D01*
X132175650Y-93618061D01*
X132183937Y-93609774D01*
X132297205Y-93440256D01*
X132375226Y-93251898D01*
X132415000Y-93051939D01*
X132415000Y-92848587D01*
X132598061Y-92885000D01*
X132801939Y-92885000D01*
X133001898Y-92845226D01*
X133190256Y-92767205D01*
X133359774Y-92653937D01*
X133503937Y-92509774D01*
X133617205Y-92340256D01*
X133695226Y-92151898D01*
X133725313Y-92000639D01*
X133898061Y-92035000D01*
X134101939Y-92035000D01*
X134301898Y-91995226D01*
X134490256Y-91917205D01*
X134659774Y-91803937D01*
X134750000Y-91713711D01*
X134840226Y-91803937D01*
X135009744Y-91917205D01*
X135198102Y-91995226D01*
X135398061Y-92035000D01*
X135601939Y-92035000D01*
X135801898Y-91995226D01*
X135990256Y-91917205D01*
X136159774Y-91803937D01*
X136250000Y-91713711D01*
X136340226Y-91803937D01*
X136509744Y-91917205D01*
X136698102Y-91995226D01*
X136898061Y-92035000D01*
X137101939Y-92035000D01*
X137301898Y-91995226D01*
X137490256Y-91917205D01*
X137659774Y-91803937D01*
X137750000Y-91713711D01*
X137840226Y-91803937D01*
X138009744Y-91917205D01*
X138198102Y-91995226D01*
X138398061Y-92035000D01*
X138601939Y-92035000D01*
X138801898Y-91995226D01*
X138990256Y-91917205D01*
X139159774Y-91803937D01*
X139250000Y-91713711D01*
X139340226Y-91803937D01*
X139509744Y-91917205D01*
X139698102Y-91995226D01*
X139898061Y-92035000D01*
X140101939Y-92035000D01*
X140301898Y-91995226D01*
X140490256Y-91917205D01*
X140659774Y-91803937D01*
X140750000Y-91713711D01*
X140840226Y-91803937D01*
X141009744Y-91917205D01*
X141198102Y-91995226D01*
X141398061Y-92035000D01*
X141601939Y-92035000D01*
X141801898Y-91995226D01*
X141990256Y-91917205D01*
X142159774Y-91803937D01*
X142250000Y-91713711D01*
X142340226Y-91803937D01*
X142509744Y-91917205D01*
X142698102Y-91995226D01*
X142898061Y-92035000D01*
X143101939Y-92035000D01*
X143301898Y-91995226D01*
X143490256Y-91917205D01*
X143659774Y-91803937D01*
X143750000Y-91713711D01*
X143840226Y-91803937D01*
X144009744Y-91917205D01*
X144198102Y-91995226D01*
X144398061Y-92035000D01*
X144601939Y-92035000D01*
X144801898Y-91995226D01*
X144990256Y-91917205D01*
X145159774Y-91803937D01*
X145250000Y-91713711D01*
X145340226Y-91803937D01*
X145509744Y-91917205D01*
X145698102Y-91995226D01*
X145898061Y-92035000D01*
X146101939Y-92035000D01*
X146301898Y-91995226D01*
X146490256Y-91917205D01*
X146659774Y-91803937D01*
X146750000Y-91713711D01*
X146840226Y-91803937D01*
X147009744Y-91917205D01*
X147198102Y-91995226D01*
X147398061Y-92035000D01*
X147601939Y-92035000D01*
X147801898Y-91995226D01*
X147990256Y-91917205D01*
X148159774Y-91803937D01*
X148250000Y-91713711D01*
X148340226Y-91803937D01*
X148509744Y-91917205D01*
X148698102Y-91995226D01*
X148898061Y-92035000D01*
X149101939Y-92035000D01*
X149301898Y-91995226D01*
X149490256Y-91917205D01*
X149659774Y-91803937D01*
X149750000Y-91713711D01*
X149840226Y-91803937D01*
X150009744Y-91917205D01*
X150198102Y-91995226D01*
X150398061Y-92035000D01*
X150601939Y-92035000D01*
X150801898Y-91995226D01*
X150990256Y-91917205D01*
X151159774Y-91803937D01*
X151250000Y-91713711D01*
X151340226Y-91803937D01*
X151509744Y-91917205D01*
X151698102Y-91995226D01*
X151898061Y-92035000D01*
X152101939Y-92035000D01*
X152301898Y-91995226D01*
X152490256Y-91917205D01*
X152659774Y-91803937D01*
X152750000Y-91713711D01*
X152840226Y-91803937D01*
X153009744Y-91917205D01*
X153198102Y-91995226D01*
X153398061Y-92035000D01*
X153601939Y-92035000D01*
X153801898Y-91995226D01*
X153990256Y-91917205D01*
X154159774Y-91803937D01*
X154250000Y-91713711D01*
X154340226Y-91803937D01*
X154509744Y-91917205D01*
X154698102Y-91995226D01*
X154898061Y-92035000D01*
X155101939Y-92035000D01*
X155301898Y-91995226D01*
X155490256Y-91917205D01*
X155659774Y-91803937D01*
X155750000Y-91713711D01*
X155840226Y-91803937D01*
X156009744Y-91917205D01*
X156198102Y-91995226D01*
X156398061Y-92035000D01*
X156601939Y-92035000D01*
X156801898Y-91995226D01*
X156990256Y-91917205D01*
X157159774Y-91803937D01*
X157250000Y-91713711D01*
X157340226Y-91803937D01*
X157509744Y-91917205D01*
X157698102Y-91995226D01*
X157898061Y-92035000D01*
X158101939Y-92035000D01*
X158301898Y-91995226D01*
X158490256Y-91917205D01*
X158659774Y-91803937D01*
X158750000Y-91713711D01*
X158840226Y-91803937D01*
X159009744Y-91917205D01*
X159198102Y-91995226D01*
X159398061Y-92035000D01*
X159601939Y-92035000D01*
X159801898Y-91995226D01*
X159990256Y-91917205D01*
X160159774Y-91803937D01*
X160250000Y-91713711D01*
X160340226Y-91803937D01*
X160509744Y-91917205D01*
X160698102Y-91995226D01*
X160898061Y-92035000D01*
X161101939Y-92035000D01*
X161301898Y-91995226D01*
X161490256Y-91917205D01*
X161659774Y-91803937D01*
X161750000Y-91713711D01*
X161840226Y-91803937D01*
X162009744Y-91917205D01*
X162198102Y-91995226D01*
X162398061Y-92035000D01*
X162601939Y-92035000D01*
X162801898Y-91995226D01*
X162990256Y-91917205D01*
X163159774Y-91803937D01*
X163250000Y-91713711D01*
X163340226Y-91803937D01*
%TA.AperFunction,Conductor*%
D15*
G36*
X163340226Y-91803937D02*
G01*
X163466888Y-91888570D01*
X163465000Y-91898061D01*
X163465000Y-92101939D01*
X163504774Y-92301898D01*
X163582795Y-92490256D01*
X163696063Y-92659774D01*
X163786289Y-92750000D01*
X163696063Y-92840226D01*
X163582795Y-93009744D01*
X163504774Y-93198102D01*
X163500000Y-93222103D01*
X163495226Y-93198102D01*
X163417205Y-93009744D01*
X163303937Y-92840226D01*
X163159774Y-92696063D01*
X162990256Y-92582795D01*
X162801898Y-92504774D01*
X162601939Y-92465000D01*
X162398061Y-92465000D01*
X162198102Y-92504774D01*
X162009744Y-92582795D01*
X161840226Y-92696063D01*
X161696063Y-92840226D01*
X161582795Y-93009744D01*
X161504774Y-93198102D01*
X161465000Y-93398061D01*
X161465000Y-93601939D01*
X161504774Y-93801898D01*
X161582795Y-93990256D01*
X161696063Y-94159774D01*
X161840226Y-94303937D01*
X162009744Y-94417205D01*
X162198102Y-94495226D01*
X162398061Y-94535000D01*
X162601939Y-94535000D01*
X162801898Y-94495226D01*
X162990256Y-94417205D01*
X163159774Y-94303937D01*
X163303937Y-94159774D01*
X163417205Y-93990256D01*
X163495226Y-93801898D01*
X163500000Y-93777897D01*
X163504774Y-93801898D01*
X163582795Y-93990256D01*
X163696063Y-94159774D01*
X163786289Y-94250000D01*
X163696063Y-94340226D01*
X163582795Y-94509744D01*
X163504774Y-94698102D01*
X163465000Y-94898061D01*
X163465000Y-95101939D01*
X163504774Y-95301898D01*
X163582795Y-95490256D01*
X163696063Y-95659774D01*
X163786289Y-95750000D01*
X163696063Y-95840226D01*
X163582795Y-96009744D01*
X163504774Y-96198102D01*
X163465000Y-96398061D01*
X163465000Y-96601939D01*
X163504774Y-96801898D01*
X163572334Y-96965000D01*
X163398061Y-96965000D01*
X163198102Y-97004774D01*
X163009744Y-97082795D01*
X163000000Y-97089306D01*
X162990256Y-97082795D01*
X162801898Y-97004774D01*
X162601939Y-96965000D01*
X162398061Y-96965000D01*
X162283058Y-96987875D01*
X162259068Y-96867271D01*
X162188586Y-96697111D01*
X162170448Y-96669966D01*
X162208586Y-96612889D01*
X162279068Y-96442729D01*
X162315000Y-96262089D01*
X162315000Y-96077911D01*
X162279068Y-95897271D01*
X162208586Y-95727111D01*
X162106262Y-95573972D01*
X161976028Y-95443738D01*
X161822889Y-95341414D01*
X161652729Y-95270932D01*
X161507146Y-95241973D01*
X161535000Y-95101939D01*
X161535000Y-94898061D01*
X161495226Y-94698102D01*
X161417205Y-94509744D01*
X161303937Y-94340226D01*
X161159774Y-94196063D01*
X160990256Y-94082795D01*
X160801898Y-94004774D01*
X160601939Y-93965000D01*
X160427666Y-93965000D01*
X160495226Y-93801898D01*
X160535000Y-93601939D01*
X160535000Y-93398061D01*
X160495226Y-93198102D01*
X160417205Y-93009744D01*
X160303937Y-92840226D01*
X160159774Y-92696063D01*
X159990256Y-92582795D01*
X159801898Y-92504774D01*
X159601939Y-92465000D01*
X159398061Y-92465000D01*
X159198102Y-92504774D01*
X159009744Y-92582795D01*
X158840226Y-92696063D01*
X158696063Y-92840226D01*
X158582795Y-93009744D01*
X158504774Y-93198102D01*
X158465000Y-93398061D01*
X158465000Y-93601939D01*
X158504774Y-93801898D01*
X158582795Y-93990256D01*
X158696063Y-94159774D01*
X158786289Y-94250000D01*
X158750000Y-94286289D01*
X158659774Y-94196063D01*
X158490256Y-94082795D01*
X158301898Y-94004774D01*
X158101939Y-93965000D01*
X157898061Y-93965000D01*
X157698102Y-94004774D01*
X157509744Y-94082795D01*
X157489867Y-94096076D01*
X157482889Y-94091414D01*
X157378504Y-94048177D01*
X157417205Y-93990256D01*
X157495226Y-93801898D01*
X157535000Y-93601939D01*
X157535000Y-93398061D01*
X157495226Y-93198102D01*
X157417205Y-93009744D01*
X157303937Y-92840226D01*
X157159774Y-92696063D01*
X156990256Y-92582795D01*
X156801898Y-92504774D01*
X156601939Y-92465000D01*
X156398061Y-92465000D01*
X156198102Y-92504774D01*
X156009744Y-92582795D01*
X155840226Y-92696063D01*
X155696063Y-92840226D01*
X155582795Y-93009744D01*
X155504774Y-93198102D01*
X155465000Y-93398061D01*
X155465000Y-93601939D01*
X155504774Y-93801898D01*
X155582795Y-93990256D01*
X155696063Y-94159774D01*
X155840226Y-94303937D01*
X156009744Y-94417205D01*
X156198102Y-94495226D01*
X156203468Y-94496293D01*
X156140932Y-94647271D01*
X156105000Y-94827911D01*
X156105000Y-95012089D01*
X156140932Y-95192729D01*
X156211414Y-95362889D01*
X156313738Y-95516028D01*
X156443972Y-95646262D01*
X156597111Y-95748586D01*
X156767271Y-95819068D01*
X156947911Y-95855000D01*
X157132089Y-95855000D01*
X157312729Y-95819068D01*
X157343683Y-95806247D01*
X157509744Y-95917205D01*
X157698102Y-95995226D01*
X157898061Y-96035000D01*
X158101939Y-96035000D01*
X158301898Y-95995226D01*
X158490256Y-95917205D01*
X158659774Y-95803937D01*
X158750000Y-95713711D01*
X158840226Y-95803937D01*
X159009744Y-95917205D01*
X159198102Y-95995226D01*
X159398061Y-96035000D01*
X159601939Y-96035000D01*
X159801898Y-95995226D01*
X159990256Y-95917205D01*
X160000000Y-95910694D01*
X160009744Y-95917205D01*
X160198102Y-95995226D01*
X160398061Y-96035000D01*
X160453536Y-96035000D01*
X160445000Y-96077911D01*
X160445000Y-96262089D01*
X160480932Y-96442729D01*
X160551414Y-96612889D01*
X160569552Y-96640034D01*
X160531414Y-96697111D01*
X160460932Y-96867271D01*
X160425000Y-97047911D01*
X160425000Y-97232089D01*
X160460932Y-97412729D01*
X160531414Y-97582889D01*
X160556211Y-97620000D01*
X160531414Y-97657111D01*
X160460932Y-97827271D01*
X160425000Y-98007911D01*
X160425000Y-98192089D01*
X160460932Y-98372729D01*
X160531414Y-98542889D01*
X160633738Y-98696028D01*
X160763972Y-98826262D01*
X160917111Y-98928586D01*
X161087271Y-98999068D01*
X161267911Y-99035000D01*
X161452089Y-99035000D01*
X161632729Y-98999068D01*
X161802889Y-98928586D01*
X161914833Y-98853788D01*
X162009744Y-98917205D01*
X162198102Y-98995226D01*
X162398061Y-99035000D01*
X162601939Y-99035000D01*
X162801898Y-98995226D01*
X162990256Y-98917205D01*
X163000000Y-98910694D01*
X163009744Y-98917205D01*
X163198102Y-98995226D01*
X163398061Y-99035000D01*
X163601939Y-99035000D01*
X163801898Y-98995226D01*
X163990256Y-98917205D01*
X164000000Y-98910694D01*
X164009744Y-98917205D01*
X164198102Y-98995226D01*
X164398061Y-99035000D01*
X164601939Y-99035000D01*
X164801898Y-98995226D01*
X164873000Y-98965774D01*
X164873000Y-100258261D01*
X164802889Y-100211414D01*
X164632729Y-100140932D01*
X164473326Y-100109224D01*
X164449068Y-99987271D01*
X164378586Y-99817111D01*
X164276262Y-99663972D01*
X164146028Y-99533738D01*
X163992889Y-99431414D01*
X163822729Y-99360932D01*
X163642089Y-99325000D01*
X163457911Y-99325000D01*
X163277271Y-99360932D01*
X163107111Y-99431414D01*
X162953972Y-99533738D01*
X162940000Y-99547710D01*
X162926028Y-99533738D01*
X162772889Y-99431414D01*
X162602729Y-99360932D01*
X162422089Y-99325000D01*
X162237911Y-99325000D01*
X162057271Y-99360932D01*
X161887111Y-99431414D01*
X161733972Y-99533738D01*
X161603738Y-99663972D01*
X161501414Y-99817111D01*
X161437736Y-99970845D01*
X161429068Y-99927271D01*
X161358586Y-99757111D01*
X161256262Y-99603972D01*
X161126028Y-99473738D01*
X160972889Y-99371414D01*
X160802729Y-99300932D01*
X160622089Y-99265000D01*
X160437911Y-99265000D01*
X160257271Y-99300932D01*
X160087111Y-99371414D01*
X159933972Y-99473738D01*
X159803738Y-99603972D01*
X159701414Y-99757111D01*
X159630932Y-99927271D01*
X159595000Y-100107911D01*
X159595000Y-100292089D01*
X159630932Y-100472729D01*
X159701414Y-100642889D01*
X159803738Y-100796028D01*
X159933972Y-100926262D01*
X160087111Y-101028586D01*
X160257271Y-101099068D01*
X160437911Y-101135000D01*
X160459415Y-101135000D01*
X160425020Y-101307911D01*
X160425020Y-101492089D01*
X160460952Y-101672729D01*
X160531434Y-101842889D01*
X160633758Y-101996028D01*
X160763992Y-102126262D01*
X160917131Y-102228586D01*
X161087291Y-102299068D01*
X161212346Y-102323943D01*
X161196063Y-102340226D01*
X161082795Y-102509744D01*
X161004774Y-102698102D01*
X160965000Y-102898061D01*
X160965000Y-103101939D01*
X161004774Y-103301898D01*
X161082795Y-103490256D01*
X161196063Y-103659774D01*
X161286289Y-103750000D01*
X161196063Y-103840226D01*
X161082795Y-104009744D01*
X161004774Y-104198102D01*
X160965000Y-104398061D01*
X160965000Y-104601939D01*
X161004774Y-104801898D01*
X161082795Y-104990256D01*
X161196063Y-105159774D01*
X161286289Y-105250000D01*
X161196063Y-105340226D01*
X161082795Y-105509744D01*
X161061005Y-105562349D01*
X160912729Y-105500932D01*
X160732089Y-105465000D01*
X160547911Y-105465000D01*
X160367271Y-105500932D01*
X160197111Y-105571414D01*
X160043972Y-105673738D01*
X159913738Y-105803972D01*
X159811414Y-105957111D01*
X159740932Y-106127271D01*
X159705000Y-106307911D01*
X159705000Y-106485500D01*
X159601939Y-106465000D01*
X159398061Y-106465000D01*
X159198102Y-106504774D01*
X159009744Y-106582795D01*
X158840226Y-106696063D01*
X158750000Y-106786289D01*
X158659774Y-106696063D01*
X158490256Y-106582795D01*
X158301898Y-106504774D01*
X158101939Y-106465000D01*
X157898061Y-106465000D01*
X157698102Y-106504774D01*
X157509744Y-106582795D01*
X157340226Y-106696063D01*
X157250000Y-106786289D01*
X157159774Y-106696063D01*
X156990256Y-106582795D01*
X156884612Y-106539035D01*
X156898549Y-106518176D01*
X156997271Y-106559068D01*
X157177911Y-106595000D01*
X157362089Y-106595000D01*
X157542729Y-106559068D01*
X157712889Y-106488586D01*
X157866028Y-106386262D01*
X157996262Y-106256028D01*
X158098586Y-106102889D01*
X158169068Y-105932729D01*
X158205000Y-105752089D01*
X158205000Y-105567911D01*
X158169068Y-105387271D01*
X158098586Y-105217111D01*
X157996262Y-105063972D01*
X157866028Y-104933738D01*
X157712889Y-104831414D01*
X157542729Y-104760932D01*
X157362089Y-104725000D01*
X157177911Y-104725000D01*
X156997271Y-104760932D01*
X156827111Y-104831414D01*
X156673972Y-104933738D01*
X156543738Y-105063972D01*
X156518535Y-105101691D01*
X156490256Y-105082795D01*
X156301898Y-105004774D01*
X156101939Y-104965000D01*
X155898061Y-104965000D01*
X155698102Y-105004774D01*
X155509744Y-105082795D01*
X155340226Y-105196063D01*
X155196063Y-105340226D01*
X155082795Y-105509744D01*
X155004774Y-105698102D01*
X154965000Y-105898061D01*
X154965000Y-106072334D01*
X154801898Y-106004774D01*
X154601939Y-105965000D01*
X154398061Y-105965000D01*
X154198102Y-106004774D01*
X154009744Y-106082795D01*
X153840226Y-106196063D01*
X153696063Y-106340226D01*
X153582795Y-106509744D01*
X153504774Y-106698102D01*
X153465000Y-106898061D01*
X153465000Y-107101939D01*
X153504774Y-107301898D01*
X153582795Y-107490256D01*
X153696063Y-107659774D01*
X153840226Y-107803937D01*
X154009744Y-107917205D01*
X154198102Y-107995226D01*
X154398061Y-108035000D01*
X154601939Y-108035000D01*
X154801898Y-107995226D01*
X154990256Y-107917205D01*
X155159774Y-107803937D01*
X155303937Y-107659774D01*
X155417205Y-107490256D01*
X155473875Y-107353444D01*
X155465000Y-107398061D01*
X155465000Y-107601939D01*
X155504774Y-107801898D01*
X155582795Y-107990256D01*
X155696063Y-108159774D01*
X155786289Y-108250000D01*
X155696063Y-108340226D01*
X155582795Y-108509744D01*
X155504774Y-108698102D01*
X155465000Y-108898061D01*
X155465000Y-109101939D01*
X155504774Y-109301898D01*
X155520556Y-109340000D01*
X152979444Y-109340000D01*
X152995226Y-109301898D01*
X153035000Y-109101939D01*
X153035000Y-108898061D01*
X152995226Y-108698102D01*
X152917205Y-108509744D01*
X152803937Y-108340226D01*
X152713711Y-108250000D01*
X152803937Y-108159774D01*
X152917205Y-107990256D01*
X152995226Y-107801898D01*
X153035000Y-107601939D01*
X153035000Y-107398061D01*
X152995226Y-107198102D01*
X152917205Y-107009744D01*
X152803937Y-106840226D01*
X152659774Y-106696063D01*
X152490256Y-106582795D01*
X152301898Y-106504774D01*
X152101939Y-106465000D01*
X151898061Y-106465000D01*
X151698102Y-106504774D01*
X151509744Y-106582795D01*
X151340226Y-106696063D01*
X151250000Y-106786289D01*
X151159774Y-106696063D01*
X150990256Y-106582795D01*
X150801898Y-106504774D01*
X150601939Y-106465000D01*
X150398061Y-106465000D01*
X150198102Y-106504774D01*
X150009744Y-106582795D01*
X149840226Y-106696063D01*
X149750000Y-106786289D01*
X149659774Y-106696063D01*
X149490256Y-106582795D01*
X149301898Y-106504774D01*
X149101939Y-106465000D01*
X148898061Y-106465000D01*
X148698102Y-106504774D01*
X148509744Y-106582795D01*
X148340226Y-106696063D01*
X148250000Y-106786289D01*
X148159774Y-106696063D01*
X147990256Y-106582795D01*
X147801898Y-106504774D01*
X147601939Y-106465000D01*
X147398061Y-106465000D01*
X147198102Y-106504774D01*
X147009744Y-106582795D01*
X146840226Y-106696063D01*
X146750000Y-106786289D01*
X146659774Y-106696063D01*
X146490256Y-106582795D01*
X146301898Y-106504774D01*
X146101939Y-106465000D01*
X145898061Y-106465000D01*
X145698102Y-106504774D01*
X145509744Y-106582795D01*
X145340226Y-106696063D01*
X145250000Y-106786289D01*
X145159774Y-106696063D01*
X144990256Y-106582795D01*
X144801898Y-106504774D01*
X144601939Y-106465000D01*
X144398061Y-106465000D01*
X144198102Y-106504774D01*
X144009744Y-106582795D01*
X143960965Y-106615388D01*
X143917205Y-106509744D01*
X143803937Y-106340226D01*
X143659774Y-106196063D01*
X143490256Y-106082795D01*
X143301898Y-106004774D01*
X143101939Y-105965000D01*
X143035000Y-105965000D01*
X143035000Y-105898061D01*
X142995226Y-105698102D01*
X142917205Y-105509744D01*
X142803937Y-105340226D01*
X142713711Y-105250000D01*
X142803937Y-105159774D01*
X142917205Y-104990256D01*
X142995226Y-104801898D01*
X143018301Y-104685891D01*
X143069143Y-104706951D01*
X143235293Y-104740000D01*
X143404699Y-104740000D01*
X143570849Y-104706951D01*
X143727359Y-104642122D01*
X143868214Y-104548005D01*
X143988001Y-104428218D01*
X144082118Y-104287363D01*
X144146947Y-104130853D01*
X144179996Y-103964703D01*
X144179996Y-103897482D01*
X144200932Y-104002733D01*
X144271414Y-104172893D01*
X144373738Y-104326032D01*
X144503972Y-104456266D01*
X144657111Y-104558590D01*
X144827271Y-104629072D01*
X145007911Y-104665004D01*
X145192089Y-104665004D01*
X145372729Y-104629072D01*
X145542889Y-104558590D01*
X145696028Y-104456266D01*
X145826262Y-104326032D01*
X145928586Y-104172893D01*
X145999068Y-104002733D01*
X146035000Y-103822093D01*
X146035000Y-103637915D01*
X145999068Y-103457275D01*
X145928586Y-103287115D01*
X145826262Y-103133976D01*
X145696028Y-103003742D01*
X145542889Y-102901418D01*
X145372729Y-102830936D01*
X145192089Y-102795004D01*
X145007911Y-102795004D01*
X144827271Y-102830936D01*
X144657111Y-102901418D01*
X144503972Y-103003742D01*
X144373738Y-103133976D01*
X144271414Y-103287115D01*
X144200932Y-103457275D01*
X144165000Y-103637915D01*
X144165000Y-103719906D01*
X144146947Y-103629147D01*
X144082118Y-103472637D01*
X143988001Y-103331782D01*
X143868214Y-103211995D01*
X143727359Y-103117878D01*
X143570849Y-103053049D01*
X143404699Y-103020000D01*
X143235293Y-103020000D01*
X143069143Y-103053049D01*
X142912633Y-103117878D01*
X142771778Y-103211995D01*
X142651991Y-103331782D01*
X142557874Y-103472637D01*
X142507478Y-103594302D01*
X142490256Y-103582795D01*
X142301898Y-103504774D01*
X142101939Y-103465000D01*
X141898061Y-103465000D01*
X141698102Y-103504774D01*
X141509744Y-103582795D01*
X141340226Y-103696063D01*
X141250000Y-103786289D01*
X141159774Y-103696063D01*
X140990256Y-103582795D01*
X140801898Y-103504774D01*
X140601939Y-103465000D01*
X140398061Y-103465000D01*
X140198102Y-103504774D01*
X140009744Y-103582795D01*
X139960965Y-103615388D01*
X139917205Y-103509744D01*
X139803937Y-103340226D01*
X139659774Y-103196063D01*
X139490256Y-103082795D01*
X139301898Y-103004774D01*
X139101939Y-102965000D01*
X138898061Y-102965000D01*
X138888570Y-102966888D01*
X138803937Y-102840226D01*
X138659774Y-102696063D01*
X138490256Y-102582795D01*
X138301898Y-102504774D01*
X138101939Y-102465000D01*
X137898061Y-102465000D01*
X137698102Y-102504774D01*
X137509744Y-102582795D01*
X137422316Y-102641212D01*
X137302889Y-102561414D01*
X137132729Y-102490932D01*
X136952089Y-102455000D01*
X136767911Y-102455000D01*
X136587271Y-102490932D01*
X136417111Y-102561414D01*
X136263972Y-102663738D01*
X136133738Y-102793972D01*
X136031414Y-102947111D01*
X135960932Y-103117271D01*
X135925000Y-103297911D01*
X135925000Y-103482089D01*
X135960932Y-103662729D01*
X136031414Y-103832889D01*
X136133738Y-103986028D01*
X136263972Y-104116262D01*
X136417111Y-104218586D01*
X136587271Y-104289068D01*
X136767911Y-104325000D01*
X136952089Y-104325000D01*
X137132729Y-104289068D01*
X137268938Y-104232649D01*
X137340226Y-104303937D01*
X137509744Y-104417205D01*
X137698102Y-104495226D01*
X137898061Y-104535000D01*
X138101939Y-104535000D01*
X138111430Y-104533112D01*
X138196063Y-104659774D01*
X138340226Y-104803937D01*
X138509744Y-104917205D01*
X138698102Y-104995226D01*
X138898061Y-105035000D01*
X139101939Y-105035000D01*
X139301898Y-104995226D01*
X139490256Y-104917205D01*
X139539035Y-104884612D01*
X139582795Y-104990256D01*
X139696063Y-105159774D01*
X139840226Y-105303937D01*
X140009744Y-105417205D01*
X140146556Y-105473875D01*
X140101939Y-105465000D01*
X139898061Y-105465000D01*
X139698102Y-105504774D01*
X139509744Y-105582795D01*
X139340226Y-105696063D01*
X139196063Y-105840226D01*
X139082795Y-106009744D01*
X139004774Y-106198102D01*
X138965000Y-106398061D01*
X138965000Y-106601939D01*
X139004774Y-106801898D01*
X139082795Y-106990256D01*
X139196063Y-107159774D01*
X139340226Y-107303937D01*
X139509744Y-107417205D01*
X139698102Y-107495226D01*
X139898061Y-107535000D01*
X140101939Y-107535000D01*
X140301898Y-107495226D01*
X140490256Y-107417205D01*
X140659774Y-107303937D01*
X140803937Y-107159774D01*
X140917205Y-106990256D01*
X140995226Y-106801898D01*
X141035000Y-106601939D01*
X141035000Y-106398061D01*
X141026125Y-106353444D01*
X141082795Y-106490256D01*
X141196063Y-106659774D01*
X141340226Y-106803937D01*
X141509744Y-106917205D01*
X141698102Y-106995226D01*
X141898061Y-107035000D01*
X141965000Y-107035000D01*
X141965000Y-107101939D01*
X142004774Y-107301898D01*
X142082795Y-107490256D01*
X142196063Y-107659774D01*
X142340226Y-107803937D01*
X142509744Y-107917205D01*
X142698102Y-107995226D01*
X142898061Y-108035000D01*
X143101939Y-108035000D01*
X143301898Y-107995226D01*
X143490256Y-107917205D01*
X143539035Y-107884612D01*
X143582795Y-107990256D01*
X143696063Y-108159774D01*
X143786289Y-108250000D01*
X143696063Y-108340226D01*
X143582795Y-108509744D01*
X143504774Y-108698102D01*
X143465000Y-108898061D01*
X143465000Y-109101939D01*
X143504774Y-109301898D01*
X143520556Y-109340000D01*
X140979444Y-109340000D01*
X140995226Y-109301898D01*
X141035000Y-109101939D01*
X141035000Y-108898061D01*
X140995226Y-108698102D01*
X140917205Y-108509744D01*
X140803937Y-108340226D01*
X140659774Y-108196063D01*
X140490256Y-108082795D01*
X140301898Y-108004774D01*
X140101939Y-107965000D01*
X139898061Y-107965000D01*
X139698102Y-108004774D01*
X139509744Y-108082795D01*
X139340226Y-108196063D01*
X139250000Y-108286289D01*
X139159774Y-108196063D01*
X138990256Y-108082795D01*
X138801898Y-108004774D01*
X138601939Y-107965000D01*
X138398061Y-107965000D01*
X138198102Y-108004774D01*
X138009744Y-108082795D01*
X137840226Y-108196063D01*
X137750000Y-108286289D01*
X137659774Y-108196063D01*
X137490256Y-108082795D01*
X137301898Y-108004774D01*
X137101939Y-107965000D01*
X136898061Y-107965000D01*
X136698102Y-108004774D01*
X136509744Y-108082795D01*
X136340226Y-108196063D01*
X136250000Y-108286289D01*
X136159774Y-108196063D01*
X135990256Y-108082795D01*
X135801898Y-108004774D01*
X135601939Y-107965000D01*
X135398061Y-107965000D01*
X135198102Y-108004774D01*
X135009744Y-108082795D01*
X134840226Y-108196063D01*
X134750000Y-108286289D01*
X134659774Y-108196063D01*
X134490256Y-108082795D01*
X134301898Y-108004774D01*
X134101939Y-107965000D01*
X133898061Y-107965000D01*
X133725313Y-107999361D01*
X133695226Y-107848102D01*
X133617205Y-107659744D01*
X133503937Y-107490226D01*
X133359774Y-107346063D01*
X133190256Y-107232795D01*
X133001898Y-107154774D01*
X132801939Y-107115000D01*
X132598061Y-107115000D01*
X132415000Y-107151413D01*
X132415000Y-106948061D01*
X132375226Y-106748102D01*
X132297205Y-106559744D01*
X132183937Y-106390226D01*
X132039774Y-106246063D01*
X131938002Y-106178061D01*
X135515000Y-106178061D01*
X135515000Y-106381939D01*
X135554774Y-106581898D01*
X135632795Y-106770256D01*
X135746063Y-106939774D01*
X135890226Y-107083937D01*
X136059744Y-107197205D01*
X136248102Y-107275226D01*
X136448061Y-107315000D01*
X136651939Y-107315000D01*
X136851898Y-107275226D01*
X137040256Y-107197205D01*
X137209774Y-107083937D01*
X137353937Y-106939774D01*
X137467205Y-106770256D01*
X137545226Y-106581898D01*
X137585000Y-106381939D01*
X137585000Y-106178061D01*
X137545226Y-105978102D01*
X137467205Y-105789744D01*
X137353937Y-105620226D01*
X137209774Y-105476063D01*
X137040256Y-105362795D01*
X136851898Y-105284774D01*
X136651939Y-105245000D01*
X136448061Y-105245000D01*
X136248102Y-105284774D01*
X136059744Y-105362795D01*
X135890226Y-105476063D01*
X135746063Y-105620226D01*
X135632795Y-105789744D01*
X135554774Y-105978102D01*
X135515000Y-106178061D01*
X131938002Y-106178061D01*
X131870256Y-106132795D01*
X131681898Y-106054774D01*
X131481939Y-106015000D01*
X131278061Y-106015000D01*
X131078102Y-106054774D01*
X130889744Y-106132795D01*
X130720226Y-106246063D01*
X130660000Y-106306289D01*
X130660000Y-103773711D01*
X130690226Y-103803937D01*
X130859744Y-103917205D01*
X131048102Y-103995226D01*
X131248061Y-104035000D01*
X131451939Y-104035000D01*
X131651898Y-103995226D01*
X131840256Y-103917205D01*
X132009774Y-103803937D01*
X132153937Y-103659774D01*
X132267205Y-103490256D01*
X132345226Y-103301898D01*
X132385000Y-103101939D01*
X132385000Y-102898061D01*
X132345226Y-102698102D01*
X132267205Y-102509744D01*
X132153937Y-102340226D01*
X132009774Y-102196063D01*
X131840256Y-102082795D01*
X131651898Y-102004774D01*
X131451939Y-101965000D01*
X131248061Y-101965000D01*
X131048102Y-102004774D01*
X130859744Y-102082795D01*
X130690226Y-102196063D01*
X130660000Y-102226289D01*
X130660000Y-101447911D01*
X138205012Y-101447911D01*
X138205012Y-101632089D01*
X138240944Y-101812729D01*
X138311426Y-101982889D01*
X138413750Y-102136028D01*
X138543984Y-102266262D01*
X138697123Y-102368586D01*
X138867283Y-102439068D01*
X139047923Y-102475000D01*
X139232101Y-102475000D01*
X139412741Y-102439068D01*
X139582901Y-102368586D01*
X139736040Y-102266262D01*
X139866274Y-102136028D01*
X139968598Y-101982889D01*
X140025590Y-101845297D01*
X142459998Y-101845297D01*
X142459998Y-102014703D01*
X142493047Y-102180853D01*
X142557876Y-102337363D01*
X142651993Y-102478218D01*
X142771780Y-102598005D01*
X142912635Y-102692122D01*
X143069145Y-102756951D01*
X143235295Y-102790000D01*
X143404701Y-102790000D01*
X143570851Y-102756951D01*
X143727361Y-102692122D01*
X143748629Y-102677911D01*
X147905000Y-102677911D01*
X147905000Y-102862089D01*
X147940932Y-103042729D01*
X148011414Y-103212889D01*
X148113738Y-103366028D01*
X148243972Y-103496262D01*
X148397111Y-103598586D01*
X148567271Y-103669068D01*
X148747911Y-103705000D01*
X148932089Y-103705000D01*
X149112729Y-103669068D01*
X149282889Y-103598586D01*
X149436028Y-103496262D01*
X149566262Y-103366028D01*
X149668586Y-103212889D01*
X149739068Y-103042729D01*
X149775000Y-102862089D01*
X149775000Y-102677911D01*
X149739068Y-102497271D01*
X149668586Y-102327111D01*
X149566262Y-102173972D01*
X149436028Y-102043738D01*
X149282889Y-101941414D01*
X149112729Y-101870932D01*
X148932089Y-101835000D01*
X148747911Y-101835000D01*
X148567271Y-101870932D01*
X148397111Y-101941414D01*
X148243972Y-102043738D01*
X148113738Y-102173972D01*
X148011414Y-102327111D01*
X147940932Y-102497271D01*
X147905000Y-102677911D01*
X143748629Y-102677911D01*
X143868216Y-102598005D01*
X143988003Y-102478218D01*
X144082120Y-102337363D01*
X144146949Y-102180853D01*
X144179998Y-102014703D01*
X144179998Y-101845297D01*
X144146949Y-101679147D01*
X144082120Y-101522637D01*
X143988003Y-101381782D01*
X143868216Y-101261995D01*
X143727361Y-101167878D01*
X143570851Y-101103049D01*
X143404701Y-101070000D01*
X143235295Y-101070000D01*
X143069145Y-101103049D01*
X142912635Y-101167878D01*
X142771780Y-101261995D01*
X142651993Y-101381782D01*
X142557876Y-101522637D01*
X142493047Y-101679147D01*
X142459998Y-101845297D01*
X140025590Y-101845297D01*
X140039080Y-101812729D01*
X140075012Y-101632089D01*
X140075012Y-101447911D01*
X140039080Y-101267271D01*
X139968598Y-101097111D01*
X139866274Y-100943972D01*
X139736040Y-100813738D01*
X139582901Y-100711414D01*
X139412741Y-100640932D01*
X139232101Y-100605000D01*
X139047923Y-100605000D01*
X138867283Y-100640932D01*
X138697123Y-100711414D01*
X138543984Y-100813738D01*
X138413750Y-100943972D01*
X138311426Y-101097111D01*
X138240944Y-101267271D01*
X138205012Y-101447911D01*
X130660000Y-101447911D01*
X130660000Y-99417911D01*
X139165000Y-99417911D01*
X139165000Y-99602089D01*
X139200932Y-99782729D01*
X139271414Y-99952889D01*
X139373738Y-100106028D01*
X139503972Y-100236262D01*
X139657111Y-100338586D01*
X139827271Y-100409068D01*
X140007911Y-100445000D01*
X140192089Y-100445000D01*
X140372729Y-100409068D01*
X140542889Y-100338586D01*
X140696028Y-100236262D01*
X140826262Y-100106028D01*
X140928586Y-99952889D01*
X140999068Y-99782729D01*
X141035000Y-99602089D01*
X141035000Y-99417911D01*
X140999068Y-99237271D01*
X140928586Y-99067111D01*
X140826262Y-98913972D01*
X140696028Y-98783738D01*
X140542889Y-98681414D01*
X140372729Y-98610932D01*
X140192089Y-98575000D01*
X140007911Y-98575000D01*
X139827271Y-98610932D01*
X139657111Y-98681414D01*
X139503972Y-98783738D01*
X139373738Y-98913972D01*
X139271414Y-99067111D01*
X139200932Y-99237271D01*
X139165000Y-99417911D01*
X130660000Y-99417911D01*
X130660000Y-97773711D01*
X130690226Y-97803937D01*
X130859744Y-97917205D01*
X131048102Y-97995226D01*
X131248061Y-98035000D01*
X131451939Y-98035000D01*
X131651898Y-97995226D01*
X131840256Y-97917205D01*
X132009774Y-97803937D01*
X132153937Y-97659774D01*
X132221999Y-97557911D01*
X134975000Y-97557911D01*
X134975000Y-97742089D01*
X135010932Y-97922729D01*
X135081414Y-98092889D01*
X135183738Y-98246028D01*
X135313972Y-98376262D01*
X135467111Y-98478586D01*
X135637271Y-98549068D01*
X135817911Y-98585000D01*
X136002089Y-98585000D01*
X136182729Y-98549068D01*
X136352889Y-98478586D01*
X136506028Y-98376262D01*
X136636262Y-98246028D01*
X136738586Y-98092889D01*
X136809068Y-97922729D01*
X136845000Y-97742089D01*
X136845000Y-97557911D01*
X136838069Y-97523067D01*
X136898061Y-97535000D01*
X137101939Y-97535000D01*
X137301898Y-97495226D01*
X137490256Y-97417205D01*
X137659774Y-97303937D01*
X137803937Y-97159774D01*
X137917205Y-96990256D01*
X137960965Y-96884612D01*
X138009744Y-96917205D01*
X138198102Y-96995226D01*
X138398061Y-97035000D01*
X138601939Y-97035000D01*
X138801898Y-96995226D01*
X138990256Y-96917205D01*
X139159774Y-96803937D01*
X139250000Y-96713711D01*
X139340226Y-96803937D01*
X139509744Y-96917205D01*
X139698102Y-96995226D01*
X139898061Y-97035000D01*
X140101939Y-97035000D01*
X140301898Y-96995226D01*
X140319970Y-96987740D01*
X140273738Y-97033972D01*
X140171414Y-97187111D01*
X140100932Y-97357271D01*
X140065000Y-97537911D01*
X140065000Y-97722089D01*
X140100932Y-97902729D01*
X140171414Y-98072889D01*
X140273738Y-98226028D01*
X140403972Y-98356262D01*
X140557111Y-98458586D01*
X140727271Y-98529068D01*
X140907911Y-98565000D01*
X141092089Y-98565000D01*
X141272729Y-98529068D01*
X141442889Y-98458586D01*
X141596028Y-98356262D01*
X141726262Y-98226028D01*
X141828586Y-98072889D01*
X141899068Y-97902729D01*
X141935000Y-97722089D01*
X141935000Y-97537911D01*
X141899068Y-97357271D01*
X141828586Y-97187111D01*
X141726262Y-97033972D01*
X141706493Y-97014203D01*
X141801898Y-96995226D01*
X141965000Y-96927666D01*
X141965000Y-97101939D01*
X142004774Y-97301898D01*
X142082795Y-97490256D01*
X142196063Y-97659774D01*
X142340226Y-97803937D01*
X142356109Y-97814550D01*
X142267111Y-97851414D01*
X142113972Y-97953738D01*
X141983738Y-98083972D01*
X141881414Y-98237111D01*
X141810932Y-98407271D01*
X141775000Y-98587911D01*
X141775000Y-98772089D01*
X141810932Y-98952729D01*
X141881414Y-99122889D01*
X141983738Y-99276028D01*
X142113972Y-99406262D01*
X142267111Y-99508586D01*
X142437271Y-99579068D01*
X142617911Y-99615000D01*
X142802089Y-99615000D01*
X142982729Y-99579068D01*
X143152889Y-99508586D01*
X143306028Y-99406262D01*
X143436262Y-99276028D01*
X143538586Y-99122889D01*
X143609068Y-98952729D01*
X143645000Y-98772089D01*
X143645000Y-98587911D01*
X143609068Y-98407271D01*
X143538586Y-98237111D01*
X143436262Y-98083972D01*
X143334155Y-97981865D01*
X143490256Y-97917205D01*
X143659774Y-97803937D01*
X143750000Y-97713711D01*
X143840226Y-97803937D01*
X144009744Y-97917205D01*
X144198102Y-97995226D01*
X144398061Y-98035000D01*
X144601939Y-98035000D01*
X144801898Y-97995226D01*
X144990256Y-97917205D01*
X145159774Y-97803937D01*
X145250000Y-97713711D01*
X145340226Y-97803937D01*
X145509744Y-97917205D01*
X145698102Y-97995226D01*
X145898061Y-98035000D01*
X146101939Y-98035000D01*
X146301898Y-97995226D01*
X146490256Y-97917205D01*
X146659774Y-97803937D01*
X146750000Y-97713711D01*
X146840226Y-97803937D01*
X147009744Y-97917205D01*
X147198102Y-97995226D01*
X147398061Y-98035000D01*
X147601939Y-98035000D01*
X147801898Y-97995226D01*
X147990256Y-97917205D01*
X148159774Y-97803937D01*
X148250000Y-97713711D01*
X148340226Y-97803937D01*
X148509744Y-97917205D01*
X148698102Y-97995226D01*
X148898061Y-98035000D01*
X149101939Y-98035000D01*
X149301898Y-97995226D01*
X149490256Y-97917205D01*
X149659774Y-97803937D01*
X149663711Y-97800000D01*
X151661928Y-97800000D01*
X151661928Y-102200000D01*
X151674188Y-102324482D01*
X151710498Y-102444180D01*
X151769463Y-102554494D01*
X151848815Y-102651185D01*
X151945506Y-102730537D01*
X152055820Y-102789502D01*
X152175518Y-102825812D01*
X152300000Y-102838072D01*
X156700000Y-102838072D01*
X156824482Y-102825812D01*
X156944180Y-102789502D01*
X157054494Y-102730537D01*
X157094249Y-102697911D01*
X157665000Y-102697911D01*
X157665000Y-102882089D01*
X157700932Y-103062729D01*
X157771414Y-103232889D01*
X157873738Y-103386028D01*
X158003972Y-103516262D01*
X158157111Y-103618586D01*
X158327271Y-103689068D01*
X158507911Y-103725000D01*
X158692089Y-103725000D01*
X158872729Y-103689068D01*
X159042889Y-103618586D01*
X159196028Y-103516262D01*
X159326262Y-103386028D01*
X159428586Y-103232889D01*
X159499068Y-103062729D01*
X159535000Y-102882089D01*
X159535000Y-102697911D01*
X159499068Y-102517271D01*
X159428586Y-102347111D01*
X159326262Y-102193972D01*
X159196028Y-102063738D01*
X159042889Y-101961414D01*
X158872729Y-101890932D01*
X158692089Y-101855000D01*
X158507911Y-101855000D01*
X158327271Y-101890932D01*
X158157111Y-101961414D01*
X158003972Y-102063738D01*
X157873738Y-102193972D01*
X157771414Y-102347111D01*
X157700932Y-102517271D01*
X157665000Y-102697911D01*
X157094249Y-102697911D01*
X157151185Y-102651185D01*
X157230537Y-102554494D01*
X157289502Y-102444180D01*
X157325812Y-102324482D01*
X157338072Y-102200000D01*
X157338072Y-97800000D01*
X157325812Y-97675518D01*
X157289502Y-97555820D01*
X157230537Y-97445506D01*
X157151185Y-97348815D01*
X157054494Y-97269463D01*
X156944180Y-97210498D01*
X156824482Y-97174188D01*
X156700000Y-97161928D01*
X152300000Y-97161928D01*
X152175518Y-97174188D01*
X152055820Y-97210498D01*
X151945506Y-97269463D01*
X151848815Y-97348815D01*
X151769463Y-97445506D01*
X151710498Y-97555820D01*
X151674188Y-97675518D01*
X151661928Y-97800000D01*
X149663711Y-97800000D01*
X149803937Y-97659774D01*
X149917205Y-97490256D01*
X149995226Y-97301898D01*
X150035000Y-97101939D01*
X150035000Y-96927666D01*
X150198102Y-96995226D01*
X150398061Y-97035000D01*
X150601939Y-97035000D01*
X150801898Y-96995226D01*
X150990256Y-96917205D01*
X151159774Y-96803937D01*
X151303937Y-96659774D01*
X151417205Y-96490256D01*
X151471051Y-96360261D01*
X151493049Y-96470853D01*
X151557878Y-96627363D01*
X151651995Y-96768218D01*
X151771782Y-96888005D01*
X151912637Y-96982122D01*
X152069147Y-97046951D01*
X152235297Y-97080000D01*
X152404703Y-97080000D01*
X152570853Y-97046951D01*
X152660004Y-97010023D01*
X152749155Y-97046951D01*
X152915305Y-97080000D01*
X153084711Y-97080000D01*
X153250861Y-97046951D01*
X153407371Y-96982122D01*
X153548226Y-96888005D01*
X153668013Y-96768218D01*
X153762130Y-96627363D01*
X153826959Y-96470853D01*
X153860008Y-96304703D01*
X153860008Y-96135297D01*
X153829844Y-95983650D01*
X153990256Y-95917205D01*
X154152491Y-95808804D01*
X154177271Y-95819068D01*
X154357911Y-95855000D01*
X154542089Y-95855000D01*
X154722729Y-95819068D01*
X154892889Y-95748586D01*
X155046028Y-95646262D01*
X155176262Y-95516028D01*
X155278586Y-95362889D01*
X155349068Y-95192729D01*
X155385000Y-95012089D01*
X155385000Y-94827911D01*
X155349068Y-94647271D01*
X155278586Y-94477111D01*
X155176262Y-94323972D01*
X155046028Y-94193738D01*
X154892889Y-94091414D01*
X154722729Y-94020932D01*
X154542089Y-93985000D01*
X154419382Y-93985000D01*
X154495226Y-93801898D01*
X154535000Y-93601939D01*
X154535000Y-93398061D01*
X154495226Y-93198102D01*
X154417205Y-93009744D01*
X154303937Y-92840226D01*
X154159774Y-92696063D01*
X153990256Y-92582795D01*
X153801898Y-92504774D01*
X153601939Y-92465000D01*
X153398061Y-92465000D01*
X153198102Y-92504774D01*
X153009744Y-92582795D01*
X152840226Y-92696063D01*
X152696063Y-92840226D01*
X152582795Y-93009744D01*
X152504774Y-93198102D01*
X152465000Y-93398061D01*
X152465000Y-93601939D01*
X152504774Y-93801898D01*
X152582795Y-93990256D01*
X152696063Y-94159774D01*
X152786289Y-94250000D01*
X152750000Y-94286289D01*
X152659774Y-94196063D01*
X152490256Y-94082795D01*
X152301898Y-94004774D01*
X152101939Y-93965000D01*
X151898061Y-93965000D01*
X151698102Y-94004774D01*
X151509744Y-94082795D01*
X151340226Y-94196063D01*
X151196063Y-94340226D01*
X151082795Y-94509744D01*
X151004774Y-94698102D01*
X150965000Y-94898061D01*
X150965000Y-95072334D01*
X150801898Y-95004774D01*
X150601939Y-94965000D01*
X150398061Y-94965000D01*
X150198102Y-95004774D01*
X150009744Y-95082795D01*
X149840226Y-95196063D01*
X149696063Y-95340226D01*
X149582795Y-95509744D01*
X149504774Y-95698102D01*
X149465000Y-95898061D01*
X149465000Y-96072334D01*
X149301898Y-96004774D01*
X149101939Y-95965000D01*
X148898061Y-95965000D01*
X148698102Y-96004774D01*
X148509744Y-96082795D01*
X148340226Y-96196063D01*
X148250000Y-96286289D01*
X148159774Y-96196063D01*
X147990256Y-96082795D01*
X147801898Y-96004774D01*
X147601939Y-95965000D01*
X147398061Y-95965000D01*
X147198102Y-96004774D01*
X147009744Y-96082795D01*
X146840226Y-96196063D01*
X146750000Y-96286289D01*
X146659774Y-96196063D01*
X146490256Y-96082795D01*
X146301898Y-96004774D01*
X146101939Y-95965000D01*
X145898061Y-95965000D01*
X145698102Y-96004774D01*
X145509744Y-96082795D01*
X145340226Y-96196063D01*
X145250000Y-96286289D01*
X145159774Y-96196063D01*
X144990256Y-96082795D01*
X144801898Y-96004774D01*
X144601939Y-95965000D01*
X144398061Y-95965000D01*
X144198102Y-96004774D01*
X144009744Y-96082795D01*
X143840226Y-96196063D01*
X143750000Y-96286289D01*
X143659774Y-96196063D01*
X143490256Y-96082795D01*
X143301898Y-96004774D01*
X143101939Y-95965000D01*
X142898061Y-95965000D01*
X142698102Y-96004774D01*
X142535000Y-96072334D01*
X142535000Y-95898061D01*
X142495226Y-95698102D01*
X142417205Y-95509744D01*
X142303937Y-95340226D01*
X142159774Y-95196063D01*
X141990256Y-95082795D01*
X141801898Y-95004774D01*
X141601939Y-94965000D01*
X141398061Y-94965000D01*
X141198102Y-95004774D01*
X141009744Y-95082795D01*
X140840226Y-95196063D01*
X140750000Y-95286289D01*
X140659774Y-95196063D01*
X140490256Y-95082795D01*
X140301898Y-95004774D01*
X140101939Y-94965000D01*
X139898061Y-94965000D01*
X139698102Y-95004774D01*
X139509744Y-95082795D01*
X139340226Y-95196063D01*
X139250000Y-95286289D01*
X139159774Y-95196063D01*
X138990256Y-95082795D01*
X138801898Y-95004774D01*
X138601939Y-94965000D01*
X138398061Y-94965000D01*
X138198102Y-95004774D01*
X138009744Y-95082795D01*
X137840226Y-95196063D01*
X137696063Y-95340226D01*
X137582795Y-95509744D01*
X137539035Y-95615388D01*
X137490256Y-95582795D01*
X137301898Y-95504774D01*
X137101939Y-95465000D01*
X136898061Y-95465000D01*
X136698102Y-95504774D01*
X136509744Y-95582795D01*
X136340226Y-95696063D01*
X136196063Y-95840226D01*
X136082795Y-96009744D01*
X136004774Y-96198102D01*
X135965000Y-96398061D01*
X135965000Y-96601939D01*
X135987489Y-96715000D01*
X135817911Y-96715000D01*
X135637271Y-96750932D01*
X135467111Y-96821414D01*
X135313972Y-96923738D01*
X135183738Y-97053972D01*
X135081414Y-97207111D01*
X135010932Y-97377271D01*
X134975000Y-97557911D01*
X132221999Y-97557911D01*
X132267205Y-97490256D01*
X132345226Y-97301898D01*
X132385000Y-97101939D01*
X132385000Y-96898061D01*
X132345226Y-96698102D01*
X132267205Y-96509744D01*
X132153937Y-96340226D01*
X132009774Y-96196063D01*
X131840256Y-96082795D01*
X131651898Y-96004774D01*
X131451939Y-95965000D01*
X131248061Y-95965000D01*
X131048102Y-96004774D01*
X130859744Y-96082795D01*
X130690226Y-96196063D01*
X130660000Y-96226289D01*
X130660000Y-93693711D01*
X130720226Y-93753937D01*
X130889744Y-93867205D01*
X131078102Y-93945226D01*
X131278061Y-93985000D01*
X131481939Y-93985000D01*
X131681898Y-93945226D01*
X131870256Y-93867205D01*
X132039774Y-93753937D01*
X132175650Y-93618061D01*
X135515000Y-93618061D01*
X135515000Y-93821939D01*
X135554774Y-94021898D01*
X135632795Y-94210256D01*
X135746063Y-94379774D01*
X135890226Y-94523937D01*
X136059744Y-94637205D01*
X136248102Y-94715226D01*
X136448061Y-94755000D01*
X136651939Y-94755000D01*
X136851898Y-94715226D01*
X137040256Y-94637205D01*
X137209774Y-94523937D01*
X137353937Y-94379774D01*
X137467205Y-94210256D01*
X137545226Y-94021898D01*
X137561666Y-93939247D01*
X137582795Y-93990256D01*
X137696063Y-94159774D01*
X137840226Y-94303937D01*
X138009744Y-94417205D01*
X138198102Y-94495226D01*
X138398061Y-94535000D01*
X138601939Y-94535000D01*
X138801898Y-94495226D01*
X138990256Y-94417205D01*
X139159774Y-94303937D01*
X139303937Y-94159774D01*
X139417205Y-93990256D01*
X139495226Y-93801898D01*
X139535000Y-93601939D01*
X139535000Y-93398061D01*
X140465000Y-93398061D01*
X140465000Y-93601939D01*
X140504774Y-93801898D01*
X140582795Y-93990256D01*
X140696063Y-94159774D01*
X140840226Y-94303937D01*
X141009744Y-94417205D01*
X141198102Y-94495226D01*
X141398061Y-94535000D01*
X141601939Y-94535000D01*
X141801898Y-94495226D01*
X141990256Y-94417205D01*
X142159774Y-94303937D01*
X142303937Y-94159774D01*
X142417205Y-93990256D01*
X142495226Y-93801898D01*
X142535000Y-93601939D01*
X142535000Y-93398061D01*
X143465000Y-93398061D01*
X143465000Y-93601939D01*
X143504774Y-93801898D01*
X143582795Y-93990256D01*
X143696063Y-94159774D01*
X143840226Y-94303937D01*
X144009744Y-94417205D01*
X144198102Y-94495226D01*
X144398061Y-94535000D01*
X144601939Y-94535000D01*
X144801898Y-94495226D01*
X144990256Y-94417205D01*
X145159774Y-94303937D01*
X145303937Y-94159774D01*
X145417205Y-93990256D01*
X145495226Y-93801898D01*
X145535000Y-93601939D01*
X145535000Y-93398061D01*
X146465000Y-93398061D01*
X146465000Y-93601939D01*
X146504774Y-93801898D01*
X146582795Y-93990256D01*
X146696063Y-94159774D01*
X146840226Y-94303937D01*
X147009744Y-94417205D01*
X147198102Y-94495226D01*
X147398061Y-94535000D01*
X147601939Y-94535000D01*
X147801898Y-94495226D01*
X147990256Y-94417205D01*
X148159774Y-94303937D01*
X148303937Y-94159774D01*
X148417205Y-93990256D01*
X148495226Y-93801898D01*
X148535000Y-93601939D01*
X148535000Y-93398061D01*
X149465000Y-93398061D01*
X149465000Y-93601939D01*
X149504774Y-93801898D01*
X149582795Y-93990256D01*
X149696063Y-94159774D01*
X149840226Y-94303937D01*
X150009744Y-94417205D01*
X150198102Y-94495226D01*
X150398061Y-94535000D01*
X150601939Y-94535000D01*
X150801898Y-94495226D01*
X150990256Y-94417205D01*
X151159774Y-94303937D01*
X151303937Y-94159774D01*
X151417205Y-93990256D01*
X151495226Y-93801898D01*
X151535000Y-93601939D01*
X151535000Y-93398061D01*
X151495226Y-93198102D01*
X151417205Y-93009744D01*
X151303937Y-92840226D01*
X151159774Y-92696063D01*
X150990256Y-92582795D01*
X150801898Y-92504774D01*
X150601939Y-92465000D01*
X150398061Y-92465000D01*
X150198102Y-92504774D01*
X150009744Y-92582795D01*
X149840226Y-92696063D01*
X149696063Y-92840226D01*
X149582795Y-93009744D01*
X149504774Y-93198102D01*
X149465000Y-93398061D01*
X148535000Y-93398061D01*
X148495226Y-93198102D01*
X148417205Y-93009744D01*
X148303937Y-92840226D01*
X148159774Y-92696063D01*
X147990256Y-92582795D01*
X147801898Y-92504774D01*
X147601939Y-92465000D01*
X147398061Y-92465000D01*
X147198102Y-92504774D01*
X147009744Y-92582795D01*
X146840226Y-92696063D01*
X146696063Y-92840226D01*
X146582795Y-93009744D01*
X146504774Y-93198102D01*
X146465000Y-93398061D01*
X145535000Y-93398061D01*
X145495226Y-93198102D01*
X145417205Y-93009744D01*
X145303937Y-92840226D01*
X145159774Y-92696063D01*
X144990256Y-92582795D01*
X144801898Y-92504774D01*
X144601939Y-92465000D01*
X144398061Y-92465000D01*
X144198102Y-92504774D01*
X144009744Y-92582795D01*
X143840226Y-92696063D01*
X143696063Y-92840226D01*
X143582795Y-93009744D01*
X143504774Y-93198102D01*
X143465000Y-93398061D01*
X142535000Y-93398061D01*
X142495226Y-93198102D01*
X142417205Y-93009744D01*
X142303937Y-92840226D01*
X142159774Y-92696063D01*
X141990256Y-92582795D01*
X141801898Y-92504774D01*
X141601939Y-92465000D01*
X141398061Y-92465000D01*
X141198102Y-92504774D01*
X141009744Y-92582795D01*
X140840226Y-92696063D01*
X140696063Y-92840226D01*
X140582795Y-93009744D01*
X140504774Y-93198102D01*
X140465000Y-93398061D01*
X139535000Y-93398061D01*
X139495226Y-93198102D01*
X139417205Y-93009744D01*
X139303937Y-92840226D01*
X139159774Y-92696063D01*
X138990256Y-92582795D01*
X138801898Y-92504774D01*
X138601939Y-92465000D01*
X138398061Y-92465000D01*
X138198102Y-92504774D01*
X138009744Y-92582795D01*
X137840226Y-92696063D01*
X137696063Y-92840226D01*
X137582795Y-93009744D01*
X137504774Y-93198102D01*
X137488334Y-93280753D01*
X137467205Y-93229744D01*
X137353937Y-93060226D01*
X137209774Y-92916063D01*
X137040256Y-92802795D01*
X136851898Y-92724774D01*
X136651939Y-92685000D01*
X136448061Y-92685000D01*
X136248102Y-92724774D01*
X136059744Y-92802795D01*
X135890226Y-92916063D01*
X135746063Y-93060226D01*
X135632795Y-93229744D01*
X135554774Y-93418102D01*
X135515000Y-93618061D01*
X132175650Y-93618061D01*
X132183937Y-93609774D01*
X132297205Y-93440256D01*
X132375226Y-93251898D01*
X132415000Y-93051939D01*
X132415000Y-92848587D01*
X132598061Y-92885000D01*
X132801939Y-92885000D01*
X133001898Y-92845226D01*
X133190256Y-92767205D01*
X133359774Y-92653937D01*
X133503937Y-92509774D01*
X133617205Y-92340256D01*
X133695226Y-92151898D01*
X133725313Y-92000639D01*
X133898061Y-92035000D01*
X134101939Y-92035000D01*
X134301898Y-91995226D01*
X134490256Y-91917205D01*
X134659774Y-91803937D01*
X134750000Y-91713711D01*
X134840226Y-91803937D01*
X135009744Y-91917205D01*
X135198102Y-91995226D01*
X135398061Y-92035000D01*
X135601939Y-92035000D01*
X135801898Y-91995226D01*
X135990256Y-91917205D01*
X136159774Y-91803937D01*
X136250000Y-91713711D01*
X136340226Y-91803937D01*
X136509744Y-91917205D01*
X136698102Y-91995226D01*
X136898061Y-92035000D01*
X137101939Y-92035000D01*
X137301898Y-91995226D01*
X137490256Y-91917205D01*
X137659774Y-91803937D01*
X137750000Y-91713711D01*
X137840226Y-91803937D01*
X138009744Y-91917205D01*
X138198102Y-91995226D01*
X138398061Y-92035000D01*
X138601939Y-92035000D01*
X138801898Y-91995226D01*
X138990256Y-91917205D01*
X139159774Y-91803937D01*
X139250000Y-91713711D01*
X139340226Y-91803937D01*
X139509744Y-91917205D01*
X139698102Y-91995226D01*
X139898061Y-92035000D01*
X140101939Y-92035000D01*
X140301898Y-91995226D01*
X140490256Y-91917205D01*
X140659774Y-91803937D01*
X140750000Y-91713711D01*
X140840226Y-91803937D01*
X141009744Y-91917205D01*
X141198102Y-91995226D01*
X141398061Y-92035000D01*
X141601939Y-92035000D01*
X141801898Y-91995226D01*
X141990256Y-91917205D01*
X142159774Y-91803937D01*
X142250000Y-91713711D01*
X142340226Y-91803937D01*
X142509744Y-91917205D01*
X142698102Y-91995226D01*
X142898061Y-92035000D01*
X143101939Y-92035000D01*
X143301898Y-91995226D01*
X143490256Y-91917205D01*
X143659774Y-91803937D01*
X143750000Y-91713711D01*
X143840226Y-91803937D01*
X144009744Y-91917205D01*
X144198102Y-91995226D01*
X144398061Y-92035000D01*
X144601939Y-92035000D01*
X144801898Y-91995226D01*
X144990256Y-91917205D01*
X145159774Y-91803937D01*
X145250000Y-91713711D01*
X145340226Y-91803937D01*
X145509744Y-91917205D01*
X145698102Y-91995226D01*
X145898061Y-92035000D01*
X146101939Y-92035000D01*
X146301898Y-91995226D01*
X146490256Y-91917205D01*
X146659774Y-91803937D01*
X146750000Y-91713711D01*
X146840226Y-91803937D01*
X147009744Y-91917205D01*
X147198102Y-91995226D01*
X147398061Y-92035000D01*
X147601939Y-92035000D01*
X147801898Y-91995226D01*
X147990256Y-91917205D01*
X148159774Y-91803937D01*
X148250000Y-91713711D01*
X148340226Y-91803937D01*
X148509744Y-91917205D01*
X148698102Y-91995226D01*
X148898061Y-92035000D01*
X149101939Y-92035000D01*
X149301898Y-91995226D01*
X149490256Y-91917205D01*
X149659774Y-91803937D01*
X149750000Y-91713711D01*
X149840226Y-91803937D01*
X150009744Y-91917205D01*
X150198102Y-91995226D01*
X150398061Y-92035000D01*
X150601939Y-92035000D01*
X150801898Y-91995226D01*
X150990256Y-91917205D01*
X151159774Y-91803937D01*
X151250000Y-91713711D01*
X151340226Y-91803937D01*
X151509744Y-91917205D01*
X151698102Y-91995226D01*
X151898061Y-92035000D01*
X152101939Y-92035000D01*
X152301898Y-91995226D01*
X152490256Y-91917205D01*
X152659774Y-91803937D01*
X152750000Y-91713711D01*
X152840226Y-91803937D01*
X153009744Y-91917205D01*
X153198102Y-91995226D01*
X153398061Y-92035000D01*
X153601939Y-92035000D01*
X153801898Y-91995226D01*
X153990256Y-91917205D01*
X154159774Y-91803937D01*
X154250000Y-91713711D01*
X154340226Y-91803937D01*
X154509744Y-91917205D01*
X154698102Y-91995226D01*
X154898061Y-92035000D01*
X155101939Y-92035000D01*
X155301898Y-91995226D01*
X155490256Y-91917205D01*
X155659774Y-91803937D01*
X155750000Y-91713711D01*
X155840226Y-91803937D01*
X156009744Y-91917205D01*
X156198102Y-91995226D01*
X156398061Y-92035000D01*
X156601939Y-92035000D01*
X156801898Y-91995226D01*
X156990256Y-91917205D01*
X157159774Y-91803937D01*
X157250000Y-91713711D01*
X157340226Y-91803937D01*
X157509744Y-91917205D01*
X157698102Y-91995226D01*
X157898061Y-92035000D01*
X158101939Y-92035000D01*
X158301898Y-91995226D01*
X158490256Y-91917205D01*
X158659774Y-91803937D01*
X158750000Y-91713711D01*
X158840226Y-91803937D01*
X159009744Y-91917205D01*
X159198102Y-91995226D01*
X159398061Y-92035000D01*
X159601939Y-92035000D01*
X159801898Y-91995226D01*
X159990256Y-91917205D01*
X160159774Y-91803937D01*
X160250000Y-91713711D01*
X160340226Y-91803937D01*
X160509744Y-91917205D01*
X160698102Y-91995226D01*
X160898061Y-92035000D01*
X161101939Y-92035000D01*
X161301898Y-91995226D01*
X161490256Y-91917205D01*
X161659774Y-91803937D01*
X161750000Y-91713711D01*
X161840226Y-91803937D01*
X162009744Y-91917205D01*
X162198102Y-91995226D01*
X162398061Y-92035000D01*
X162601939Y-92035000D01*
X162801898Y-91995226D01*
X162990256Y-91917205D01*
X163159774Y-91803937D01*
X163250000Y-91713711D01*
X163340226Y-91803937D01*
G37*
%TD.AperFunction*%
%TD*%
M02*
